<svg width="533" height="207" viewBox="0 0 533 207" fill="none" xmlns="http://www.w3.org/2000/svg">
<g opacity="0.99">
<path d="M517.568 63.072C513.728 63.072 510.496 62.208 507.872 60.48C505.248 58.688 503.264 56.384 501.92 53.568C500.64 50.752 500 47.776 500 44.64C500 40.736 500.896 37.248 502.688 34.176C504.48 31.04 506.912 28.576 509.984 26.784C513.12 24.928 516.544 24 520.256 24C523.904 24 526.656 24.96 528.512 26.88C530.432 28.8 531.392 31.488 531.392 34.944C531.392 35.776 531.296 36.416 531.104 36.864C530.976 37.248 530.688 37.44 530.24 37.44H524.864C525.12 33.536 524.544 30.656 523.136 28.8C521.728 26.88 519.712 25.92 517.088 25.92C513.696 25.92 511.04 27.264 509.12 29.952C507.264 32.64 506.336 36.32 506.336 40.992C506.336 44.64 506.912 47.872 508.064 50.688C509.216 53.504 510.912 55.712 513.152 57.312C515.392 58.912 518.112 59.712 521.312 59.712C523.488 59.712 525.28 59.392 526.688 58.752C528.096 58.112 531.092 54.4 532.5 53.568C532.308 53.248 532.628 53.44 532.5 53.568C533.5 53.568 530.048 57.6191 531.392 56.5C529.152 58.484 527.04 60.928 524.672 61.824C522.368 62.656 520 63.072 517.568 63.072ZM504.608 37.536L504.512 36.288L526.304 35.904V37.44L504.608 37.536Z" fill="#171717"/>
<path d="M465.152 63.304C464.96 63.304 464.864 63.112 464.864 62.728C464.864 62.344 464.96 62.152 465.152 62.152C467.648 62.152 469.248 61.736 469.952 60.904C470.72 60.008 471.104 58.216 471.104 55.528V39.976C471.104 36.136 470.4 33.352 468.992 31.624C467.584 29.832 465.344 28.936 462.272 28.936C459.968 28.936 457.6 29.672 455.168 31.144C452.736 32.616 450.656 34.632 448.928 37.192L448.544 36.04C451.36 32.264 454.144 29.48 456.896 27.688C459.712 25.896 462.56 25 465.44 25C468.96 25 471.68 25.992 473.6 27.976C475.584 29.896 476.576 32.808 476.576 36.712V55.528C476.576 58.216 476.928 60.008 477.632 60.904C478.4 61.736 480.032 62.152 482.528 62.152C482.72 62.152 482.816 62.344 482.816 62.728C482.816 63.112 482.72 63.304 482.528 63.304C481.44 63.304 480.128 63.272 478.592 63.208C477.12 63.144 475.552 63.112 473.888 63.112C472.224 63.112 470.624 63.144 469.088 63.208C467.552 63.272 466.24 63.304 465.152 63.304ZM439.328 63.304C439.136 63.304 439.04 63.112 439.04 62.728C439.04 62.344 439.136 62.152 439.328 62.152C441.824 62.152 443.424 61.736 444.128 60.904C444.896 60.008 445.28 58.216 445.28 55.528V36.52C445.28 34.408 445.024 32.872 444.512 31.912C444.064 30.888 443.2 30.376 441.92 30.376C441.28 30.376 440.512 30.504 439.616 30.76C438.784 31.016 437.824 31.368 436.736 31.816C436.48 31.88 436.256 31.752 436.064 31.432C435.936 31.112 436 30.888 436.256 30.76L447.392 25.48C447.584 25.416 447.776 25.384 447.968 25.384C448.416 25.384 448.992 26.056 449.696 27.4C450.4 28.744 450.752 30.696 450.752 33.256V55.528C450.752 58.216 451.104 60.008 451.808 60.904C452.576 61.736 454.208 62.152 456.704 62.152C456.896 62.152 456.992 62.344 456.992 62.728C456.992 63.112 456.896 63.304 456.704 63.304C455.616 63.304 454.304 63.272 452.768 63.208C451.296 63.144 449.728 63.112 448.064 63.112C446.4 63.112 444.8 63.144 443.264 63.208C441.728 63.272 440.416 63.304 439.328 63.304Z" fill="#171717"/>
<path d="M398.72 63.552C394.944 63.552 391.648 62.624 388.832 60.768C386.016 58.912 383.84 56.448 382.304 53.376C380.768 50.24 380 46.88 380 43.296C380 39.968 380.608 37.088 381.824 34.656C383.04 32.224 384.672 30.24 386.72 28.704C388.768 27.104 390.976 25.92 393.344 25.152C395.776 24.384 398.144 24 400.448 24C404.352 24 407.68 24.96 410.432 26.88C413.248 28.8 415.392 31.264 416.864 34.272C418.336 37.28 419.072 40.448 419.072 43.776C419.072 47.872 418.144 51.392 416.288 54.336C414.432 57.28 411.968 59.552 408.896 61.152C405.824 62.752 402.432 63.552 398.72 63.552ZM401.504 61.728C404.896 61.728 407.584 60.544 409.568 58.176C411.552 55.744 412.544 51.84 412.544 46.464C412.544 42.432 411.872 38.88 410.528 35.808C409.248 32.672 407.456 30.24 405.152 28.512C402.848 26.72 400.224 25.824 397.28 25.824C393.888 25.824 391.232 27.072 389.312 29.568C387.392 32.064 386.432 35.648 386.432 40.32C386.432 44.224 387.072 47.808 388.352 51.072C389.632 54.336 391.392 56.928 393.632 58.848C395.936 60.768 398.56 61.728 401.504 61.728Z" fill="#171717"/>
<path d="M329.4 4.512C325.432 4.512 322.424 5.536 320.376 7.584C318.392 9.632 316.952 13.12 316.056 18.048C316.056 18.176 315.864 18.24 315.48 18.24C315.16 18.24 315 18.176 315 18.048C315.128 17.216 315.256 16.064 315.384 14.592C315.512 13.056 315.64 11.424 315.768 9.696C315.96 7.968 316.088 6.304 316.152 4.704C316.28 3.04 316.344 1.696 316.344 0.672003C316.344 0.352003 316.504 0.192003 316.824 0.192003C317.208 0.192003 317.4 0.352003 317.4 0.672003C317.4 1.312 317.72 1.792 318.36 2.112C319 2.368 319.704 2.56 320.472 2.688C321.304 2.752 322.008 2.784 322.584 2.784C328.088 2.976 334.52 3.072 341.88 3.072C346.424 3.072 350.008 3.04 352.632 2.976C355.32 2.848 357.912 2.784 360.408 2.784C362.584 2.784 364.248 2.656 365.4 2.4C366.616 2.08 367.384 1.408 367.704 0.384001C367.768 0.128 367.96 0 368.28 0C368.6 0 368.76 0.128 368.76 0.384001C368.696 1.344 368.6 2.656 368.472 4.32C368.344 5.984 368.248 7.71201 368.184 9.50401C368.12 11.296 368.056 12.96 367.992 14.496C367.928 16.032 367.896 17.216 367.896 18.048C367.896 18.176 367.704 18.24 367.32 18.24C366.936 18.24 366.744 18.176 366.744 18.048C366.552 13.056 365.528 9.568 363.672 7.584C361.816 5.536 358.744 4.512 354.456 4.512C351.768 4.512 349.752 4.64 348.408 4.896C347.064 5.152 346.168 5.728 345.72 6.624C345.336 7.456 345.144 8.832 345.144 10.752V55.008C345.144 56.864 345.368 58.272 345.816 59.232C346.264 60.192 347.128 60.832 348.408 61.152C349.752 61.472 351.768 61.632 354.456 61.632C354.648 61.632 354.744 61.824 354.744 62.208C354.744 62.592 354.648 62.784 354.456 62.784C352.792 62.784 350.904 62.752 348.792 62.688C346.68 62.624 344.376 62.592 341.88 62.592C339.512 62.592 337.272 62.624 335.16 62.688C333.048 62.752 331.128 62.784 329.4 62.784C329.272 62.784 329.208 62.592 329.208 62.208C329.208 61.824 329.272 61.632 329.4 61.632C332.024 61.632 334.008 61.472 335.352 61.152C336.76 60.832 337.688 60.192 338.136 59.232C338.584 58.272 338.808 56.864 338.808 55.008V10.56C338.808 8.64 338.584 7.264 338.136 6.432C337.688 5.536 336.792 4.992 335.448 4.8C334.104 4.608 332.088 4.512 329.4 4.512Z" fill="#171717"/>
<path d="M256.768 62.592C256.512 62.72 256.256 62.784 256 62.784C255.168 62.784 254.368 62.112 253.6 60.768C252.832 59.36 252.448 57.344 252.448 54.72V36.576C252.448 32.608 251.872 29.824 250.72 28.224C249.632 26.624 248.192 25.824 246.4 25.824C244.8 25.824 243.488 26.24 242.464 27.072C241.44 27.84 240.672 28.768 240.16 29.856C239.712 30.944 239.392 31.968 239.2 32.928C239.008 33.824 238.688 34.72 238.24 35.616C237.792 36.448 236.896 36.864 235.552 36.864C234.464 36.864 233.664 36.576 233.152 36C232.64 35.36 232.384 34.688 232.384 33.984C232.384 32.768 232.96 31.584 234.112 30.432C235.328 29.28 236.832 28.224 238.624 27.264C240.48 26.24 242.4 25.44 244.384 24.864C246.432 24.288 248.256 24 249.856 24C252.48 24 254.464 24.864 255.808 26.592C257.152 28.256 257.824 30.624 257.824 33.696V51.648C257.824 53.888 258.112 55.52 258.688 56.544C259.264 57.568 260.192 58.08 261.472 58.08C262.624 58.08 264.224 57.664 266.272 56.832C266.592 56.704 266.816 56.832 266.944 57.216C267.072 57.536 266.976 57.76 266.656 57.888L256.768 62.592ZM239.488 62.688C237.056 62.688 235.2 62.048 233.92 60.768C232.64 59.424 232 57.856 232 56.064C232 54.784 232.32 53.632 232.96 52.608C233.664 51.52 234.752 50.528 236.224 49.632C237.696 48.736 239.584 47.872 241.888 47.04L253.408 42.72L253.696 43.968L243.52 47.904C242.368 48.352 241.408 48.864 240.64 49.44C239.872 50.016 239.296 50.656 238.912 51.36C238.592 52.064 238.432 52.832 238.432 53.664C238.432 55.136 238.912 56.416 239.872 57.504C240.832 58.592 242.144 59.136 243.808 59.136C244.448 59.136 245.12 59.04 245.824 58.848C246.528 58.656 247.392 58.24 248.416 57.6L254.464 53.952L254.656 55.2L247.552 59.808C246.016 60.832 244.608 61.568 243.328 62.016C242.112 62.464 240.832 62.688 239.488 62.688Z" fill="#171717"/>
<path d="M197.093 60.216C196.965 60.216 196.901 60.024 196.901 59.64C196.901 59.256 196.965 59.064 197.093 59.064C199.589 59.064 201.221 58.648 201.989 57.816C202.821 56.92 203.237 55.128 203.237 52.44V34.488C203.237 32.248 203.013 30.616 202.565 29.592C202.117 28.504 201.285 27.96 200.069 27.96C199.557 27.96 198.949 28.088 198.245 28.344C197.541 28.536 196.709 28.856 195.749 29.304C195.493 29.368 195.269 29.24 195.077 28.92C194.949 28.536 194.981 28.28 195.173 28.152L207.653 22.392C207.845 22.328 207.973 22.296 208.037 22.296C208.165 22.296 208.325 22.392 208.517 22.584C208.709 22.712 208.805 22.872 208.805 23.064C208.805 23.576 208.773 24.824 208.709 26.808C208.645 28.792 208.613 31.32 208.613 34.392V52.44C208.613 55.128 208.965 56.92 209.669 57.816C210.437 58.648 212.101 59.064 214.661 59.064C214.853 59.064 214.949 59.256 214.949 59.64C214.949 60.024 214.853 60.216 214.661 60.216C213.509 60.216 212.165 60.184 210.629 60.12C209.157 60.056 207.589 60.024 205.925 60.024C204.261 60.024 202.661 60.056 201.125 60.12C199.653 60.184 198.309 60.216 197.093 60.216ZM205.157 11.064C203.877 11.064 202.853 10.712 202.085 10.008C201.317 9.304 200.933 8.312 200.933 7.032C200.933 5.752 201.317 4.76 202.085 4.056C202.853 3.352 203.877 3 205.157 3C206.437 3 207.429 3.352 208.133 4.056C208.837 4.76 209.189 5.752 209.189 7.032C209.189 9.72 207.845 11.064 205.157 11.064Z" fill="#171717"/>
<path d="M159.736 35.904L159.352 34.848C161.72 31.968 163.672 29.76 165.208 28.224C166.744 26.624 168.056 25.536 169.144 24.96C170.296 24.32 171.384 24 172.408 24C173.752 24 175.064 24.384 176.344 25.152C177.688 25.92 178.36 26.848 178.36 27.936C178.36 28.768 178.072 29.472 177.496 30.048C176.984 30.624 176.216 30.912 175.192 30.912C174.36 30.912 173.656 30.656 173.08 30.144C172.504 29.632 171.896 29.152 171.256 28.704C170.616 28.256 169.784 28.032 168.76 28.032C168.184 28.032 167.576 28.192 166.936 28.512C166.296 28.832 165.432 29.568 164.344 30.72C163.256 31.808 161.72 33.536 159.736 35.904ZM150.328 61.92C150.136 61.92 150.04 61.728 150.04 61.344C150.04 60.96 150.136 60.768 150.328 60.768C152.824 60.768 154.424 60.352 155.128 59.52C155.896 58.624 156.28 56.832 156.28 54.144V35.136C156.28 33.024 156.024 31.488 155.512 30.528C155.064 29.504 154.2 28.992 152.92 28.992C152.28 28.992 151.512 29.12 150.616 29.376C149.784 29.632 148.824 29.984 147.736 30.432C147.48 30.496 147.256 30.368 147.064 30.048C146.936 29.728 147 29.504 147.256 29.376L158.392 24.096C158.584 24.032 158.776 24 158.968 24C159.416 24 159.992 24.672 160.696 26.016C161.4 27.36 161.752 29.312 161.752 31.872V54.144C161.752 55.936 161.976 57.344 162.424 58.368C162.872 59.328 163.768 59.968 165.112 60.288C166.456 60.608 168.44 60.768 171.064 60.768C171.32 60.768 171.448 60.96 171.448 61.344C171.448 61.728 171.32 61.92 171.064 61.92C169.528 61.92 167.704 61.888 165.592 61.824C163.544 61.76 161.368 61.728 159.064 61.728C157.4 61.728 155.8 61.76 154.264 61.824C152.728 61.888 151.416 61.92 150.328 61.92Z" fill="#171717"/>
<path d="M100.056 62.688C96.92 62.688 94.424 61.696 92.568 59.712C90.776 57.664 89.88 54.72 89.88 50.88V36.192C89.88 33.696 89.656 31.904 89.208 30.816C88.824 29.664 88.088 29.088 87 29.088C86.104 29.088 85.016 29.408 83.736 30.048C83.48 30.112 83.256 29.952 83.064 29.568C82.936 29.184 83 28.96 83.256 28.896L93.912 24.096C94.04 24.032 94.168 24 94.296 24C94.488 24 94.68 24.096 94.872 24.288C95.128 24.416 95.256 24.576 95.256 24.768V47.712C95.256 51.488 95.928 54.304 97.272 56.16C98.616 57.952 100.632 58.848 103.32 58.848C105.752 58.848 108.184 58.112 110.616 56.64C113.112 55.168 115.288 53.184 117.144 50.688L117.624 51.744C114.68 55.52 111.768 58.304 108.888 60.096C106.072 61.824 103.128 62.688 100.056 62.688ZM120.696 24.768V51.648C120.696 53.824 120.952 55.392 121.464 56.352C121.976 57.312 122.84 57.792 124.056 57.792C124.696 57.792 125.4 57.696 126.168 57.504C127 57.248 127.992 56.896 129.144 56.448C129.464 56.32 129.688 56.448 129.816 56.832C129.944 57.152 129.88 57.376 129.624 57.504L118.392 62.784C118.264 62.848 118.136 62.88 118.008 62.88C117.496 62.88 116.92 62.208 116.28 60.864C115.64 59.456 115.32 57.472 115.32 54.912V36.192C115.32 33.696 115.096 31.904 114.648 30.816C114.264 29.664 113.528 29.088 112.44 29.088C111.544 29.088 110.456 29.408 109.176 30.048C108.92 30.112 108.728 29.952 108.6 29.568C108.472 29.184 108.536 28.96 108.792 28.896L119.448 24.096C119.576 24.032 119.672 24 119.736 24C119.928 24 120.12 24.096 120.312 24.288C120.568 24.416 120.696 24.576 120.696 24.768Z" fill="#171717"/>
<path d="M18.912 35.752L19.872 33.832H45.312L45.984 35.752H18.912ZM67.392 61C67.648 61 71.7755 59.656 71.7755 60.04C71.7755 60.424 67.648 62.152 67.392 62.152C65.536 62.152 63.648 62.088 61.728 61.96C59.808 61.832 57.952 61.768 56.16 61.768C54.176 61.768 52.448 61.832 50.976 61.96C49.504 62.088 47.872 62.152 46.08 62.152C45.824 62.152 45.696 61.96 45.696 61.576C45.696 61.192 45.824 61 46.08 61C49.472 61 51.584 60.52 52.416 59.56C53.248 58.536 53.024 56.648 51.744 53.896L30.432 8.872L32.832 5.896L14.208 49.96C12.608 53.864 12.512 56.68 13.92 58.408C15.328 60.136 18.112 61 22.272 61C22.592 61 22.752 61.192 22.752 61.576C22.752 61.96 22.592 62.152 22.272 62.152C20.352 62.152 18.592 62.088 16.992 61.96C15.392 61.832 13.376 61.768 10.944 61.768C8.64 61.768 6.78399 61.832 5.37599 61.96C4.03199 62.088 2.36799 62.152 0.383987 62.152C0.127987 62.152 0 61.96 0 61.576C0 61.192 0.127987 61 0.383987 61C2.11199 61 3.616 60.68 4.896 60.04C6.176 59.336 7.36 58.152 8.448 56.488C9.6 54.76 10.848 52.296 12.192 49.096L32.448 1.288C32.576 1.096 32.8 1 33.12 1C33.44 1 33.632 1.096 33.696 1.288L50.976 39.152C52.448 42.288 59.136 54.6 60.288 56.392C61.44 58.12 62.56 59.336 63.648 60.04C64.8 60.68 66.048 61 67.392 61Z" fill="#171717"/>
</g>
<path d="M20.5 151L293 104L362.5 151L509.5 104" stroke="#C98E82" stroke-width="2" stroke-linecap="round"/>
<path d="M83.3977 184.086L84.9163 183.831L85.414 186.789L83.8953 187.045L83.3977 184.086ZM85.3285 195.565L86.8472 195.31L87.7661 200.773L86.2475 201.028L85.3285 195.565ZM81.7459 187.65L83.2843 187.391C83.3317 188.316 83.3055 189.165 83.2059 189.939C83.104 190.7 82.8694 191.395 82.5021 192.025C82.1479 192.652 81.6173 193.235 80.91 193.773C80.2138 194.296 79.2906 194.796 78.1405 195.273C78.079 195.149 77.99 195.022 77.8736 194.892C77.7682 194.748 77.6507 194.612 77.5212 194.485C77.3895 194.345 77.2556 194.232 77.1196 194.147C78.1755 193.753 79.0188 193.341 79.6495 192.91C80.291 192.464 80.7715 191.985 81.0907 191.471C81.4078 190.945 81.6086 190.37 81.6931 189.748C81.7755 189.112 81.793 188.413 81.7459 187.65ZM86.1374 186.87L87.5969 186.625L88.3003 190.806C88.3401 191.043 88.4181 191.185 88.5344 191.233C88.6506 191.281 88.8862 191.276 89.2412 191.216C89.3333 191.2 89.4911 191.174 89.7146 191.136C89.9381 191.099 90.1879 191.057 90.4641 191.01C90.7533 190.961 91.0163 190.917 91.253 190.877C91.5028 190.835 91.6803 190.806 91.7855 190.788C91.9827 190.755 92.1218 190.697 92.2028 190.616C92.2947 190.52 92.3416 190.356 92.3435 190.126C92.3562 189.881 92.3305 189.527 92.2662 189.064C92.3847 189.125 92.5218 189.177 92.6775 189.218C92.8463 189.257 93.0141 189.29 93.1807 189.316C93.3605 189.34 93.5194 189.36 93.6575 189.378C93.7089 190.005 93.6976 190.5 93.6236 190.864C93.5496 191.228 93.3999 191.503 93.1744 191.69C92.9467 191.863 92.6093 191.988 92.1622 192.063C92.0571 192.081 91.8664 192.113 91.5903 192.159C91.3273 192.203 91.038 192.252 90.7225 192.305C90.4069 192.358 90.1111 192.408 89.8349 192.455C89.572 192.499 89.401 192.528 89.3221 192.541C88.7436 192.638 88.2877 192.661 87.9544 192.609C87.6212 192.556 87.3722 192.402 87.2074 192.146C87.0426 191.89 86.9204 191.525 86.8408 191.052L86.1374 186.87ZM76.2283 187.402L92.9336 184.592L93.5307 188.142L92.0121 188.397L91.6438 186.208L77.9167 188.517L78.3579 191.14L76.8984 191.386L76.2283 187.402ZM79.4238 195.909L93.0129 193.624L93.2418 194.984L79.6527 197.27L79.4238 195.909ZM78.252 201.603L95.6279 198.68L95.8568 200.041L78.4809 202.964L78.252 201.603ZM109.868 192.066L115.844 191.061L116.037 192.205L110.06 193.21L109.868 192.066ZM109.288 189.101L116.014 187.97L117.225 195.169L110.499 196.3L110.303 195.136L115.648 194.237L114.829 189.366L109.484 190.265L109.288 189.101ZM108.657 189.207L109.998 188.982L111.378 197.186L110.037 197.412L108.657 189.207ZM104.089 184.358L109.572 183.436L109.755 184.52L104.272 185.443L104.089 184.358ZM113.182 182.828L118.783 181.886L118.965 182.971L113.364 183.913L113.182 182.828ZM117.681 179.192L119.18 178.94L121.761 194.284C121.838 194.744 121.833 195.117 121.746 195.402C121.672 195.685 121.482 195.92 121.175 196.106C120.881 196.291 120.461 196.443 119.913 196.562C119.378 196.679 118.703 196.806 117.888 196.943C117.838 196.803 117.77 196.645 117.687 196.47C117.603 196.295 117.507 196.122 117.397 195.951C117.3 195.778 117.208 195.631 117.12 195.511C117.517 195.458 117.899 195.4 118.267 195.338C118.648 195.274 118.984 195.218 119.273 195.169C119.562 195.12 119.766 195.086 119.884 195.066C120.053 195.024 120.165 194.965 120.22 194.888C120.274 194.811 120.287 194.687 120.258 194.516L117.681 179.192ZM103.737 181.537L110.048 180.476L111.186 187.241L104.875 188.302L104.685 187.178L109.616 186.349L108.86 181.852L103.929 182.681L103.737 181.537ZM118.43 179.066L118.623 180.21L113.435 181.082L114.195 185.599L119.382 184.726L119.575 185.87L112.987 186.978L111.843 180.174L118.43 179.066ZM102.888 181.68L104.368 181.431L107.281 198.748L105.801 198.997L102.888 181.68ZM137.505 175.634L138.906 175.398L139.31 177.805C139.403 178.357 139.437 178.96 139.412 179.613C139.386 180.266 139.246 180.918 138.99 181.57C138.735 182.221 138.292 182.843 137.662 183.436C137.578 183.342 137.454 183.248 137.29 183.154C137.136 183.045 136.977 182.943 136.812 182.849C136.659 182.739 136.525 182.667 136.411 182.632C136.971 182.106 137.369 181.579 137.605 181.052C137.839 180.513 137.967 179.984 137.988 179.467C138.009 178.95 137.981 178.461 137.903 178.001L137.505 175.634ZM142.298 174.828L143.718 174.589L144.531 179.421C144.568 179.645 144.612 179.786 144.663 179.845C144.724 179.889 144.834 179.897 144.992 179.871C145.044 179.862 145.136 179.846 145.268 179.824C145.399 179.802 145.537 179.779 145.682 179.755C145.827 179.73 145.932 179.713 145.998 179.702C146.103 179.684 146.174 179.625 146.211 179.524C146.261 179.421 146.274 179.216 146.25 178.909C146.236 178.587 146.176 178.11 146.07 177.479C146.234 177.573 146.449 177.645 146.715 177.695C146.98 177.745 147.216 177.78 147.422 177.799C147.513 178.581 147.534 179.193 147.487 179.634C147.453 180.072 147.344 180.394 147.163 180.601C146.992 180.792 146.729 180.917 146.374 180.977C146.282 180.992 146.144 181.015 145.96 181.046C145.776 181.077 145.585 181.109 145.388 181.143C145.204 181.174 145.073 181.196 144.994 181.209C144.586 181.278 144.255 181.279 144.001 181.214C143.76 181.146 143.572 180.995 143.438 180.761C143.302 180.513 143.194 180.153 143.114 179.68L142.298 174.828ZM140.133 184.744C141.091 186.341 142.382 187.624 144.005 188.595C145.642 189.564 147.495 190.131 149.565 190.297C149.475 190.406 149.377 190.551 149.273 190.731C149.181 190.909 149.089 191.087 148.997 191.264C148.918 191.44 148.85 191.593 148.791 191.725C146.653 191.476 144.743 190.81 143.06 189.728C141.388 188.63 139.996 187.187 138.884 185.4L140.133 184.744ZM145.423 182.435L145.699 182.388L145.946 182.286L146.975 182.498C146.852 183.857 146.56 185.096 146.099 186.215C145.65 187.318 145.075 188.321 144.374 189.223C143.674 190.125 142.874 190.915 141.974 191.594C141.09 192.283 140.129 192.878 139.09 193.377C139.029 193.252 138.938 193.112 138.817 192.956C138.698 192.814 138.573 192.673 138.441 192.533C138.31 192.393 138.183 192.285 138.063 192.211C139.018 191.78 139.917 191.257 140.76 190.642C141.603 190.027 142.357 189.326 143.022 188.538C143.698 187.734 144.245 186.845 144.662 185.869C145.079 184.893 145.347 183.833 145.466 182.691L145.423 182.435ZM137.554 183.758L145.995 182.339L146.224 183.699L137.782 185.119L137.554 183.758ZM138.097 175.534L143.028 174.705L143.25 176.026L138.319 176.856L138.097 175.534ZM130.298 182.342L136.176 181.354L136.371 182.517L130.494 183.506L130.298 182.342ZM129.488 177.043L135.247 176.075L135.446 177.258L129.687 178.227L129.488 177.043ZM130.739 184.966L136.617 183.977L136.816 185.16L130.938 186.149L130.739 184.966ZM128.897 179.8L136.411 178.536L136.62 179.778L129.106 181.042L128.897 179.8ZM131.878 187.512L137.045 186.643L138.014 192.402L132.846 193.271L132.641 192.048L136.506 191.398L135.952 188.104L132.087 188.755L131.878 187.512ZM131.148 187.635L132.45 187.416L133.571 194.082L132.269 194.301L131.148 187.635ZM163.937 177.475L174.508 175.697L174.754 177.156L164.182 178.934L163.937 177.475ZM167.447 170.009L168.926 169.76L171.968 187.846L170.489 188.095L167.447 170.009ZM156.924 177.864L163.078 176.829L163.273 177.992L157.12 179.027L156.924 177.864ZM156.134 172.561L162.208 171.539L162.407 172.723L156.333 173.745L156.134 172.561ZM157.365 180.487L163.519 179.452L163.718 180.635L157.564 181.67L157.365 180.487ZM155.523 175.321L163.373 174L163.582 175.243L155.732 176.563L155.523 175.321ZM158.503 183.033L163.908 182.124L164.876 187.883L159.472 188.792L159.267 187.57L163.349 186.883L162.795 183.589L158.712 184.276L158.503 183.033ZM157.774 183.156L159.095 182.934L160.217 189.6L158.895 189.822L157.774 183.156ZM189.901 166.171L191.4 165.919L194.174 182.408C194.249 182.855 194.232 183.196 194.123 183.43C194.029 183.676 193.833 183.878 193.535 184.036C193.25 184.192 192.841 184.329 192.306 184.446C191.785 184.56 191.11 184.687 190.281 184.827C190.211 184.649 190.102 184.445 189.955 184.212C189.81 183.993 189.671 183.814 189.54 183.674C189.936 183.621 190.319 183.563 190.687 183.501C191.068 183.437 191.396 183.375 191.67 183.316C191.959 183.267 192.156 183.234 192.261 183.216C192.443 183.172 192.562 183.111 192.616 183.035C192.684 182.956 192.704 182.831 192.675 182.66L189.901 166.171ZM182.435 169.05L199.555 166.17L199.761 167.393L182.641 170.273L182.435 169.05ZM186.504 171.894L186.739 173.295L196.897 171.586L196.661 170.186L186.504 171.894ZM184.908 171.088L197.984 168.888L198.571 172.379L185.495 174.579L184.908 171.088ZM185.159 176.075L199.122 173.726L200.327 180.886L198.828 181.138L197.806 175.063L185.341 177.16L185.159 176.075ZM183.7 178.856L201.588 175.847L201.787 177.03L183.899 180.039L183.7 178.856ZM185.844 181.233L199.255 178.977L199.451 180.141L186.039 182.397L185.844 181.233ZM208.765 164.012L215.49 162.881L215.706 164.163L208.98 165.294L208.765 164.012ZM218.093 172.807L226.633 171.37L226.848 172.652L218.308 174.089L218.093 172.807ZM209.55 170.005L216.965 168.758L217.188 170.079L209.772 171.327L209.55 170.005ZM213.11 169.954L214.53 169.715L216.037 178.669C216.099 179.037 216.101 179.334 216.045 179.56C215.99 179.799 215.842 180.007 215.602 180.182C215.369 180.33 215.052 180.451 214.649 180.545C214.259 180.638 213.761 180.735 213.156 180.837C213.099 180.657 213.001 180.437 212.863 180.177C212.74 179.927 212.609 179.712 212.47 179.533C212.907 179.473 213.296 179.414 213.637 179.357C213.995 179.31 214.231 179.27 214.347 179.237C214.464 179.204 214.538 179.165 214.571 179.119C214.617 179.07 214.631 178.994 214.613 178.888L213.11 169.954ZM226.14 171.453L227.639 171.201C227.639 171.201 227.645 171.281 227.659 171.441C227.685 171.599 227.702 171.738 227.709 171.859C227.796 173.101 227.834 174.129 227.822 174.943C227.821 175.741 227.784 176.369 227.713 176.827C227.641 177.285 227.523 177.629 227.359 177.86C227.219 178.073 227.056 178.229 226.87 178.327C226.699 178.437 226.478 178.529 226.206 178.601C225.985 178.652 225.677 178.711 225.283 178.777C224.888 178.843 224.459 178.902 223.994 178.953C223.945 178.745 223.866 178.515 223.756 178.263C223.648 178.024 223.519 177.816 223.367 177.639C223.808 177.605 224.207 177.565 224.564 177.519C224.921 177.472 225.179 177.436 225.336 177.409C225.507 177.38 225.637 177.345 225.724 177.303C225.825 177.259 225.915 177.19 225.994 177.096C226.101 176.929 226.188 176.644 226.255 176.24C226.323 175.837 226.348 175.265 226.332 174.524C226.328 173.781 226.277 172.83 226.176 171.67L226.14 171.453ZM221.433 170.237L222.912 169.988C222.986 170.99 222.994 171.962 222.936 172.905C222.891 173.845 222.724 174.739 222.434 175.585C222.157 176.43 221.715 177.221 221.109 177.958C220.503 178.695 219.678 179.375 218.633 179.997C218.525 179.839 218.366 179.657 218.155 179.449C217.947 179.254 217.753 179.104 217.573 178.999C218.534 178.445 219.292 177.845 219.845 177.197C220.397 176.536 220.793 175.841 221.036 175.111C221.289 174.365 221.434 173.583 221.473 172.766C221.511 171.948 221.498 171.105 221.433 170.237ZM210.009 167.19L210.773 166.068C211.376 166.196 212.001 166.375 212.648 166.604C213.306 166.818 213.927 167.052 214.51 167.305C215.105 167.543 215.592 167.786 215.971 168.033L215.168 169.283C214.801 169.034 214.325 168.776 213.74 168.51C213.167 168.241 212.551 167.993 211.891 167.766C211.241 167.524 210.614 167.332 210.009 167.19ZM216.571 168.824L216.788 168.788L216.992 168.672L217.972 168.832C217.901 169.696 217.795 170.592 217.653 171.522C217.523 172.436 217.351 173.222 217.138 173.88L216.026 173.54C216.187 172.972 216.32 172.274 216.424 171.445C216.525 170.603 216.589 169.815 216.614 169.081L216.571 168.824ZM223.76 163.214L225.341 163.212C225.096 164.483 224.65 165.613 224.005 166.6C223.373 167.585 222.581 168.462 221.628 169.231C220.689 169.997 219.628 170.683 218.446 171.287C218.375 171.191 218.274 171.073 218.142 170.933C218.009 170.779 217.864 170.642 217.708 170.519C217.563 170.381 217.43 170.275 217.31 170.201C218.468 169.695 219.499 169.109 220.401 168.444C221.314 167.763 222.057 166.996 222.63 166.142C223.214 165.273 223.591 164.297 223.76 163.214ZM219.108 161.238L220.574 161.397C220.389 162.145 220.135 162.884 219.812 163.614C219.486 164.332 219.128 165.014 218.736 165.661C218.345 166.308 217.935 166.884 217.506 167.389C217.401 167.326 217.267 167.254 217.104 167.173C216.94 167.079 216.77 166.992 216.594 166.914C216.419 166.835 216.266 166.773 216.137 166.727C216.816 166.018 217.419 165.186 217.948 164.232C218.475 163.265 218.862 162.267 219.108 161.238ZM219.277 164.414C219.894 165.189 220.651 165.873 221.549 166.466C222.446 167.058 223.444 167.526 224.543 167.869C225.653 168.196 226.82 168.385 228.045 168.435C227.958 168.558 227.861 168.703 227.753 168.87C227.659 169.034 227.573 169.204 227.494 169.38C227.416 169.555 227.348 169.715 227.291 169.86C226.04 169.733 224.846 169.467 223.71 169.063C222.571 168.646 221.526 168.099 220.574 167.421C219.621 166.743 218.798 165.948 218.104 165.037L219.277 164.414ZM212.893 169.869L213.962 170.074C213.871 170.982 213.706 171.929 213.467 172.916C213.24 173.9 212.957 174.827 212.616 175.695C212.288 176.562 211.905 177.296 211.465 177.897C211.353 177.713 211.196 177.503 210.994 177.266C210.803 177.014 210.626 176.808 210.464 176.646C210.875 176.117 211.248 175.479 211.582 174.734C211.914 173.975 212.192 173.177 212.417 172.342C212.652 171.491 212.811 170.667 212.893 169.869ZM219.026 163.402L226.54 162.138L226.752 163.4L218.607 164.77L219.026 163.402ZM215.135 162.941L215.47 162.884L215.697 162.785L216.766 163.234C216.539 163.732 216.255 164.253 215.914 164.797C215.571 165.328 215.198 165.844 214.795 166.344C214.39 166.832 213.99 167.264 213.594 167.642C213.442 167.545 213.257 167.448 213.037 167.35C212.816 167.238 212.626 167.155 212.468 167.101C212.84 166.741 213.198 166.336 213.542 165.886C213.898 165.434 214.22 164.974 214.506 164.507C214.804 164.024 215.029 163.594 215.182 163.217L215.135 162.941ZM235.486 159.619L244.006 158.186L244.235 159.547L235.715 160.98L235.486 159.619ZM246.356 163.591L254.284 162.257L254.523 163.677L246.594 165.011L246.356 163.591ZM250.788 163.778L252.248 163.533L254.016 174.045L252.556 174.291L250.788 163.778ZM244.981 158.914L246.914 159.076C246.912 159.225 246.796 159.339 246.566 159.418L247.326 163.935C247.461 164.737 247.567 165.611 247.646 166.558C247.722 167.492 247.723 168.465 247.65 169.478C247.59 170.488 247.415 171.498 247.125 172.507C246.835 173.516 246.382 174.478 245.765 175.392C245.679 175.285 245.56 175.177 245.406 175.068C245.266 174.956 245.107 174.854 244.929 174.762C244.764 174.668 244.618 174.605 244.491 174.572C245.064 173.719 245.478 172.845 245.733 171.95C246.002 171.053 246.162 170.154 246.213 169.253C246.262 168.339 246.248 167.456 246.173 166.603C246.095 165.737 245.991 164.923 245.863 164.161L244.981 158.914ZM236.793 162.928L238.213 162.689L239.109 168.014C239.215 168.646 239.303 169.327 239.372 170.059C239.454 170.789 239.492 171.54 239.487 172.311C239.492 173.067 239.443 173.819 239.339 174.567C239.233 175.301 239.031 175.991 238.734 176.636C238.653 176.555 238.53 176.468 238.365 176.374C238.203 176.293 238.033 176.206 237.855 176.115C237.693 176.034 237.555 175.976 237.441 175.941C237.779 175.14 237.981 174.288 238.045 173.385C238.109 172.482 238.095 171.592 238.002 170.715C237.919 169.823 237.814 168.996 237.686 168.234L236.793 162.928ZM251.477 156.057L252.964 156.943C252.373 157.367 251.694 157.792 250.928 158.218C250.159 158.631 249.362 159.036 248.536 159.432C247.708 159.814 246.895 160.167 246.098 160.491C246.032 160.34 245.926 160.155 245.781 159.936C245.636 159.717 245.498 159.537 245.366 159.397C246.122 159.067 246.881 158.716 247.643 158.345C248.419 157.971 249.138 157.586 249.802 157.191C250.478 156.793 251.037 156.415 251.477 156.057ZM237.621 162.789L244.071 161.704L245.106 167.857L238.657 168.942L238.431 167.601L243.441 166.758L242.86 163.307L237.85 164.15L237.621 162.789Z" fill="#171717"/>
</svg>
