<svg width="572" height="134" viewBox="0 0 572 134" fill="none" xmlns="http://www.w3.org/2000/svg">
<path opacity="0.86" d="M542.4 123.78V132.92H541.92V123.78H542.4ZM528.663 126.34C528.651 126.563 528.638 126.791 528.621 127.024V127.032C528.582 127.745 528.498 128.472 528.368 129.213L528.366 129.221C528.25 129.943 528.083 130.651 527.864 131.347C527.714 131.813 527.523 132.25 527.295 132.657C527.174 132.569 527.049 132.477 526.92 132.38L526.916 132.376C527.283 131.713 527.561 131.001 527.746 130.238C527.965 129.332 528.103 128.424 528.158 127.516L528.159 127.517C528.189 127.113 528.211 126.721 528.227 126.34H528.663ZM537.44 123.78C537.432 123.934 537.424 124.091 537.414 124.249L537.362 124.938C537.284 125.843 537.129 126.778 536.894 127.741L536.892 127.748C536.674 128.698 536.347 129.63 535.909 130.544C535.558 131.278 535.107 131.965 534.558 132.61C534.442 132.487 534.314 132.372 534.175 132.263C534.729 131.611 535.182 130.925 535.528 130.199L535.529 130.2C535.959 129.327 536.279 128.43 536.488 127.511V127.509C536.642 126.823 536.757 126.147 536.834 125.482L536.898 124.819C536.925 124.465 536.946 124.118 536.963 123.78H537.44ZM534.64 120.1V125.34H529.697C529.699 125.225 529.7 125.112 529.7 125V124.98H534.18V120.48H529.7V120.1H534.64ZM528.7 121.48V123.98H528.26V121.48H528.7ZM544.62 122.34V122.78H543.4V122.34H544.62ZM540.92 122.34V122.78H538.474C538.477 122.631 538.48 122.485 538.48 122.34H540.92ZM537.48 121.34H537V119.327L537.448 119.228C537.459 119.225 537.47 119.222 537.48 119.22V121.34ZM543.777 116.252C543.5 116.373 543.21 116.494 542.905 116.611L542.313 116.828C541.498 117.104 540.657 117.367 539.789 117.617C539.432 117.715 539.077 117.806 538.727 117.895C538.794 117.807 538.848 117.702 538.872 117.57L538.885 117.494C539.042 117.449 539.2 117.406 539.358 117.36L539.359 117.361C540.198 117.117 540.986 116.852 541.721 116.566L541.72 116.565C542.326 116.334 542.858 116.098 543.315 115.861L543.777 116.252ZM535.16 116.62V117H527.52V116.62H535.16Z" fill="#E6E6E6" stroke="#E6E6E6"/>
<g opacity="0.86">
<mask id="path-2-inside-1_110_96" fill="white">
<path d="M499.94 116.02H506.76V117.32H499.94V116.02ZM507.68 126.24H516.34V127.54H507.68V126.24ZM499.72 122.06H507.24V123.4H499.72V122.06ZM503.24 122.6H504.68V131.68C504.68 132.053 504.633 132.347 504.54 132.56C504.447 132.787 504.267 132.967 504 133.1C503.747 133.207 503.413 133.273 503 133.3C502.6 133.327 502.093 133.34 501.48 133.34C501.453 133.153 501.393 132.92 501.3 132.64C501.22 132.373 501.127 132.14 501.02 131.94C501.46 131.953 501.853 131.96 502.2 131.96C502.56 131.973 502.8 131.973 502.92 131.96C503.04 131.947 503.12 131.92 503.16 131.88C503.213 131.84 503.24 131.767 503.24 131.66V122.6ZM515.84 126.24H517.36C517.36 126.24 517.353 126.32 517.34 126.48C517.34 126.64 517.333 126.78 517.32 126.9C517.2 128.14 517.067 129.16 516.92 129.96C516.787 130.747 516.647 131.36 516.5 131.8C516.353 132.24 516.18 132.56 515.98 132.76C515.807 132.947 515.62 133.073 515.42 133.14C515.233 133.22 515 133.273 514.72 133.3C514.493 133.313 514.18 133.32 513.78 133.32C513.38 133.32 512.947 133.307 512.48 133.28C512.467 133.067 512.427 132.827 512.36 132.56C512.293 132.307 512.2 132.08 512.08 131.88C512.52 131.92 512.92 131.947 513.28 131.96C513.64 131.973 513.9 131.98 514.06 131.98C514.233 131.98 514.367 131.967 514.46 131.94C514.567 131.913 514.667 131.86 514.76 131.78C514.893 131.633 515.027 131.367 515.16 130.98C515.293 130.593 515.413 130.033 515.52 129.3C515.64 128.567 515.747 127.62 515.84 126.46V126.24ZM511.4 124.26H512.9C512.807 125.26 512.653 126.22 512.44 127.14C512.24 128.06 511.927 128.913 511.5 129.7C511.087 130.487 510.52 131.193 509.8 131.82C509.08 132.447 508.153 132.98 507.02 133.42C506.94 133.247 506.813 133.04 506.64 132.8C506.467 132.573 506.3 132.393 506.14 132.26C507.18 131.873 508.027 131.407 508.68 130.86C509.333 130.3 509.84 129.68 510.2 129C510.573 128.307 510.847 127.56 511.02 126.76C511.193 125.96 511.32 125.127 511.4 124.26ZM500.64 119.36L501.58 118.38C502.153 118.607 502.74 118.887 503.34 119.22C503.953 119.54 504.527 119.873 505.06 120.22C505.607 120.553 506.047 120.873 506.38 121.18L505.38 122.28C505.06 121.973 504.633 121.64 504.1 121.28C503.58 120.92 503.013 120.573 502.4 120.24C501.8 119.893 501.213 119.6 500.64 119.36ZM506.84 122.06H507.06L507.28 121.98L508.22 122.3C508.007 123.14 507.753 124.007 507.46 124.9C507.18 125.78 506.88 126.527 506.56 127.14L505.52 126.62C505.773 126.087 506.02 125.42 506.26 124.62C506.5 123.807 506.693 123.04 506.84 122.32V122.06ZM514.86 117.72L516.42 117.98C515.967 119.193 515.34 120.233 514.54 121.1C513.753 121.967 512.827 122.7 511.76 123.3C510.707 123.9 509.547 124.4 508.28 124.8C508.227 124.693 508.147 124.56 508.04 124.4C507.933 124.227 507.813 124.067 507.68 123.92C507.56 123.76 507.447 123.633 507.34 123.54C508.567 123.233 509.68 122.827 510.68 122.32C511.693 121.8 512.553 121.167 513.26 120.42C513.98 119.66 514.513 118.76 514.86 117.72ZM510.6 115L512.02 115.4C511.713 116.107 511.34 116.793 510.9 117.46C510.46 118.113 509.993 118.727 509.5 119.3C509.007 119.873 508.507 120.373 508 120.8C507.907 120.72 507.787 120.627 507.64 120.52C507.493 120.4 507.34 120.287 507.18 120.18C507.02 120.073 506.88 119.987 506.76 119.92C507.547 119.333 508.28 118.613 508.96 117.76C509.64 116.893 510.187 115.973 510.6 115ZM510.24 118.16C510.72 119.027 511.353 119.827 512.14 120.56C512.927 121.293 513.833 121.92 514.86 122.44C515.9 122.947 517.02 123.327 518.22 123.58C518.113 123.687 517.993 123.813 517.86 123.96C517.74 124.107 517.627 124.26 517.52 124.42C517.413 124.58 517.32 124.727 517.24 124.86C516.027 124.527 514.893 124.067 513.84 123.48C512.787 122.88 511.847 122.167 511.02 121.34C510.193 120.513 509.513 119.593 508.98 118.58L510.24 118.16ZM503.04 122.48L504.06 122.86C503.82 123.74 503.5 124.647 503.1 125.58C502.713 126.513 502.28 127.38 501.8 128.18C501.333 128.98 500.833 129.64 500.3 130.16C500.22 129.96 500.1 129.727 499.94 129.46C499.793 129.18 499.653 128.947 499.52 128.76C500.013 128.307 500.487 127.74 500.94 127.06C501.393 126.367 501.8 125.627 502.16 124.84C502.533 124.04 502.827 123.253 503.04 122.48ZM510.16 117.12H517.78V118.4H509.52L510.16 117.12ZM506.4 116.02H506.74L506.98 115.96L507.96 116.58C507.653 117.033 507.287 117.5 506.86 117.98C506.433 118.447 505.98 118.893 505.5 119.32C505.02 119.733 504.553 120.093 504.1 120.4C503.967 120.28 503.8 120.153 503.6 120.02C503.4 119.873 503.227 119.76 503.08 119.68C503.507 119.387 503.927 119.047 504.34 118.66C504.767 118.273 505.16 117.873 505.52 117.46C505.893 117.033 506.187 116.647 506.4 116.3V116.02Z"/>
</mask>
<path d="M499.94 116.02H506.76V117.32H499.94V116.02ZM507.68 126.24H516.34V127.54H507.68V126.24ZM499.72 122.06H507.24V123.4H499.72V122.06ZM503.24 122.6H504.68V131.68C504.68 132.053 504.633 132.347 504.54 132.56C504.447 132.787 504.267 132.967 504 133.1C503.747 133.207 503.413 133.273 503 133.3C502.6 133.327 502.093 133.34 501.48 133.34C501.453 133.153 501.393 132.92 501.3 132.64C501.22 132.373 501.127 132.14 501.02 131.94C501.46 131.953 501.853 131.96 502.2 131.96C502.56 131.973 502.8 131.973 502.92 131.96C503.04 131.947 503.12 131.92 503.16 131.88C503.213 131.84 503.24 131.767 503.24 131.66V122.6ZM515.84 126.24H517.36C517.36 126.24 517.353 126.32 517.34 126.48C517.34 126.64 517.333 126.78 517.32 126.9C517.2 128.14 517.067 129.16 516.92 129.96C516.787 130.747 516.647 131.36 516.5 131.8C516.353 132.24 516.18 132.56 515.98 132.76C515.807 132.947 515.62 133.073 515.42 133.14C515.233 133.22 515 133.273 514.72 133.3C514.493 133.313 514.18 133.32 513.78 133.32C513.38 133.32 512.947 133.307 512.48 133.28C512.467 133.067 512.427 132.827 512.36 132.56C512.293 132.307 512.2 132.08 512.08 131.88C512.52 131.92 512.92 131.947 513.28 131.96C513.64 131.973 513.9 131.98 514.06 131.98C514.233 131.98 514.367 131.967 514.46 131.94C514.567 131.913 514.667 131.86 514.76 131.78C514.893 131.633 515.027 131.367 515.16 130.98C515.293 130.593 515.413 130.033 515.52 129.3C515.64 128.567 515.747 127.62 515.84 126.46V126.24ZM511.4 124.26H512.9C512.807 125.26 512.653 126.22 512.44 127.14C512.24 128.06 511.927 128.913 511.5 129.7C511.087 130.487 510.52 131.193 509.8 131.82C509.08 132.447 508.153 132.98 507.02 133.42C506.94 133.247 506.813 133.04 506.64 132.8C506.467 132.573 506.3 132.393 506.14 132.26C507.18 131.873 508.027 131.407 508.68 130.86C509.333 130.3 509.84 129.68 510.2 129C510.573 128.307 510.847 127.56 511.02 126.76C511.193 125.96 511.32 125.127 511.4 124.26ZM500.64 119.36L501.58 118.38C502.153 118.607 502.74 118.887 503.34 119.22C503.953 119.54 504.527 119.873 505.06 120.22C505.607 120.553 506.047 120.873 506.38 121.18L505.38 122.28C505.06 121.973 504.633 121.64 504.1 121.28C503.58 120.92 503.013 120.573 502.4 120.24C501.8 119.893 501.213 119.6 500.64 119.36ZM506.84 122.06H507.06L507.28 121.98L508.22 122.3C508.007 123.14 507.753 124.007 507.46 124.9C507.18 125.78 506.88 126.527 506.56 127.14L505.52 126.62C505.773 126.087 506.02 125.42 506.26 124.62C506.5 123.807 506.693 123.04 506.84 122.32V122.06ZM514.86 117.72L516.42 117.98C515.967 119.193 515.34 120.233 514.54 121.1C513.753 121.967 512.827 122.7 511.76 123.3C510.707 123.9 509.547 124.4 508.28 124.8C508.227 124.693 508.147 124.56 508.04 124.4C507.933 124.227 507.813 124.067 507.68 123.92C507.56 123.76 507.447 123.633 507.34 123.54C508.567 123.233 509.68 122.827 510.68 122.32C511.693 121.8 512.553 121.167 513.26 120.42C513.98 119.66 514.513 118.76 514.86 117.72ZM510.6 115L512.02 115.4C511.713 116.107 511.34 116.793 510.9 117.46C510.46 118.113 509.993 118.727 509.5 119.3C509.007 119.873 508.507 120.373 508 120.8C507.907 120.72 507.787 120.627 507.64 120.52C507.493 120.4 507.34 120.287 507.18 120.18C507.02 120.073 506.88 119.987 506.76 119.92C507.547 119.333 508.28 118.613 508.96 117.76C509.64 116.893 510.187 115.973 510.6 115ZM510.24 118.16C510.72 119.027 511.353 119.827 512.14 120.56C512.927 121.293 513.833 121.92 514.86 122.44C515.9 122.947 517.02 123.327 518.22 123.58C518.113 123.687 517.993 123.813 517.86 123.96C517.74 124.107 517.627 124.26 517.52 124.42C517.413 124.58 517.32 124.727 517.24 124.86C516.027 124.527 514.893 124.067 513.84 123.48C512.787 122.88 511.847 122.167 511.02 121.34C510.193 120.513 509.513 119.593 508.98 118.58L510.24 118.16ZM503.04 122.48L504.06 122.86C503.82 123.74 503.5 124.647 503.1 125.58C502.713 126.513 502.28 127.38 501.8 128.18C501.333 128.98 500.833 129.64 500.3 130.16C500.22 129.96 500.1 129.727 499.94 129.46C499.793 129.18 499.653 128.947 499.52 128.76C500.013 128.307 500.487 127.74 500.94 127.06C501.393 126.367 501.8 125.627 502.16 124.84C502.533 124.04 502.827 123.253 503.04 122.48ZM510.16 117.12H517.78V118.4H509.52L510.16 117.12ZM506.4 116.02H506.74L506.98 115.96L507.96 116.58C507.653 117.033 507.287 117.5 506.86 117.98C506.433 118.447 505.98 118.893 505.5 119.32C505.02 119.733 504.553 120.093 504.1 120.4C503.967 120.28 503.8 120.153 503.6 120.02C503.4 119.873 503.227 119.76 503.08 119.68C503.507 119.387 503.927 119.047 504.34 118.66C504.767 118.273 505.16 117.873 505.52 117.46C505.893 117.033 506.187 116.647 506.4 116.3V116.02Z" fill="#E6E6E6" stroke="#E6E6E6" stroke-width="2" mask="url(#path-2-inside-1_110_96)"/>
</g>
<path opacity="0.86" d="M482 130.88V131.74C482 132.158 481.929 132.368 481.868 132.457L481.858 132.471L481.849 132.487C481.792 132.583 481.68 132.687 481.442 132.766L481.436 132.768C481.255 132.831 481 132.882 480.662 132.915L480.295 132.941C479.854 132.963 479.301 132.973 478.635 132.976C478.608 132.898 478.578 132.819 478.545 132.737C478.658 132.738 478.77 132.74 478.88 132.74C479.261 132.74 479.595 132.732 479.88 132.719V132.72H480.498L480.683 132.7C480.848 132.673 481.031 132.613 481.179 132.483L481.18 132.484C481.185 132.48 481.188 132.475 481.193 132.471C481.199 132.465 481.207 132.46 481.213 132.454L481.211 132.452C481.433 132.243 481.48 131.955 481.48 131.74V130.88H482ZM486.8 129.7V129.88H483V129.7H486.8ZM482 129.7V129.88H481.48V129.7H482ZM480.48 129.7V129.88H474.98V129.7H480.48ZM488.32 128.2V128.7H487.8V128.2H488.32ZM482 128.2V128.7H481.48V128.2H482ZM490.4 127V127.2H489.32V127H490.4ZM488.32 127V127.2H487.8V127H488.32ZM486.8 127V127.2H483V127H486.8ZM482 127V127.2H481.48V127H482ZM480.48 127V127.2H473.26V127H480.48ZM488.32 124.5V126H487.8V124.6H483V124.5H488.32ZM482 125.6V126H481.48V125.6H482ZM482 124.5V124.6H481.48V124.5H482ZM480.48 124.5V124.6H475.16V124.5H480.48ZM482 123.08V123.5H481.48V123.08H482ZM488 119.54V122.08H483V122.02H487.48V119.6H483V119.54H488ZM482 122.02V122.08H481.48V122.02H482ZM480.48 119.54V119.6H476.18V122.02H480.48V122.08H475.74V119.54H480.48ZM482 120.6V121.02H481.48V120.6H482ZM482 119.54V119.6H481.48V119.54H482ZM482 118.36V118.54H481.48V118.36H482ZM490 117.12V117.36H483V117.12H490ZM482 117.12V117.36H481.48V117.12H482ZM480.48 117.12V117.36H473.64V117.12H480.48ZM482 115.52V116.12H481.48V115.52H482Z" fill="#E6E6E6" stroke="#E6E6E6"/>
<path opacity="0.86" d="M459.2 123.84V132.92H458.7V123.84H459.2ZM452.2 126.94V131.78H448.32V131.54H451.86V127.2H448.32V126.94H452.2ZM447.32 128.2V130.54H446.98V128.2H447.32ZM452.26 124.24V124.44H447.02V124.24H452.26ZM463.72 122.36V122.84H460.2V122.36H463.72ZM459.2 122.36V122.84H458.7V122.36H459.2ZM457.7 122.36V122.84H454V122.36H457.7ZM452.26 121.58V121.76H447.02V121.58H452.26ZM459.2 115.58V121.36H458.7V115.58H459.2ZM453.02 118.84V119.1H446.06V118.84H453.02ZM452.28 116.22V116.42H447.12V116.22H452.28Z" fill="#E6E6E6" stroke="#E6E6E6"/>
<path opacity="0.86" d="M432.574 130.59C433.684 131.365 434.926 131.964 436.299 132.387C436.226 132.484 436.153 132.582 436.08 132.68L436.064 132.703C436.039 132.741 436.013 132.777 435.99 132.812C434.577 132.365 433.316 131.732 432.204 130.916C432.328 130.81 432.452 130.701 432.574 130.59ZM430.224 130.544C430.328 130.646 430.433 130.747 430.54 130.847L430.543 130.849C430.56 130.865 430.578 130.879 430.595 130.894C430.17 131.189 429.729 131.457 429.269 131.696L429.262 131.7C428.434 132.148 427.561 132.517 426.643 132.81C426.628 132.782 426.616 132.751 426.6 132.723L426.596 132.716L426.592 132.708L426.439 132.455C426.422 132.428 426.403 132.402 426.386 132.375C427.176 132.126 427.943 131.818 428.684 131.447C429.221 131.179 429.733 130.876 430.224 130.544ZM424.96 126.94V131.735L424.791 131.78H421.3V131.54H424.64V127.2H421.3V126.94H424.96ZM420.3 128.2V130.54H419.98V128.2H420.3ZM431.394 129.653C431.486 129.737 431.581 129.819 431.676 129.9L431.677 129.902C431.705 129.926 431.735 129.949 431.763 129.973C431.646 130.077 431.527 130.179 431.407 130.278C431.344 130.223 431.281 130.169 431.219 130.113H431.22C431.16 130.058 431.101 130.001 431.042 129.944C431.151 129.858 431.258 129.771 431.364 129.681V129.681C431.374 129.672 431.384 129.662 431.394 129.653ZM434.895 125.56C434.647 126.168 434.361 126.733 434.036 127.256L434.035 127.257C433.577 127.997 433.061 128.669 432.488 129.273L432.323 129.138C432.256 129.081 432.19 129.024 432.125 128.966C432.645 128.431 433.112 127.847 433.521 127.21C433.853 126.693 434.14 126.142 434.385 125.56H434.895ZM428.537 125.699C429.066 126.906 429.781 127.99 430.679 128.949C430.57 129.041 430.458 129.13 430.345 129.219C429.462 128.225 428.733 127.095 428.157 125.824L428.537 125.699ZM433.828 124.18C433.787 124.308 433.746 124.435 433.702 124.56H429.153L429.113 124.458L428.801 124.56H426.94V124.18H433.828ZM424.98 124.24V124.44H420.02V124.24H424.98ZM428.66 117.5V118.1C428.66 118.621 428.598 119.186 428.47 119.798C428.349 120.379 428.125 120.947 427.791 121.503C427.534 121.931 427.163 122.335 426.667 122.715C426.651 122.7 426.635 122.686 426.619 122.672C426.523 122.577 426.423 122.486 426.321 122.397C426.745 122.056 427.094 121.691 427.356 121.298L427.36 121.292C427.709 120.754 427.948 120.197 428.069 119.623C428.182 119.086 428.24 118.565 428.24 118.06V117.5H428.66ZM433.54 117.5V120.56C433.54 120.686 433.546 120.804 433.56 120.908C433.572 120.999 433.598 121.135 433.671 121.258L433.703 121.31L433.747 121.353C433.86 121.467 433.996 121.519 434.099 121.545C434.205 121.571 434.316 121.58 434.42 121.58H435.44C435.711 121.58 435.942 121.451 436.086 121.229L436.087 121.23C436.094 121.22 436.1 121.209 436.107 121.199C436.109 121.195 436.112 121.192 436.114 121.188L436.113 121.187C436.185 121.071 436.227 120.942 436.252 120.834C436.283 120.702 436.303 120.55 436.318 120.384L436.317 120.383C436.339 120.198 436.356 119.974 436.366 119.71C436.458 119.743 436.548 119.774 436.634 119.803C436.591 120.38 436.525 120.817 436.439 121.125L436.435 121.139C436.341 121.515 436.219 121.693 436.127 121.769C436.046 121.835 435.892 121.9 435.6 121.9H434.2C433.823 121.9 433.576 121.85 433.426 121.784C433.332 121.738 433.261 121.666 433.21 121.531C433.145 121.342 433.1 121.034 433.1 120.58V117.5H433.54ZM424.98 121.58V121.76H420.02V121.58H424.98ZM425.68 118.84V119.1H419.06V118.84H425.68ZM432.1 116.16V116.5H429.66V116.16H432.1ZM424.94 116.22V116.42H420.1V116.22H424.94Z" fill="#E6E6E6" stroke="#E6E6E6"/>
<path opacity="0.86" d="M393.6 123.24V132.94H393.1V123.24H393.6ZM408.62 123.28V131.44C408.62 131.868 408.558 132.148 408.473 132.317L408.468 132.325L408.464 132.335C408.409 132.458 408.296 132.579 408.054 132.676L408.047 132.679C407.865 132.755 407.608 132.816 407.267 132.853L406.896 132.881C406.449 132.903 405.903 132.912 405.256 132.916C405.245 132.873 405.234 132.828 405.221 132.782C405.184 132.653 405.139 132.524 405.09 132.396C405.228 132.397 405.365 132.4 405.5 132.4H407.16L407.178 132.399C407.382 132.383 407.656 132.332 407.854 132.134C408.067 131.921 408.1 131.625 408.1 131.42V123.28H408.62ZM397.9 132.06V132.08H397.54V132.06H397.9ZM404 128.94V131.06H398.9V130.88H403.6V128.94H404ZM397.9 128.94V129.88H397.54V128.94H397.9ZM402.6 127.78V127.94H398.9V127.78H402.6ZM397.9 125.94V126.78H397.54V125.94H397.9ZM404 124.76V126.78H403.6V124.94H398.9V124.76H404ZM402.6 120.32V122.12H407.1V122.28H402.18V120.32H402.6ZM399.36 120.32V122.24H394.6V122.1H398.96V120.32H399.36ZM408.62 120.32V121.12H408.1V120.32H408.62ZM393.6 120.32V121.1H393.1V120.32H393.6ZM407.1 119.22V119.32H403.6V119.22H407.1ZM397.96 119.22V119.32H394.6V119.22H397.96ZM393.6 117.54V118.22H393.1V117.54H393.6ZM407.1 116.38V116.54H402.6V118.22H402.18V116.38H407.1ZM408.62 117.54V118.22H408.1V117.54H408.62ZM399.36 116.38V118.22H398.96V116.54H394.6V116.38H399.36Z" fill="#E6E6E6" stroke="#E6E6E6"/>
<path opacity="0.86" d="M372.48 131.94V132.32H365.5V131.94H372.48ZM374.02 127.9V130.94H373.48V127.9H374.02ZM380.38 126.52V126.9H375.02V126.52H380.38ZM372.48 126.52V126.9H367.6V126.52H372.48ZM371.713 118.98C371.616 119.569 371.494 120.113 371.343 120.613C371.135 121.286 370.818 121.874 370.396 122.38L370.392 122.385C370.04 122.819 369.566 123.216 368.957 123.569L368.688 123.717C368.046 124.049 367.228 124.343 366.224 124.596C366.206 124.565 366.188 124.534 366.169 124.503C366.119 124.407 366.065 124.313 366.007 124.22C366.791 124.034 367.468 123.813 368.029 123.554L368.033 123.552C368.784 123.198 369.398 122.767 369.854 122.25L369.859 122.246C370.305 121.726 370.631 121.132 370.838 120.468V120.465C370.978 120.005 371.087 119.51 371.169 118.98H371.713ZM376.2 118.98V122.46C376.2 122.723 376.249 123.128 376.595 123.344C376.738 123.434 376.908 123.47 377.044 123.49C377.193 123.511 377.367 123.52 377.56 123.52H380.14C380.375 123.52 380.65 123.484 380.871 123.327L380.88 123.32C381.133 123.13 381.237 122.831 381.286 122.568L381.288 122.569C381.313 122.456 381.331 122.327 381.348 122.184C381.432 122.216 381.517 122.246 381.602 122.274V122.275L381.613 122.278C381.635 122.285 381.657 122.291 381.679 122.297C381.627 122.7 381.557 123.004 381.474 123.22C381.372 123.484 381.245 123.624 381.117 123.701C380.964 123.778 380.706 123.84 380.3 123.84H377.42C376.854 123.84 376.463 123.787 376.218 123.706C376.017 123.639 375.917 123.537 375.859 123.403C375.777 123.211 375.72 122.907 375.72 122.46V118.98H376.2ZM372.48 117.6V117.76H370.31L370.286 117.98H366.34V120.64H365.86V117.6H372.48ZM381.8 117.6V120.2H381.26V117.98H377.2V117.72H375.02V117.6H381.8ZM374.02 115.52V116.6H373.48V115.52H374.02ZM375.02 131.94H382.12V132.32H375.02V131.94Z" fill="#E6E6E6" stroke="#E6E6E6"/>
<g opacity="0.85">
<path d="M475.637 22.4417C478.888 22.4417 481.253 23.2958 482.826 24.9222L482.831 24.928C484.469 26.5658 485.319 28.8826 485.319 31.9475C485.319 32.6813 485.231 33.187 485.095 33.5052L485.087 33.5247L485.08 33.5442C485.051 33.6325 485.017 33.6648 484.993 33.6809C484.964 33.6999 484.9 33.7288 484.765 33.7288H481.666V32.3157L481.158 32.3245L480.402 32.3372C480.362 29.6485 479.805 27.5258 478.668 26.0276C477.276 24.134 475.277 23.1966 472.741 23.1966C469.483 23.1967 466.901 24.5002 465.049 27.0931L465.045 27.0989C463.988 28.6301 463.258 30.4838 462.838 32.6477L461.235 32.6761L460.704 32.6849L460.745 33.2141L460.832 34.3548L460.868 34.8186L461.333 34.8167L462.533 34.8108C462.453 35.6599 462.411 36.5488 462.411 37.4768C462.412 40.8641 462.946 43.8854 464.028 46.5306C465.113 49.1828 466.719 51.2807 468.852 52.804C470.998 54.3367 473.591 55.0911 476.603 55.0911C478.636 55.0911 480.352 54.7923 481.725 54.1683C482.124 53.9867 482.587 53.6165 483.044 53.2044C483.514 52.7812 484.027 52.2685 484.53 51.761C484.909 51.3776 485.285 50.9999 485.638 50.6536C485.439 50.9554 485.244 51.2481 485.146 51.4309C485.117 51.4849 485.074 51.5705 485.05 51.6604C485.049 51.6657 485.047 51.6731 485.045 51.6819C484.678 52.0191 484.313 52.3624 483.954 52.7024C483.451 53.1806 482.957 53.6488 482.46 54.0852C481.463 54.9622 480.494 55.675 479.499 56.052C477.449 56.792 475.343 57.1624 473.18 57.1624C469.745 57.1624 466.891 56.3904 464.59 54.8753C462.412 53.386 460.736 51.5026 459.555 49.221L459.326 48.7581C458.188 46.2521 457.619 43.6052 457.618 40.8118C457.618 37.3223 458.419 34.222 460.008 31.4974L460.01 31.4934C461.606 28.7014 463.767 26.5126 466.498 24.9192L466.501 24.9173C469.29 23.2671 472.331 22.4417 475.637 22.4417ZM485.597 51.3352C485.644 51.34 485.7 51.354 485.758 51.3821C485.734 51.4206 485.71 51.4569 485.689 51.4915L485.555 51.3352C485.568 51.3354 485.583 51.3338 485.597 51.3352ZM486.831 48.9739V49.3099C486.683 49.3231 486.577 49.2643 486.552 49.2493C486.539 49.2413 486.527 49.2311 486.515 49.222C486.512 49.2126 486.511 49.2037 486.509 49.1956C486.624 49.108 486.732 49.0326 486.831 48.9739ZM462.666 33.6507C462.659 33.7038 462.653 33.7574 462.646 33.8108L461.793 33.8138L461.783 33.6663L462.666 33.6507ZM479.391 33.3558C479.387 33.4813 479.381 33.6082 479.375 33.7366L463.655 33.8059C463.663 33.748 463.673 33.6906 463.682 33.6331L479.391 33.3558ZM480.666 33.7288H480.377C480.383 33.5974 480.387 33.4672 480.391 33.3382L480.666 33.3333V33.7288Z" fill="#E6E6E6" stroke="#E6E6E6"/>
<path d="M409.549 23.7065C409.517 23.7065 409.62 23.7012 409.871 23.9936C410.098 24.2589 410.371 24.681 410.685 25.2817C411.26 26.3784 411.578 28.0144 411.593 30.2378C410.954 30.9876 410.315 31.7918 409.675 32.6499L409.518 32.8598L409.601 33.1069L409.952 34.1606L410.273 35.1235L410.841 34.2817C411.084 33.9212 411.336 33.5737 411.595 33.2378V50.7661C411.595 52.0134 411.675 53.0722 411.845 53.9341C412.013 54.7889 412.275 55.4915 412.666 55.9897L412.679 56.0053L412.692 56.02C413.134 56.4979 413.785 56.8179 414.582 57.021C415.327 57.2109 416.235 57.3063 417.297 57.3188C417.297 57.3282 417.299 57.3379 417.299 57.3481C417.299 57.3565 417.297 57.3647 417.297 57.3725C416.359 57.3683 415.247 57.3413 413.958 57.2876H413.959C412.605 57.2287 411.164 57.1997 409.637 57.1997C408.109 57.1997 406.639 57.2287 405.227 57.2876C403.938 57.3413 402.825 57.3683 401.888 57.3725C401.887 57.3647 401.887 57.3565 401.887 57.3481C401.887 57.3379 401.887 57.3281 401.888 57.3188C402.948 57.3064 403.85 57.2106 404.584 57.02C405.365 56.8168 406.002 56.4942 406.417 56.0053L406.418 56.0063C406.845 55.5079 407.133 54.8016 407.317 53.9419C407.503 53.0766 407.592 52.0149 407.592 50.7661V33.3882C407.592 31.5604 407.387 30.1205 406.926 29.1313L406.831 28.9399C406.589 28.4039 406.229 27.979 405.745 27.6919C405.254 27.4011 404.67 27.271 404.019 27.271C403.372 27.271 402.621 27.3996 401.776 27.6411L401.913 28.1216L401.775 27.6411L401.767 27.644C401.01 27.8768 400.146 28.1927 399.178 28.5893C399.175 28.5871 399.172 28.5852 399.17 28.5825C399.159 28.5712 399.149 28.5546 399.136 28.5356L409.201 23.7622C409.321 23.7244 409.436 23.7065 409.549 23.7065ZM425.522 23.3559C428.644 23.3559 430.986 24.2329 432.623 25.9243L432.635 25.936C434.317 27.5638 435.203 30.0732 435.203 33.5639V50.7661C435.203 52.0134 435.285 53.0722 435.454 53.9341C435.622 54.7889 435.884 55.4915 436.275 55.9897L436.288 56.0053L436.302 56.02C436.743 56.4979 437.395 56.8179 438.191 57.021C438.937 57.2109 439.845 57.3063 440.906 57.3188C440.906 57.3282 440.908 57.3379 440.908 57.3481C440.908 57.3565 440.906 57.3647 440.906 57.3725C439.969 57.3683 438.857 57.3412 437.568 57.2876C436.214 57.2287 434.774 57.1997 433.246 57.1997C431.718 57.1997 430.249 57.2287 428.837 57.2876C427.548 57.3413 426.435 57.3683 425.497 57.3725C425.497 57.3647 425.496 57.3565 425.496 57.3481C425.496 57.3379 425.497 57.3281 425.497 57.3188C426.558 57.3064 427.46 57.2107 428.193 57.02C428.975 56.8168 429.611 56.4942 430.026 56.0053L430.027 56.0063C430.454 55.5079 430.742 54.8016 430.927 53.9419C431.112 53.0766 431.201 52.0149 431.201 50.7661V36.5473C431.201 33.0015 430.555 30.317 429.162 28.603H429.163C427.75 26.8053 425.531 25.9546 422.626 25.9546C420.409 25.9546 418.156 26.6635 415.873 28.0454C414.714 28.7469 413.641 29.5785 412.654 30.5395C414.457 28.4715 416.234 26.8713 417.983 25.7319C420.489 24.1381 423 23.3559 425.522 23.3559Z" fill="#E6E6E6" stroke="#E6E6E6"/>
<path d="M366.104 22.4417C369.588 22.4417 372.527 23.297 374.946 24.9847L374.95 24.9876C377.454 26.6949 379.356 28.8816 380.663 31.552C381.975 34.2341 382.631 37.0559 382.631 40.0218C382.631 43.689 381.801 46.811 380.163 49.4095C378.513 52.0264 376.326 54.0425 373.597 55.4641C370.865 56.887 367.843 57.6018 364.524 57.6018C361.158 57.6018 358.243 56.7756 355.76 55.139C353.416 53.5944 351.573 51.5771 350.226 49.0804L349.964 48.5745C348.595 45.779 347.91 42.7841 347.91 39.5833C347.91 36.6012 348.455 34.0477 349.525 31.9075C350.604 29.7491 352.047 27.9967 353.853 26.6419L353.861 26.636C355.689 25.2084 357.655 24.1553 359.761 23.472C361.94 22.7836 364.054 22.4417 366.104 22.4417ZM363.208 23.1097C359.966 23.1097 357.385 24.3116 355.527 26.7268C353.679 29.1294 352.791 32.5313 352.791 36.8616C352.791 40.4861 353.385 43.8259 354.58 46.8743C355.774 49.9202 357.427 52.3632 359.548 54.1809L359.968 54.5169C362.062 56.125 364.435 56.9339 367.07 56.9339C370.302 56.9338 372.906 55.7981 374.825 53.5081L374.83 53.5022C376.753 51.1451 377.663 47.434 377.663 42.4788C377.663 38.9713 377.115 35.8361 376.007 33.0823L375.778 32.5364C374.58 29.606 372.892 27.3072 370.704 25.6663C368.511 23.9631 366.006 23.1097 363.208 23.1097Z" fill="#E6E6E6" stroke="#E6E6E6"/>
<path d="M336.616 0.583984C336.558 1.43042 336.478 2.53937 336.372 3.91113C336.255 5.43969 336.166 7.02631 336.108 8.6709C336.049 10.3084 335.99 11.8293 335.932 13.2324C335.881 14.4507 335.854 15.4319 335.847 16.1738C335.837 16.1739 335.828 16.1758 335.818 16.1758C335.803 16.1758 335.788 16.1741 335.775 16.1738C335.568 11.7371 334.63 8.49821 332.847 6.5918C331.013 4.57319 328.037 3.62502 324.057 3.625C321.592 3.625 319.71 3.74221 318.434 3.98535C317.112 4.23714 316.125 4.82666 315.622 5.83203L315.619 5.83887L315.616 5.84668C315.217 6.71256 315.043 8.06467 315.043 9.83008V50.29C315.043 52.0128 315.249 53.3871 315.704 54.3633C316.193 55.4104 317.129 56.0733 318.407 56.3926L318.411 56.3936C319.657 56.6901 321.468 56.8356 323.819 56.8447C323.819 56.8537 323.821 56.8632 323.821 56.873C323.821 56.8815 323.819 56.8896 323.819 56.8975C322.362 56.8946 320.721 56.8669 318.894 56.8115C316.957 56.7528 314.845 56.7236 312.559 56.7236C310.39 56.7236 308.337 56.7529 306.401 56.8115C304.606 56.8659 302.964 56.8937 301.475 56.8975C301.475 56.8895 301.474 56.8814 301.474 56.873C301.474 56.863 301.475 56.8532 301.475 56.8438C303.727 56.831 305.479 56.686 306.707 56.3936L306.706 56.3926C308.083 56.0787 309.093 55.4263 309.589 54.3633C310.045 53.3871 310.251 52.0129 310.251 50.29V9.6543C310.251 7.88506 310.048 6.52001 309.576 5.64355H309.575C309.066 4.63736 308.071 4.08241 306.749 3.89355C305.484 3.71286 303.612 3.625 301.15 3.625C297.44 3.625 294.543 4.58363 292.546 6.58008L292.54 6.58594C290.73 8.45447 289.435 11.5067 288.602 15.6602C288.679 15.023 288.758 14.2638 288.834 13.3838V13.3818C288.951 11.9759 289.069 10.4824 289.186 8.90137L289.185 8.90039C289.36 7.32328 289.477 5.8028 289.536 4.33887C289.64 2.98929 289.696 1.86163 289.708 0.958984C289.75 1.20945 289.839 1.44575 289.982 1.66016C290.161 1.92894 290.409 2.14252 290.703 2.30957L290.852 2.3877L290.87 2.39551C291.493 2.64448 292.172 2.82801 292.906 2.9502L292.927 2.9541L292.949 2.95605C293.709 3.01452 294.36 3.04331 294.901 3.04395V3.04492C299.94 3.22071 305.826 3.30859 312.559 3.30859C315.676 3.30859 318.302 3.29177 320.434 3.25879L322.402 3.2207L322.413 3.21973C324.863 3.10307 327.225 3.04492 329.498 3.04492C331.499 3.04492 333.063 2.92854 334.17 2.68262L334.18 2.67969L334.19 2.67773C335.403 2.35842 336.246 1.66622 336.616 0.583984Z" fill="#E6E6E6" stroke="#E6E6E6"/>
<path d="M228.427 22.4417C230.706 22.4417 232.359 23.1852 233.474 24.6184L233.48 24.6253C234.611 26.026 235.212 28.0632 235.212 30.8059V47.2181C235.212 49.2868 235.474 50.8874 236.066 51.9397C236.69 53.0498 237.716 53.5989 239.047 53.5989C240.188 53.5989 241.704 53.1952 243.565 52.4436C243.568 52.4511 243.573 52.4583 243.576 52.4671V52.469L243.572 52.472L234.532 56.7727L234.523 56.7766C234.35 56.863 234.192 56.8997 234.044 56.8997C233.576 56.8995 232.973 56.5129 232.285 55.3079C231.836 54.4815 231.532 53.38 231.39 51.9856L233.088 50.885L233.359 50.7093L233.31 50.3899L233.134 49.2493L233.021 48.511L232.382 48.8968L231.297 49.5511V40.9808L232.119 40.6634L232.523 40.5071L232.425 40.0843L232.163 38.9436L232.034 38.388L231.499 38.5882L231.297 38.6634V33.4388C231.297 29.7946 230.774 27.1098 229.623 25.511C228.544 23.9318 227.082 23.1097 225.268 23.1097C223.813 23.1097 222.563 23.4655 221.553 24.2083L221.37 24.3499C220.372 25.0977 219.616 26.0091 219.111 27.0823L219.106 27.094L219.101 27.1048C218.683 28.121 218.38 29.0864 218.197 29.9993C218.032 30.7692 217.757 31.5441 217.368 32.3245C217.08 32.8585 216.482 33.2024 215.35 33.2024C214.443 33.2024 213.877 32.9647 213.537 32.5872C213.134 32.0799 212.954 31.5773 212.954 31.0696C212.954 30.1308 213.395 29.1682 214.387 28.1761L214.386 28.1751C215.458 27.1616 216.793 26.2249 218.395 25.3665L218.401 25.3636C220.066 24.4449 221.787 23.7282 223.564 23.2122L223.563 23.2112C225.403 22.6938 227.023 22.4417 228.427 22.4417ZM230.297 40.2952L222.455 43.3294H222.454C221.369 43.751 220.449 44.2397 219.702 44.8001C218.953 45.3613 218.374 45.9986 217.983 46.7161L217.974 46.7317L217.967 46.7483C217.643 47.4618 217.484 48.2353 217.484 49.0618C217.484 50.5273 217.966 51.8152 218.925 52.9026C219.912 54.0211 221.257 54.5647 222.898 54.5647C223.533 54.5647 224.192 54.469 224.873 54.2835C225.584 54.0895 226.421 53.6797 227.375 53.0833L230.332 51.3001C230.336 51.3577 230.34 51.415 230.344 51.472L226.049 54.2591L226.043 54.263C224.663 55.1834 223.414 55.8332 222.294 56.2249L222.287 56.2278C221.232 56.6163 220.121 56.8118 218.949 56.8118C216.814 56.8118 215.264 56.2522 214.216 55.2073C213.134 54.069 212.603 52.759 212.603 51.2561C212.603 50.3091 212.809 49.4551 213.217 48.6858L213.405 48.3616C213.997 47.4497 214.926 46.5926 216.225 45.802C217.533 45.0059 219.226 44.2294 221.313 43.4759L221.319 43.4739L230.297 40.1067V40.2952ZM232.272 50.222L231.312 50.844C231.31 50.8003 231.309 50.7564 231.308 50.7122L232.259 50.138L232.272 50.222ZM231.353 39.887L231.297 39.9085V39.7317L231.316 39.7249L231.353 39.887Z" fill="#E6E6E6" stroke="#E6E6E6"/>
<path d="M190.162 20.897C190.19 20.9173 190.229 20.9496 190.28 21.0005L190.315 21.0357L190.356 21.063C190.379 21.078 190.39 21.0907 190.396 21.0972C190.396 21.5625 190.368 22.6907 190.309 24.4927C190.251 26.314 190.222 28.6316 190.222 31.4429V47.9429C190.222 49.1902 190.303 50.249 190.473 51.1109C190.64 51.9658 190.902 52.6683 191.294 53.1665L191.306 53.1822L191.319 53.1968C191.762 53.6767 192.423 53.9963 193.233 54.1988C193.993 54.3887 194.923 54.4835 196.013 54.4956C196.013 54.505 196.014 54.5147 196.014 54.5249C196.014 54.5333 196.013 54.5416 196.013 54.5494C195.022 54.5453 193.88 54.5183 192.586 54.4644H192.587C191.233 54.4055 189.792 54.3765 188.264 54.3765C186.737 54.3765 185.267 54.4056 183.855 54.4644H183.854C182.645 54.517 181.531 54.5443 180.514 54.5494C180.514 54.5415 180.514 54.5332 180.514 54.5249C180.514 54.5145 180.514 54.5044 180.514 54.4947C181.539 54.4781 182.418 54.3826 183.143 54.1978C183.94 53.9947 184.591 53.6738 185.032 53.1958C185.494 52.6981 185.808 51.9914 186.009 51.1275C186.21 50.2586 186.306 49.1938 186.306 47.9429V31.5298C186.306 29.5974 186.128 28.0886 185.732 27.0542L185.65 26.854C185.414 26.2854 185.064 25.8278 184.588 25.5162C184.11 25.2037 183.541 25.062 182.91 25.062C182.366 25.0621 181.752 25.1956 181.081 25.439C180.434 25.6178 179.691 25.9037 178.854 26.2896C178.853 26.2883 178.852 26.2871 178.85 26.2857C178.837 26.2716 178.824 26.2506 178.806 26.2242C178.794 26.1854 178.785 26.1538 178.781 26.1275L190.022 20.939C190.08 20.92 190.126 20.9066 190.162 20.897ZM187.562 3.24271C188.639 3.24279 189.404 3.53699 189.93 4.06205C190.454 4.58717 190.748 5.35224 190.748 6.42924C190.748 7.58069 190.461 8.35289 189.973 8.84037C189.486 9.32784 188.714 9.61472 187.562 9.61478C186.487 9.61478 185.682 9.32157 185.092 8.7808C184.516 8.25298 184.2 7.49366 184.2 6.42924C184.2 5.36465 184.516 4.60457 185.092 4.0767C185.682 3.53602 186.487 3.24271 187.562 3.24271Z" fill="#E6E6E6" stroke="#E6E6E6"/>
<path d="M145.328 22.4417C145.327 22.4437 145.434 22.4678 145.657 22.7278C145.884 22.9931 146.156 23.4159 146.471 24.0169C147.053 25.1289 147.372 26.7947 147.379 29.0657C146.729 29.8213 146.035 30.6461 145.299 31.5413L145.118 31.762L145.216 32.0306L145.567 32.9954L145.863 33.8108L146.42 33.1458C146.754 32.7475 147.075 32.3708 147.38 32.013V49.5003C147.38 51.1703 147.587 52.5358 148.035 53.5618V53.5628L148.041 53.5735C148.534 54.6293 149.507 55.2875 150.835 55.6038C152.095 55.9037 153.905 56.048 156.241 56.054C156.242 56.0631 156.244 56.073 156.244 56.0833C156.244 56.0922 156.242 56.1007 156.241 56.1087C155.23 56.1072 154.083 56.0911 152.801 56.0599L151.406 56.0218C149.528 55.9631 147.533 55.9339 145.422 55.9339C143.894 55.9339 142.425 55.9629 141.013 56.0218C139.724 56.0755 138.611 56.1035 137.673 56.1077C137.673 56.0999 137.672 56.0917 137.672 56.0833C137.672 56.0728 137.673 56.0625 137.673 56.053C138.734 56.0406 139.636 55.9458 140.369 55.7552C141.152 55.5517 141.791 55.2287 142.205 54.7386L142.204 54.7376C142.631 54.2393 142.919 53.5354 143.103 52.677C143.288 51.8116 143.377 50.7495 143.377 49.5003V32.1224C143.377 30.2949 143.172 28.8556 142.711 27.8665L142.616 27.6741C142.375 27.1383 142.015 26.7132 141.531 26.4261C141.04 26.1353 140.456 26.0052 139.805 26.0052C139.158 26.0052 138.407 26.1338 137.562 26.3753L137.552 26.3792C136.795 26.6121 135.931 26.9268 134.962 27.3235C134.96 27.3215 134.958 27.32 134.955 27.3177C134.945 27.3065 134.935 27.2896 134.921 27.2708L144.988 22.4974C145.105 22.4604 145.218 22.4423 145.328 22.4417ZM157.621 22.4417C158.75 22.4417 159.862 22.7633 160.963 23.4241L160.972 23.429C162.118 24.084 162.564 24.796 162.564 25.5403C162.564 26.1714 162.351 26.6869 161.92 27.1175L161.909 27.1282L161.9 27.139C161.555 27.5266 161.01 27.761 160.167 27.761C159.519 27.761 158.996 27.5648 158.569 27.1849C158.027 26.7038 157.456 26.2528 156.856 25.8323C156.164 25.3481 155.294 25.1282 154.286 25.1282C153.666 25.1283 153.034 25.3005 152.396 25.6194C151.728 25.9534 150.889 26.6806 149.896 27.7317C150.437 27.14 150.934 26.6139 151.392 26.1565L151.393 26.1575L151.4 26.1497C152.792 24.6998 153.947 23.7503 154.871 23.261L154.88 23.2561C155.88 22.7008 156.791 22.4418 157.621 22.4417Z" fill="#E6E6E6" stroke="#E6E6E6"/>
<path d="M109.507 22.4544C109.536 22.4688 109.581 22.4995 109.64 22.5589L109.697 22.6155L109.77 22.6526C109.805 22.6699 109.829 22.685 109.845 22.6966V47.2181C109.845 49.2227 110.076 50.7621 110.605 51.7542C110.88 52.2691 111.26 52.6728 111.748 52.9436C112.232 53.2127 112.795 53.3352 113.417 53.3352C114.051 53.3352 114.736 53.2401 115.469 53.0569L115.481 53.054L115.495 53.0501C116.258 52.8153 117.159 52.4948 118.197 52.0921C118.2 52.0997 118.205 52.1075 118.208 52.1165L118.213 52.1302L118.219 52.1438C118.22 52.1471 118.22 52.1506 118.222 52.1536L108.025 56.9466L108.014 56.9524C107.959 56.9802 107.918 56.9875 107.888 56.9876C107.877 56.9876 107.755 56.9743 107.521 56.7015C107.3 56.4437 107.045 56.03 106.762 55.4358C106.22 54.2427 105.93 52.5114 105.93 50.2024V50.0208C106.596 49.2724 107.263 48.4698 107.93 47.6136L108.117 47.3753L107.991 47.0989L107.553 46.1341L107.202 45.3626L106.696 46.0423C106.447 46.3769 106.191 46.7002 105.93 47.014V33.0882C105.93 30.9408 105.752 29.2918 105.359 28.1946L105.278 27.9827C105.081 27.4051 104.781 26.9283 104.355 26.595C103.917 26.2519 103.387 26.0931 102.797 26.0931C101.917 26.0931 100.908 26.3893 99.784 26.93C99.7774 26.9134 99.7677 26.8957 99.7606 26.8743C99.756 26.8606 99.7542 26.847 99.7508 26.8352L109.409 22.4856L109.419 22.4808L109.428 22.4768C109.453 22.464 109.474 22.4549 109.489 22.4485C109.494 22.4503 109.5 22.4511 109.507 22.4544ZM86.2088 22.4417C86.2102 22.4417 86.2222 22.4411 86.2489 22.4544C86.2778 22.4689 86.3224 22.4996 86.3817 22.5589L86.4393 22.6155L86.5116 22.6526C86.5465 22.6701 86.5709 22.6849 86.5867 22.6966V43.6204C86.5868 47.1155 87.2053 49.8155 88.5242 51.637L88.5301 51.6438C89.8726 53.4336 91.8796 54.301 94.4588 54.3011C96.7879 54.3011 99.0994 53.5942 101.388 52.2093C102.658 51.4595 103.838 50.5692 104.93 49.5393V49.6341C103.022 51.7367 101.142 53.362 99.2879 54.5159C96.7859 56.0512 94.1837 56.8118 91.4744 56.8118C88.7264 56.8117 86.5875 55.9484 85.0008 54.2561C83.4727 52.5064 82.6717 49.9513 82.6717 46.5159V33.0882C82.6717 30.82 82.4725 29.1081 82.0321 28.0149C81.8347 27.4228 81.5312 26.9345 81.0975 26.595C80.6592 26.252 80.1287 26.0931 79.5389 26.0931C78.6465 26.0931 77.6201 26.3981 76.4754 26.9544L76.4744 26.9534C76.4549 26.9279 76.4326 26.8923 76.4071 26.845C76.4061 26.8418 76.406 26.8384 76.4051 26.8352L86.0633 22.4856L86.0721 22.4808L86.0819 22.4768C86.1376 22.449 86.1782 22.4417 86.2088 22.4417Z" fill="#E6E6E6" stroke="#E6E6E6"/>
<path d="M17.7256 33.1857L12.5293 45.4806L12.5264 45.4855C11.0553 49.0749 10.861 51.9013 12.3389 53.715C13.7694 55.4703 16.4987 56.259 20.2979 56.2678C20.2982 56.2761 20.3008 56.2852 20.3008 56.2951C20.3008 56.3043 20.2981 56.3127 20.2979 56.3205C18.5783 56.3191 17.0037 56.262 15.5742 56.1476C14.0935 56.0292 12.2362 55.9709 10.0059 55.9709C7.89268 55.9709 6.17872 56.0297 4.87012 56.1486H4.86719C3.69352 56.2604 2.23951 56.3163 0.501953 56.3195C0.501763 56.3118 0.5 56.3037 0.5 56.2951C0.5 56.2843 0.501661 56.2742 0.501953 56.2648C2.08182 56.2467 3.48612 55.9451 4.7002 55.3381L4.70801 55.3332L4.7168 55.3293C5.97898 54.6351 7.11521 53.4845 8.13867 51.9201L8.13965 51.9211C9.21825 50.3032 10.3724 48.0165 11.6064 45.0783L16.6465 33.1857H17.7256ZM30.2793 1.41424C30.3168 1.41424 30.3458 1.4172 30.3672 1.4201L46.1494 36.0021L46.1514 36.007C47.504 38.8887 53.6292 50.1648 54.6973 51.8263L54.7012 51.8332C55.7721 53.4396 56.8417 54.6143 57.918 55.3107L57.9316 55.3195L57.9463 55.3283C59.0753 55.9555 60.3004 56.2687 61.6123 56.2687C61.6702 56.2687 61.7299 56.2572 61.7695 56.2492C61.7397 56.2601 61.7123 56.2724 61.6865 56.2814C61.6328 56.3002 61.5921 56.3123 61.5645 56.3205C59.8945 56.3194 58.195 56.2628 56.4668 56.1476C54.7014 56.03 52.9937 55.9709 51.3438 55.9709C49.52 55.9709 47.9246 56.029 46.5605 56.1476C45.2732 56.2596 43.8464 56.316 42.2793 56.3195C42.2791 56.3118 42.2773 56.3037 42.2773 56.2951C42.2773 56.2851 42.279 56.2756 42.2793 56.2668C43.781 56.2599 45.0294 56.1504 46.0127 55.9269C47.0161 55.6989 47.8148 55.338 48.2988 54.7795L48.3037 54.7736L48.3086 54.7668C48.8056 54.1549 48.9451 53.334 48.834 52.3967C48.7228 51.4592 48.3556 50.3437 47.7598 49.0627L47.7578 49.0597L40.2441 33.1857H42.7451L42.5117 32.5207L41.8975 30.7648L41.7803 30.4308H38.9404L28.9209 9.26385L30.4766 5.58514L29.627 5.07635L27.4326 7.79705L27.3711 7.87225L30.0947 1.44549C30.0973 1.44411 30.0997 1.44126 30.1035 1.43963C30.1275 1.42937 30.1807 1.41426 30.2793 1.41424ZM41.0713 31.4308L41.3359 32.1857H39.7705L39.4131 31.4308H41.0713ZM38.3076 31.4308L38.665 32.1857H19.2344L19.5527 31.4308H38.3076ZM18.1484 32.1857H18.0996L18.415 31.5539L18.1484 32.1857ZM27.3701 8.32537L27.8252 9.28728L18.8896 30.4308H17.8584L17.7207 30.7072L17.5615 31.0236L27.2695 8.11248L27.3701 8.32537Z" fill="#E6E6E6" stroke="#E6E6E6"/>
</g>
<path d="M60.1157 55.0755C63.0911 55.2504 66.9572 55.6874 69.883 56.0797C70.7983 56.2023 70.3254 56.2281 70.9579 56.3174C72.1943 56.4928 73.3536 56.5943 74.573 56.7849C74.9744 56.8483 74.4581 56.91 74.8775 56.9734C76.9509 57.2879 78.9312 57.5291 81.0059 57.8577C81.2656 57.8993 81.5224 57.9418 81.7767 57.9855C91.4823 58.8688 99.5587 64.9849 108.29 67.871C110.397 68.5904 112.492 69.2962 114.631 69.8782C117.125 70.5657 120.027 71.206 122.885 71.7328C124.255 71.9854 125.628 72.1689 126.93 72.3074C127.395 72.356 127.131 72.2136 127.22 72.215C128.621 72.2339 128.135 72.4027 129.039 72.529C132.031 72.9554 135.312 73.1854 138.392 73.6887C138.955 73.7882 139.554 73.853 140.122 73.9036C141.59 74.0192 140.131 73.6745 141.597 73.9138C141.699 73.9294 141.32 74.02 141.72 74.061C142.635 74.1573 144.378 74.2167 145.093 74.2485C146.467 74.3126 146.697 74.316 147.998 74.3414C149.779 74.3747 151.9 74.4369 153.812 74.3849C154.22 74.3733 153.679 74.2607 154.329 74.2307C154.979 74.2023 156.702 74.1728 157.282 74.1814C157.865 74.1916 157.62 74.2937 157.724 74.3121C158.576 74.4707 160.56 74.1274 160.81 74.105C161.665 74.0408 162.495 73.9786 163.303 73.9147C166.934 73.6254 170.26 73.3689 173.819 72.9125C176.207 72.6049 178.7 72.2184 181.085 71.829C182.012 71.6786 182.923 71.5546 183.805 71.4384C187.563 70.953 190.749 70.6014 194.378 70.0246C194.762 69.9636 194.291 69.8941 194.759 69.8192C198.383 69.2375 201.968 68.6006 205.557 67.9092C206.886 67.653 208.2 67.3843 209.523 67.0971C210.01 66.9912 209.413 67.2612 209.903 67.1618C212.915 66.5692 217.646 65.4298 219.268 64.4118C220.176 64.1673 221.179 63.9051 222.193 63.6944C223.408 63.4426 224.605 63.1861 225.615 62.9942C226.796 62.7675 225.699 63.1875 227.114 62.7641C227.433 62.6681 226.985 62.6621 227.464 62.5267C229.486 61.9557 231.714 61.3872 233.72 60.8071C234.128 60.689 233.99 60.6151 234.102 60.5667C235.044 60.1629 236.748 60.0166 237.111 59.9549C237.472 59.8902 237.821 59.8271 238.159 59.7653C240.382 59.3779 242.09 58.7683 244.283 58.1755C244.87 58.016 244.143 58.0662 244.7 57.9104C245.899 57.5769 247.105 57.2631 248.333 56.9589C250.079 56.5269 251.829 56.1217 253.525 55.7509C254.164 55.6116 253.607 55.8708 253.915 55.8102C255.271 55.5417 255.513 55.2478 256.813 54.9871C257.086 54.9318 256.957 55.0697 257.01 55.0689C257.826 55.0575 258.44 54.6488 258.637 54.5957C261.138 53.9153 262.81 53.7842 265.23 53.1487C265.519 53.0723 264.832 53.1067 265.648 52.8993C267.51 52.4253 269.408 51.9426 271.317 51.4539C274.967 50.5175 278.66 49.5665 282.203 48.6923C283.041 48.4851 282.471 48.7397 282.527 48.7375C283.433 48.6925 283.919 48.2985 284.189 48.2165C286.316 47.5768 288.377 47.2504 289.758 46.571C294.096 45.4798 298.406 44.3332 302.748 43.3141C307.546 42.1935 312.376 41.2789 317.226 40.5792C317.344 40.5618 317.157 40.7222 317.39 40.6871C320.205 40.2662 319.64 40.1712 321.445 39.6033C321.462 39.5978 321.481 39.5926 321.501 39.5876C322.011 39.4617 323.375 39.4755 323.5 39.4738C323.973 39.4655 323.531 39.7373 323.688 39.7238C324.977 39.6123 324.661 39.0279 326.397 38.7645C326.45 38.7577 326.242 38.9031 326.387 38.8933C326.849 38.8619 327.281 38.7579 327.734 38.7401C328.754 38.7053 329.15 38.9596 330.675 38.63C330.866 38.5896 330.54 38.264 332.087 38.1382C332.705 38.085 335.444 37.8558 336.215 37.8238C336.974 37.7898 336.462 37.9414 336.516 37.9422C338.587 37.9403 337.823 38.059 338.861 38.2075C339.925 38.3549 339.582 37.8518 340.005 37.7642C340.113 37.7418 340.296 37.7265 340.518 37.7162C341.12 37.6891 342.053 37.7048 342.32 37.7197C342.694 37.7387 342.235 37.8401 342.567 37.8431C344.77 37.8626 343.511 37.5221 344.233 37.3933C345.92 37.0913 347.276 37.402 348.838 37.3512C349.264 37.3374 348.912 37.2683 349.285 37.239C350.769 37.1238 351.683 37.1955 353.359 36.9953C353.642 36.9621 354.989 36.6574 355.89 36.7847C356.016 36.8032 355.665 36.918 356.298 36.9081C357.25 36.8931 358.962 36.8317 359.974 36.7525C360.726 36.6937 359.854 36.5736 360.807 36.5796C361.23 36.5825 360.454 36.7116 361.245 36.7096C362.03 36.7075 364.041 36.6156 364.81 36.5806C365.571 36.5455 365.149 36.4416 365.21 36.4309C365.58 36.3683 367.048 36.2503 367.175 36.2457C373.713 35.9735 379.75 35.994 386.115 35.8201C386.616 35.8069 386.28 35.6842 386.357 35.6809C388.068 35.6011 386.724 35.9616 387.919 36.0588C387.741 35.8015 388.454 35.8379 389.653 35.7969C390.236 35.7771 389.918 35.6797 389.971 35.6688C390.835 35.5076 391.431 35.7013 391.586 35.7406C392.161 35.8853 392.781 35.707 393.167 35.805C393.554 35.9024 392.66 36.0509 393.82 36.0461C394.145 35.9525 393.283 35.7108 394.164 35.67C394.954 35.6333 395.926 35.6182 396.954 35.6204C400.25 35.6224 404.299 35.8283 406.321 35.9133C408.974 36.0224 409.839 36.0481 411.378 36.1543C414.172 36.3577 413.15 36.1252 414.898 36.1442C416.642 36.1697 415.77 36.561 416.013 36.6716C416.253 36.7828 416.521 36.702 416.825 36.7751C417.128 36.8482 416.461 36.8677 417.178 36.9365C417.883 37.0027 419.86 36.9827 420.118 36.9049C420.664 36.7377 419.811 36.4424 421.691 36.6789C421.801 36.693 421.434 36.7785 421.854 36.8266C425.157 37.2019 428.584 37.5737 431.863 38.074C432.311 38.1428 431.893 38.2199 432.153 38.2613C434.765 38.6847 434.003 38.3889 435.275 38.3315C435.333 38.3291 435.396 38.3273 435.463 38.326C435.08 38.6005 435.884 38.9065 437.954 39.2158C439.198 39.4043 439.004 39.2327 439.826 39.2594C440.071 39.2669 440.937 39.503 441.107 39.4635C441.668 39.3354 440.878 38.9555 442.996 39.4064C443.089 39.4267 442.771 39.4938 443.094 39.5554C445.173 39.9581 445.464 39.7789 447.722 40.1617C449.495 40.4628 452.599 41.1963 454.606 41.6099C454.487 41.9572 456.408 42.2459 457.217 42.1489C458.516 42.4132 459.925 42.675 461.179 42.9565C461.606 43.0521 461.304 43.1003 461.356 43.1221C462.151 43.4601 462.772 43.3331 463.05 43.3779C463.772 43.4973 464.431 43.6198 465.104 43.752C467.276 44.1801 469.236 44.6869 471.487 45.0588C471.594 45.0769 471.809 44.8662 472.543 45.2259C472.59 45.2498 471.61 45.1398 472.966 45.4649C474.323 45.7894 476.843 46.5357 478.75 46.8894C479.209 46.9742 480.409 47.062 481.292 47.4503C481.409 47.5024 481.257 47.5388 481.424 47.6226C481.965 47.892 482.341 47.7237 482.96 48.1055C483.579 48.4871 484.937 49.0022 486.862 49.3477C486.923 49.3591 487.42 49.2789 488.014 49.4372C488.958 49.6889 490.294 50.0833 491.282 50.3424C491.756 50.4667 491.485 50.2651 491.568 50.2846C494.767 51.0557 497.007 51.771 500.395 52.7183C500.601 52.7761 500.952 52.8514 501.348 52.936C502.172 53.1137 503.245 53.3492 504.032 53.6507C505.324 54.1457 503.8 54.3819 506.89 55.0456C508.138 55.3135 509.894 54.9681 512.008 55.9317C516.327 56.9399 520.278 58.1064 524.675 58.8325C524.824 58.8574 525.225 58.812 525.616 58.8255C525.745 58.8292 525.876 58.8408 525.997 58.8653C526.682 59.0041 527.037 59.1792 527.524 59.2841C529.566 59.7274 531.459 60.0416 533.422 60.4899C534.167 60.6607 533.88 60.7043 534.774 60.9115C535.66 61.1178 536.283 61.117 537.472 61.4629C538.371 61.7253 539.214 62.2163 540.408 62.5385C540.524 62.2784 541.343 62.4803 542.831 62.7717C543.115 62.8274 542.837 62.658 542.973 62.6794C543.532 62.7661 544.008 62.9683 544.543 63.0464C544.671 63.065 544.7 62.9735 544.805 62.9835C545.716 63.0669 547.092 63.6427 547.33 63.7433C548.238 64.1252 548.712 64.1207 549.419 64.3644C550.109 64.6028 549.088 64.4035 549.799 64.6273C549.823 64.6338 549.846 64.6399 549.87 64.6463C551.621 65.109 553.886 65.6081 555.67 66.0298C556.386 66.1982 555.927 65.9596 556.03 65.9808C557.508 66.2933 558.966 66.7841 559.842 66.7367C560.704 67.6275 560.743 66.8871 562.813 67.5502C562.977 67.6035 563.108 67.9582 562.463 67.8401C561.818 67.7221 560.882 67.3868 559.983 67.2399C559.764 67.2027 558.51 67.1987 558.337 67.1758C557.028 67.0039 556.951 66.5094 556.891 66.4687C556.186 66.018 554.646 65.9827 554.259 65.9163C552.562 65.6218 551.143 65.2463 549.722 64.9849L549.706 64.9809C549.627 64.9632 549.548 64.9459 549.47 64.9291C548.5 64.7213 548.326 64.9912 547.579 64.7874C545.08 64.11 544.316 63.4793 541.856 63.2524C541.332 63.2056 541.755 63.6491 539.999 62.9553C539.892 62.9122 538.591 62.3543 537.779 62.3202C537.675 62.3156 537.656 62.4108 537.524 62.3883C536.65 62.2383 536.08 62.0272 535.129 61.8488C534.176 61.6701 533.024 61.4695 531.95 61.2022C531.301 61.0406 530.507 60.6862 530.199 60.576C529.341 60.2638 528.353 60.2737 527.835 60.0111C527.319 59.7484 528.443 59.7341 527.01 59.3437C526.906 59.58 526.738 59.8106 526.599 60.0415C526.206 59.9625 525.812 59.8828 525.426 59.805C522.632 59.2427 519.89 58.5811 517.102 57.9233C516.708 57.8305 517.079 58.0591 516.655 57.9626C514.869 57.5534 513.337 57.0671 511.493 56.6314C510.064 56.2943 508.467 56.0236 506.978 55.6685C506.145 55.1508 503.921 54.6636 502.33 54.2162C501.767 54.0584 501.832 53.9958 501.438 53.8659C501.323 53.8281 501.22 53.7957 501.129 53.7682C500.06 53.4457 500.565 53.8063 500.173 53.7412C498.367 53.4403 498.36 52.8406 496.274 52.3014C496.169 52.2739 494.738 52.2121 494.548 52.1818C493.332 51.9886 494.379 52.0261 493.648 51.8087C492.31 51.4113 491.389 51.0917 489.785 50.7635C489.317 50.668 488.163 50.5637 487.303 50.1865C487.189 50.1368 487.28 50.0555 487.187 50.0249C485.495 49.4825 485.369 49.7807 484.36 49.6325C483.35 49.4841 481.888 48.8842 481.594 48.7446C480.826 48.3805 482.231 48.8334 482.278 48.8292C482.84 48.774 481.725 48.5237 480.882 48.2947C480.836 47.9596 479.647 47.6808 480.008 48.059C480.049 48.1006 480.715 48.2378 480.882 48.2947C480.063 48.4053 478.754 48.1173 477.384 47.4851C476.741 47.1894 477.418 47.1903 475.355 46.7501C474.422 46.5526 474.725 46.8472 473.894 46.7098C471.99 46.3948 469.6 45.6408 467.648 45.2584C466.941 45.1202 467.601 45.3807 467.12 45.2913C466.339 45.1468 465.618 44.9741 464.895 44.8198C464.41 44.7167 463.936 44.6208 463.428 44.5395C463.309 44.5204 463.574 44.6984 463.168 44.6204C460.133 44.0403 457.484 43.4376 454.317 42.8204C452.775 42.5194 450.027 42.062 448.436 41.7543C445.69 41.2175 442.323 40.4516 439.953 40.127C438.409 39.9143 438.725 40.0903 438.055 40.0737C437.199 40.0534 435.946 39.7809 435.101 39.5751C434.674 39.4698 434.336 39.3788 434.24 39.35C434.225 39.3459 435.563 39.5027 434.865 39.3414C434.468 39.1527 434.254 39.3514 434.24 39.35C434.037 39.2895 431.391 38.9117 430.858 38.8733C430.568 38.8503 430.715 38.9866 430.563 38.9724C426.996 38.6389 423.421 38.31 419.809 37.9696C419.745 37.9622 419.852 37.8391 419.702 37.8234C417.606 37.6016 416.25 37.6726 414.513 37.663C412.78 37.655 411.394 37.5555 410.388 37.2843C409.079 37.2518 407.2 37.0814 406.124 36.9876C405.039 36.8931 404.886 37.1454 404.79 37.1475C401.82 37.2296 400.11 37.0548 397.024 37.0105C396.998 37.0102 396.973 37.0099 396.946 37.0096C395.465 36.9895 392.628 37.0303 391.068 37.0716C389.813 37.104 389.06 37.0526 387.9 37.1061C387.743 37.1133 387.904 37.2248 387.856 37.2298C386.572 37.3837 387.185 37.0976 386.919 37.0518C385.948 36.8865 385.353 36.7995 383.699 36.917C383.32 36.9439 382.214 37.3671 381.523 37.4068C380.621 37.4577 380.958 37.3062 380.013 37.3644C379.932 37.3693 379.952 37.4571 379.368 37.4683C376.659 37.5217 373.703 37.5627 370.889 37.6728C370.505 37.6875 371.002 37.8098 370.448 37.8335C367.842 37.9446 364.984 38.0555 362.442 38.1025C361.815 38.1137 362.203 37.9982 362.066 37.9751C361.229 37.8357 360.053 38.1466 359.861 38.1606C355.216 38.5024 351.652 38.4563 346.919 38.8438C346.659 38.8652 344.711 39.2572 343.796 39.0789C343.739 39.0668 342.839 38.8815 342.084 39.0956C342.035 39.1092 342.591 39.1974 341.637 39.2467C341.34 39.2622 340.993 39.2902 340.625 39.3198C339.753 39.3893 338.762 39.4682 337.843 39.4395C337.432 39.426 336.433 39.2565 335.22 39.5438C335.128 39.5632 333.274 40.148 332.574 39.9121C332.455 39.8742 332.553 39.5431 331.096 39.8446C330.82 39.9033 331.328 39.9239 330.606 40.0398C329.48 40.2208 327.99 40.3008 326.652 40.6393C326.415 40.6977 325.449 41.0625 324.615 41.0479C324.484 41.0455 324.706 40.898 324.276 40.9636C323.479 41.0861 322.665 41.241 321.832 41.3939C320.533 41.6319 319.225 41.8654 317.938 42.0455C317.192 42.15 317.54 41.9154 316.759 42.0065C315.979 42.0971 314.415 42.334 313.624 42.5611C312.829 42.7889 313.763 42.8903 312.56 43.1393C309.411 43.7942 306.285 44.4117 303.164 45.0974C301.109 45.5497 299.056 46.0325 296.99 46.5502C296.227 46.7422 296.882 46.6742 295.754 46.9666C291.585 48.0447 284.419 50.0586 280.747 50.8253C277.806 51.4389 281.421 50.3435 279.19 50.8689C278.109 51.1239 277.04 51.7355 276.78 51.8149C274.871 52.4015 273.359 52.7332 271.751 53.1339C271.257 53.257 270.754 53.3862 270.225 53.5316C269.756 53.6603 270.25 53.6669 269.85 53.775C268.487 54.145 267.034 54.4495 265.726 54.7833C265.142 54.9326 265.271 55.0019 264.73 55.127C263.432 55.4283 262.277 55.6666 260.995 55.8818C260.878 55.9014 261.624 55.5959 260.666 55.8225C259.116 56.1894 257.171 56.562 255.412 57.0805C254.891 57.2348 254.922 57.4573 253.751 57.5806C253.505 57.607 253.747 57.2712 252.48 57.8176C252.266 57.9086 250.124 58.7536 248.991 58.8305C248.941 58.8338 248.878 58.8357 248.804 58.8375C248.424 58.8492 247.808 58.8526 247.284 59.0173C247.201 59.0445 247.57 59.0734 247.055 59.2183C245.219 59.7288 243.343 60.2526 241.437 60.8374C240.923 60.9897 241.727 60.8988 240.957 61.12C240.22 61.3296 239.406 61.5276 238.584 61.7051C237.088 62.0284 235.527 62.3924 234.202 62.7081C233.454 62.8866 233.942 62.6537 233.886 62.6567C232.967 62.7066 232.514 63.0823 232.228 63.1727C230.447 63.734 229.04 63.9942 227.371 64.4572C226.91 64.5842 227.267 64.6135 227.178 64.6473C226.246 64.9914 226.907 64.6049 226.295 64.7364C225.119 64.987 223.856 65.2835 222.615 65.5664C222.073 65.6901 221.535 65.8299 221.011 65.9733C220.399 66.143 221.123 66.0894 220.575 66.2411C217.326 67.1705 213.842 68.2078 210.532 68.9164C209.905 69.0525 210.274 68.8559 210.139 68.8637C209.212 68.9146 207.954 69.4292 207.657 69.515C206.943 69.7237 206.455 69.8242 205.966 69.9137C205.531 69.9933 205.115 70.0606 204.541 70.1825C198.645 71.4569 191.261 72.5042 185.634 73.1815C184.149 73.3677 182.719 73.5372 181.386 73.733C175.978 74.5314 171.216 75.1033 165.599 75.6145C165.15 75.6541 165.614 75.7549 165.227 75.7905C164.634 75.844 164.041 75.8931 163.45 75.9379C159.04 76.263 154.69 76.3209 150.266 76.3425C149.855 76.3435 150.448 76.4791 149.786 76.4845C148.425 76.496 146.712 76.4583 145.332 76.3693C144.663 76.3261 145.563 76.2437 144.893 76.202C143.315 76.1008 141.644 76.0087 140.001 75.8699C139.289 75.8056 140.337 76.0525 139.43 75.9561C138.956 75.9026 138.495 75.8429 138.008 75.7544C133.082 74.9851 127.801 74.8316 122.523 73.7727C122.167 73.7005 121.825 73.6291 121.473 73.5541C121.065 73.4664 120.748 73.1297 119.862 73.0111C119.781 73.0731 119.767 73.1619 119.723 73.2362C115.606 72.4887 111.494 71.2927 107.599 69.9274C103.14 68.4941 98.884 66.1517 94.8932 64.1081C94.5678 63.9522 95.065 64.3493 94.4395 64.053C90.8328 62.3396 86.9976 61.437 82.9098 60.5631C82.5105 60.4799 82.7372 60.2539 81.5382 60.0966C81.4524 60.0857 81.1088 60.0374 80.68 59.983C80.0551 59.9039 79.2906 59.8205 78.9891 59.8116C78.9232 59.8108 79.2413 59.9763 78.6518 59.8969C75.1901 59.433 71.5575 58.9593 68.0971 58.506C67.5391 58.4331 68.1487 58.3714 67.7511 58.3184C64.9306 57.9448 61.8374 57.7433 59.1514 57.448C57.3448 57.2567 58.0328 57.0801 57.0781 56.8159C56.9448 56.7768 55.817 56.7352 55.7653 56.611C55.6215 56.2907 56.1773 55.9561 55.9598 55.613C55.9186 55.5331 54.379 55.6029 55.2845 55.4316C55.3539 55.4169 56.4745 55.3834 56.747 55.3374C56.9425 55.3037 56.5963 55.1616 56.997 55.1249C57.3818 55.0882 57.8089 55.2159 58.4584 55.1919C59.099 55.1688 58.8371 55.0023 60.1157 55.0755ZM401.258 36.5976C400.253 36.4582 400.097 36.9046 401.188 36.8152C401.24 36.8104 401.309 36.6045 401.258 36.5976ZM520.382 58.3231C519.141 57.8434 518.199 57.9198 519.07 58.2785C519.943 58.6356 520.761 58.4685 520.382 58.3231ZM533.741 60.9643C532.276 60.4798 531.906 61.0505 533.535 61.2786C533.63 61.2922 533.828 60.9929 533.741 60.9643ZM61.554 57.0513C61.5386 57.0436 60.7367 56.9731 60.7133 56.9776C60.2724 57.0852 61.8853 57.2263 61.554 57.0513ZM546.908 63.9725C546.468 63.7699 545.107 63.526 545.655 63.7761C546.097 63.9766 547.458 64.2249 546.908 63.9725ZM348.893 37.5674C348.876 37.5617 348.29 37.5891 348.304 37.6262C348.349 37.7454 349.165 37.6646 348.893 37.5674ZM569.143 69.641C568.888 69.5494 568.645 69.4479 568.417 69.3487L568.427 69.3522C565.687 68.4216 564.359 67.6205 567.63 68.6098C568.274 68.8109 566.192 68.3626 567.003 68.649C567.548 68.8409 568.039 68.963 568.514 69.0767L568.523 69.0801C569.317 69.3408 570.055 69.481 571.007 69.7851C571.283 69.8923 569.33 69.7522 569.137 69.6397C569.139 69.6401 569.141 69.6406 569.143 69.641ZM400.687 36.0491C400.663 36.0426 399.862 36.0252 399.843 36.031C399.406 36.1671 401.024 36.2021 400.687 36.0491ZM315.123 41.0772C315.073 41.072 313.234 41.3965 313.174 41.4209C312.257 41.8258 315.982 41.1679 315.123 41.0772ZM454.636 41.6255C455.519 41.651 456.571 41.839 457.213 42.1479C456.367 41.9727 455.49 41.8002 454.636 41.6255Z" fill="#E6E6E6"/>
</svg>
