<svg width="533" height="249" viewBox="0 0 533 249" fill="none" xmlns="http://www.w3.org/2000/svg">
<g opacity="0.99">
<path d="M517.568 63.072C513.728 63.072 510.496 62.208 507.872 60.48C505.248 58.688 503.264 56.384 501.92 53.568C500.64 50.752 500 47.776 500 44.64C500 40.736 500.896 37.248 502.688 34.176C504.48 31.04 506.912 28.576 509.984 26.784C513.12 24.928 516.544 24 520.256 24C523.904 24 526.656 24.96 528.512 26.88C530.432 28.8 531.392 31.488 531.392 34.944C531.392 35.776 531.296 36.416 531.104 36.864C530.976 37.248 530.688 37.44 530.24 37.44H524.864C525.12 33.536 524.544 30.656 523.136 28.8C521.728 26.88 519.712 25.92 517.088 25.92C513.696 25.92 511.04 27.264 509.12 29.952C507.264 32.64 506.336 36.32 506.336 40.992C506.336 44.64 506.912 47.872 508.064 50.688C509.216 53.504 510.912 55.712 513.152 57.312C515.392 58.912 518.112 59.712 521.312 59.712C523.488 59.712 525.28 59.392 526.688 58.752C528.096 58.112 531.092 54.4 532.5 53.568C532.308 53.248 532.628 53.44 532.5 53.568C533.5 53.568 530.048 57.6191 531.392 56.5C529.152 58.484 527.04 60.928 524.672 61.824C522.368 62.656 520 63.072 517.568 63.072ZM504.608 37.536L504.512 36.288L526.304 35.904V37.44L504.608 37.536Z" fill="#171717"/>
<path d="M465.152 63.304C464.96 63.304 464.864 63.112 464.864 62.728C464.864 62.344 464.96 62.152 465.152 62.152C467.648 62.152 469.248 61.736 469.952 60.904C470.72 60.008 471.104 58.216 471.104 55.528V39.976C471.104 36.136 470.4 33.352 468.992 31.624C467.584 29.832 465.344 28.936 462.272 28.936C459.968 28.936 457.6 29.672 455.168 31.144C452.736 32.616 450.656 34.632 448.928 37.192L448.544 36.04C451.36 32.264 454.144 29.48 456.896 27.688C459.712 25.896 462.56 25 465.44 25C468.96 25 471.68 25.992 473.6 27.976C475.584 29.896 476.576 32.808 476.576 36.712V55.528C476.576 58.216 476.928 60.008 477.632 60.904C478.4 61.736 480.032 62.152 482.528 62.152C482.72 62.152 482.816 62.344 482.816 62.728C482.816 63.112 482.72 63.304 482.528 63.304C481.44 63.304 480.128 63.272 478.592 63.208C477.12 63.144 475.552 63.112 473.888 63.112C472.224 63.112 470.624 63.144 469.088 63.208C467.552 63.272 466.24 63.304 465.152 63.304ZM439.328 63.304C439.136 63.304 439.04 63.112 439.04 62.728C439.04 62.344 439.136 62.152 439.328 62.152C441.824 62.152 443.424 61.736 444.128 60.904C444.896 60.008 445.28 58.216 445.28 55.528V36.52C445.28 34.408 445.024 32.872 444.512 31.912C444.064 30.888 443.2 30.376 441.92 30.376C441.28 30.376 440.512 30.504 439.616 30.76C438.784 31.016 437.824 31.368 436.736 31.816C436.48 31.88 436.256 31.752 436.064 31.432C435.936 31.112 436 30.888 436.256 30.76L447.392 25.48C447.584 25.416 447.776 25.384 447.968 25.384C448.416 25.384 448.992 26.056 449.696 27.4C450.4 28.744 450.752 30.696 450.752 33.256V55.528C450.752 58.216 451.104 60.008 451.808 60.904C452.576 61.736 454.208 62.152 456.704 62.152C456.896 62.152 456.992 62.344 456.992 62.728C456.992 63.112 456.896 63.304 456.704 63.304C455.616 63.304 454.304 63.272 452.768 63.208C451.296 63.144 449.728 63.112 448.064 63.112C446.4 63.112 444.8 63.144 443.264 63.208C441.728 63.272 440.416 63.304 439.328 63.304Z" fill="#171717"/>
<path d="M398.72 63.552C394.944 63.552 391.648 62.624 388.832 60.768C386.016 58.912 383.84 56.448 382.304 53.376C380.768 50.24 380 46.88 380 43.296C380 39.968 380.608 37.088 381.824 34.656C383.04 32.224 384.672 30.24 386.72 28.704C388.768 27.104 390.976 25.92 393.344 25.152C395.776 24.384 398.144 24 400.448 24C404.352 24 407.68 24.96 410.432 26.88C413.248 28.8 415.392 31.264 416.864 34.272C418.336 37.28 419.072 40.448 419.072 43.776C419.072 47.872 418.144 51.392 416.288 54.336C414.432 57.28 411.968 59.552 408.896 61.152C405.824 62.752 402.432 63.552 398.72 63.552ZM401.504 61.728C404.896 61.728 407.584 60.544 409.568 58.176C411.552 55.744 412.544 51.84 412.544 46.464C412.544 42.432 411.872 38.88 410.528 35.808C409.248 32.672 407.456 30.24 405.152 28.512C402.848 26.72 400.224 25.824 397.28 25.824C393.888 25.824 391.232 27.072 389.312 29.568C387.392 32.064 386.432 35.648 386.432 40.32C386.432 44.224 387.072 47.808 388.352 51.072C389.632 54.336 391.392 56.928 393.632 58.848C395.936 60.768 398.56 61.728 401.504 61.728Z" fill="#171717"/>
<path d="M329.4 4.512C325.432 4.512 322.424 5.536 320.376 7.584C318.392 9.632 316.952 13.12 316.056 18.048C316.056 18.176 315.864 18.24 315.48 18.24C315.16 18.24 315 18.176 315 18.048C315.128 17.216 315.256 16.064 315.384 14.592C315.512 13.056 315.64 11.424 315.768 9.696C315.96 7.968 316.088 6.304 316.152 4.704C316.28 3.04 316.344 1.696 316.344 0.672003C316.344 0.352003 316.504 0.192003 316.824 0.192003C317.208 0.192003 317.4 0.352003 317.4 0.672003C317.4 1.312 317.72 1.792 318.36 2.112C319 2.368 319.704 2.56 320.472 2.688C321.304 2.752 322.008 2.784 322.584 2.784C328.088 2.976 334.52 3.072 341.88 3.072C346.424 3.072 350.008 3.04 352.632 2.976C355.32 2.848 357.912 2.784 360.408 2.784C362.584 2.784 364.248 2.656 365.4 2.4C366.616 2.08 367.384 1.408 367.704 0.384001C367.768 0.128 367.96 0 368.28 0C368.6 0 368.76 0.128 368.76 0.384001C368.696 1.344 368.6 2.656 368.472 4.32C368.344 5.984 368.248 7.71201 368.184 9.50401C368.12 11.296 368.056 12.96 367.992 14.496C367.928 16.032 367.896 17.216 367.896 18.048C367.896 18.176 367.704 18.24 367.32 18.24C366.936 18.24 366.744 18.176 366.744 18.048C366.552 13.056 365.528 9.568 363.672 7.584C361.816 5.536 358.744 4.512 354.456 4.512C351.768 4.512 349.752 4.64 348.408 4.896C347.064 5.152 346.168 5.728 345.72 6.624C345.336 7.456 345.144 8.832 345.144 10.752V55.008C345.144 56.864 345.368 58.272 345.816 59.232C346.264 60.192 347.128 60.832 348.408 61.152C349.752 61.472 351.768 61.632 354.456 61.632C354.648 61.632 354.744 61.824 354.744 62.208C354.744 62.592 354.648 62.784 354.456 62.784C352.792 62.784 350.904 62.752 348.792 62.688C346.68 62.624 344.376 62.592 341.88 62.592C339.512 62.592 337.272 62.624 335.16 62.688C333.048 62.752 331.128 62.784 329.4 62.784C329.272 62.784 329.208 62.592 329.208 62.208C329.208 61.824 329.272 61.632 329.4 61.632C332.024 61.632 334.008 61.472 335.352 61.152C336.76 60.832 337.688 60.192 338.136 59.232C338.584 58.272 338.808 56.864 338.808 55.008V10.56C338.808 8.64 338.584 7.264 338.136 6.432C337.688 5.536 336.792 4.992 335.448 4.8C334.104 4.608 332.088 4.512 329.4 4.512Z" fill="#171717"/>
<path d="M256.768 62.592C256.512 62.72 256.256 62.784 256 62.784C255.168 62.784 254.368 62.112 253.6 60.768C252.832 59.36 252.448 57.344 252.448 54.72V36.576C252.448 32.608 251.872 29.824 250.72 28.224C249.632 26.624 248.192 25.824 246.4 25.824C244.8 25.824 243.488 26.24 242.464 27.072C241.44 27.84 240.672 28.768 240.16 29.856C239.712 30.944 239.392 31.968 239.2 32.928C239.008 33.824 238.688 34.72 238.24 35.616C237.792 36.448 236.896 36.864 235.552 36.864C234.464 36.864 233.664 36.576 233.152 36C232.64 35.36 232.384 34.688 232.384 33.984C232.384 32.768 232.96 31.584 234.112 30.432C235.328 29.28 236.832 28.224 238.624 27.264C240.48 26.24 242.4 25.44 244.384 24.864C246.432 24.288 248.256 24 249.856 24C252.48 24 254.464 24.864 255.808 26.592C257.152 28.256 257.824 30.624 257.824 33.696V51.648C257.824 53.888 258.112 55.52 258.688 56.544C259.264 57.568 260.192 58.08 261.472 58.08C262.624 58.08 264.224 57.664 266.272 56.832C266.592 56.704 266.816 56.832 266.944 57.216C267.072 57.536 266.976 57.76 266.656 57.888L256.768 62.592ZM239.488 62.688C237.056 62.688 235.2 62.048 233.92 60.768C232.64 59.424 232 57.856 232 56.064C232 54.784 232.32 53.632 232.96 52.608C233.664 51.52 234.752 50.528 236.224 49.632C237.696 48.736 239.584 47.872 241.888 47.04L253.408 42.72L253.696 43.968L243.52 47.904C242.368 48.352 241.408 48.864 240.64 49.44C239.872 50.016 239.296 50.656 238.912 51.36C238.592 52.064 238.432 52.832 238.432 53.664C238.432 55.136 238.912 56.416 239.872 57.504C240.832 58.592 242.144 59.136 243.808 59.136C244.448 59.136 245.12 59.04 245.824 58.848C246.528 58.656 247.392 58.24 248.416 57.6L254.464 53.952L254.656 55.2L247.552 59.808C246.016 60.832 244.608 61.568 243.328 62.016C242.112 62.464 240.832 62.688 239.488 62.688Z" fill="#171717"/>
<path d="M197.093 60.216C196.965 60.216 196.901 60.024 196.901 59.64C196.901 59.256 196.965 59.064 197.093 59.064C199.589 59.064 201.221 58.648 201.989 57.816C202.821 56.92 203.237 55.128 203.237 52.44V34.488C203.237 32.248 203.013 30.616 202.565 29.592C202.117 28.504 201.285 27.96 200.069 27.96C199.557 27.96 198.949 28.088 198.245 28.344C197.541 28.536 196.709 28.856 195.749 29.304C195.493 29.368 195.269 29.24 195.077 28.92C194.949 28.536 194.981 28.28 195.173 28.152L207.653 22.392C207.845 22.328 207.973 22.296 208.037 22.296C208.165 22.296 208.325 22.392 208.517 22.584C208.709 22.712 208.805 22.872 208.805 23.064C208.805 23.576 208.773 24.824 208.709 26.808C208.645 28.792 208.613 31.32 208.613 34.392V52.44C208.613 55.128 208.965 56.92 209.669 57.816C210.437 58.648 212.101 59.064 214.661 59.064C214.853 59.064 214.949 59.256 214.949 59.64C214.949 60.024 214.853 60.216 214.661 60.216C213.509 60.216 212.165 60.184 210.629 60.12C209.157 60.056 207.589 60.024 205.925 60.024C204.261 60.024 202.661 60.056 201.125 60.12C199.653 60.184 198.309 60.216 197.093 60.216ZM205.157 11.064C203.877 11.064 202.853 10.712 202.085 10.008C201.317 9.304 200.933 8.312 200.933 7.032C200.933 5.752 201.317 4.76 202.085 4.056C202.853 3.352 203.877 3 205.157 3C206.437 3 207.429 3.352 208.133 4.056C208.837 4.76 209.189 5.752 209.189 7.032C209.189 9.72 207.845 11.064 205.157 11.064Z" fill="#171717"/>
<path d="M159.736 35.904L159.352 34.848C161.72 31.968 163.672 29.76 165.208 28.224C166.744 26.624 168.056 25.536 169.144 24.96C170.296 24.32 171.384 24 172.408 24C173.752 24 175.064 24.384 176.344 25.152C177.688 25.92 178.36 26.848 178.36 27.936C178.36 28.768 178.072 29.472 177.496 30.048C176.984 30.624 176.216 30.912 175.192 30.912C174.36 30.912 173.656 30.656 173.08 30.144C172.504 29.632 171.896 29.152 171.256 28.704C170.616 28.256 169.784 28.032 168.76 28.032C168.184 28.032 167.576 28.192 166.936 28.512C166.296 28.832 165.432 29.568 164.344 30.72C163.256 31.808 161.72 33.536 159.736 35.904ZM150.328 61.92C150.136 61.92 150.04 61.728 150.04 61.344C150.04 60.96 150.136 60.768 150.328 60.768C152.824 60.768 154.424 60.352 155.128 59.52C155.896 58.624 156.28 56.832 156.28 54.144V35.136C156.28 33.024 156.024 31.488 155.512 30.528C155.064 29.504 154.2 28.992 152.92 28.992C152.28 28.992 151.512 29.12 150.616 29.376C149.784 29.632 148.824 29.984 147.736 30.432C147.48 30.496 147.256 30.368 147.064 30.048C146.936 29.728 147 29.504 147.256 29.376L158.392 24.096C158.584 24.032 158.776 24 158.968 24C159.416 24 159.992 24.672 160.696 26.016C161.4 27.36 161.752 29.312 161.752 31.872V54.144C161.752 55.936 161.976 57.344 162.424 58.368C162.872 59.328 163.768 59.968 165.112 60.288C166.456 60.608 168.44 60.768 171.064 60.768C171.32 60.768 171.448 60.96 171.448 61.344C171.448 61.728 171.32 61.92 171.064 61.92C169.528 61.92 167.704 61.888 165.592 61.824C163.544 61.76 161.368 61.728 159.064 61.728C157.4 61.728 155.8 61.76 154.264 61.824C152.728 61.888 151.416 61.92 150.328 61.92Z" fill="#171717"/>
<path d="M100.056 62.688C96.92 62.688 94.424 61.696 92.568 59.712C90.776 57.664 89.88 54.72 89.88 50.88V36.192C89.88 33.696 89.656 31.904 89.208 30.816C88.824 29.664 88.088 29.088 87 29.088C86.104 29.088 85.016 29.408 83.736 30.048C83.48 30.112 83.256 29.952 83.064 29.568C82.936 29.184 83 28.96 83.256 28.896L93.912 24.096C94.04 24.032 94.168 24 94.296 24C94.488 24 94.68 24.096 94.872 24.288C95.128 24.416 95.256 24.576 95.256 24.768V47.712C95.256 51.488 95.928 54.304 97.272 56.16C98.616 57.952 100.632 58.848 103.32 58.848C105.752 58.848 108.184 58.112 110.616 56.64C113.112 55.168 115.288 53.184 117.144 50.688L117.624 51.744C114.68 55.52 111.768 58.304 108.888 60.096C106.072 61.824 103.128 62.688 100.056 62.688ZM120.696 24.768V51.648C120.696 53.824 120.952 55.392 121.464 56.352C121.976 57.312 122.84 57.792 124.056 57.792C124.696 57.792 125.4 57.696 126.168 57.504C127 57.248 127.992 56.896 129.144 56.448C129.464 56.32 129.688 56.448 129.816 56.832C129.944 57.152 129.88 57.376 129.624 57.504L118.392 62.784C118.264 62.848 118.136 62.88 118.008 62.88C117.496 62.88 116.92 62.208 116.28 60.864C115.64 59.456 115.32 57.472 115.32 54.912V36.192C115.32 33.696 115.096 31.904 114.648 30.816C114.264 29.664 113.528 29.088 112.44 29.088C111.544 29.088 110.456 29.408 109.176 30.048C108.92 30.112 108.728 29.952 108.6 29.568C108.472 29.184 108.536 28.96 108.792 28.896L119.448 24.096C119.576 24.032 119.672 24 119.736 24C119.928 24 120.12 24.096 120.312 24.288C120.568 24.416 120.696 24.576 120.696 24.768Z" fill="#171717"/>
<path d="M18.912 35.752L19.872 33.832H45.312L45.984 35.752H18.912ZM67.392 61C67.648 61 71.7755 59.656 71.7755 60.04C71.7755 60.424 67.648 62.152 67.392 62.152C65.536 62.152 63.648 62.088 61.728 61.96C59.808 61.832 57.952 61.768 56.16 61.768C54.176 61.768 52.448 61.832 50.976 61.96C49.504 62.088 47.872 62.152 46.08 62.152C45.824 62.152 45.696 61.96 45.696 61.576C45.696 61.192 45.824 61 46.08 61C49.472 61 51.584 60.52 52.416 59.56C53.248 58.536 53.024 56.648 51.744 53.896L30.432 8.872L32.832 5.896L14.208 49.96C12.608 53.864 12.512 56.68 13.92 58.408C15.328 60.136 18.112 61 22.272 61C22.592 61 22.752 61.192 22.752 61.576C22.752 61.96 22.592 62.152 22.272 62.152C20.352 62.152 18.592 62.088 16.992 61.96C15.392 61.832 13.376 61.768 10.944 61.768C8.64 61.768 6.78399 61.832 5.37599 61.96C4.03199 62.088 2.36799 62.152 0.383987 62.152C0.127987 62.152 0 61.96 0 61.576C0 61.192 0.127987 61 0.383987 61C2.11199 61 3.616 60.68 4.896 60.04C6.176 59.336 7.36 58.152 8.448 56.488C9.6 54.76 10.848 52.296 12.192 49.096L32.448 1.288C32.576 1.096 32.8 1 33.12 1C33.44 1 33.632 1.096 33.696 1.288L50.976 39.152C52.448 42.288 59.136 54.6 60.288 56.392C61.44 58.12 62.56 59.336 63.648 60.04C64.8 60.68 66.048 61 67.392 61Z" fill="#171717"/>
</g>
<path d="M171 137H361" stroke="#C98E82" stroke-width="2" stroke-linecap="round"/>
<path d="M146.952 216.48H149.108V220.68H146.952V216.48ZM146.952 232.776H149.108V240.532H146.952V232.776ZM143.844 221.016H146.028C145.879 222.304 145.645 223.471 145.328 224.516C145.011 225.543 144.525 226.448 143.872 227.232C143.237 228.016 142.369 228.697 141.268 229.276C140.185 229.836 138.795 230.312 137.096 230.704C137.04 230.517 136.947 230.321 136.816 230.116C136.704 229.892 136.573 229.677 136.424 229.472C136.275 229.248 136.116 229.061 135.948 228.912C137.497 228.613 138.757 228.24 139.728 227.792C140.717 227.325 141.492 226.775 142.052 226.14C142.612 225.487 143.023 224.74 143.284 223.9C143.545 223.041 143.732 222.08 143.844 221.016ZM150.088 220.96H152.16V226.896C152.16 227.232 152.235 227.447 152.384 227.54C152.533 227.633 152.86 227.68 153.364 227.68C153.495 227.68 153.719 227.68 154.036 227.68C154.353 227.68 154.708 227.68 155.1 227.68C155.511 227.68 155.884 227.68 156.22 227.68C156.575 227.68 156.827 227.68 156.976 227.68C157.256 227.68 157.461 227.633 157.592 227.54C157.741 227.428 157.844 227.213 157.9 226.896C157.975 226.56 158.021 226.065 158.04 225.412C158.189 225.524 158.367 225.627 158.572 225.72C158.796 225.813 159.02 225.897 159.244 225.972C159.487 226.047 159.701 226.112 159.888 226.168C159.813 227.045 159.683 227.727 159.496 228.212C159.309 228.697 159.039 229.043 158.684 229.248C158.329 229.435 157.835 229.528 157.2 229.528C157.051 229.528 156.78 229.528 156.388 229.528C156.015 229.528 155.604 229.528 155.156 229.528C154.708 229.528 154.288 229.528 153.896 229.528C153.523 229.528 153.28 229.528 153.168 229.528C152.347 229.528 151.712 229.453 151.264 229.304C150.816 229.155 150.508 228.884 150.34 228.492C150.172 228.1 150.088 227.568 150.088 226.896V220.96ZM136.284 219.392H160V224.432H157.844V221.324H138.356V225.048H136.284V219.392ZM138.72 231.88H158.012V233.812H138.72V231.88ZM135.78 239.468H160.448V241.4H135.78V239.468ZM181.644 233.644H190.128V235.268H181.644V233.644ZM181.532 229.416H191.08V239.636H181.532V237.984H189.12V231.068H181.532V229.416ZM180.636 229.416H182.54V241.064H180.636V229.416ZM175.456 221.66H183.24V223.2H175.456V221.66ZM188.364 221.66H196.316V223.2H188.364V221.66ZM195.42 217.684H197.548V239.468C197.548 240.121 197.455 240.635 197.268 241.008C197.1 241.381 196.783 241.661 196.316 241.848C195.868 242.035 195.252 242.147 194.468 242.184C193.703 242.221 192.741 242.24 191.584 242.24C191.547 242.035 191.491 241.801 191.416 241.54C191.341 241.279 191.248 241.017 191.136 240.756C191.043 240.495 190.949 240.271 190.856 240.084C191.416 240.103 191.957 240.112 192.48 240.112C193.021 240.112 193.497 240.112 193.908 240.112C194.319 240.112 194.608 240.112 194.776 240.112C195.019 240.093 195.187 240.037 195.28 239.944C195.373 239.851 195.42 239.683 195.42 239.44V217.684ZM175.624 217.684H184.584V227.288H175.624V225.692H182.624V219.308H175.624V217.684ZM196.484 217.684V219.308H189.12V225.72H196.484V227.344H187.132V217.684H196.484ZM174.42 217.684H176.52V242.268H174.42V217.684ZM223.616 217.376H225.604V220.792C225.604 221.576 225.511 222.416 225.324 223.312C225.137 224.208 224.792 225.076 224.288 225.916C223.784 226.756 223.028 227.512 222.02 228.184C221.927 228.035 221.777 227.876 221.572 227.708C221.385 227.521 221.189 227.344 220.984 227.176C220.797 226.989 220.629 226.859 220.48 226.784C221.376 226.187 222.048 225.552 222.496 224.88C222.944 224.189 223.243 223.489 223.392 222.78C223.541 222.071 223.616 221.389 223.616 220.736V217.376ZM230.42 217.376H232.436V224.236C232.436 224.553 232.464 224.759 232.52 224.852C232.595 224.927 232.744 224.964 232.968 224.964C233.043 224.964 233.173 224.964 233.36 224.964C233.547 224.964 233.743 224.964 233.948 224.964C234.153 224.964 234.303 224.964 234.396 224.964C234.545 224.964 234.657 224.899 234.732 224.768C234.825 224.637 234.891 224.357 234.928 223.928C234.984 223.48 235.012 222.808 235.012 221.912C235.217 222.08 235.497 222.229 235.852 222.36C236.207 222.491 236.524 222.593 236.804 222.668C236.748 223.769 236.636 224.619 236.468 225.216C236.319 225.813 236.095 226.233 235.796 226.476C235.516 226.7 235.124 226.812 234.62 226.812C234.489 226.812 234.293 226.812 234.032 226.812C233.771 226.812 233.5 226.812 233.22 226.812C232.959 226.812 232.772 226.812 232.66 226.812C232.081 226.812 231.624 226.737 231.288 226.588C230.971 226.439 230.747 226.187 230.616 225.832C230.485 225.459 230.42 224.936 230.42 224.264V217.376ZM225.128 230.564C226.08 232.991 227.564 235.063 229.58 236.78C231.615 238.497 234.041 239.711 236.86 240.42C236.711 240.551 236.543 240.728 236.356 240.952C236.188 241.176 236.02 241.4 235.852 241.624C235.703 241.848 235.572 242.044 235.46 242.212C232.567 241.372 230.084 240.009 228.012 238.124C225.959 236.22 224.372 233.905 223.252 231.18L225.128 230.564ZM232.968 228.604H233.36L233.724 228.52L235.096 229.052C234.611 230.9 233.92 232.543 233.024 233.98C232.147 235.399 231.12 236.649 229.944 237.732C228.768 238.815 227.48 239.72 226.08 240.448C224.699 241.195 223.233 241.792 221.684 242.24C221.628 242.053 221.535 241.839 221.404 241.596C221.273 241.372 221.133 241.148 220.984 240.924C220.835 240.7 220.685 240.523 220.536 240.392C221.955 240.019 223.317 239.505 224.624 238.852C225.931 238.199 227.135 237.405 228.236 236.472C229.356 235.52 230.317 234.419 231.12 233.168C231.923 231.917 232.539 230.517 232.968 228.968V228.604ZM221.796 228.604H233.78V230.536H221.796V228.604ZM224.456 217.376H231.456V219.252H224.456V217.376ZM212.108 224.964H220.452V226.616H212.108V224.964ZM212.22 217.46H220.396V219.14H212.22V217.46ZM212.108 228.688H220.452V230.368H212.108V228.688ZM210.764 221.128H221.432V222.892H210.764V221.128ZM213.088 232.468H220.424V240.644H213.088V238.908H218.576V234.232H213.088V232.468ZM212.052 232.468H213.9V241.932H212.052V232.468ZM259.68 226.056H274.688V228.128H259.68V226.056ZM266.26 216.564H268.36V242.24H266.26V216.564ZM249.908 224.964H258.644V226.616H249.908V224.964ZM250.048 217.46H258.672V219.14H250.048V217.46ZM249.908 228.688H258.644V230.368H249.908V228.688ZM248.564 221.128H259.708V222.892H248.564V221.128ZM250.888 232.468H258.56V240.644H250.888V238.908H256.684V234.232H250.888V232.468ZM249.852 232.468H251.728V241.932H249.852V232.468ZM298.152 216.48H300.28V239.888C300.28 240.523 300.177 240.989 299.972 241.288C299.785 241.605 299.468 241.839 299.02 241.988C298.591 242.137 297.993 242.231 297.228 242.268C296.481 242.305 295.52 242.324 294.344 242.324C294.288 242.063 294.185 241.755 294.036 241.4C293.887 241.064 293.737 240.784 293.588 240.56C294.148 240.579 294.689 240.588 295.212 240.588C295.753 240.588 296.22 240.579 296.612 240.56C297.023 240.56 297.303 240.56 297.452 240.56C297.713 240.541 297.891 240.485 297.984 240.392C298.096 240.299 298.152 240.131 298.152 239.888V216.48ZM287.176 218.72H311.48V220.456H287.176V218.72ZM292.132 223.592V225.58H306.552V223.592H292.132ZM290.116 222.108H308.68V227.064H290.116V222.108ZM289.304 229.052H309.128V239.216H307V230.592H289.304V229.052ZM286.644 232.552H312.04V234.232H286.644V232.552ZM289.052 236.332H308.092V237.984H289.052V236.332ZM324.696 217.88H334.244V219.7H324.696V217.88ZM335.532 232.188H347.656V234.008H335.532V232.188ZM324.388 226.336H334.916V228.212H324.388V226.336ZM329.316 227.092H331.332V239.804C331.332 240.327 331.267 240.737 331.136 241.036C331.005 241.353 330.753 241.605 330.38 241.792C330.025 241.941 329.559 242.035 328.98 242.072C328.42 242.109 327.711 242.128 326.852 242.128C326.815 241.867 326.731 241.54 326.6 241.148C326.488 240.775 326.357 240.448 326.208 240.168C326.824 240.187 327.375 240.196 327.86 240.196C328.364 240.215 328.7 240.215 328.868 240.196C329.036 240.177 329.148 240.14 329.204 240.084C329.279 240.028 329.316 239.925 329.316 239.776V227.092ZM346.956 232.188H349.084C349.084 232.188 349.075 232.3 349.056 232.524C349.056 232.748 349.047 232.944 349.028 233.112C348.86 234.848 348.673 236.276 348.468 237.396C348.281 238.497 348.085 239.356 347.88 239.972C347.675 240.588 347.432 241.036 347.152 241.316C346.909 241.577 346.648 241.755 346.368 241.848C346.107 241.96 345.78 242.035 345.388 242.072C345.071 242.091 344.632 242.1 344.072 242.1C343.512 242.1 342.905 242.081 342.252 242.044C342.233 241.745 342.177 241.409 342.084 241.036C341.991 240.681 341.86 240.364 341.692 240.084C342.308 240.14 342.868 240.177 343.372 240.196C343.876 240.215 344.24 240.224 344.464 240.224C344.707 240.224 344.893 240.205 345.024 240.168C345.173 240.131 345.313 240.056 345.444 239.944C345.631 239.739 345.817 239.365 346.004 238.824C346.191 238.283 346.359 237.499 346.508 236.472C346.676 235.445 346.825 234.12 346.956 232.496V232.188ZM340.74 229.416H342.84C342.709 230.816 342.495 232.16 342.196 233.448C341.916 234.736 341.477 235.931 340.88 237.032C340.301 238.133 339.508 239.123 338.5 240C337.492 240.877 336.195 241.624 334.608 242.24C334.496 241.997 334.319 241.708 334.076 241.372C333.833 241.055 333.6 240.803 333.376 240.616C334.832 240.075 336.017 239.421 336.932 238.656C337.847 237.872 338.556 237.004 339.06 236.052C339.583 235.081 339.965 234.036 340.208 232.916C340.451 231.796 340.628 230.629 340.74 229.416ZM325.676 222.556L326.992 221.184C327.795 221.501 328.616 221.893 329.456 222.36C330.315 222.808 331.117 223.275 331.864 223.76C332.629 224.227 333.245 224.675 333.712 225.104L332.312 226.644C331.864 226.215 331.267 225.748 330.52 225.244C329.792 224.74 328.999 224.255 328.14 223.788C327.3 223.303 326.479 222.892 325.676 222.556ZM334.356 226.336H334.664L334.972 226.224L336.288 226.672C335.989 227.848 335.635 229.061 335.224 230.312C334.832 231.544 334.412 232.589 333.964 233.448L332.508 232.72C332.863 231.973 333.208 231.04 333.544 229.92C333.88 228.781 334.151 227.708 334.356 226.7V226.336ZM345.584 220.26L347.768 220.624C347.133 222.323 346.256 223.779 345.136 224.992C344.035 226.205 342.737 227.232 341.244 228.072C339.769 228.912 338.145 229.612 336.372 230.172C336.297 230.023 336.185 229.836 336.036 229.612C335.887 229.369 335.719 229.145 335.532 228.94C335.364 228.716 335.205 228.539 335.056 228.408C336.773 227.979 338.332 227.409 339.732 226.7C341.151 225.972 342.355 225.085 343.344 224.04C344.352 222.976 345.099 221.716 345.584 220.26ZM339.62 216.452L341.608 217.012C341.179 218.001 340.656 218.963 340.04 219.896C339.424 220.811 338.771 221.669 338.08 222.472C337.389 223.275 336.689 223.975 335.98 224.572C335.849 224.46 335.681 224.329 335.476 224.18C335.271 224.012 335.056 223.853 334.832 223.704C334.608 223.555 334.412 223.433 334.244 223.34C335.345 222.519 336.372 221.511 337.324 220.316C338.276 219.103 339.041 217.815 339.62 216.452ZM339.116 220.876C339.788 222.089 340.675 223.209 341.776 224.236C342.877 225.263 344.147 226.14 345.584 226.868C347.04 227.577 348.608 228.109 350.288 228.464C350.139 228.613 349.971 228.791 349.784 228.996C349.616 229.201 349.457 229.416 349.308 229.64C349.159 229.864 349.028 230.069 348.916 230.256C347.217 229.789 345.631 229.145 344.156 228.324C342.681 227.484 341.365 226.485 340.208 225.328C339.051 224.171 338.099 222.883 337.352 221.464L339.116 220.876ZM329.036 226.924L330.464 227.456C330.128 228.688 329.68 229.957 329.12 231.264C328.579 232.571 327.972 233.784 327.3 234.904C326.647 236.024 325.947 236.948 325.2 237.676C325.088 237.396 324.92 237.069 324.696 236.696C324.491 236.304 324.295 235.977 324.108 235.716C324.799 235.081 325.461 234.288 326.096 233.336C326.731 232.365 327.3 231.329 327.804 230.228C328.327 229.108 328.737 228.007 329.036 226.924ZM339.004 219.42H349.672V221.212H338.108L339.004 219.42ZM333.74 217.88H334.216L334.552 217.796L335.924 218.664C335.495 219.299 334.981 219.952 334.384 220.624C333.787 221.277 333.152 221.903 332.48 222.5C331.808 223.079 331.155 223.583 330.52 224.012C330.333 223.844 330.1 223.667 329.82 223.48C329.54 223.275 329.297 223.116 329.092 223.004C329.689 222.593 330.277 222.117 330.856 221.576C331.453 221.035 332.004 220.475 332.508 219.896C333.031 219.299 333.441 218.757 333.74 218.272V217.88ZM362.608 218.02H374.704V219.952H362.608V218.02ZM376.692 226.028H387.948V228.044H376.692V226.028ZM382.768 227.316H384.84V242.24H382.768V227.316ZM375.88 219.252L378.512 219.924C378.475 220.129 378.288 220.26 377.952 220.316V226.728C377.952 227.867 377.896 229.099 377.784 230.424C377.672 231.731 377.448 233.075 377.112 234.456C376.795 235.837 376.319 237.191 375.684 238.516C375.049 239.841 374.2 241.064 373.136 242.184C373.043 242.016 372.903 241.839 372.716 241.652C372.548 241.465 372.352 241.288 372.128 241.12C371.923 240.952 371.736 240.831 371.568 240.756C372.557 239.711 373.332 238.6 373.892 237.424C374.471 236.248 374.9 235.044 375.18 233.812C375.46 232.561 375.647 231.339 375.74 230.144C375.833 228.931 375.88 227.783 375.88 226.7V219.252ZM363.644 222.892H365.66V230.452C365.66 231.348 365.623 232.309 365.548 233.336C365.492 234.363 365.371 235.408 365.184 236.472C365.016 237.517 364.773 238.544 364.456 239.552C364.139 240.541 363.7 241.447 363.14 242.268C363.047 242.137 362.897 241.988 362.692 241.82C362.487 241.671 362.272 241.512 362.048 241.344C361.843 241.195 361.665 241.083 361.516 241.008C362.169 239.981 362.645 238.852 362.944 237.62C363.243 236.388 363.429 235.156 363.504 233.924C363.597 232.673 363.644 231.507 363.644 230.424V222.892ZM385.512 216.816L387.36 218.384C386.445 218.832 385.409 219.261 384.252 219.672C383.095 220.064 381.9 220.437 380.668 220.792C379.436 221.128 378.232 221.427 377.056 221.688C377 221.464 376.897 221.184 376.748 220.848C376.599 220.512 376.449 220.232 376.3 220.008C377.42 219.728 378.549 219.42 379.688 219.084C380.845 218.748 381.928 218.384 382.936 217.992C383.963 217.6 384.821 217.208 385.512 216.816ZM364.82 222.892H373.976V231.628H364.82V229.724H371.932V224.824H364.82V222.892Z" fill="#171717"/>
</svg>
