<svg width="578" height="134" viewBox="0 0 578 134" fill="none" xmlns="http://www.w3.org/2000/svg">
<path opacity="0.86" d="M527.02 116.12H535.66V117.5H527.02V116.12ZM537.08 121.84H545.12V123.28H537.08V121.84ZM541.42 122.76H542.9V133.42H541.42V122.76ZM536.5 117L538.38 117.48C538.353 117.627 538.22 117.72 537.98 117.76V122.34C537.98 123.153 537.94 124.033 537.86 124.98C537.78 125.913 537.62 126.873 537.38 127.86C537.153 128.847 536.813 129.813 536.36 130.76C535.907 131.707 535.3 132.58 534.54 133.38C534.473 133.26 534.373 133.133 534.24 133C534.12 132.867 533.98 132.74 533.82 132.62C533.673 132.5 533.54 132.413 533.42 132.36C534.127 131.613 534.68 130.82 535.08 129.98C535.493 129.14 535.8 128.28 536 127.4C536.2 126.507 536.333 125.633 536.4 124.78C536.467 123.913 536.5 123.093 536.5 122.32V117ZM527.76 119.6H529.2V125C529.2 125.64 529.173 126.327 529.12 127.06C529.08 127.793 528.993 128.54 528.86 129.3C528.74 130.047 528.567 130.78 528.34 131.5C528.113 132.207 527.8 132.853 527.4 133.44C527.333 133.347 527.227 133.24 527.08 133.12C526.933 133.013 526.78 132.9 526.62 132.78C526.473 132.673 526.347 132.593 526.24 132.54C526.707 131.807 527.047 131 527.26 130.12C527.473 129.24 527.607 128.36 527.66 127.48C527.727 126.587 527.76 125.753 527.76 124.98V119.6ZM543.38 115.26L544.7 116.38C544.047 116.7 543.307 117.007 542.48 117.3C541.653 117.58 540.8 117.847 539.92 118.1C539.04 118.34 538.18 118.553 537.34 118.74C537.3 118.58 537.227 118.38 537.12 118.14C537.013 117.9 536.907 117.7 536.8 117.54C537.6 117.34 538.407 117.12 539.22 116.88C540.047 116.64 540.82 116.38 541.54 116.1C542.273 115.82 542.887 115.54 543.38 115.26ZM528.6 119.6H535.14V125.84H528.6V124.48H533.68V120.98H528.6V119.6Z" fill="#D9D9D9"/>
<path opacity="0.86" d="M499.94 116.02H506.76V117.32H499.94V116.02ZM507.68 126.24H516.34V127.54H507.68V126.24ZM499.72 122.06H507.24V123.4H499.72V122.06ZM503.24 122.6H504.68V131.68C504.68 132.053 504.633 132.347 504.54 132.56C504.447 132.787 504.267 132.967 504 133.1C503.747 133.207 503.413 133.273 503 133.3C502.6 133.327 502.093 133.34 501.48 133.34C501.453 133.153 501.393 132.92 501.3 132.64C501.22 132.373 501.127 132.14 501.02 131.94C501.46 131.953 501.853 131.96 502.2 131.96C502.56 131.973 502.8 131.973 502.92 131.96C503.04 131.947 503.12 131.92 503.16 131.88C503.213 131.84 503.24 131.767 503.24 131.66V122.6ZM515.84 126.24H517.36C517.36 126.24 517.353 126.32 517.34 126.48C517.34 126.64 517.333 126.78 517.32 126.9C517.2 128.14 517.067 129.16 516.92 129.96C516.787 130.747 516.647 131.36 516.5 131.8C516.353 132.24 516.18 132.56 515.98 132.76C515.807 132.947 515.62 133.073 515.42 133.14C515.233 133.22 515 133.273 514.72 133.3C514.493 133.313 514.18 133.32 513.78 133.32C513.38 133.32 512.947 133.307 512.48 133.28C512.467 133.067 512.427 132.827 512.36 132.56C512.293 132.307 512.2 132.08 512.08 131.88C512.52 131.92 512.92 131.947 513.28 131.96C513.64 131.973 513.9 131.98 514.06 131.98C514.233 131.98 514.367 131.967 514.46 131.94C514.567 131.913 514.667 131.86 514.76 131.78C514.893 131.633 515.027 131.367 515.16 130.98C515.293 130.593 515.413 130.033 515.52 129.3C515.64 128.567 515.747 127.62 515.84 126.46V126.24ZM511.4 124.26H512.9C512.807 125.26 512.653 126.22 512.44 127.14C512.24 128.06 511.927 128.913 511.5 129.7C511.087 130.487 510.52 131.193 509.8 131.82C509.08 132.447 508.153 132.98 507.02 133.42C506.94 133.247 506.813 133.04 506.64 132.8C506.467 132.573 506.3 132.393 506.14 132.26C507.18 131.873 508.027 131.407 508.68 130.86C509.333 130.3 509.84 129.68 510.2 129C510.573 128.307 510.847 127.56 511.02 126.76C511.193 125.96 511.32 125.127 511.4 124.26ZM500.64 119.36L501.58 118.38C502.153 118.607 502.74 118.887 503.34 119.22C503.953 119.54 504.527 119.873 505.06 120.22C505.607 120.553 506.047 120.873 506.38 121.18L505.38 122.28C505.06 121.973 504.633 121.64 504.1 121.28C503.58 120.92 503.013 120.573 502.4 120.24C501.8 119.893 501.213 119.6 500.64 119.36ZM506.84 122.06H507.06L507.28 121.98L508.22 122.3C508.007 123.14 507.753 124.007 507.46 124.9C507.18 125.78 506.88 126.527 506.56 127.14L505.52 126.62C505.773 126.087 506.02 125.42 506.26 124.62C506.5 123.807 506.693 123.04 506.84 122.32V122.06ZM514.86 117.72L516.42 117.98C515.967 119.193 515.34 120.233 514.54 121.1C513.753 121.967 512.827 122.7 511.76 123.3C510.707 123.9 509.547 124.4 508.28 124.8C508.227 124.693 508.147 124.56 508.04 124.4C507.933 124.227 507.813 124.067 507.68 123.92C507.56 123.76 507.447 123.633 507.34 123.54C508.567 123.233 509.68 122.827 510.68 122.32C511.693 121.8 512.553 121.167 513.26 120.42C513.98 119.66 514.513 118.76 514.86 117.72ZM510.6 115L512.02 115.4C511.713 116.107 511.34 116.793 510.9 117.46C510.46 118.113 509.993 118.727 509.5 119.3C509.007 119.873 508.507 120.373 508 120.8C507.907 120.72 507.787 120.627 507.64 120.52C507.493 120.4 507.34 120.287 507.18 120.18C507.02 120.073 506.88 119.987 506.76 119.92C507.547 119.333 508.28 118.613 508.96 117.76C509.64 116.893 510.187 115.973 510.6 115ZM510.24 118.16C510.72 119.027 511.353 119.827 512.14 120.56C512.927 121.293 513.833 121.92 514.86 122.44C515.9 122.947 517.02 123.327 518.22 123.58C518.113 123.687 517.993 123.813 517.86 123.96C517.74 124.107 517.627 124.26 517.52 124.42C517.413 124.58 517.32 124.727 517.24 124.86C516.027 124.527 514.893 124.067 513.84 123.48C512.787 122.88 511.847 122.167 511.02 121.34C510.193 120.513 509.513 119.593 508.98 118.58L510.24 118.16ZM503.04 122.48L504.06 122.86C503.82 123.74 503.5 124.647 503.1 125.58C502.713 126.513 502.28 127.38 501.8 128.18C501.333 128.98 500.833 129.64 500.3 130.16C500.22 129.96 500.1 129.727 499.94 129.46C499.793 129.18 499.653 128.947 499.52 128.76C500.013 128.307 500.487 127.74 500.94 127.06C501.393 126.367 501.8 125.627 502.16 124.84C502.533 124.04 502.827 123.253 503.04 122.48ZM510.16 117.12H517.78V118.4H509.52L510.16 117.12ZM506.4 116.02H506.74L506.98 115.96L507.96 116.58C507.653 117.033 507.287 117.5 506.86 117.98C506.433 118.447 505.98 118.893 505.5 119.32C505.02 119.733 504.553 120.093 504.1 120.4C503.967 120.28 503.8 120.153 503.6 120.02C503.4 119.873 503.227 119.76 503.08 119.68C503.507 119.387 503.927 119.047 504.34 118.66C504.767 118.273 505.16 117.873 505.52 117.46C505.893 117.033 506.187 116.647 506.4 116.3V116.02Z" fill="#D9D9D9"/>
<path opacity="0.86" d="M480.98 115.02H482.5V131.74C482.5 132.193 482.427 132.527 482.28 132.74C482.147 132.967 481.92 133.133 481.6 133.24C481.293 133.347 480.867 133.413 480.32 133.44C479.787 133.467 479.1 133.48 478.26 133.48C478.22 133.293 478.147 133.073 478.04 132.82C477.933 132.58 477.827 132.38 477.72 132.22C478.12 132.233 478.507 132.24 478.88 132.24C479.267 132.24 479.6 132.233 479.88 132.22C480.173 132.22 480.373 132.22 480.48 132.22C480.667 132.207 480.793 132.167 480.86 132.1C480.94 132.033 480.98 131.913 480.98 131.74V115.02ZM473.14 116.62H490.5V117.86H473.14V116.62ZM476.68 120.1V121.52H486.98V120.1H476.68ZM475.24 119.04H488.5V122.58H475.24V119.04ZM474.66 124H488.82V131.26H487.3V125.1H474.66V124ZM472.76 126.5H490.9V127.7H472.76V126.5ZM474.48 129.2H488.08V130.38H474.48V129.2Z" fill="#D9D9D9"/>
<path opacity="0.86" d="M453.5 121.86H464.22V123.34H453.5V121.86ZM458.2 115.08H459.7V133.42H458.2V115.08ZM446.52 121.08H452.76V122.26H446.52V121.08ZM446.62 115.72H452.78V116.92H446.62V115.72ZM446.52 123.74H452.76V124.94H446.52V123.74ZM445.56 118.34H453.52V119.6H445.56V118.34ZM447.22 126.44H452.7V132.28H447.22V131.04H451.36V127.7H447.22V126.44ZM446.48 126.44H447.82V133.2H446.48V126.44Z" fill="#D9D9D9"/>
<path opacity="0.86" d="M427.74 115.66H429.16V118.1C429.16 118.66 429.093 119.26 428.96 119.9C428.827 120.54 428.58 121.16 428.22 121.76C427.86 122.36 427.32 122.9 426.6 123.38C426.533 123.273 426.427 123.16 426.28 123.04C426.147 122.907 426.007 122.78 425.86 122.66C425.727 122.527 425.607 122.433 425.5 122.38C426.14 121.953 426.62 121.5 426.94 121.02C427.26 120.527 427.473 120.027 427.58 119.52C427.687 119.013 427.74 118.527 427.74 118.06V115.66ZM432.6 115.66H434.04V120.56C434.04 120.787 434.06 120.933 434.1 121C434.153 121.053 434.26 121.08 434.42 121.08C434.473 121.08 434.567 121.08 434.7 121.08C434.833 121.08 434.973 121.08 435.12 121.08C435.267 121.08 435.373 121.08 435.44 121.08C435.547 121.08 435.627 121.033 435.68 120.94C435.747 120.847 435.793 120.647 435.82 120.34C435.86 120.02 435.88 119.54 435.88 118.9C436.027 119.02 436.227 119.127 436.48 119.22C436.733 119.313 436.96 119.387 437.16 119.44C437.12 120.227 437.04 120.833 436.92 121.26C436.813 121.687 436.653 121.987 436.44 122.16C436.24 122.32 435.96 122.4 435.6 122.4C435.507 122.4 435.367 122.4 435.18 122.4C434.993 122.4 434.8 122.4 434.6 122.4C434.413 122.4 434.28 122.4 434.2 122.4C433.787 122.4 433.46 122.347 433.22 122.24C432.993 122.133 432.833 121.953 432.74 121.7C432.647 121.433 432.6 121.06 432.6 120.58V115.66ZM428.82 125.08C429.5 126.813 430.56 128.293 432 129.52C433.453 130.747 435.187 131.613 437.2 132.12C437.093 132.213 436.973 132.34 436.84 132.5C436.72 132.66 436.6 132.82 436.48 132.98C436.373 133.14 436.28 133.28 436.2 133.4C434.133 132.8 432.36 131.827 430.88 130.48C429.413 129.12 428.28 127.467 427.48 125.52L428.82 125.08ZM434.42 123.68H434.7L434.96 123.62L435.94 124C435.593 125.32 435.1 126.493 434.46 127.52C433.833 128.533 433.1 129.427 432.26 130.2C431.42 130.973 430.5 131.62 429.5 132.14C428.513 132.673 427.467 133.1 426.36 133.42C426.32 133.287 426.253 133.133 426.16 132.96C426.067 132.8 425.967 132.64 425.86 132.48C425.753 132.32 425.647 132.193 425.54 132.1C426.553 131.833 427.527 131.467 428.46 131C429.393 130.533 430.253 129.967 431.04 129.3C431.84 128.62 432.527 127.833 433.1 126.94C433.673 126.047 434.113 125.047 434.42 123.94V123.68ZM426.44 123.68H435V125.06H426.44V123.68ZM428.34 115.66H433.34V117H428.34V115.66ZM419.52 121.08H425.48V122.26H419.52V121.08ZM419.6 115.72H425.44V116.92H419.6V115.72ZM419.52 123.74H425.48V124.94H419.52V123.74ZM418.56 118.34H426.18V119.6H418.56V118.34ZM420.22 126.44H425.46V132.28H420.22V131.04H424.14V127.7H420.22V126.44ZM419.48 126.44H420.8V133.2H419.48V126.44Z" fill="#D9D9D9"/>
<path opacity="0.86" d="M397.76 127.28H403.82V128.44H397.76V127.28ZM397.68 124.26H404.5V131.56H397.68V130.38H403.1V125.44H397.68V124.26ZM397.04 124.26H398.4V132.58H397.04V124.26ZM393.34 118.72H398.9V119.82H393.34V118.72ZM402.56 118.72H408.24V119.82H402.56V118.72ZM407.6 115.88H409.12V131.44C409.12 131.907 409.053 132.273 408.92 132.54C408.8 132.807 408.573 133.007 408.24 133.14C407.92 133.273 407.48 133.353 406.92 133.38C406.373 133.407 405.687 133.42 404.86 133.42C404.833 133.273 404.793 133.107 404.74 132.92C404.687 132.733 404.62 132.547 404.54 132.36C404.473 132.173 404.407 132.013 404.34 131.88C404.74 131.893 405.127 131.9 405.5 131.9C405.887 131.9 406.227 131.9 406.52 131.9C406.813 131.9 407.02 131.9 407.14 131.9C407.313 131.887 407.433 131.847 407.5 131.78C407.567 131.713 407.6 131.593 407.6 131.42V115.88ZM393.46 115.88H399.86V122.74H393.46V121.6H398.46V117.04H393.46V115.88ZM408.36 115.88V117.04H403.1V121.62H408.36V122.78H401.68V115.88H408.36ZM392.6 115.88H394.1V133.44H392.6V115.88Z" fill="#D9D9D9"/>
<path opacity="0.86" d="M372.98 115.02H374.52V118.02H372.98V115.02ZM372.98 126.66H374.52V132.2H372.98V126.66ZM370.76 118.26H372.32C372.213 119.18 372.047 120.013 371.82 120.76C371.593 121.493 371.247 122.14 370.78 122.7C370.327 123.26 369.707 123.747 368.92 124.16C368.147 124.56 367.153 124.9 365.94 125.18C365.9 125.047 365.833 124.907 365.74 124.76C365.66 124.6 365.567 124.447 365.46 124.3C365.353 124.14 365.24 124.007 365.12 123.9C366.227 123.687 367.127 123.42 367.82 123.1C368.527 122.767 369.08 122.373 369.48 121.92C369.88 121.453 370.173 120.92 370.36 120.32C370.547 119.707 370.68 119.02 370.76 118.26ZM375.22 118.22H376.7V122.46C376.7 122.7 376.753 122.853 376.86 122.92C376.967 122.987 377.2 123.02 377.56 123.02C377.653 123.02 377.813 123.02 378.04 123.02C378.267 123.02 378.52 123.02 378.8 123.02C379.093 123.02 379.36 123.02 379.6 123.02C379.853 123.02 380.033 123.02 380.14 123.02C380.34 123.02 380.487 122.987 380.58 122.92C380.687 122.84 380.76 122.687 380.8 122.46C380.853 122.22 380.887 121.867 380.9 121.4C381.007 121.48 381.133 121.553 381.28 121.62C381.44 121.687 381.6 121.747 381.76 121.8C381.933 121.853 382.087 121.9 382.22 121.94C382.167 122.567 382.073 123.053 381.94 123.4C381.807 123.747 381.613 123.993 381.36 124.14C381.107 124.273 380.753 124.34 380.3 124.34C380.193 124.34 380 124.34 379.72 124.34C379.453 124.34 379.16 124.34 378.84 124.34C378.52 124.34 378.22 124.34 377.94 124.34C377.673 124.34 377.5 124.34 377.42 124.34C376.833 124.34 376.38 124.287 376.06 124.18C375.74 124.073 375.52 123.88 375.4 123.6C375.28 123.32 375.22 122.94 375.22 122.46V118.22ZM365.36 117.1H382.3V120.7H380.76V118.48H366.84V121.14H365.36V117.1ZM367.1 126.02H380.88V127.4H367.1V126.02ZM365 131.44H382.62V132.82H365V131.44Z" fill="#D9D9D9"/>
<g opacity="0.85">
<path d="M473.18 57.6628C469.669 57.6628 466.714 56.8729 464.315 55.2931C461.916 53.6547 460.103 51.5483 458.874 48.9739C457.704 46.3994 457.118 43.6786 457.118 40.8115C457.118 37.2424 457.938 34.0535 459.576 31.245C461.214 28.3779 463.438 26.1252 466.246 24.4869C469.113 22.7901 472.244 21.9417 475.637 21.9417C478.972 21.9417 481.488 22.8194 483.185 24.5747C484.941 26.33 485.818 28.7875 485.818 31.9471C485.818 32.7077 485.73 33.2929 485.555 33.7024C485.438 34.0535 485.175 34.229 484.765 34.229H479.85C480.084 30.6599 479.558 28.0268 478.27 26.33C476.983 24.5747 475.14 23.697 472.741 23.697C469.64 23.697 467.212 24.9258 465.456 27.3832C463.76 29.8407 462.911 33.2051 462.911 37.4764C462.911 40.8115 463.438 43.7664 464.491 46.3408C465.544 48.9153 467.095 50.934 469.143 52.3968C471.19 53.8595 473.677 54.5909 476.603 54.5909C478.592 54.5909 480.23 54.2984 481.518 53.7133C482.805 53.1281 485.544 49.7345 486.831 48.9739C486.656 48.6813 486.948 48.8568 486.831 48.9739C487.745 48.9739 484.59 52.6775 485.818 51.6544C483.77 53.4682 481.839 55.7026 479.675 56.5218C477.568 57.2824 475.403 57.6628 473.18 57.6628ZM461.331 34.3168L461.244 33.1758L481.167 32.8248V34.229L461.331 34.3168Z" fill="white"/>
<path d="M425.259 57.8749C425.084 57.8749 424.996 57.6993 424.996 57.3483C424.996 56.9972 425.084 56.8217 425.259 56.8217C427.541 56.8217 429.004 56.4413 429.648 55.6807C430.35 54.8615 430.701 53.2232 430.701 50.7658V36.5475C430.701 33.0369 430.057 30.4916 428.77 28.9118C427.483 27.2735 425.435 26.4544 422.626 26.4544C420.52 26.4544 418.355 27.1272 416.131 28.473C413.908 29.8188 412.006 31.6619 410.427 34.0023L410.076 32.9491C412.65 29.4969 415.195 26.9517 417.711 25.3134C420.286 23.6751 422.889 22.8559 425.522 22.8559C428.741 22.8559 431.227 23.7628 432.983 25.5767C434.796 27.332 435.703 29.9943 435.703 33.5635V50.7658C435.703 53.2232 436.025 54.8615 436.669 55.6807C437.371 56.4413 438.863 56.8217 441.145 56.8217C441.32 56.8217 441.408 56.9972 441.408 57.3483C441.408 57.6993 441.32 57.8749 441.145 57.8749C440.15 57.8749 438.951 57.8456 437.546 57.7871C436.201 57.7286 434.767 57.6993 433.246 57.6993C431.725 57.6993 430.262 57.7286 428.858 57.7871C427.453 57.8456 426.254 57.8749 425.259 57.8749ZM401.65 57.8749C401.474 57.8749 401.387 57.6993 401.387 57.3483C401.387 56.9972 401.474 56.8217 401.65 56.8217C403.932 56.8217 405.395 56.4413 406.038 55.6807C406.74 54.8615 407.091 53.2232 407.091 50.7658V33.3879C407.091 31.4571 406.857 30.0528 406.389 29.1751C405.98 28.239 405.19 27.7709 404.02 27.7709C403.434 27.7709 402.732 27.8879 401.913 28.1219C401.153 28.356 400.275 28.6778 399.28 29.0874C399.046 29.1459 398.841 29.0289 398.666 28.7363C398.549 28.4437 398.607 28.239 398.841 28.1219L409.022 23.2948C409.198 23.2362 409.373 23.207 409.549 23.207C409.958 23.207 410.485 23.8214 411.129 25.0501C411.772 26.2788 412.094 28.0634 412.094 30.4039V50.7658C412.094 53.2232 412.416 54.8615 413.06 55.6807C413.762 56.4413 415.254 56.8217 417.536 56.8217C417.711 56.8217 417.799 56.9972 417.799 57.3483C417.799 57.6993 417.711 57.8749 417.536 57.8749C416.541 57.8749 415.342 57.8456 413.937 57.7871C412.591 57.7286 411.158 57.6993 409.637 57.6993C408.115 57.6993 406.653 57.7286 405.248 57.7871C403.844 57.8456 402.645 57.8749 401.65 57.8749Z" fill="white"/>
<path d="M364.525 58.1016C361.072 58.1016 358.059 57.2532 355.485 55.5564C352.91 53.8595 350.921 51.6069 349.516 48.7983C348.112 45.9313 347.41 42.8594 347.41 39.5828C347.41 36.5402 347.966 33.9072 349.078 31.6838C350.189 29.4604 351.681 27.6465 353.554 26.2423C355.426 24.7795 357.445 23.697 359.61 22.9949C361.833 22.2928 363.998 21.9417 366.104 21.9417C369.674 21.9417 372.716 22.8194 375.232 24.5747C377.807 26.33 379.767 28.5827 381.113 31.3327C382.458 34.0828 383.131 36.9791 383.131 40.0216C383.131 43.7664 382.283 46.9845 380.586 49.676C378.889 52.3675 376.636 54.4446 373.828 55.9074C371.019 57.3702 367.918 58.1016 364.525 58.1016ZM367.07 56.434C370.171 56.434 372.628 55.3516 374.442 53.1867C376.256 50.9632 377.163 47.394 377.163 42.4791C377.163 38.7929 376.549 35.5455 375.32 32.737C374.15 29.87 372.511 27.6465 370.405 26.0667C368.299 24.4284 365.9 23.6093 363.208 23.6093C360.107 23.6093 357.679 24.7502 355.923 27.0322C354.168 29.3141 353.29 32.5907 353.29 36.862C353.29 40.4312 353.876 43.7078 355.046 46.6919C356.216 49.676 357.825 52.0457 359.873 53.801C361.979 55.5564 364.378 56.434 367.07 56.434Z" fill="white"/>
<path d="M301.15 4.12504C297.522 4.12504 294.772 5.06122 292.9 6.93357C291.086 8.80593 289.769 11.9948 288.95 16.5002C288.95 16.6172 288.775 16.6757 288.423 16.6757C288.131 16.6757 287.985 16.6172 287.985 16.5002C288.102 15.7395 288.219 14.6863 288.336 13.3405C288.453 11.9363 288.57 10.4442 288.687 8.86444C288.862 7.28464 288.979 5.76335 289.038 4.30057C289.155 2.77928 289.213 1.55055 289.213 0.61437C289.213 0.321814 289.36 0.175536 289.652 0.175536C290.003 0.175536 290.179 0.321814 290.179 0.61437C290.179 1.19948 290.471 1.63831 291.056 1.93087C291.642 2.16492 292.285 2.34045 292.987 2.45747C293.748 2.51598 294.392 2.54524 294.918 2.54524C299.95 2.72077 305.831 2.80854 312.559 2.80854C316.714 2.80854 319.99 2.77928 322.389 2.72077C324.847 2.60375 327.216 2.54524 329.498 2.54524C331.488 2.54524 333.009 2.42822 334.062 2.19417C335.174 1.90162 335.876 1.28725 336.169 0.351068C336.227 0.117023 336.403 0 336.695 0C336.988 0 337.134 0.117023 337.134 0.351068C337.076 1.22873 336.988 2.42821 336.871 3.94951C336.754 5.4708 336.666 7.0506 336.607 8.68891C336.549 10.3272 336.49 11.8485 336.432 13.2528C336.373 14.657 336.344 15.7395 336.344 16.5002C336.344 16.6172 336.169 16.6757 335.818 16.6757C335.466 16.6757 335.291 16.6172 335.291 16.5002C335.115 11.9363 334.179 8.74742 332.482 6.93357C330.786 5.06122 327.977 4.12504 324.057 4.12504C321.599 4.12504 319.756 4.24206 318.527 4.4761C317.299 4.71015 316.48 5.23675 316.07 6.05591C315.719 6.81655 315.543 8.07454 315.543 9.82987V50.2904C315.543 51.9872 315.748 53.2744 316.158 54.1521C316.567 55.0298 317.357 55.6149 318.527 55.9074C319.756 56.2 321.599 56.3463 324.057 56.3463C324.232 56.3463 324.32 56.5218 324.32 56.8729C324.32 57.2239 324.232 57.3995 324.057 57.3995C322.535 57.3995 320.809 57.3702 318.879 57.3117C316.948 57.2532 314.841 57.2239 312.559 57.2239C310.394 57.2239 308.347 57.2532 306.416 57.3117C304.485 57.3702 302.729 57.3995 301.15 57.3995C301.033 57.3995 300.974 57.2239 300.974 56.8729C300.974 56.5218 301.033 56.3463 301.15 56.3463C303.549 56.3463 305.362 56.2 306.591 55.9074C307.878 55.6149 308.727 55.0298 309.136 54.1521C309.546 53.2744 309.751 51.9872 309.751 50.2904V9.65434C309.751 7.89901 309.546 6.64102 309.136 5.88038C308.727 5.06122 307.908 4.56387 306.679 4.38834C305.45 4.2128 303.607 4.12504 301.15 4.12504Z" fill="white"/>
<path d="M234.747 57.2239C234.513 57.3409 234.279 57.3995 234.045 57.3995C233.284 57.3995 232.553 56.7851 231.851 55.5564C231.148 54.2691 230.797 52.426 230.797 50.0271V33.4391C230.797 29.8114 230.271 27.2662 229.218 25.8034C228.223 24.3406 226.906 23.6093 225.268 23.6093C223.805 23.6093 222.606 23.9896 221.67 24.7502C220.733 25.4524 220.031 26.3008 219.563 27.2955C219.154 28.2902 218.861 29.2263 218.685 30.104C218.51 30.9232 218.217 31.7423 217.808 32.5615C217.398 33.3221 216.579 33.7024 215.35 33.7024C214.356 33.7024 213.624 33.4391 213.156 32.9125C212.688 32.3274 212.454 31.7131 212.454 31.0694C212.454 29.9577 212.981 28.8753 214.034 27.8221C215.146 26.7689 216.521 25.8034 218.159 24.9258C219.856 23.9896 221.611 23.2582 223.425 22.7316C225.297 22.205 226.965 21.9417 228.428 21.9417C230.827 21.9417 232.64 22.7316 233.869 24.3114C235.098 25.8327 235.712 27.9976 235.712 30.8061V47.2185C235.712 49.2664 235.976 50.7584 236.502 51.6946C237.029 52.6308 237.877 53.0989 239.047 53.0989C240.101 53.0989 241.563 52.7186 243.436 51.9579C243.728 51.8409 243.933 51.9579 244.05 52.309C244.167 52.6015 244.079 52.8063 243.787 52.9234L234.747 57.2239ZM218.949 57.3117C216.725 57.3117 215.029 56.7266 213.858 55.5564C212.688 54.3276 212.103 52.8941 212.103 51.2558C212.103 50.0856 212.396 49.0324 212.981 48.0962C213.624 47.1015 214.619 46.1946 215.965 45.3754C217.31 44.5563 219.037 43.7664 221.143 43.0057L231.675 39.0562L231.938 40.1972L222.635 43.7956C221.582 44.2052 220.704 44.6733 220.002 45.1999C219.3 45.7265 218.773 46.3116 218.422 46.9552C218.13 47.5988 217.983 48.301 217.983 49.0616C217.983 50.4074 218.422 51.5776 219.3 52.5723C220.178 53.567 221.377 54.0643 222.898 54.0643C223.483 54.0643 224.098 53.9766 224.741 53.801C225.385 53.6255 226.175 53.2452 227.111 52.6601L232.64 49.3249L232.816 50.4659L226.321 54.6787C224.917 55.6149 223.63 56.2877 222.459 56.6973C221.348 57.1069 220.178 57.3117 218.949 57.3117Z" fill="white"/>
<path d="M180.19 55.0517C180.073 55.0517 180.014 54.8762 180.014 54.5251C180.014 54.174 180.073 53.9985 180.19 53.9985C182.471 53.9985 183.964 53.6182 184.666 52.8575C185.426 52.0384 185.807 50.4001 185.807 47.9426V31.5302C185.807 29.4823 185.602 27.9903 185.192 27.0541C184.783 26.0594 184.022 25.5621 182.91 25.5621C182.442 25.5621 181.886 25.6791 181.243 25.9131C180.599 26.0887 179.838 26.3812 178.961 26.7908C178.727 26.8493 178.522 26.7323 178.346 26.4397C178.229 26.0887 178.259 25.8546 178.434 25.7376L189.844 20.4716C190.019 20.4131 190.136 20.3838 190.195 20.3838C190.312 20.3838 190.458 20.4716 190.634 20.6471C190.809 20.7642 190.897 20.9104 190.897 21.086C190.897 21.5541 190.868 22.695 190.809 24.5089C190.751 26.3227 190.722 28.6339 190.722 31.4424V47.9426C190.722 50.4001 191.043 52.0384 191.687 52.8575C192.389 53.6182 193.91 53.9985 196.251 53.9985C196.426 53.9985 196.514 54.174 196.514 54.5251C196.514 54.8762 196.426 55.0517 196.251 55.0517C195.198 55.0517 193.969 55.0224 192.565 54.9639C191.219 54.9054 189.785 54.8762 188.264 54.8762C186.743 54.8762 185.28 54.9054 183.876 54.9639C182.53 55.0224 181.301 55.0517 180.19 55.0517ZM187.562 10.1151C186.392 10.1151 185.456 9.79331 184.753 9.14969C184.051 8.50606 183.7 7.59914 183.7 6.42892C183.7 5.25869 184.051 4.35177 184.753 3.70815C185.456 3.06452 186.392 2.74271 187.562 2.74271C188.732 2.74271 189.639 3.06452 190.283 3.70815C190.926 4.35177 191.248 5.25869 191.248 6.42892C191.248 8.88639 190.019 10.1151 187.562 10.1151Z" fill="white"/>
<path d="M146.037 32.8248L145.685 31.8593C147.85 29.2263 149.635 27.2077 151.039 25.8034C152.444 24.3406 153.643 23.346 154.638 22.8194C155.691 22.2342 156.686 21.9417 157.622 21.9417C158.851 21.9417 160.05 22.2928 161.22 22.9949C162.449 23.697 163.063 24.5454 163.063 25.5401C163.063 26.3008 162.8 26.9444 162.273 27.471C161.805 27.9976 161.103 28.2609 160.167 28.2609C159.406 28.2609 158.763 28.0269 158.236 27.5588C157.71 27.0907 157.154 26.6518 156.569 26.2423C155.983 25.8327 155.223 25.6279 154.287 25.6279C153.76 25.6279 153.204 25.7742 152.619 26.0667C152.034 26.3593 151.244 27.0322 150.249 28.0854C149.255 29.0801 147.85 30.6599 146.037 32.8248ZM137.435 56.6096C137.26 56.6096 137.172 56.434 137.172 56.083C137.172 55.7319 137.26 55.5564 137.435 55.5564C139.717 55.5564 141.18 55.176 141.824 54.4154C142.526 53.5962 142.877 51.9579 142.877 49.5005V32.1226C142.877 30.1918 142.643 28.7875 142.175 27.9098C141.765 26.9736 140.975 26.5056 139.805 26.5056C139.22 26.5056 138.518 26.6226 137.699 26.8566C136.938 27.0907 136.06 27.4125 135.066 27.8221C134.832 27.8806 134.627 27.7636 134.451 27.471C134.334 27.1784 134.393 26.9736 134.627 26.8566L144.808 22.0295C144.983 21.9709 145.159 21.9417 145.334 21.9417C145.744 21.9417 146.271 22.5561 146.914 23.7848C147.558 25.0135 147.88 26.7981 147.88 29.1386V49.5005C147.88 51.1388 148.084 52.426 148.494 53.3622C148.904 54.2399 149.723 54.825 150.952 55.1175C152.18 55.4101 153.994 55.5564 156.393 55.5564C156.627 55.5564 156.744 55.7319 156.744 56.083C156.744 56.434 156.627 56.6096 156.393 56.6096C154.989 56.6096 153.321 56.5803 151.39 56.5218C149.518 56.4633 147.529 56.434 145.422 56.434C143.901 56.434 142.438 56.4633 141.034 56.5218C139.63 56.5803 138.43 56.6096 137.435 56.6096Z" fill="white"/>
<path d="M91.4749 57.3117C88.6079 57.3117 86.3259 56.4048 84.6291 54.5909C82.9908 52.7186 82.1716 50.0271 82.1716 46.5164V33.0881C82.1716 30.8061 81.9668 29.1678 81.5572 28.1731C81.2062 27.1199 80.5333 26.5933 79.5386 26.5933C78.7194 26.5933 77.7248 26.8859 76.5545 27.471C76.3205 27.5295 76.1157 27.3832 75.9402 27.0322C75.8232 26.6811 75.8817 26.4763 76.1157 26.4178L85.8578 22.0295C85.9748 21.9709 86.0919 21.9417 86.2089 21.9417C86.3844 21.9417 86.5599 22.0295 86.7355 22.205C86.9695 22.322 87.0865 22.4683 87.0865 22.6438V43.6201C87.0865 47.0722 87.7009 49.6467 88.9296 51.3436C90.1584 52.9819 92.0015 53.801 94.459 53.801C96.6824 53.801 98.9058 53.1281 101.129 51.7824C103.411 50.4366 105.401 48.6228 107.097 46.3408L107.536 47.3063C104.845 50.7584 102.182 53.3037 99.5494 54.942C96.975 56.5218 94.2834 57.3117 91.4749 57.3117ZM110.345 22.6438V47.2185C110.345 49.2079 110.579 50.6414 111.047 51.5191C111.515 52.3968 112.305 52.8356 113.417 52.8356C114.002 52.8356 114.645 52.7478 115.347 52.5723C116.108 52.3382 117.015 52.0164 118.068 51.6069C118.361 51.4898 118.566 51.6069 118.683 51.9579C118.8 52.2505 118.741 52.4553 118.507 52.5723L108.238 57.3995C108.121 57.458 108.004 57.4872 107.887 57.4872C107.419 57.4872 106.893 56.8729 106.307 55.6441C105.722 54.3569 105.43 52.543 105.43 50.2026V33.0881C105.43 30.8061 105.225 29.1678 104.815 28.1731C104.464 27.1199 103.791 26.5933 102.797 26.5933C101.978 26.5933 100.983 26.8859 99.8127 27.471C99.5787 27.5295 99.4031 27.3832 99.2861 27.0322C99.1691 26.6811 99.2276 26.4763 99.4617 26.4178L109.204 22.0295C109.321 21.9709 109.409 21.9417 109.467 21.9417C109.643 21.9417 109.818 22.0295 109.994 22.205C110.228 22.322 110.345 22.4683 110.345 22.6438Z" fill="white"/>
<path d="M17.29 32.6858L18.1677 30.9305H41.4259L42.0403 32.6858H17.29ZM61.6123 55.7685C61.8463 55.7685 65.6198 54.5397 65.6198 54.8908C65.6198 55.2419 61.8463 56.8217 61.6123 56.8217C59.9154 56.8217 58.1894 56.7631 56.434 56.6461C54.6787 56.5291 52.9819 56.4706 51.3436 56.4706C49.5297 56.4706 47.9499 56.5291 46.6041 56.6461C45.2584 56.7631 43.7664 56.8217 42.128 56.8217C41.894 56.8217 41.777 56.6461 41.777 56.2951C41.777 55.944 41.894 55.7685 42.128 55.7685C45.2291 55.7685 47.16 55.3296 47.9206 54.452C48.6813 53.5158 48.4765 51.7897 47.3063 49.2737L27.8221 8.11111L30.0162 5.39034L12.9895 45.6753C11.5267 49.2445 11.4389 51.819 12.7262 53.3988C14.0134 54.9786 16.5587 55.7685 20.3619 55.7685C20.6544 55.7685 20.8007 55.944 20.8007 56.2951C20.8007 56.6461 20.6544 56.8217 20.3619 56.8217C18.6066 56.8217 16.9975 56.7631 15.5347 56.6461C14.0719 56.5291 12.2288 56.4706 10.0054 56.4706C7.89901 56.4706 6.20218 56.5291 4.91493 56.6461C3.6862 56.7631 2.1649 56.8217 0.351056 56.8217C0.117011 56.8217 0 56.6461 0 56.2951C0 55.944 0.117011 55.7685 0.351056 55.7685C1.93086 55.7685 3.30588 55.4759 4.4761 54.8908C5.64632 54.2472 6.72878 53.1647 7.72347 51.6434C8.77667 50.0636 9.91765 47.8109 11.1464 44.8854L29.6652 1.17754C29.7822 1.00201 29.987 0.914238 30.2795 0.914238C30.5721 0.914238 30.7476 1.00201 30.8061 1.17754L46.6041 35.7942C47.9499 38.6613 54.0643 49.9173 55.1175 51.5557C56.1707 53.1355 57.1947 54.2472 58.1894 54.8908C59.2426 55.4759 60.3835 55.7685 61.6123 55.7685Z" fill="white"/>
</g>
<path d="M56.6951 53.5475C59.719 53.7164 63.6506 54.1424 66.6266 54.5255C67.558 54.6453 67.0769 54.6725 67.7207 54.7599C68.9785 54.9314 70.1573 55.029 71.398 55.2154C71.8068 55.2774 71.2821 55.3409 71.7092 55.403C73.8293 55.7117 75.8522 55.9465 77.9746 56.2688C78.2281 56.3077 78.4789 56.3474 78.7273 56.3883C88.5506 57.2323 96.8548 63.2067 105.755 66.0285C107.93 66.7393 110.093 67.4362 112.3 68.0078C114.819 68.6687 117.745 69.2863 120.627 69.7959C122.053 70.048 123.481 70.2298 124.835 70.3662C125.307 70.4131 125.038 70.2717 125.129 70.2727C126.553 70.2866 126.061 70.4572 126.981 70.5806C130.003 70.9939 133.309 71.2181 136.42 71.7048C137.019 71.806 137.647 71.8697 138.257 71.9207C139.743 72.0299 138.265 71.691 139.757 71.9255C139.861 71.9408 139.473 72.0324 139.883 72.0725C140.817 72.1661 142.585 72.2222 143.313 72.2532C144.711 72.3155 144.946 72.3187 146.269 72.343C148.079 72.3749 150.237 72.4364 152.181 72.3847C152.596 72.3732 152.045 72.2605 152.707 72.2306C153.368 72.2023 155.121 72.1734 155.71 72.1824C156.303 72.193 156.053 72.295 156.159 72.3134C157.025 72.4725 159.043 72.1311 159.298 72.1091C160.154 72.0468 160.989 71.9865 161.8 71.9248C165.506 71.6409 168.9 71.3932 172.532 70.9472C174.957 70.6482 177.489 70.2719 179.913 69.893C180.861 69.7458 181.792 69.6244 182.694 69.5108C186.517 69.0386 189.759 68.6979 193.453 68.1359C193.844 68.0764 193.366 68.0049 193.842 67.932C197.531 67.365 201.182 66.7447 204.837 66.0719C206.191 65.8227 207.53 65.5613 208.878 65.282C209.373 65.1789 208.764 65.4455 209.263 65.349C212.331 64.7739 217.154 63.6679 218.817 62.6606C219.738 62.4237 220.753 62.17 221.779 61.9663C223.023 61.7201 224.249 61.4694 225.283 61.2829C226.485 61.0635 225.365 61.4769 226.808 61.0622C227.133 60.9682 226.678 60.9593 227.168 60.8269C229.23 60.2686 231.5 59.715 233.547 59.1479C233.963 59.0324 233.823 58.9575 233.937 58.9098C234.9 58.5121 236.633 58.3768 237.002 58.3174C237.359 58.2567 237.704 58.1974 238.039 58.1394C240.298 57.7386 242.102 57.2057 244.327 56.6283C244.921 56.4728 244.184 56.5191 244.751 56.3654C247.619 55.5883 250.602 54.8218 253.463 54.1973C253.545 54.1792 253.628 54.1612 253.711 54.1432C254.364 54.0021 253.794 54.263 254.108 54.2016C255.486 53.9321 255.738 53.6378 257.06 53.3805C257.339 53.326 257.207 53.4636 257.26 53.463C258.088 53.4546 258.72 53.0483 258.92 52.9964C261.472 52.3294 263.171 52.2146 265.643 51.6056C265.939 51.5324 265.24 51.5586 266.072 51.361C269.6 50.522 273.255 49.6667 276.861 48.8101C278.924 48.3205 280.971 47.8311 282.971 47.3592C283.824 47.1574 283.242 47.4084 283.299 47.4066C284.218 47.3678 284.719 46.9757 284.993 46.8953C287.162 46.2665 289.258 45.948 290.669 45.2739C295.054 44.206 299.422 43.094 303.816 42.1129C308.735 41.0134 313.683 40.1184 318.651 39.4371C318.77 39.4204 318.579 39.5798 318.816 39.546C321.665 39.1403 321.116 39.0411 322.916 38.4898C322.926 38.4865 322.937 38.4832 322.948 38.4799C323.412 38.3386 324.906 38.3611 325.039 38.36C325.519 38.3544 325.067 38.6239 325.226 38.6112C326.537 38.5071 326.226 37.9205 327.988 37.667C328.043 37.6604 327.829 37.805 327.977 37.7959C328.444 37.7673 328.891 37.6645 329.346 37.6492C330.385 37.6187 330.79 37.8743 332.337 37.5502C332.533 37.5101 332.199 37.1841 333.776 37.0626C334.405 37.0114 337.188 36.789 337.972 36.7586C338.747 36.726 338.224 36.8767 338.279 36.8777C340.385 36.8801 339.603 36.9975 340.662 37.1478C341.738 37.2977 341.397 36.7935 341.826 36.7068C341.925 36.687 342.083 36.673 342.276 36.6632C342.888 36.6324 343.896 36.6508 344.18 36.6667C344.561 36.6863 344.093 36.7869 344.431 36.7905C346.67 36.8141 345.392 36.4711 346.127 36.3436C347.843 36.0445 349.217 36.3577 350.809 36.3093C351.239 36.2963 350.884 36.2266 351.262 36.1978C352.774 36.0848 353.699 36.1582 355.406 35.9604C355.694 35.9275 357.065 35.6247 357.979 35.7533C358.107 35.772 357.75 35.8864 358.394 35.8774C359.362 35.8637 361.103 35.8046 362.131 35.7267C362.896 35.6689 362.01 35.5476 362.979 35.5549C363.409 35.5583 362.62 35.6864 363.424 35.6854C364.222 35.6843 366.267 35.5949 367.048 35.5608C367.822 35.5266 367.393 35.4222 367.456 35.4115C367.832 35.3494 369.325 35.2331 369.454 35.2286C376.101 34.9635 382.238 34.9892 388.711 34.8182C389.22 34.8052 388.879 34.6824 388.956 34.6791C390.696 34.6 389.329 34.96 390.544 35.0576C390.364 34.8002 391.088 34.8369 392.307 34.7963C392.9 34.7766 392.576 34.6791 392.63 34.6683C393.509 34.5073 394.115 34.701 394.273 34.7404C394.858 34.8852 395.487 34.7069 395.88 34.805C396.274 34.9024 395.365 35.0508 396.544 35.0461C396.874 34.9525 395.998 34.7108 396.893 34.67C397.702 34.6331 398.697 34.618 399.75 34.6201C403.097 34.6223 407.201 34.8248 409.254 34.9075C411.951 35.014 412.831 35.0384 414.395 35.1424C417.236 35.3414 416.198 35.1107 417.974 35.1264C419.745 35.1487 418.862 35.5416 419.109 35.6519C419.354 35.7625 419.628 35.6814 419.934 35.7537C420.243 35.8262 419.564 35.8471 420.295 35.9145C421.014 35.9794 423.02 35.9547 423.283 35.8763C423.84 35.7079 422.968 35.4145 424.881 35.6464C424.993 35.6602 424.62 35.7466 425.047 35.7937C428.408 36.1606 431.894 36.5217 435.23 37.0099C435.688 37.0772 435.262 37.1557 435.527 37.1963C438.235 37.6178 437.375 37.3047 438.776 37.2513C438.812 37.25 438.851 37.2489 438.89 37.2481C438.503 37.524 439.325 37.8274 441.43 38.1279C442.696 38.3111 442.498 38.1404 443.334 38.1634C443.583 38.1699 444.465 38.4021 444.637 38.3618C445.206 38.231 444.4 37.8547 446.557 38.2959C446.651 38.3158 446.329 38.3844 446.657 38.4445C448.776 38.8374 449.067 38.6565 451.367 39.0283C453.172 39.3207 456.335 40.0386 458.378 40.442C458.263 40.7904 460.213 41.0685 461.037 40.9677C462.359 41.2254 463.798 41.4809 465.071 41.7551C465.51 41.8496 465.2 41.8986 465.254 41.9203C466.063 42.2537 466.697 42.1244 466.978 42.1674C467.74 42.2874 468.44 42.4124 469.152 42.5466C471.33 42.9592 473.307 43.4468 475.569 43.8003C475.677 43.8175 475.896 43.6059 476.645 43.961C476.692 43.9847 475.695 43.8805 477.079 44.1976C478.46 44.5139 481.03 45.2445 482.972 45.5861C483.441 45.6681 484.66 45.748 485.562 46.1309C485.682 46.1823 485.528 46.2197 485.699 46.3025C486.253 46.5685 486.632 46.3975 487.266 46.7756C487.9 47.1536 489.287 47.6601 491.247 47.9929C491.31 48.004 491.812 47.9202 492.418 48.0748C493.38 48.3201 494.745 48.7063 495.751 48.9587C496.235 49.0801 495.956 48.88 496.04 48.899C499.302 49.6492 501.585 50.3494 505.043 51.2756C505.257 51.3332 505.64 51.411 506.065 51.4976C506.898 51.6688 507.961 51.8934 508.749 52.1842C510.069 52.6707 508.525 52.9176 511.673 53.561C512.944 53.8208 514.722 53.4634 516.883 54.4141C521.285 55.3949 525.314 56.5386 529.789 57.2428C529.945 57.2677 530.373 57.2167 530.78 57.2323C530.899 57.2361 531.02 57.247 531.132 57.2687C531.834 57.4049 532.19 57.5771 532.689 57.6798C534.769 58.1123 536.697 58.4161 538.696 58.8531C539.455 59.0194 539.164 59.0651 540.075 59.267C540.976 59.4679 541.611 59.4638 542.823 59.8025C543.741 60.0598 544.602 60.5457 545.82 60.8608C545.934 60.5997 546.77 60.7968 548.284 61.0788C548.574 61.1327 548.289 60.9649 548.428 60.9855C548.996 61.0685 549.483 61.268 550.027 61.3425C550.158 61.3606 550.186 61.2687 550.293 61.278C551.218 61.3552 552.626 61.9228 552.868 62.0217C553.796 62.398 554.278 62.3903 554.999 62.6294C555.71 62.8655 554.644 62.6671 555.409 62.8962C555.428 62.9008 555.444 62.905 555.461 62.9093C557.246 63.3623 559.553 63.8481 561.371 64.2593C562.101 64.4236 561.631 64.1875 561.736 64.2081C563.241 64.5117 564.73 64.9942 565.618 64.9409C566.507 65.8269 566.536 65.0857 568.647 65.7358C568.815 65.7881 568.953 66.1422 568.297 66.0284C567.64 65.9146 566.684 65.5849 565.769 65.4437C565.546 65.4079 564.272 65.4117 564.096 65.3898C562.764 65.2261 562.679 64.7315 562.618 64.6912C561.896 64.2445 560.331 64.2186 559.937 64.1542C558.218 63.8712 556.776 63.5059 555.336 63.2527L555.32 63.249C555.233 63.2303 555.146 63.212 555.059 63.1943C554.071 62.993 553.898 63.2641 553.137 63.0652C550.588 62.4036 549.804 61.7776 547.301 61.5661C546.769 61.5228 547.204 61.9637 545.41 61.2805C545.302 61.2382 543.971 60.6878 543.146 60.6586C543.04 60.6546 543.022 60.75 542.888 60.7283C541.998 60.5834 541.417 60.3758 540.448 60.2029C539.477 60.0296 538.304 59.8357 537.209 59.5745C536.547 59.4162 535.738 59.0667 535.422 58.9577C534.547 58.6502 533.544 58.6657 533.014 58.4056C532.485 58.1452 533.628 58.125 532.167 57.7422C532.065 57.9794 531.896 58.2107 531.757 58.4425C531.372 58.3682 530.978 58.2922 530.597 58.2187C527.741 57.6686 524.937 57.0191 522.085 56.3752C521.684 56.2848 522.063 56.5113 521.632 56.4172C519.812 56.0187 518.25 55.5419 516.37 55.1177C514.915 54.7898 513.289 54.5296 511.771 54.184C510.918 53.6713 508.652 53.1989 507.028 52.7616C506.457 52.6079 506.52 52.5444 506.118 52.4169C506.021 52.3866 505.934 52.3598 505.854 52.3363C504.696 51.9947 505.233 52.3633 504.833 52.301C502.995 52.012 502.974 51.4107 500.851 50.886C500.742 50.8589 499.289 50.8071 499.096 50.7777C497.859 50.593 498.922 50.6232 498.176 50.4105C496.812 50.022 495.87 49.7078 494.237 49.3903C493.761 49.2981 492.587 49.2014 491.707 48.8295C491.591 48.7806 491.682 48.6985 491.587 48.6687C489.86 48.1368 489.737 48.4364 488.71 48.2947C487.682 48.1529 486.188 47.5622 485.888 47.4244C485.102 47.065 486.536 47.509 486.584 47.5045C487.154 47.4455 486.017 47.2024 485.158 46.9788C485.106 46.6437 483.895 46.3725 484.267 46.7486C484.309 46.79 484.988 46.9229 485.158 46.9788C484.328 47.0949 482.993 46.815 481.594 46.1912C480.936 45.8993 481.624 45.8961 479.522 45.4687C478.57 45.2767 478.884 45.5698 478.038 45.4377C476.096 45.1338 473.663 44.3953 471.671 44.0234C470.954 43.8896 471.626 44.1461 471.137 44.0597C470.368 43.9243 469.66 43.7633 468.951 43.6174C468.429 43.5104 467.925 43.4115 467.374 43.3274C467.253 43.309 467.524 43.4856 467.111 43.4098C464.017 42.8444 461.327 42.2567 458.096 41.6544C456.527 41.3614 453.731 40.9182 452.11 40.618C449.312 40.0948 445.883 39.345 443.471 39.0308C441.899 38.8248 442.223 38.9995 441.541 38.9857C440.695 38.9695 439.466 38.7161 438.606 38.516C438.135 38.4049 437.762 38.3074 437.657 38.2773C437.643 38.2733 439.004 38.425 438.292 38.2661C437.884 38.0785 437.673 38.2789 437.657 38.2773C437.453 38.218 434.754 37.8494 434.215 37.813C433.918 37.791 434.069 37.9268 433.915 37.9131C430.285 37.5921 426.651 37.2741 422.974 36.9418C422.91 36.9346 423.017 36.8113 422.865 36.7959C420.732 36.5789 419.355 36.6525 417.588 36.646C415.825 36.6411 414.417 36.5437 413.392 36.2738C412.062 36.2431 410.148 36.0748 409.056 35.9821C407.951 35.8885 407.797 36.141 407.7 36.1431C404.679 36.2277 402.939 36.0538 399.801 36.0103C399.782 36.01 399.762 36.0098 399.742 36.0095C398.241 35.9894 395.339 36.0301 393.745 36.0713C392.469 36.1035 391.704 36.0519 390.525 36.1049C390.365 36.1121 390.528 36.2236 390.479 36.2286C389.173 36.382 389.797 36.0961 389.526 36.0503C388.539 35.8846 387.934 35.7973 386.253 35.9139C385.868 35.9406 384.743 36.3632 384.04 36.4024C383.123 36.4528 383.465 36.3015 382.504 36.359C382.422 36.3639 382.442 36.4517 381.848 36.4625C379.093 36.514 376.088 36.5523 373.226 36.6596C372.836 36.6739 373.341 36.7968 372.777 36.8199C370.128 36.9284 367.222 37.036 364.637 37.0799C363.999 37.0903 364.394 36.9753 364.255 36.9521C363.404 36.8116 362.208 37.121 362.012 37.1347C357.289 37.4705 353.666 37.4191 348.852 37.7988C348.587 37.8198 346.603 38.2087 345.675 38.0286C345.615 38.0165 344.706 37.8293 343.934 38.0423C343.885 38.0557 344.446 38.1451 343.481 38.1924C343.159 38.2083 342.78 38.2383 342.378 38.2692C341.508 38.3357 340.528 38.4078 339.621 38.3778C339.198 38.3639 338.194 38.1915 336.954 38.4763C336.861 38.4956 334.972 39.076 334.262 38.8379C334.142 38.7996 334.24 38.4693 332.76 38.7661C332.477 38.8241 332.995 38.8462 332.257 38.96C331.113 39.1372 329.598 39.2115 328.229 39.5437C327.989 39.6007 327.001 39.9607 326.154 39.9412C326.02 39.9381 326.247 39.7918 325.81 39.8549C324.969 39.9772 324.11 40.1348 323.231 40.2893C321.939 40.5161 320.639 40.7373 319.359 40.9074C318.6 41.0086 318.955 40.7757 318.162 40.8628C317.366 40.9502 315.775 41.1791 314.969 41.4021C314.159 41.6257 315.106 41.7323 313.88 41.9751C310.642 42.6198 307.427 43.2249 304.215 43.8989C302.148 44.3327 300.081 44.7928 298.014 45.2893C297.231 45.478 297.903 45.4124 296.752 45.6989C292.508 46.7518 285.205 48.749 281.459 49.4835C278.458 50.0723 282.152 49.0075 279.874 49.5138C278.775 49.7579 277.668 50.359 277.407 50.4337C277.362 50.4467 277.317 50.4596 277.272 50.4723C274.786 51.1801 272.983 51.4739 270.707 52.0549C270.228 52.177 270.729 52.1907 270.322 52.293C268.932 52.6429 267.448 52.929 266.116 53.2472C265.517 53.3905 265.652 53.46 265.098 53.5799C263.777 53.8667 262.6 54.0941 261.296 54.2993C261.177 54.318 261.939 54.0181 260.963 54.2374C259.385 54.5927 257.407 54.9551 255.619 55.4728C255.089 55.6271 255.119 55.8489 253.932 55.9739C253.916 55.9756 253.902 55.9758 253.889 55.9748C253.708 55.9612 253.843 55.699 252.644 56.2155C252.426 56.3065 250.257 57.1705 249.107 57.261C248.803 57.2843 248.006 57.2635 247.373 57.4649C247.287 57.493 247.666 57.5182 247.138 57.6686C245.271 58.1969 243.305 58.7116 241.365 59.2384C240.845 59.3788 241.653 59.306 240.877 59.5103C240.129 59.7058 239.303 59.9062 238.446 60.084C236.929 60.3971 235.35 60.7488 234.008 61.0539C233.245 61.2276 233.745 60.9977 233.687 61.0004C232.754 61.0441 232.287 61.4171 231.995 61.5057C230.178 62.0554 228.746 62.3062 227.044 62.7586C226.575 62.8827 226.937 62.9144 226.846 62.9477C225.894 63.286 226.572 62.9034 225.948 63.031C224.745 63.2753 223.453 63.5655 222.184 63.8424C221.636 63.9622 221.092 64.0974 220.563 64.2361C219.937 64.4018 220.674 64.3532 220.115 64.5012C216.799 65.4089 213.248 66.4207 209.878 67.109C209.239 67.2412 209.616 67.0468 209.479 67.0538C208.537 67.0988 207.253 67.6064 206.95 67.6905C206.224 67.8952 205.726 67.993 205.23 68.0799C204.786 68.1572 204.363 68.2223 203.778 68.3414C197.775 69.5848 190.264 70.6025 184.54 71.2608C183.024 71.4425 181.563 71.6076 180.201 71.7988C174.705 72.5739 169.866 73.1284 164.159 73.6267C163.704 73.6653 164.175 73.7671 163.782 73.8019C163.167 73.8552 162.553 73.9039 161.941 73.9483C157.471 74.2638 153.061 74.3198 148.576 74.3428C148.158 74.3439 148.76 74.4793 148.088 74.485C146.706 74.4971 144.965 74.4607 143.563 74.3737C142.882 74.3314 143.797 74.2478 143.115 74.207C141.515 74.1084 139.812 74.019 138.145 73.8874C137.427 73.827 138.494 74.0689 137.567 73.9765C137.063 73.9231 136.573 73.8637 136.052 73.7732C131.021 73.0219 125.654 72.8732 120.28 71.8368C119.947 71.7718 119.632 71.7085 119.3 71.641C118.888 71.5562 118.559 71.2202 117.659 71.107C117.577 71.1694 117.564 71.2583 117.52 71.3329C113.306 70.6046 109.093 69.4372 105.091 68.0938C100.568 66.703 96.228 64.4201 92.1514 62.4225C91.8174 62.2694 92.3314 62.6625 91.6898 62.3718C87.9888 60.6913 84.0692 59.8159 79.9052 58.9616C79.4984 58.8802 79.7236 58.6528 78.5055 58.5013C78.4203 58.491 78.0848 58.4462 77.6627 58.3951C77.0216 58.3177 76.2208 58.2344 75.9115 58.2269C75.8442 58.2264 76.1701 58.3908 75.5681 58.3134C72.0459 57.8626 68.3485 57.4007 64.8275 56.9578C64.2596 56.8865 64.879 56.8229 64.4744 56.7712C61.6044 56.4059 58.4584 56.2125 55.7249 55.9221C53.8867 55.7339 54.5856 55.556 53.6141 55.2932C53.4782 55.2543 52.3312 55.2137 52.2785 55.0895C52.132 54.7692 52.6963 54.4343 52.4748 54.0914C52.4327 54.0117 50.8695 54.0817 51.7888 53.9102C51.859 53.8956 52.9973 53.8615 53.2739 53.815C53.4723 53.7811 53.1204 53.6394 53.5272 53.6022C53.9181 53.5651 54.3523 53.6921 55.0118 53.6671C55.6628 53.6428 55.3962 53.4769 56.6951 53.5475ZM404.107 35.5957C403.085 35.4569 402.926 35.9033 404.036 35.8134C404.089 35.8086 404.159 35.6026 404.107 35.5957ZM525.421 56.7561C524.155 56.283 523.2 56.3651 524.089 56.7189C524.979 57.0712 525.808 56.8994 525.421 56.7561ZM539.026 59.326C537.532 58.8498 537.164 59.4231 538.821 59.6417C538.918 59.6548 539.114 59.354 539.026 59.326ZM58.1663 55.5203C58.1508 55.5127 57.3348 55.4439 57.3112 55.4486C56.8634 55.5571 58.5041 55.6946 58.1663 55.5203ZM552.443 62.254C551.993 62.0539 550.607 61.8191 551.168 62.0657C551.619 62.2634 553.006 62.5029 552.443 62.254ZM350.864 36.5256C350.846 36.5198 350.25 36.5464 350.265 36.5834C350.31 36.7028 351.141 36.6231 350.864 36.5256ZM575.11 67.7823C574.851 67.6934 574.605 67.5947 574.372 67.498L574.382 67.5013C571.58 66.5897 570.218 65.7957 573.556 66.7625C574.213 66.959 572.091 66.5257 572.92 66.8065C573.478 66.9952 573.98 67.1139 574.466 67.2242C575.284 67.4803 576.035 67.6152 577.005 67.914C577.287 68.0193 575.301 67.8911 575.104 67.781C575.106 67.7815 575.108 67.7819 575.11 67.7823ZM403.525 35.0475C403.501 35.041 402.688 35.024 402.667 35.0298C402.223 35.1661 403.868 35.2004 403.525 35.0475ZM316.508 39.9251C316.459 39.9195 314.584 40.2353 314.525 40.2589C313.589 40.6592 317.381 40.0201 316.508 39.9251ZM458.409 40.4576C459.304 40.478 460.376 40.6608 461.033 40.9668C460.169 40.7955 459.276 40.6276 458.409 40.4576Z" fill="#D9D9D9" fill-opacity="0.95"/>
</svg>
