<svg width="572" height="134" viewBox="0 0 572 134" fill="none" xmlns="http://www.w3.org/2000/svg">
<path opacity="0.86" d="M527.02 116.12H535.66V117.5H527.02V116.12ZM537.08 121.84H545.12V123.28H537.08V121.84ZM541.42 122.76H542.9V133.42H541.42V122.76ZM536.5 117L538.38 117.48C538.353 117.627 538.22 117.72 537.98 117.76V122.34C537.98 123.153 537.94 124.033 537.86 124.98C537.78 125.913 537.62 126.873 537.38 127.86C537.153 128.847 536.813 129.813 536.36 130.76C535.907 131.707 535.3 132.58 534.54 133.38C534.473 133.26 534.373 133.133 534.24 133C534.12 132.867 533.98 132.74 533.82 132.62C533.673 132.5 533.54 132.413 533.42 132.36C534.127 131.613 534.68 130.82 535.08 129.98C535.493 129.14 535.8 128.28 536 127.4C536.2 126.507 536.333 125.633 536.4 124.78C536.467 123.913 536.5 123.093 536.5 122.32V117ZM527.76 119.6H529.2V125C529.2 125.64 529.173 126.327 529.12 127.06C529.08 127.793 528.993 128.54 528.86 129.3C528.74 130.047 528.567 130.78 528.34 131.5C528.113 132.207 527.8 132.853 527.4 133.44C527.333 133.347 527.227 133.24 527.08 133.12C526.933 133.013 526.78 132.9 526.62 132.78C526.473 132.673 526.347 132.593 526.24 132.54C526.707 131.807 527.047 131 527.26 130.12C527.473 129.24 527.607 128.36 527.66 127.48C527.727 126.587 527.76 125.753 527.76 124.98V119.6ZM543.38 115.26L544.7 116.38C544.047 116.7 543.307 117.007 542.48 117.3C541.653 117.58 540.8 117.847 539.92 118.1C539.04 118.34 538.18 118.553 537.34 118.74C537.3 118.58 537.227 118.38 537.12 118.14C537.013 117.9 536.907 117.7 536.8 117.54C537.6 117.34 538.407 117.12 539.22 116.88C540.047 116.64 540.82 116.38 541.54 116.1C542.273 115.82 542.887 115.54 543.38 115.26ZM528.6 119.6H535.14V125.84H528.6V124.48H533.68V120.98H528.6V119.6Z" fill="#D7D0C8"/>
<path opacity="0.86" d="M499.94 116.02H506.76V117.32H499.94V116.02ZM507.68 126.24H516.34V127.54H507.68V126.24ZM499.72 122.06H507.24V123.4H499.72V122.06ZM503.24 122.6H504.68V131.68C504.68 132.053 504.633 132.347 504.54 132.56C504.447 132.787 504.267 132.967 504 133.1C503.747 133.207 503.413 133.273 503 133.3C502.6 133.327 502.093 133.34 501.48 133.34C501.453 133.153 501.393 132.92 501.3 132.64C501.22 132.373 501.127 132.14 501.02 131.94C501.46 131.953 501.853 131.96 502.2 131.96C502.56 131.973 502.8 131.973 502.92 131.96C503.04 131.947 503.12 131.92 503.16 131.88C503.213 131.84 503.24 131.767 503.24 131.66V122.6ZM515.84 126.24H517.36C517.36 126.24 517.353 126.32 517.34 126.48C517.34 126.64 517.333 126.78 517.32 126.9C517.2 128.14 517.067 129.16 516.92 129.96C516.787 130.747 516.647 131.36 516.5 131.8C516.353 132.24 516.18 132.56 515.98 132.76C515.807 132.947 515.62 133.073 515.42 133.14C515.233 133.22 515 133.273 514.72 133.3C514.493 133.313 514.18 133.32 513.78 133.32C513.38 133.32 512.947 133.307 512.48 133.28C512.467 133.067 512.427 132.827 512.36 132.56C512.293 132.307 512.2 132.08 512.08 131.88C512.52 131.92 512.92 131.947 513.28 131.96C513.64 131.973 513.9 131.98 514.06 131.98C514.233 131.98 514.367 131.967 514.46 131.94C514.567 131.913 514.667 131.86 514.76 131.78C514.893 131.633 515.027 131.367 515.16 130.98C515.293 130.593 515.413 130.033 515.52 129.3C515.64 128.567 515.747 127.62 515.84 126.46V126.24ZM511.4 124.26H512.9C512.807 125.26 512.653 126.22 512.44 127.14C512.24 128.06 511.927 128.913 511.5 129.7C511.087 130.487 510.52 131.193 509.8 131.82C509.08 132.447 508.153 132.98 507.02 133.42C506.94 133.247 506.813 133.04 506.64 132.8C506.467 132.573 506.3 132.393 506.14 132.26C507.18 131.873 508.027 131.407 508.68 130.86C509.333 130.3 509.84 129.68 510.2 129C510.573 128.307 510.847 127.56 511.02 126.76C511.193 125.96 511.32 125.127 511.4 124.26ZM500.64 119.36L501.58 118.38C502.153 118.607 502.74 118.887 503.34 119.22C503.953 119.54 504.527 119.873 505.06 120.22C505.607 120.553 506.047 120.873 506.38 121.18L505.38 122.28C505.06 121.973 504.633 121.64 504.1 121.28C503.58 120.92 503.013 120.573 502.4 120.24C501.8 119.893 501.213 119.6 500.64 119.36ZM506.84 122.06H507.06L507.28 121.98L508.22 122.3C508.007 123.14 507.753 124.007 507.46 124.9C507.18 125.78 506.88 126.527 506.56 127.14L505.52 126.62C505.773 126.087 506.02 125.42 506.26 124.62C506.5 123.807 506.693 123.04 506.84 122.32V122.06ZM514.86 117.72L516.42 117.98C515.967 119.193 515.34 120.233 514.54 121.1C513.753 121.967 512.827 122.7 511.76 123.3C510.707 123.9 509.547 124.4 508.28 124.8C508.227 124.693 508.147 124.56 508.04 124.4C507.933 124.227 507.813 124.067 507.68 123.92C507.56 123.76 507.447 123.633 507.34 123.54C508.567 123.233 509.68 122.827 510.68 122.32C511.693 121.8 512.553 121.167 513.26 120.42C513.98 119.66 514.513 118.76 514.86 117.72ZM510.6 115L512.02 115.4C511.713 116.107 511.34 116.793 510.9 117.46C510.46 118.113 509.993 118.727 509.5 119.3C509.007 119.873 508.507 120.373 508 120.8C507.907 120.72 507.787 120.627 507.64 120.52C507.493 120.4 507.34 120.287 507.18 120.18C507.02 120.073 506.88 119.987 506.76 119.92C507.547 119.333 508.28 118.613 508.96 117.76C509.64 116.893 510.187 115.973 510.6 115ZM510.24 118.16C510.72 119.027 511.353 119.827 512.14 120.56C512.927 121.293 513.833 121.92 514.86 122.44C515.9 122.947 517.02 123.327 518.22 123.58C518.113 123.687 517.993 123.813 517.86 123.96C517.74 124.107 517.627 124.26 517.52 124.42C517.413 124.58 517.32 124.727 517.24 124.86C516.027 124.527 514.893 124.067 513.84 123.48C512.787 122.88 511.847 122.167 511.02 121.34C510.193 120.513 509.513 119.593 508.98 118.58L510.24 118.16ZM503.04 122.48L504.06 122.86C503.82 123.74 503.5 124.647 503.1 125.58C502.713 126.513 502.28 127.38 501.8 128.18C501.333 128.98 500.833 129.64 500.3 130.16C500.22 129.96 500.1 129.727 499.94 129.46C499.793 129.18 499.653 128.947 499.52 128.76C500.013 128.307 500.487 127.74 500.94 127.06C501.393 126.367 501.8 125.627 502.16 124.84C502.533 124.04 502.827 123.253 503.04 122.48ZM510.16 117.12H517.78V118.4H509.52L510.16 117.12ZM506.4 116.02H506.74L506.98 115.96L507.96 116.58C507.653 117.033 507.287 117.5 506.86 117.98C506.433 118.447 505.98 118.893 505.5 119.32C505.02 119.733 504.553 120.093 504.1 120.4C503.967 120.28 503.8 120.153 503.6 120.02C503.4 119.873 503.227 119.76 503.08 119.68C503.507 119.387 503.927 119.047 504.34 118.66C504.767 118.273 505.16 117.873 505.52 117.46C505.893 117.033 506.187 116.647 506.4 116.3V116.02Z" fill="#D7D0C8"/>
<path opacity="0.86" d="M480.98 115.02H482.5V131.74C482.5 132.193 482.427 132.527 482.28 132.74C482.147 132.967 481.92 133.133 481.6 133.24C481.293 133.347 480.867 133.413 480.32 133.44C479.787 133.467 479.1 133.48 478.26 133.48C478.22 133.293 478.147 133.073 478.04 132.82C477.933 132.58 477.827 132.38 477.72 132.22C478.12 132.233 478.507 132.24 478.88 132.24C479.267 132.24 479.6 132.233 479.88 132.22C480.173 132.22 480.373 132.22 480.48 132.22C480.667 132.207 480.793 132.167 480.86 132.1C480.94 132.033 480.98 131.913 480.98 131.74V115.02ZM473.14 116.62H490.5V117.86H473.14V116.62ZM476.68 120.1V121.52H486.98V120.1H476.68ZM475.24 119.04H488.5V122.58H475.24V119.04ZM474.66 124H488.82V131.26H487.3V125.1H474.66V124ZM472.76 126.5H490.9V127.7H472.76V126.5ZM474.48 129.2H488.08V130.38H474.48V129.2Z" fill="#D7D0C8"/>
<path opacity="0.86" d="M453.5 121.86H464.22V123.34H453.5V121.86ZM458.2 115.08H459.7V133.42H458.2V115.08ZM446.52 121.08H452.76V122.26H446.52V121.08ZM446.62 115.72H452.78V116.92H446.62V115.72ZM446.52 123.74H452.76V124.94H446.52V123.74ZM445.56 118.34H453.52V119.6H445.56V118.34ZM447.22 126.44H452.7V132.28H447.22V131.04H451.36V127.7H447.22V126.44ZM446.48 126.44H447.82V133.2H446.48V126.44Z" fill="#D7D0C8"/>
<path opacity="0.86" d="M427.74 115.66H429.16V118.1C429.16 118.66 429.093 119.26 428.96 119.9C428.827 120.54 428.58 121.16 428.22 121.76C427.86 122.36 427.32 122.9 426.6 123.38C426.533 123.273 426.427 123.16 426.28 123.04C426.147 122.907 426.007 122.78 425.86 122.66C425.727 122.527 425.607 122.433 425.5 122.38C426.14 121.953 426.62 121.5 426.94 121.02C427.26 120.527 427.473 120.027 427.58 119.52C427.687 119.013 427.74 118.527 427.74 118.06V115.66ZM432.6 115.66H434.04V120.56C434.04 120.787 434.06 120.933 434.1 121C434.153 121.053 434.26 121.08 434.42 121.08C434.473 121.08 434.567 121.08 434.7 121.08C434.833 121.08 434.973 121.08 435.12 121.08C435.267 121.08 435.373 121.08 435.44 121.08C435.547 121.08 435.627 121.033 435.68 120.94C435.747 120.847 435.793 120.647 435.82 120.34C435.86 120.02 435.88 119.54 435.88 118.9C436.027 119.02 436.227 119.127 436.48 119.22C436.733 119.313 436.96 119.387 437.16 119.44C437.12 120.227 437.04 120.833 436.92 121.26C436.813 121.687 436.653 121.987 436.44 122.16C436.24 122.32 435.96 122.4 435.6 122.4C435.507 122.4 435.367 122.4 435.18 122.4C434.993 122.4 434.8 122.4 434.6 122.4C434.413 122.4 434.28 122.4 434.2 122.4C433.787 122.4 433.46 122.347 433.22 122.24C432.993 122.133 432.833 121.953 432.74 121.7C432.647 121.433 432.6 121.06 432.6 120.58V115.66ZM428.82 125.08C429.5 126.813 430.56 128.293 432 129.52C433.453 130.747 435.187 131.613 437.2 132.12C437.093 132.213 436.973 132.34 436.84 132.5C436.72 132.66 436.6 132.82 436.48 132.98C436.373 133.14 436.28 133.28 436.2 133.4C434.133 132.8 432.36 131.827 430.88 130.48C429.413 129.12 428.28 127.467 427.48 125.52L428.82 125.08ZM434.42 123.68H434.7L434.96 123.62L435.94 124C435.593 125.32 435.1 126.493 434.46 127.52C433.833 128.533 433.1 129.427 432.26 130.2C431.42 130.973 430.5 131.62 429.5 132.14C428.513 132.673 427.467 133.1 426.36 133.42C426.32 133.287 426.253 133.133 426.16 132.96C426.067 132.8 425.967 132.64 425.86 132.48C425.753 132.32 425.647 132.193 425.54 132.1C426.553 131.833 427.527 131.467 428.46 131C429.393 130.533 430.253 129.967 431.04 129.3C431.84 128.62 432.527 127.833 433.1 126.94C433.673 126.047 434.113 125.047 434.42 123.94V123.68ZM426.44 123.68H435V125.06H426.44V123.68ZM428.34 115.66H433.34V117H428.34V115.66ZM419.52 121.08H425.48V122.26H419.52V121.08ZM419.6 115.72H425.44V116.92H419.6V115.72ZM419.52 123.74H425.48V124.94H419.52V123.74ZM418.56 118.34H426.18V119.6H418.56V118.34ZM420.22 126.44H425.46V132.28H420.22V131.04H424.14V127.7H420.22V126.44ZM419.48 126.44H420.8V133.2H419.48V126.44Z" fill="#D7D0C8"/>
<path opacity="0.86" d="M397.76 127.28H403.82V128.44H397.76V127.28ZM397.68 124.26H404.5V131.56H397.68V130.38H403.1V125.44H397.68V124.26ZM397.04 124.26H398.4V132.58H397.04V124.26ZM393.34 118.72H398.9V119.82H393.34V118.72ZM402.56 118.72H408.24V119.82H402.56V118.72ZM407.6 115.88H409.12V131.44C409.12 131.907 409.053 132.273 408.92 132.54C408.8 132.807 408.573 133.007 408.24 133.14C407.92 133.273 407.48 133.353 406.92 133.38C406.373 133.407 405.687 133.42 404.86 133.42C404.833 133.273 404.793 133.107 404.74 132.92C404.687 132.733 404.62 132.547 404.54 132.36C404.473 132.173 404.407 132.013 404.34 131.88C404.74 131.893 405.127 131.9 405.5 131.9C405.887 131.9 406.227 131.9 406.52 131.9C406.813 131.9 407.02 131.9 407.14 131.9C407.313 131.887 407.433 131.847 407.5 131.78C407.567 131.713 407.6 131.593 407.6 131.42V115.88ZM393.46 115.88H399.86V122.74H393.46V121.6H398.46V117.04H393.46V115.88ZM408.36 115.88V117.04H403.1V121.62H408.36V122.78H401.68V115.88H408.36ZM392.6 115.88H394.1V133.44H392.6V115.88Z" fill="#D7D0C8"/>
<path opacity="0.86" d="M372.98 115.02H374.52V118.02H372.98V115.02ZM372.98 126.66H374.52V132.2H372.98V126.66ZM370.76 118.26H372.32C372.213 119.18 372.047 120.013 371.82 120.76C371.593 121.493 371.247 122.14 370.78 122.7C370.327 123.26 369.707 123.747 368.92 124.16C368.147 124.56 367.153 124.9 365.94 125.18C365.9 125.047 365.833 124.907 365.74 124.76C365.66 124.6 365.567 124.447 365.46 124.3C365.353 124.14 365.24 124.007 365.12 123.9C366.227 123.687 367.127 123.42 367.82 123.1C368.527 122.767 369.08 122.373 369.48 121.92C369.88 121.453 370.173 120.92 370.36 120.32C370.547 119.707 370.68 119.02 370.76 118.26ZM375.22 118.22H376.7V122.46C376.7 122.7 376.753 122.853 376.86 122.92C376.967 122.987 377.2 123.02 377.56 123.02C377.653 123.02 377.813 123.02 378.04 123.02C378.267 123.02 378.52 123.02 378.8 123.02C379.093 123.02 379.36 123.02 379.6 123.02C379.853 123.02 380.033 123.02 380.14 123.02C380.34 123.02 380.487 122.987 380.58 122.92C380.687 122.84 380.76 122.687 380.8 122.46C380.853 122.22 380.887 121.867 380.9 121.4C381.007 121.48 381.133 121.553 381.28 121.62C381.44 121.687 381.6 121.747 381.76 121.8C381.933 121.853 382.087 121.9 382.22 121.94C382.167 122.567 382.073 123.053 381.94 123.4C381.807 123.747 381.613 123.993 381.36 124.14C381.107 124.273 380.753 124.34 380.3 124.34C380.193 124.34 380 124.34 379.72 124.34C379.453 124.34 379.16 124.34 378.84 124.34C378.52 124.34 378.22 124.34 377.94 124.34C377.673 124.34 377.5 124.34 377.42 124.34C376.833 124.34 376.38 124.287 376.06 124.18C375.74 124.073 375.52 123.88 375.4 123.6C375.28 123.32 375.22 122.94 375.22 122.46V118.22ZM365.36 117.1H382.3V120.7H380.76V118.48H366.84V121.14H365.36V117.1ZM367.1 126.02H380.88V127.4H367.1V126.02ZM365 131.44H382.62V132.82H365V131.44Z" fill="#D7D0C8"/>
<g opacity="0.85">
<path d="M475.637 22.4417C478.888 22.4417 481.253 23.2958 482.826 24.9222L482.831 24.928C484.469 26.5658 485.319 28.8826 485.319 31.9475C485.319 32.6813 485.231 33.187 485.095 33.5052L485.087 33.5247L485.08 33.5442C485.051 33.6325 485.017 33.6648 484.993 33.6809C484.964 33.6999 484.9 33.7288 484.765 33.7288H481.666V32.3157L481.158 32.3245L480.402 32.3372C480.362 29.6485 479.805 27.5258 478.668 26.0276C477.276 24.134 475.277 23.1966 472.741 23.1966C469.483 23.1967 466.901 24.5002 465.049 27.0931L465.045 27.0989C463.988 28.6301 463.258 30.4838 462.838 32.6477L461.235 32.6761L460.704 32.6849L460.745 33.2141L460.832 34.3548L460.868 34.8186L461.333 34.8167L462.533 34.8108C462.453 35.6599 462.411 36.5488 462.411 37.4768C462.412 40.8641 462.946 43.8854 464.028 46.5306C465.113 49.1828 466.719 51.2807 468.852 52.804C470.998 54.3367 473.591 55.0911 476.603 55.0911C478.636 55.0911 480.352 54.7923 481.725 54.1683C482.124 53.9867 482.587 53.6165 483.044 53.2044C483.514 52.7812 484.027 52.2685 484.53 51.761C484.909 51.3776 485.285 50.9999 485.638 50.6536C485.439 50.9554 485.244 51.2481 485.146 51.4309C485.117 51.4849 485.074 51.5705 485.05 51.6604C485.049 51.6657 485.047 51.6731 485.045 51.6819C484.678 52.0191 484.313 52.3624 483.954 52.7024C483.451 53.1806 482.957 53.6488 482.46 54.0852C481.463 54.9622 480.494 55.675 479.499 56.052C477.449 56.792 475.343 57.1624 473.18 57.1624C469.745 57.1624 466.891 56.3904 464.59 54.8753C462.412 53.386 460.736 51.5026 459.555 49.221L459.326 48.7581C458.188 46.2521 457.619 43.6052 457.618 40.8118C457.618 37.3223 458.419 34.222 460.008 31.4974L460.01 31.4934C461.606 28.7014 463.767 26.5126 466.498 24.9192L466.501 24.9173C469.29 23.2671 472.331 22.4417 475.637 22.4417ZM485.597 51.3352C485.644 51.34 485.7 51.354 485.758 51.3821C485.734 51.4206 485.71 51.4569 485.689 51.4915L485.555 51.3352C485.568 51.3354 485.583 51.3338 485.597 51.3352ZM462.666 33.6507C462.659 33.7038 462.653 33.7574 462.646 33.8108L461.793 33.8138L461.783 33.6663L462.666 33.6507ZM479.391 33.3558C479.387 33.4813 479.381 33.6082 479.375 33.7366L463.655 33.8059C463.663 33.748 463.673 33.6906 463.682 33.6331L479.391 33.3558ZM480.666 33.7288H480.377C480.383 33.5974 480.387 33.4672 480.391 33.3382L480.666 33.3333V33.7288Z" fill="#E6E6E6" stroke="#F0E8DF"/>
<path d="M409.549 23.7065C409.517 23.7065 409.62 23.7012 409.871 23.9936C410.098 24.2589 410.371 24.681 410.685 25.2817C411.26 26.3784 411.578 28.0144 411.593 30.2378C410.954 30.9876 410.315 31.7918 409.675 32.6499L409.518 32.8598L409.601 33.1069L409.952 34.1606L410.273 35.1235L410.841 34.2817C411.084 33.9212 411.336 33.5737 411.595 33.2378V50.7661C411.595 52.0134 411.675 53.0722 411.845 53.9341C412.013 54.7889 412.275 55.4915 412.666 55.9897L412.679 56.0053L412.692 56.02C413.134 56.4979 413.785 56.8179 414.582 57.021C415.327 57.2109 416.235 57.3063 417.297 57.3188C417.297 57.3282 417.299 57.3379 417.299 57.3481C417.299 57.3565 417.297 57.3647 417.297 57.3725C416.359 57.3683 415.247 57.3413 413.958 57.2876H413.959C412.605 57.2287 411.164 57.1997 409.637 57.1997C408.109 57.1997 406.639 57.2287 405.227 57.2876C403.938 57.3413 402.825 57.3683 401.888 57.3725C401.887 57.3647 401.887 57.3565 401.887 57.3481C401.887 57.3379 401.887 57.3281 401.888 57.3188C402.948 57.3064 403.85 57.2106 404.584 57.02C405.365 56.8168 406.002 56.4942 406.417 56.0053L406.418 56.0063C406.845 55.5079 407.133 54.8016 407.317 53.9419C407.503 53.0766 407.592 52.0149 407.592 50.7661V33.3882C407.592 31.5604 407.387 30.1205 406.926 29.1313L406.831 28.9399C406.589 28.4039 406.229 27.979 405.745 27.6919C405.254 27.4011 404.67 27.271 404.019 27.271C403.372 27.271 402.621 27.3996 401.776 27.6411L401.913 28.1216L401.775 27.6411L401.767 27.644C401.01 27.8768 400.146 28.1927 399.178 28.5893C399.175 28.5871 399.172 28.5852 399.17 28.5825C399.159 28.5712 399.149 28.5546 399.136 28.5356L409.201 23.7622C409.321 23.7244 409.436 23.7065 409.549 23.7065ZM425.522 23.3559C428.644 23.3559 430.986 24.2329 432.623 25.9243L432.635 25.936C434.317 27.5638 435.203 30.0732 435.203 33.5639V50.7661C435.203 52.0134 435.285 53.0722 435.454 53.9341C435.622 54.7889 435.884 55.4915 436.275 55.9897L436.288 56.0053L436.302 56.02C436.743 56.4979 437.395 56.8179 438.191 57.021C438.937 57.2109 439.845 57.3063 440.906 57.3188C440.906 57.3282 440.908 57.3379 440.908 57.3481C440.908 57.3565 440.906 57.3647 440.906 57.3725C439.969 57.3683 438.857 57.3412 437.568 57.2876C436.214 57.2287 434.774 57.1997 433.246 57.1997C431.718 57.1997 430.249 57.2287 428.837 57.2876C427.548 57.3413 426.435 57.3683 425.497 57.3725C425.497 57.3647 425.496 57.3565 425.496 57.3481C425.496 57.3379 425.497 57.3281 425.497 57.3188C426.558 57.3064 427.46 57.2107 428.193 57.02C428.975 56.8168 429.611 56.4942 430.026 56.0053L430.027 56.0063C430.454 55.5079 430.742 54.8016 430.927 53.9419C431.112 53.0766 431.201 52.0149 431.201 50.7661V36.5473C431.201 33.0015 430.555 30.317 429.162 28.603H429.163C427.75 26.8053 425.531 25.9546 422.626 25.9546C420.409 25.9546 418.156 26.6635 415.873 28.0454C414.714 28.7469 413.641 29.5785 412.654 30.5395C414.457 28.4715 416.234 26.8713 417.983 25.7319C420.489 24.1381 423 23.3559 425.522 23.3559Z" fill="#E6E6E6" stroke="#F0E8DF"/>
<path d="M366.104 22.4417C369.588 22.4417 372.527 23.297 374.946 24.9847L374.95 24.9876C377.454 26.6949 379.356 28.8816 380.663 31.552C381.975 34.2341 382.631 37.0559 382.631 40.0218C382.631 43.689 381.801 46.811 380.163 49.4095C378.513 52.0264 376.326 54.0425 373.597 55.4641C370.865 56.887 367.843 57.6018 364.524 57.6018C361.158 57.6018 358.243 56.7756 355.76 55.139C353.416 53.5944 351.573 51.5771 350.226 49.0804L349.964 48.5745C348.595 45.779 347.91 42.7841 347.91 39.5833C347.91 36.6012 348.455 34.0477 349.525 31.9075C350.604 29.7491 352.047 27.9967 353.853 26.6419L353.861 26.636C355.689 25.2084 357.655 24.1553 359.761 23.472C361.94 22.7836 364.054 22.4417 366.104 22.4417ZM363.208 23.1097C359.966 23.1097 357.385 24.3116 355.527 26.7268C353.679 29.1294 352.791 32.5313 352.791 36.8616C352.791 40.4861 353.385 43.8259 354.58 46.8743C355.774 49.9202 357.427 52.3632 359.548 54.1809L359.968 54.5169C362.062 56.125 364.435 56.9339 367.07 56.9339C370.302 56.9338 372.906 55.7981 374.825 53.5081L374.83 53.5022C376.753 51.1451 377.663 47.434 377.663 42.4788C377.663 38.9713 377.115 35.8361 376.007 33.0823L375.778 32.5364C374.58 29.606 372.892 27.3072 370.704 25.6663C368.511 23.9631 366.006 23.1097 363.208 23.1097Z" fill="#E6E6E6" stroke="#F0E8DF"/>
<path d="M336.616 0.583984C336.558 1.43042 336.478 2.53937 336.372 3.91113C336.255 5.43969 336.166 7.02631 336.108 8.6709C336.049 10.3084 335.99 11.8293 335.932 13.2324C335.881 14.4507 335.854 15.4319 335.847 16.1738C335.837 16.1739 335.828 16.1758 335.818 16.1758C335.803 16.1758 335.788 16.1741 335.775 16.1738C335.568 11.7371 334.63 8.49821 332.847 6.5918C331.013 4.57319 328.037 3.62502 324.057 3.625C321.592 3.625 319.71 3.74221 318.434 3.98535C317.112 4.23714 316.125 4.82666 315.622 5.83203L315.619 5.83887L315.616 5.84668C315.217 6.71256 315.043 8.06467 315.043 9.83008V50.29C315.043 52.0128 315.249 53.3871 315.704 54.3633C316.193 55.4104 317.129 56.0733 318.407 56.3926L318.411 56.3936C319.657 56.6901 321.468 56.8356 323.819 56.8447C323.819 56.8537 323.821 56.8632 323.821 56.873C323.821 56.8815 323.819 56.8896 323.819 56.8975C322.362 56.8946 320.721 56.8669 318.894 56.8115C316.957 56.7528 314.845 56.7236 312.559 56.7236C310.39 56.7236 308.337 56.7529 306.401 56.8115C304.606 56.8659 302.964 56.8937 301.475 56.8975C301.475 56.8895 301.474 56.8814 301.474 56.873C301.474 56.863 301.475 56.8532 301.475 56.8438C303.727 56.831 305.479 56.686 306.707 56.3936L306.706 56.3926C308.083 56.0787 309.093 55.4263 309.589 54.3633C310.045 53.3871 310.251 52.0129 310.251 50.29V9.6543C310.251 7.88506 310.048 6.52001 309.576 5.64355H309.575C309.066 4.63736 308.071 4.08241 306.749 3.89355C305.484 3.71286 303.612 3.625 301.15 3.625C297.44 3.625 294.543 4.58363 292.546 6.58008L292.54 6.58594C290.73 8.45447 289.435 11.5067 288.602 15.6602C288.679 15.023 288.758 14.2638 288.834 13.3838V13.3818C288.951 11.9759 289.069 10.4824 289.186 8.90137L289.185 8.90039C289.36 7.32328 289.477 5.8028 289.536 4.33887C289.64 2.98929 289.696 1.86163 289.708 0.958984C289.75 1.20945 289.839 1.44575 289.982 1.66016C290.161 1.92894 290.409 2.14252 290.703 2.30957L290.852 2.3877L290.87 2.39551C291.493 2.64448 292.172 2.82801 292.906 2.9502L292.927 2.9541L292.949 2.95605C293.709 3.01452 294.36 3.04331 294.901 3.04395V3.04492C299.94 3.22071 305.826 3.30859 312.559 3.30859C315.676 3.30859 318.302 3.29177 320.434 3.25879L322.402 3.2207L322.413 3.21973C324.863 3.10307 327.225 3.04492 329.498 3.04492C331.499 3.04492 333.063 2.92854 334.17 2.68262L334.18 2.67969L334.19 2.67773C335.403 2.35842 336.246 1.66622 336.616 0.583984Z" fill="#E6E6E6" stroke="#F0E8DF"/>
<path d="M228.427 22.4417C230.706 22.4417 232.359 23.1852 233.474 24.6184L233.48 24.6253C234.611 26.026 235.212 28.0632 235.212 30.8059V47.2181C235.212 49.2868 235.474 50.8874 236.066 51.9397C236.69 53.0498 237.716 53.5989 239.047 53.5989C240.188 53.5989 241.704 53.1952 243.565 52.4436C243.568 52.4511 243.573 52.4583 243.576 52.4671V52.469L243.572 52.472L234.532 56.7727L234.523 56.7766C234.35 56.863 234.192 56.8997 234.044 56.8997C233.576 56.8995 232.973 56.5129 232.285 55.3079C231.836 54.4815 231.532 53.38 231.39 51.9856L233.088 50.885L233.359 50.7093L233.31 50.3899L233.134 49.2493L233.021 48.511L232.382 48.8968L231.297 49.5511V40.9808L232.119 40.6634L232.523 40.5071L232.425 40.0843L232.163 38.9436L232.034 38.388L231.499 38.5882L231.297 38.6634V33.4388C231.297 29.7946 230.774 27.1098 229.623 25.511C228.544 23.9318 227.082 23.1097 225.268 23.1097C223.813 23.1097 222.563 23.4655 221.553 24.2083L221.37 24.3499C220.372 25.0977 219.616 26.0091 219.111 27.0823L219.106 27.094L219.101 27.1048C218.683 28.121 218.38 29.0864 218.197 29.9993C218.032 30.7692 217.757 31.5441 217.368 32.3245C217.08 32.8585 216.482 33.2024 215.35 33.2024C214.443 33.2024 213.877 32.9647 213.537 32.5872C213.134 32.0799 212.954 31.5773 212.954 31.0696C212.954 30.1308 213.395 29.1682 214.387 28.1761L214.386 28.1751C215.458 27.1616 216.793 26.2249 218.395 25.3665L218.401 25.3636C220.066 24.4449 221.787 23.7282 223.564 23.2122L223.563 23.2112C225.403 22.6938 227.023 22.4417 228.427 22.4417ZM230.297 40.2952L222.455 43.3294H222.454C221.369 43.751 220.449 44.2397 219.702 44.8001C218.953 45.3613 218.374 45.9986 217.983 46.7161L217.974 46.7317L217.967 46.7483C217.643 47.4618 217.484 48.2353 217.484 49.0618C217.484 50.5273 217.966 51.8152 218.925 52.9026C219.912 54.0211 221.257 54.5647 222.898 54.5647C223.533 54.5647 224.192 54.469 224.873 54.2835C225.584 54.0895 226.421 53.6797 227.375 53.0833L230.332 51.3001C230.336 51.3577 230.34 51.415 230.344 51.472L226.049 54.2591L226.043 54.263C224.663 55.1834 223.414 55.8332 222.294 56.2249L222.287 56.2278C221.232 56.6163 220.121 56.8118 218.949 56.8118C216.814 56.8118 215.264 56.2522 214.216 55.2073C213.134 54.069 212.603 52.759 212.603 51.2561C212.603 50.3091 212.809 49.4551 213.217 48.6858L213.405 48.3616C213.997 47.4497 214.926 46.5926 216.225 45.802C217.533 45.0059 219.226 44.2294 221.313 43.4759L221.319 43.4739L230.297 40.1067V40.2952ZM232.272 50.222L231.312 50.844C231.31 50.8003 231.309 50.7564 231.308 50.7122L232.259 50.138L232.272 50.222ZM231.353 39.887L231.297 39.9085V39.7317L231.316 39.7249L231.353 39.887Z" fill="#F0E8DF" stroke="#F0E8DF"/>
<path d="M190.162 20.897C190.19 20.9173 190.229 20.9496 190.28 21.0005L190.315 21.0357L190.356 21.063C190.379 21.078 190.39 21.0907 190.396 21.0972C190.396 21.5625 190.368 22.6907 190.309 24.4927C190.251 26.314 190.222 28.6316 190.222 31.4429V47.9429C190.222 49.1902 190.303 50.249 190.473 51.1109C190.64 51.9658 190.902 52.6683 191.294 53.1665L191.306 53.1822L191.319 53.1968C191.762 53.6767 192.423 53.9963 193.233 54.1988C193.993 54.3887 194.923 54.4835 196.013 54.4956C196.013 54.505 196.014 54.5147 196.014 54.5249C196.014 54.5333 196.013 54.5416 196.013 54.5494C195.022 54.5453 193.88 54.5183 192.586 54.4644H192.587C191.233 54.4055 189.792 54.3765 188.264 54.3765C186.737 54.3765 185.267 54.4056 183.855 54.4644H183.854C182.645 54.517 181.531 54.5443 180.514 54.5494C180.514 54.5415 180.514 54.5332 180.514 54.5249C180.514 54.5145 180.514 54.5044 180.514 54.4947C181.539 54.4781 182.418 54.3826 183.143 54.1978C183.94 53.9947 184.591 53.6738 185.032 53.1958C185.494 52.6981 185.808 51.9914 186.009 51.1275C186.21 50.2586 186.306 49.1938 186.306 47.9429V31.5298C186.306 29.5974 186.128 28.0886 185.732 27.0542L185.65 26.854C185.414 26.2854 185.064 25.8278 184.588 25.5162C184.11 25.2037 183.541 25.062 182.91 25.062C182.366 25.0621 181.752 25.1956 181.081 25.439C180.434 25.6178 179.691 25.9037 178.854 26.2896C178.853 26.2883 178.852 26.2871 178.85 26.2857C178.837 26.2716 178.824 26.2506 178.806 26.2242C178.794 26.1854 178.785 26.1538 178.781 26.1275L190.022 20.939C190.08 20.92 190.126 20.9066 190.162 20.897ZM187.562 3.24271C188.639 3.24279 189.404 3.53699 189.93 4.06205C190.454 4.58717 190.748 5.35224 190.748 6.42924C190.748 7.58069 190.461 8.35289 189.973 8.84037C189.486 9.32784 188.714 9.61472 187.562 9.61478C186.487 9.61478 185.682 9.32157 185.092 8.7808C184.516 8.25298 184.2 7.49366 184.2 6.42924C184.2 5.36465 184.516 4.60457 185.092 4.0767C185.682 3.53602 186.487 3.24271 187.562 3.24271Z" fill="#E6E6E6" stroke="#F0E8DF"/>
<path d="M145.328 22.4417C145.327 22.4437 145.434 22.4678 145.657 22.7278C145.884 22.9931 146.156 23.4159 146.471 24.0169C147.053 25.1289 147.372 26.7947 147.379 29.0657C146.729 29.8213 146.035 30.6461 145.299 31.5413L145.118 31.762L145.216 32.0306L145.567 32.9954L145.863 33.8108L146.42 33.1458C146.754 32.7475 147.075 32.3708 147.38 32.013V49.5003C147.38 51.1703 147.587 52.5358 148.035 53.5618V53.5628L148.041 53.5735C148.534 54.6293 149.507 55.2875 150.835 55.6038C152.095 55.9037 153.905 56.048 156.241 56.054C156.242 56.0631 156.244 56.073 156.244 56.0833C156.244 56.0922 156.242 56.1007 156.241 56.1087C155.23 56.1072 154.083 56.0911 152.801 56.0599L151.406 56.0218C149.528 55.9631 147.533 55.9339 145.422 55.9339C143.894 55.9339 142.425 55.9629 141.013 56.0218C139.724 56.0755 138.611 56.1035 137.673 56.1077C137.673 56.0999 137.672 56.0917 137.672 56.0833C137.672 56.0728 137.673 56.0625 137.673 56.053C138.734 56.0406 139.636 55.9458 140.369 55.7552C141.152 55.5517 141.791 55.2287 142.205 54.7386L142.204 54.7376C142.631 54.2393 142.919 53.5354 143.103 52.677C143.288 51.8116 143.377 50.7495 143.377 49.5003V32.1224C143.377 30.2949 143.172 28.8556 142.711 27.8665L142.616 27.6741C142.375 27.1383 142.015 26.7132 141.531 26.4261C141.04 26.1353 140.456 26.0052 139.805 26.0052C139.158 26.0052 138.407 26.1338 137.562 26.3753L137.552 26.3792C136.795 26.6121 135.931 26.9268 134.962 27.3235C134.96 27.3215 134.958 27.32 134.955 27.3177C134.945 27.3065 134.935 27.2896 134.921 27.2708L144.988 22.4974C145.105 22.4604 145.218 22.4423 145.328 22.4417ZM157.621 22.4417C158.75 22.4417 159.862 22.7633 160.963 23.4241L160.972 23.429C162.118 24.084 162.564 24.796 162.564 25.5403C162.564 26.1714 162.351 26.6869 161.92 27.1175L161.909 27.1282L161.9 27.139C161.555 27.5266 161.01 27.761 160.167 27.761C159.519 27.761 158.996 27.5648 158.569 27.1849C158.027 26.7038 157.456 26.2528 156.856 25.8323C156.164 25.3481 155.294 25.1282 154.286 25.1282C153.666 25.1283 153.034 25.3005 152.396 25.6194C151.728 25.9534 150.889 26.6806 149.896 27.7317C150.437 27.14 150.934 26.6139 151.392 26.1565L151.393 26.1575L151.4 26.1497C152.792 24.6998 153.947 23.7503 154.871 23.261L154.88 23.2561C155.88 22.7008 156.791 22.4418 157.621 22.4417Z" fill="#E6E6E6" stroke="#F0E8DF"/>
<path d="M109.507 22.4544C109.536 22.4688 109.581 22.4995 109.64 22.5589L109.697 22.6155L109.77 22.6526C109.805 22.6699 109.829 22.685 109.845 22.6966V47.2181C109.845 49.2227 110.076 50.7621 110.605 51.7542C110.88 52.2691 111.26 52.6728 111.748 52.9436C112.232 53.2127 112.795 53.3352 113.417 53.3352C114.051 53.3352 114.736 53.2401 115.469 53.0569L115.481 53.054L115.495 53.0501C116.258 52.8153 117.159 52.4948 118.197 52.0921C118.2 52.0997 118.205 52.1075 118.208 52.1165L118.213 52.1302L118.219 52.1438C118.22 52.1471 118.22 52.1506 118.222 52.1536L108.025 56.9466L108.014 56.9524C107.959 56.9802 107.918 56.9875 107.888 56.9876C107.877 56.9876 107.755 56.9743 107.521 56.7015C107.3 56.4437 107.045 56.03 106.762 55.4358C106.22 54.2427 105.93 52.5114 105.93 50.2024V50.0208C106.596 49.2724 107.263 48.4698 107.93 47.6136L108.117 47.3753L107.991 47.0989L107.553 46.1341L107.202 45.3626L106.696 46.0423C106.447 46.3769 106.191 46.7002 105.93 47.014V33.0882C105.93 30.9408 105.752 29.2918 105.359 28.1946L105.278 27.9827C105.081 27.4051 104.781 26.9283 104.355 26.595C103.917 26.2519 103.387 26.0931 102.797 26.0931C101.917 26.0931 100.908 26.3893 99.784 26.93C99.7774 26.9134 99.7677 26.8957 99.7606 26.8743C99.756 26.8606 99.7542 26.847 99.7508 26.8352L109.409 22.4856L109.419 22.4808L109.428 22.4768C109.453 22.464 109.474 22.4549 109.489 22.4485C109.494 22.4503 109.5 22.4511 109.507 22.4544ZM86.2088 22.4417C86.2102 22.4417 86.2222 22.4411 86.2489 22.4544C86.2778 22.4689 86.3224 22.4996 86.3817 22.5589L86.4393 22.6155L86.5116 22.6526C86.5465 22.6701 86.5709 22.6849 86.5867 22.6966V43.6204C86.5868 47.1155 87.2053 49.8155 88.5242 51.637L88.5301 51.6438C89.8726 53.4336 91.8796 54.301 94.4588 54.3011C96.7879 54.3011 99.0994 53.5942 101.388 52.2093C102.658 51.4595 103.838 50.5692 104.93 49.5393V49.6341C103.022 51.7367 101.142 53.362 99.2879 54.5159C96.7859 56.0512 94.1837 56.8118 91.4744 56.8118C88.7264 56.8117 86.5875 55.9484 85.0008 54.2561C83.4727 52.5064 82.6717 49.9513 82.6717 46.5159V33.0882C82.6717 30.82 82.4725 29.1081 82.0321 28.0149C81.8347 27.4228 81.5312 26.9345 81.0975 26.595C80.6592 26.252 80.1287 26.0931 79.5389 26.0931C78.6465 26.0931 77.6201 26.3981 76.4754 26.9544L76.4744 26.9534C76.4549 26.9279 76.4326 26.8923 76.4071 26.845C76.4061 26.8418 76.406 26.8384 76.4051 26.8352L86.0633 22.4856L86.0721 22.4808L86.0819 22.4768C86.1376 22.449 86.1782 22.4417 86.2088 22.4417Z" fill="#E6E6E6" stroke="#F0E8DF"/>
<path d="M17.29 32.6858L18.1677 30.9305H41.4259L42.0403 32.6858H17.29ZM61.6123 55.7685C61.8463 55.7685 65.6198 54.5397 65.6198 54.8908C65.6198 55.2419 61.8463 56.8217 61.6123 56.8217C59.9154 56.8217 58.1894 56.7631 56.434 56.6461C54.6787 56.5291 52.9819 56.4706 51.3436 56.4706C49.5297 56.4706 47.9499 56.5291 46.6041 56.6461C45.2584 56.7631 43.7664 56.8217 42.128 56.8217C41.894 56.8217 41.777 56.6461 41.777 56.2951C41.777 55.944 41.894 55.7685 42.128 55.7685C45.2291 55.7685 47.16 55.3296 47.9206 54.452C48.6813 53.5158 48.4765 51.7897 47.3063 49.2737L27.8221 8.11111L30.0162 5.39034L12.9895 45.6753C11.5267 49.2445 11.4389 51.819 12.7262 53.3988C14.0134 54.9786 16.5587 55.7685 20.3619 55.7685C20.6544 55.7685 20.8007 55.944 20.8007 56.2951C20.8007 56.6461 20.6544 56.8217 20.3619 56.8217C18.6066 56.8217 16.9975 56.7631 15.5347 56.6461C14.0719 56.5291 12.2288 56.4706 10.0054 56.4706C7.89901 56.4706 6.20218 56.5291 4.91493 56.6461C3.6862 56.7631 2.1649 56.8217 0.351056 56.8217C0.117011 56.8217 0 56.6461 0 56.2951C0 55.944 0.117011 55.7685 0.351056 55.7685C1.93086 55.7685 3.30588 55.4759 4.4761 54.8908C5.64632 54.2472 6.72878 53.1647 7.72347 51.6434C8.77667 50.0636 9.91765 47.8109 11.1464 44.8854L29.6652 1.17754C29.7822 1.00201 29.987 0.914238 30.2795 0.914238C30.5721 0.914238 30.7476 1.00201 30.8061 1.17754L46.6041 35.7942C47.9499 38.6613 54.0643 49.9173 55.1175 51.5557C56.1707 53.1355 57.1947 54.2472 58.1894 54.8908C59.2426 55.4759 60.3835 55.7685 61.6123 55.7685Z" fill="#F0E8DF"/>
</g>
<path d="M55.7667 52.8522C58.823 53.1348 62.7217 53.9021 65.6333 54.5958C66.5455 54.8121 66.0626 54.8185 66.6876 54.9737C67.9188 55.2806 69.0713 55.4864 70.2732 55.8083C70.3183 55.8204 70.3509 55.8318 70.3742 55.8427C70.5617 55.9282 70.1779 55.9776 70.5538 56.0752C72.8588 56.6747 75.0465 57.1622 77.3693 57.8067C87.9188 60.6994 97.8856 64.5493 108.329 67.6025C109.244 67.8737 110.152 68.1532 111.058 68.435C114.685 69.613 119.014 70.8749 122.93 71.4823C123.05 71.502 123.17 71.5211 123.291 71.5395C123.751 71.6085 123.502 71.4171 123.591 71.4197C124.988 71.4518 124.489 71.6731 125.385 71.839C128.958 72.4841 133.013 72.7833 136.565 73.1631C138.09 73.3463 136.599 72.833 138.119 73.2339C138.224 73.2631 137.809 73.351 138.229 73.44C138.294 73.4538 138.361 73.4681 138.43 73.483C139.303 73.6789 140.875 73.7892 141.535 73.8467C142.905 73.9654 143.139 73.9728 144.445 74.0316C146.236 74.1089 148.367 74.2283 150.294 74.2005C150.706 74.194 150.161 74.0319 150.818 74.0063C151.472 73.9823 153.208 73.9857 153.794 74.0141C154.379 74.0441 154.132 74.1734 154.236 74.2008C155.093 74.4351 157.096 74.0461 157.351 74.0275C159.434 73.8994 161.387 73.8085 163.287 73.6935C165.682 73.5473 168.026 73.385 170.47 73.1089C173.808 72.7324 177.356 72.176 180.515 71.6897C180.694 71.6623 180.872 71.635 181.05 71.6077C184.64 71.0904 187.712 70.8232 191.207 70.2968C191.593 70.2396 191.115 70.1183 191.584 70.0481C196.261 69.3477 200.887 68.5713 205.521 67.7326C205.857 67.6717 206.177 67.6133 206.512 67.5508C207.009 67.4583 206.408 67.7559 206.904 67.673C209.956 67.1835 214.781 66.2231 216.345 65.0082C218.164 64.5161 220.345 63.8875 222.169 63.5912C222.37 63.5588 222.563 63.5284 222.751 63.5003C223.947 63.3169 222.848 63.7627 224.274 63.3425C224.595 63.2468 224.135 63.1963 224.619 63.0638C226.657 62.5061 228.903 61.9579 230.912 61.3381C231.321 61.2117 231.172 61.105 231.282 61.0492C232.213 60.5867 233.945 60.4893 234.311 60.4238C235.726 60.1615 236.939 59.8995 238.132 59.6429C239.271 59.4 240.351 59.112 241.581 58.757C242.163 58.5907 241.423 58.6059 241.982 58.439C244.036 57.8199 246.179 57.2553 248.284 56.7624C249.156 56.5579 250.022 56.3635 250.875 56.1803C251.521 56.0422 250.969 56.3438 251.28 56.2858C252.652 56.0289 252.88 55.6596 254.193 55.4111C254.469 55.3586 254.348 55.5305 254.401 55.5333C255.239 55.5778 255.837 55.0859 256.037 55.0302C258.554 54.3212 260.26 54.2768 262.701 53.6311C262.991 53.5537 262.29 53.5441 263.111 53.3365C265.784 52.6598 268.53 51.9747 271.274 51.2878C274.144 50.5686 277.037 49.846 279.822 49.1772C280.666 48.9742 280.102 49.2614 280.158 49.263C281.088 49.2775 281.555 48.8005 281.828 48.7142C283.966 48.0474 286.063 47.7831 287.429 47.0007C292.534 45.7296 297.604 44.3432 302.711 43.1543C306.819 42.2059 310.957 41.4215 315.113 40.84C315.231 40.823 315.051 41.0258 315.286 40.9913C318.132 40.5801 317.545 40.4236 319.36 39.7823C319.819 39.6217 321.313 39.7464 321.447 39.7493C321.48 39.7506 321.508 39.7534 321.532 39.7574C321.873 39.8105 321.503 40.0997 321.651 40.0914C322.961 40.0114 322.591 39.2321 324.331 38.9171C324.386 38.9087 324.183 39.0989 324.332 39.0877C324.793 39.054 325.234 38.9188 325.688 38.9005C326.729 38.8639 327.143 39.2055 328.67 38.789C328.861 38.7383 328.514 38.2995 330.074 38.1571C330.698 38.0959 333.469 37.8389 334.243 37.8111C335.006 37.78 334.496 37.9723 334.55 37.9744C336.645 38.0097 335.864 38.1547 336.929 38.3706C337.989 38.5879 337.648 37.9103 338.075 37.8013C338.488 37.6931 340.022 37.7525 340.411 37.7842C340.462 37.7884 340.498 37.7941 340.523 37.8011C340.682 37.8476 340.379 37.9439 340.664 37.9531C342.894 38.0182 341.608 37.5424 342.328 37.3841C344.027 37.0113 345.411 37.4479 346.976 37.4068C347.406 37.3953 347.048 37.2977 347.432 37.2641C348.916 37.1356 349.846 37.2454 351.536 37.0044C351.82 36.9646 353.174 36.5789 354.087 36.7615C354.215 36.788 353.863 36.9359 354.501 36.932C355.46 36.9259 357.19 36.868 358.208 36.776C358.966 36.7076 358.083 36.536 359.046 36.5566C359.474 36.5661 358.693 36.7279 359.49 36.7356C360.282 36.7432 362.311 36.6459 363.084 36.6084C363.852 36.5706 363.425 36.4271 363.486 36.4135C363.859 36.3346 365.337 36.1942 365.466 36.1893C372.062 35.8988 378.147 35.9753 384.569 35.7625C385.073 35.7463 384.734 35.5818 384.811 35.5776C386.534 35.4756 385.179 35.9531 386.39 36.085C386.21 35.7415 386.923 35.7918 388.137 35.7379C388.724 35.7118 388.403 35.5818 388.456 35.5673C389.323 35.3527 389.928 35.6104 390.087 35.6627C390.667 35.8552 391.286 35.6165 391.679 35.7465C392.073 35.8755 391.171 36.0755 392.34 36.0664C392.666 35.9407 391.799 35.6208 392.684 35.564C393.842 35.4897 395.369 35.4734 396.955 35.4944C399.947 35.531 403.195 35.7129 404.947 35.7818C407.621 35.8871 408.497 35.9037 410.05 36.015C412.868 36.2275 411.835 35.9388 413.602 35.9234C415.364 35.9145 414.477 36.4568 414.721 36.5983C414.962 36.7402 415.233 36.6256 415.539 36.715C415.843 36.8043 415.17 36.8481 415.893 36.9205C416.603 36.9904 418.6 36.9057 418.863 36.7938C419.419 36.5542 418.561 36.1885 420.457 36.4433C420.567 36.4584 420.195 36.5843 420.618 36.6345C423.95 37.0262 427.41 37.3856 430.712 37.8999C431.17 37.9715 430.738 38.0924 431.003 38.136C433.748 38.5965 432.801 38.1834 434.358 38.0655C434.09 38.3223 434.367 38.5757 435.209 38.8043C435.623 38.9162 436.167 39.022 436.847 39.1217C438.104 39.3075 437.915 39.09 438.747 39.0813C438.997 39.0785 439.866 39.344 440.04 39.282C440.615 39.0807 439.83 38.6227 441.964 39.1003C442.058 39.1219 441.731 39.2289 442.056 39.292C444.155 39.7057 444.456 39.4504 446.739 39.822C448.531 40.114 451.655 40.8932 453.677 41.316C453.534 41.7823 455.48 42.0464 456.31 41.8678C457.619 42.1372 459.038 42.396 460.299 42.6905C460.73 42.791 460.418 42.873 460.47 42.8986C461.276 43.2994 461.896 43.0893 462.188 43.1335C463.22 43.2937 464.173 43.4806 465.119 43.6753C466.971 44.0567 468.736 44.455 470.712 44.6741C470.817 44.6856 471.05 44.3875 471.788 44.781C471.835 44.8075 470.842 44.7711 472.213 45.049C473.59 45.3278 476.156 46.01 478.099 46.233C478.57 46.2872 479.795 46.2495 480.693 46.6458C480.812 46.6992 480.656 46.7667 480.827 46.8554C481.378 47.1397 481.763 46.8692 482.393 47.2904C483.023 47.7119 484.406 48.2099 486.372 48.4105C486.435 48.4176 486.942 48.2462 487.549 48.3767C488.511 48.5833 489.877 48.9284 490.882 49.1426C491.367 49.2457 491.092 49.0153 491.177 49.0303C494.44 49.6421 496.724 50.298 500.147 51.2298C500.344 51.2841 500.658 51.3453 501.022 51.4174C501.864 51.5859 503.007 51.8157 503.817 52.1613C505.109 52.7116 503.518 53.1364 506.643 53.7727C507.903 54.0298 509.742 53.4466 511.832 54.5621C516.191 55.5824 520.149 56.8596 524.597 57.5352C524.673 57.5469 524.82 57.5304 524.998 57.5107C525.278 57.4761 525.659 57.4456 525.946 57.5156C526.634 57.6847 526.975 57.917 527.457 58.0549C529.487 58.6476 531.357 59.0964 533.3 59.6994C534.045 59.931 533.735 59.9845 534.617 60.2594C535.501 60.5343 536.133 60.5318 537.303 60.9763C538.186 61.3123 538.98 61.9446 540.167 62.3397C540.321 61.995 541.138 62.2454 542.632 62.5731C542.918 62.6353 542.653 62.4238 542.79 62.4468C543.351 62.5383 543.821 62.7847 544.359 62.861C544.489 62.8797 544.532 62.759 544.639 62.7668C545.557 62.8318 546.921 63.5065 547.153 63.6211C548.052 64.064 548.542 64.0234 549.246 64.2888C549.955 64.5547 548.841 64.3555 549.682 64.6256C549.718 64.6371 549.754 64.6486 549.79 64.6601C551.543 65.1404 553.767 65.6258 555.53 66.0433C556.253 66.2137 555.798 65.9325 555.903 65.953C557.395 66.2573 558.859 66.7957 559.759 66.6665C560.578 67.7723 560.675 66.7982 562.749 67.5072C562.915 67.5646 563.019 68.0196 562.368 67.9157C561.715 67.8115 560.777 67.4428 559.866 67.3175C559.647 67.2863 558.355 67.3734 558.182 67.3566C556.854 67.2278 556.811 66.5821 556.752 66.5328C556.061 65.9913 554.488 66.0562 554.092 65.9952C552.45 65.7407 551.067 65.3664 549.692 65.1193L549.67 65.114C549.53 65.0832 549.391 65.0537 549.251 65.0257C548.271 64.8278 548.064 65.1922 547.311 64.9749C544.789 64.2417 544.074 63.4491 541.566 63.2362C541.033 63.1899 541.406 63.7638 539.687 62.895C539.583 62.8417 538.319 62.1346 537.488 62.0965C537.382 62.0914 537.348 62.2163 537.215 62.1879C536.338 61.9985 535.782 61.7234 534.833 61.4886C533.882 61.253 532.73 60.9812 531.672 60.6178C531.039 60.4003 530.273 59.9214 529.985 59.7753C529.16 59.355 528.153 59.3576 527.666 59.0109C527.178 58.6643 528.329 58.6466 526.923 58.1335C526.784 58.4448 526.579 58.7482 526.412 59.0546C525.858 58.9113 525.306 58.774 524.775 58.6635C522.131 58.1193 519.537 57.4679 516.902 56.831C516.504 56.735 516.867 57.0111 516.439 56.9121C514.633 56.4926 513.104 55.9594 511.242 55.5172C509.797 55.1747 508.183 54.9376 506.678 54.5828C505.868 53.9662 503.617 53.4969 502.02 53.0374C501.453 52.8745 501.525 52.7875 501.131 52.6487C500.977 52.5948 500.845 52.5518 500.732 52.518C499.781 52.2364 500.232 52.642 499.849 52.5926C498.026 52.3676 498.058 51.5832 495.942 51.1078C495.835 51.0826 494.374 51.1698 494.181 51.1535C492.945 51.0475 494.013 50.9693 493.271 50.7729C491.914 50.416 490.978 50.1127 489.342 49.8889C488.868 49.8246 487.687 49.838 486.812 49.4554C486.698 49.4052 486.792 49.2861 486.697 49.2584C484.971 48.7677 484.838 49.1769 483.809 49.1152C482.779 49.0534 481.288 48.4557 480.99 48.3099C480.207 47.9306 481.64 48.3439 481.689 48.3319C482.263 48.1857 481.125 48.0028 480.265 47.8103C480.222 47.3756 479.008 47.1611 479.374 47.6126C479.416 47.6623 480.096 47.7571 480.265 47.8103C479.428 48.0619 478.09 47.8511 476.696 47.1882C476.044 46.8779 476.733 46.7986 474.632 46.4672C473.675 46.3165 473.993 46.6712 473.137 46.585C471.194 46.3901 468.758 45.6463 466.783 45.3053C466.061 45.1804 466.73 45.4711 466.238 45.3914C465.76 45.3146 465.282 45.2148 464.837 45.1162C464.06 44.9447 463.322 44.7673 462.498 44.6443C462.38 44.627 462.633 44.8446 462.233 44.7683C459.156 44.1847 456.505 43.5547 453.309 42.9336C451.755 42.631 448.983 42.1961 447.379 41.8852C444.611 41.3427 441.229 40.5277 438.839 40.2246C437.279 40.0256 437.596 40.2418 436.913 40.2545C436.376 40.2656 435.691 40.1549 435.04 40.0133C434.1 39.8084 433.257 39.5433 433.076 39.4831C433.068 39.4795 434.415 39.6228 433.706 39.4412C433.319 39.211 433.091 39.4844 433.076 39.4831C432.883 39.4148 430.203 39.035 429.667 39.007C429.376 38.9898 429.52 39.1641 429.369 39.1524C425.767 38.8672 422.171 38.5646 418.53 38.2207C418.466 38.2128 418.576 38.0457 418.425 38.0293C416.313 37.7969 414.945 37.9268 413.194 37.956C411.445 37.9868 410.053 37.8825 409.04 37.5404C407.717 37.5224 405.831 37.3266 404.743 37.2169C403.656 37.1067 403.49 37.4444 403.397 37.4486C400.876 37.5718 399.251 37.4408 396.944 37.3689C396.518 37.3559 396.065 37.3452 395.575 37.3394C394.101 37.319 391.171 37.3817 389.569 37.4377C388.31 37.4812 387.544 37.4121 386.38 37.4813C386.222 37.4907 386.384 37.6395 386.336 37.6461C385.038 37.8488 385.658 37.4685 385.388 37.4069C384.41 37.184 383.807 37.0665 382.141 37.2163C381.758 37.2506 380.651 37.8096 379.952 37.8587C379.044 37.9216 379.382 37.7216 378.43 37.7935C378.348 37.7995 378.368 37.9167 377.78 37.928C375.05 37.9818 372.07 38.0118 369.233 38.1306C368.846 38.1464 369.349 38.3144 368.791 38.3404C366.165 38.4623 363.285 38.5771 360.721 38.6073C360.088 38.6143 360.478 38.4653 360.339 38.4328C359.492 38.2364 358.312 38.6349 358.118 38.6509C353.44 39.043 349.838 38.9271 345.075 39.3627C344.834 39.3856 342.827 39.8772 341.936 39.6211C341.886 39.6072 341.258 39.4306 340.638 39.5119C340.489 39.5308 340.341 39.5629 340.199 39.6131C340.153 39.6301 340.71 39.7581 339.754 39.8061C338.79 39.8547 337.264 40.0729 335.935 39.9925C335.517 39.9671 334.506 39.7226 333.289 40.0831C333.208 40.1063 331.364 40.8505 330.648 40.5249C330.527 40.4726 330.605 40.0335 329.157 40.4107C328.883 40.4843 329.402 40.5188 328.672 40.6628C327.562 40.8838 326.079 40.9748 324.753 41.4043C324.521 41.4776 323.563 41.947 322.686 41.8912C322.55 41.882 322.774 41.697 322.328 41.764C322.191 41.7845 322.053 41.8055 321.911 41.8279C319.929 42.1365 317.907 42.5539 315.926 42.817C315.175 42.9168 315.512 42.6247 314.727 42.705C313.936 42.7859 312.365 43.0202 311.572 43.2809C310.784 43.5404 311.735 43.7236 310.531 43.9906C308.105 44.5313 305.688 45.0356 303.273 45.5635C300.49 46.1736 297.672 46.8215 294.873 47.5292C294.1 47.7251 294.767 47.6855 293.633 47.9837C289.433 49.0869 282.215 51.1517 278.494 51.8566C275.516 52.42 279.147 51.2805 276.89 51.7871C275.805 52.0311 274.736 52.7493 274.485 52.8289C273.529 53.1333 272.673 53.3619 271.861 53.5609C270.52 53.8895 269.279 54.1448 267.86 54.5373C267.387 54.668 267.895 54.7171 267.492 54.8264C266.118 55.2003 264.644 55.4843 263.327 55.8196C262.735 55.9707 262.876 56.0707 262.328 56.1935C261.016 56.4884 259.851 56.7122 258.549 56.8989C258.431 56.9159 259.175 56.5702 258.208 56.796C256.644 57.162 254.678 57.5081 252.915 58.0638C252.393 58.2291 252.441 58.5238 251.251 58.6027C251.001 58.62 251.222 58.1954 249.967 58.8246C249.878 58.8686 249.456 59.0608 248.913 59.2717C248.152 59.5665 247.15 59.9028 246.481 59.917C246.179 59.9228 245.371 59.8336 244.755 60.051C244.672 60.0817 245.056 60.1419 244.539 60.3008C242.746 60.8469 240.743 61.4628 238.762 61.9314C238.71 61.9442 238.67 61.9558 238.641 61.9663C238.393 62.0587 238.967 62.0712 238.291 62.235C236.231 62.7347 233.634 63.3718 231.577 63.8669C230.819 64.0487 231.304 63.7772 231.246 63.7773C230.301 63.7773 229.863 64.2337 229.573 64.3301C227.775 64.925 226.333 65.1395 224.635 65.5917C224.165 65.7157 224.537 65.7876 224.446 65.8237C223.502 66.1881 224.163 65.7427 223.539 65.8571C223.268 65.9063 222.994 65.9575 222.715 66.0111C221.286 66.2824 219.741 66.7421 218.306 67.1719C217.68 67.3598 218.435 67.3316 217.875 67.4976C214.551 68.4988 210.993 69.4256 207.622 70.0461C206.99 70.1625 207.356 69.9407 207.218 69.9376C206.835 69.9282 206.413 70.0115 206.009 70.1226C205.406 70.2888 204.886 70.5113 204.702 70.5656C203.345 70.968 202.776 70.9496 201.557 71.1986C195.601 72.4411 188.085 73.3515 182.477 74.0444C182.137 74.0898 181.783 74.1387 181.458 74.1867C174.99 75.1351 169.695 75.6937 163.467 76.1738C163.047 76.2053 162.609 76.2361 162.177 76.2647C161.72 76.2944 162.193 76.4523 161.797 76.48C156.726 76.8104 151.751 76.7995 146.67 76.7405C146.255 76.7341 146.854 76.926 146.179 76.9208C144.803 76.9111 143.056 76.8307 141.653 76.6771C140.968 76.6017 141.894 76.5161 141.213 76.4426C140.179 76.3252 139.122 76.2206 137.961 76.0121C137.434 75.914 136.866 75.838 136.305 75.776C135.643 75.7055 136.618 76.0082 135.757 75.9045C131.408 75.4108 126.963 75.1678 122.429 74.2994C120.822 73.9832 119.217 73.624 117.603 73.1902C117.191 73.0783 116.903 72.6373 116.006 72.484C115.915 72.5659 115.888 72.6825 115.832 72.7804C112.968 72.0771 110.232 71.1644 107.526 70.375C101.776 68.6957 96.1294 66.7654 90.4511 64.9091C90.0965 64.7939 90.65 65.1765 89.9634 64.9545C85.99 63.6698 82.1177 62.5327 78.0717 61.2411C77.6677 61.1132 77.9666 60.837 76.7505 60.5697C76.5315 60.5197 74.7109 60.0995 74.2215 60.0567C74.1543 60.0516 74.4503 60.2891 73.8588 60.1473C72.4742 59.8153 71.0589 59.4808 69.6281 59.1472C67.5454 58.6602 65.4675 58.1615 63.449 57.7001C62.8991 57.5745 63.5219 57.5249 63.1292 57.434C60.3486 56.7922 57.28 56.4117 54.621 55.9938C52.8378 55.7256 53.5272 55.4963 52.5827 55.1429C52.4508 55.0903 51.3259 55.0387 51.2718 54.8734C51.1287 54.4467 51.6985 53.999 51.4821 53.5423C51.4375 53.4365 49.8619 53.5316 50.7947 53.3022C50.8627 53.2828 52.0062 53.2341 52.2926 53.1732C52.4922 53.1281 52.1468 52.9392 52.5506 52.8896C52.9562 52.8414 53.388 53.0118 54.0529 52.9847C54.7199 52.9612 54.4505 52.7328 55.7667 52.8522ZM399.839 36.7561C398.83 36.5799 398.673 37.1764 399.768 37.047C399.821 37.04 399.891 36.7648 399.839 36.7561ZM520.239 57.1415C519.003 56.5906 518.03 56.7536 518.896 57.1686C519.765 57.5817 520.617 57.3084 520.239 57.1415ZM533.553 60.3242C532.129 59.6773 531.65 60.4192 533.287 60.7338C533.384 60.7528 533.635 60.3616 533.553 60.3242ZM57.0613 55.5094C57.049 55.4986 56.2423 55.3859 56.2223 55.3925C55.7703 55.5256 57.3778 55.749 57.0613 55.5094ZM546.697 63.9485C546.26 63.7101 544.885 63.4636 545.426 63.7628C545.857 64.0031 547.239 64.2458 546.697 63.9485ZM347.036 37.6957C347.018 37.6878 346.432 37.7144 346.447 37.764C346.494 37.9237 347.311 37.8297 347.036 37.6957ZM569.111 69.6866C568.859 69.5956 568.622 69.4945 568.398 69.3951L568.411 69.3998C565.646 68.4327 564.327 67.4796 567.632 68.496C568.281 68.7021 566.165 68.2994 566.98 68.6028C567.535 68.8092 568.039 68.9248 568.529 69.0296L568.542 69.0342C569.343 69.276 570.077 69.3874 571.018 69.7262C571.297 69.845 569.303 69.802 569.104 69.6854C569.106 69.6858 569.108 69.6862 569.111 69.6866ZM399.265 36.0303C399.245 36.0219 398.427 36.0056 398.411 36.0135C397.969 36.1987 399.608 36.2314 399.265 36.0303ZM313 41.3937C312.954 41.3836 311.094 41.722 311.037 41.7505C310.129 42.2399 313.883 41.5566 313 41.3937ZM453.706 41.3348C454.61 41.3151 455.662 41.4967 456.306 41.8668C455.45 41.6869 454.57 41.5138 453.706 41.3348Z" fill="#F0E8DF" fill-opacity="0.8"/>
</svg>
