<svg width="487" height="197" viewBox="0 0 487 197" fill="none" xmlns="http://www.w3.org/2000/svg">
<g opacity="0.85">
<path d="M473.18 57.6628C469.669 57.6628 466.714 56.8729 464.315 55.2931C461.916 53.6547 460.103 51.5483 458.874 48.9739C457.704 46.3994 457.118 43.6786 457.118 40.8115C457.118 37.2424 457.938 34.0535 459.576 31.245C461.214 28.3779 463.438 26.1252 466.246 24.4869C469.113 22.7901 472.244 21.9417 475.637 21.9417C478.972 21.9417 481.488 22.8194 483.185 24.5747C484.941 26.33 485.818 28.7875 485.818 31.9471C485.818 32.7077 485.73 33.2929 485.555 33.7024C485.438 34.0535 485.175 34.229 484.765 34.229H479.85C480.084 30.6599 479.558 28.0268 478.27 26.33C476.983 24.5747 475.14 23.697 472.741 23.697C469.64 23.697 467.212 24.9258 465.456 27.3832C463.76 29.8407 462.911 33.2051 462.911 37.4764C462.911 40.8115 463.438 43.7664 464.491 46.3408C465.544 48.9153 467.095 50.934 469.143 52.3968C471.19 53.8595 473.677 54.5909 476.603 54.5909C478.592 54.5909 480.23 54.2984 481.518 53.7133C482.805 53.1281 485.544 49.7345 486.831 48.9739C486.656 48.6813 486.948 48.8568 486.831 48.9739C487.745 48.9739 484.59 52.6775 485.818 51.6544C483.77 53.4682 481.839 55.7026 479.675 56.5218C477.568 57.2824 475.403 57.6628 473.18 57.6628ZM461.331 34.3168L461.244 33.1758L481.167 32.8248V34.229L461.331 34.3168Z" fill="#171717"/>
<path d="M425.259 57.8749C425.084 57.8749 424.996 57.6993 424.996 57.3483C424.996 56.9972 425.084 56.8217 425.259 56.8217C427.541 56.8217 429.004 56.4413 429.648 55.6807C430.35 54.8615 430.701 53.2232 430.701 50.7658V36.5475C430.701 33.0369 430.057 30.4916 428.77 28.9118C427.483 27.2735 425.435 26.4544 422.626 26.4544C420.52 26.4544 418.355 27.1272 416.131 28.473C413.908 29.8188 412.006 31.6619 410.427 34.0023L410.076 32.9491C412.65 29.4969 415.195 26.9517 417.711 25.3134C420.286 23.6751 422.889 22.8559 425.522 22.8559C428.741 22.8559 431.227 23.7628 432.983 25.5767C434.796 27.332 435.703 29.9943 435.703 33.5635V50.7658C435.703 53.2232 436.025 54.8615 436.669 55.6807C437.371 56.4413 438.863 56.8217 441.145 56.8217C441.32 56.8217 441.408 56.9972 441.408 57.3483C441.408 57.6993 441.32 57.8749 441.145 57.8749C440.15 57.8749 438.951 57.8456 437.546 57.7871C436.201 57.7286 434.767 57.6993 433.246 57.6993C431.725 57.6993 430.262 57.7286 428.858 57.7871C427.453 57.8456 426.254 57.8749 425.259 57.8749ZM401.65 57.8749C401.474 57.8749 401.387 57.6993 401.387 57.3483C401.387 56.9972 401.474 56.8217 401.65 56.8217C403.932 56.8217 405.395 56.4413 406.038 55.6807C406.74 54.8615 407.091 53.2232 407.091 50.7658V33.3879C407.091 31.4571 406.857 30.0528 406.389 29.1751C405.98 28.239 405.19 27.7709 404.02 27.7709C403.434 27.7709 402.732 27.8879 401.913 28.1219C401.153 28.356 400.275 28.6778 399.28 29.0874C399.046 29.1459 398.841 29.0289 398.666 28.7363C398.549 28.4437 398.607 28.239 398.841 28.1219L409.022 23.2948C409.198 23.2362 409.373 23.207 409.549 23.207C409.958 23.207 410.485 23.8214 411.129 25.0501C411.772 26.2788 412.094 28.0634 412.094 30.4039V50.7658C412.094 53.2232 412.416 54.8615 413.06 55.6807C413.762 56.4413 415.254 56.8217 417.536 56.8217C417.711 56.8217 417.799 56.9972 417.799 57.3483C417.799 57.6993 417.711 57.8749 417.536 57.8749C416.541 57.8749 415.342 57.8456 413.937 57.7871C412.591 57.7286 411.158 57.6993 409.637 57.6993C408.115 57.6993 406.653 57.7286 405.248 57.7871C403.844 57.8456 402.645 57.8749 401.65 57.8749Z" fill="#171717"/>
<path d="M364.525 58.1016C361.072 58.1016 358.059 57.2532 355.485 55.5564C352.91 53.8595 350.921 51.6069 349.516 48.7983C348.112 45.9313 347.41 42.8594 347.41 39.5828C347.41 36.5402 347.966 33.9072 349.078 31.6838C350.189 29.4604 351.681 27.6465 353.554 26.2423C355.426 24.7795 357.445 23.697 359.61 22.9949C361.833 22.2928 363.998 21.9417 366.104 21.9417C369.674 21.9417 372.716 22.8194 375.232 24.5747C377.807 26.33 379.767 28.5827 381.113 31.3327C382.458 34.0828 383.131 36.9791 383.131 40.0216C383.131 43.7664 382.283 46.9845 380.586 49.676C378.889 52.3675 376.636 54.4446 373.828 55.9074C371.019 57.3702 367.918 58.1016 364.525 58.1016ZM367.07 56.434C370.171 56.434 372.628 55.3516 374.442 53.1867C376.256 50.9632 377.163 47.394 377.163 42.4791C377.163 38.7929 376.549 35.5455 375.32 32.737C374.15 29.87 372.511 27.6465 370.405 26.0667C368.299 24.4284 365.9 23.6093 363.208 23.6093C360.107 23.6093 357.679 24.7502 355.923 27.0322C354.168 29.3141 353.29 32.5907 353.29 36.862C353.29 40.4312 353.876 43.7078 355.046 46.6919C356.216 49.676 357.825 52.0457 359.873 53.801C361.979 55.5564 364.378 56.434 367.07 56.434Z" fill="#171717"/>
<path d="M301.15 4.12504C297.522 4.12504 294.772 5.06122 292.9 6.93357C291.086 8.80593 289.769 11.9948 288.95 16.5002C288.95 16.6172 288.775 16.6757 288.423 16.6757C288.131 16.6757 287.985 16.6172 287.985 16.5002C288.102 15.7395 288.219 14.6863 288.336 13.3405C288.453 11.9363 288.57 10.4442 288.687 8.86444C288.862 7.28464 288.979 5.76335 289.038 4.30057C289.155 2.77928 289.213 1.55055 289.213 0.61437C289.213 0.321814 289.36 0.175536 289.652 0.175536C290.003 0.175536 290.179 0.321814 290.179 0.61437C290.179 1.19948 290.471 1.63831 291.056 1.93087C291.642 2.16492 292.285 2.34045 292.987 2.45747C293.748 2.51598 294.392 2.54524 294.918 2.54524C299.95 2.72077 305.831 2.80854 312.559 2.80854C316.714 2.80854 319.99 2.77928 322.389 2.72077C324.847 2.60375 327.216 2.54524 329.498 2.54524C331.488 2.54524 333.009 2.42822 334.062 2.19417C335.174 1.90162 335.876 1.28725 336.169 0.351068C336.227 0.117023 336.403 0 336.695 0C336.988 0 337.134 0.117023 337.134 0.351068C337.076 1.22873 336.988 2.42821 336.871 3.94951C336.754 5.4708 336.666 7.0506 336.607 8.68891C336.549 10.3272 336.49 11.8485 336.432 13.2528C336.373 14.657 336.344 15.7395 336.344 16.5002C336.344 16.6172 336.169 16.6757 335.818 16.6757C335.466 16.6757 335.291 16.6172 335.291 16.5002C335.115 11.9363 334.179 8.74742 332.482 6.93357C330.786 5.06122 327.977 4.12504 324.057 4.12504C321.599 4.12504 319.756 4.24206 318.527 4.4761C317.299 4.71015 316.48 5.23675 316.07 6.05591C315.719 6.81655 315.543 8.07454 315.543 9.82987V50.2904C315.543 51.9872 315.748 53.2744 316.158 54.1521C316.567 55.0298 317.357 55.6149 318.527 55.9074C319.756 56.2 321.599 56.3463 324.057 56.3463C324.232 56.3463 324.32 56.5218 324.32 56.8729C324.32 57.2239 324.232 57.3995 324.057 57.3995C322.535 57.3995 320.809 57.3702 318.879 57.3117C316.948 57.2532 314.841 57.2239 312.559 57.2239C310.394 57.2239 308.347 57.2532 306.416 57.3117C304.485 57.3702 302.729 57.3995 301.15 57.3995C301.033 57.3995 300.974 57.2239 300.974 56.8729C300.974 56.5218 301.033 56.3463 301.15 56.3463C303.549 56.3463 305.362 56.2 306.591 55.9074C307.878 55.6149 308.727 55.0298 309.136 54.1521C309.546 53.2744 309.751 51.9872 309.751 50.2904V9.65434C309.751 7.89901 309.546 6.64102 309.136 5.88038C308.727 5.06122 307.908 4.56387 306.679 4.38834C305.45 4.2128 303.607 4.12504 301.15 4.12504Z" fill="#171717"/>
<path d="M234.747 57.2239C234.513 57.3409 234.279 57.3995 234.045 57.3995C233.284 57.3995 232.553 56.7851 231.851 55.5564C231.148 54.2691 230.797 52.426 230.797 50.0271V33.4391C230.797 29.8114 230.271 27.2662 229.218 25.8034C228.223 24.3406 226.906 23.6093 225.268 23.6093C223.805 23.6093 222.606 23.9896 221.67 24.7502C220.733 25.4524 220.031 26.3008 219.563 27.2955C219.154 28.2902 218.861 29.2263 218.685 30.104C218.51 30.9232 218.217 31.7423 217.808 32.5615C217.398 33.3221 216.579 33.7024 215.35 33.7024C214.356 33.7024 213.624 33.4391 213.156 32.9125C212.688 32.3274 212.454 31.7131 212.454 31.0694C212.454 29.9577 212.981 28.8753 214.034 27.8221C215.146 26.7689 216.521 25.8034 218.159 24.9258C219.856 23.9896 221.611 23.2582 223.425 22.7316C225.297 22.205 226.965 21.9417 228.428 21.9417C230.827 21.9417 232.64 22.7316 233.869 24.3114C235.098 25.8327 235.712 27.9976 235.712 30.8061V47.2185C235.712 49.2664 235.976 50.7584 236.502 51.6946C237.029 52.6308 237.877 53.0989 239.047 53.0989C240.101 53.0989 241.563 52.7186 243.436 51.9579C243.728 51.8409 243.933 51.9579 244.05 52.309C244.167 52.6015 244.079 52.8063 243.787 52.9234L234.747 57.2239ZM218.949 57.3117C216.725 57.3117 215.029 56.7266 213.858 55.5564C212.688 54.3276 212.103 52.8941 212.103 51.2558C212.103 50.0856 212.396 49.0324 212.981 48.0962C213.624 47.1015 214.619 46.1946 215.965 45.3754C217.31 44.5563 219.037 43.7664 221.143 43.0057L231.675 39.0562L231.938 40.1972L222.635 43.7956C221.582 44.2052 220.704 44.6733 220.002 45.1999C219.3 45.7265 218.773 46.3116 218.422 46.9552C218.13 47.5988 217.983 48.301 217.983 49.0616C217.983 50.4074 218.422 51.5776 219.3 52.5723C220.178 53.567 221.377 54.0643 222.898 54.0643C223.483 54.0643 224.098 53.9766 224.741 53.801C225.385 53.6255 226.175 53.2452 227.111 52.6601L232.64 49.3249L232.816 50.4659L226.321 54.6787C224.917 55.6149 223.63 56.2877 222.459 56.6973C221.348 57.1069 220.178 57.3117 218.949 57.3117Z" fill="#171717"/>
<path d="M180.19 55.0517C180.073 55.0517 180.014 54.8762 180.014 54.5251C180.014 54.174 180.073 53.9985 180.19 53.9985C182.471 53.9985 183.964 53.6182 184.666 52.8575C185.426 52.0384 185.807 50.4001 185.807 47.9426V31.5302C185.807 29.4823 185.602 27.9903 185.192 27.0541C184.783 26.0594 184.022 25.5621 182.91 25.5621C182.442 25.5621 181.886 25.6791 181.243 25.9131C180.599 26.0887 179.838 26.3812 178.961 26.7908C178.727 26.8493 178.522 26.7323 178.346 26.4397C178.229 26.0887 178.259 25.8546 178.434 25.7376L189.844 20.4716C190.019 20.4131 190.136 20.3838 190.195 20.3838C190.312 20.3838 190.458 20.4716 190.634 20.6471C190.809 20.7642 190.897 20.9104 190.897 21.086C190.897 21.5541 190.868 22.695 190.809 24.5089C190.751 26.3227 190.722 28.6339 190.722 31.4424V47.9426C190.722 50.4001 191.043 52.0384 191.687 52.8575C192.389 53.6182 193.91 53.9985 196.251 53.9985C196.426 53.9985 196.514 54.174 196.514 54.5251C196.514 54.8762 196.426 55.0517 196.251 55.0517C195.198 55.0517 193.969 55.0224 192.565 54.9639C191.219 54.9054 189.785 54.8762 188.264 54.8762C186.743 54.8762 185.28 54.9054 183.876 54.9639C182.53 55.0224 181.301 55.0517 180.19 55.0517ZM187.562 10.1151C186.392 10.1151 185.456 9.79331 184.753 9.14969C184.051 8.50606 183.7 7.59914 183.7 6.42892C183.7 5.25869 184.051 4.35177 184.753 3.70815C185.456 3.06452 186.392 2.74271 187.562 2.74271C188.732 2.74271 189.639 3.06452 190.283 3.70815C190.926 4.35177 191.248 5.25869 191.248 6.42892C191.248 8.88639 190.019 10.1151 187.562 10.1151Z" fill="#171717"/>
<path d="M146.037 32.8248L145.685 31.8593C147.85 29.2263 149.635 27.2077 151.039 25.8034C152.444 24.3406 153.643 23.346 154.638 22.8194C155.691 22.2342 156.686 21.9417 157.622 21.9417C158.851 21.9417 160.05 22.2928 161.22 22.9949C162.449 23.697 163.063 24.5454 163.063 25.5401C163.063 26.3008 162.8 26.9444 162.273 27.471C161.805 27.9976 161.103 28.2609 160.167 28.2609C159.406 28.2609 158.763 28.0269 158.236 27.5588C157.71 27.0907 157.154 26.6518 156.569 26.2423C155.983 25.8327 155.223 25.6279 154.287 25.6279C153.76 25.6279 153.204 25.7742 152.619 26.0667C152.034 26.3593 151.244 27.0322 150.249 28.0854C149.255 29.0801 147.85 30.6599 146.037 32.8248ZM137.435 56.6096C137.26 56.6096 137.172 56.434 137.172 56.083C137.172 55.7319 137.26 55.5564 137.435 55.5564C139.717 55.5564 141.18 55.176 141.824 54.4154C142.526 53.5962 142.877 51.9579 142.877 49.5005V32.1226C142.877 30.1918 142.643 28.7875 142.175 27.9098C141.765 26.9736 140.975 26.5056 139.805 26.5056C139.22 26.5056 138.518 26.6226 137.699 26.8566C136.938 27.0907 136.06 27.4125 135.066 27.8221C134.832 27.8806 134.627 27.7636 134.451 27.471C134.334 27.1784 134.393 26.9736 134.627 26.8566L144.808 22.0295C144.983 21.9709 145.159 21.9417 145.334 21.9417C145.744 21.9417 146.271 22.5561 146.914 23.7848C147.558 25.0135 147.88 26.7981 147.88 29.1386V49.5005C147.88 51.1388 148.084 52.426 148.494 53.3622C148.904 54.2399 149.723 54.825 150.952 55.1175C152.18 55.4101 153.994 55.5564 156.393 55.5564C156.627 55.5564 156.744 55.7319 156.744 56.083C156.744 56.434 156.627 56.6096 156.393 56.6096C154.989 56.6096 153.321 56.5803 151.39 56.5218C149.518 56.4633 147.529 56.434 145.422 56.434C143.901 56.434 142.438 56.4633 141.034 56.5218C139.63 56.5803 138.43 56.6096 137.435 56.6096Z" fill="#171717"/>
<path d="M91.4749 57.3117C88.6079 57.3117 86.3259 56.4048 84.6291 54.5909C82.9908 52.7186 82.1716 50.0271 82.1716 46.5164V33.0881C82.1716 30.8061 81.9668 29.1678 81.5572 28.1731C81.2062 27.1199 80.5333 26.5933 79.5386 26.5933C78.7194 26.5933 77.7248 26.8859 76.5545 27.471C76.3205 27.5295 76.1157 27.3832 75.9402 27.0322C75.8232 26.6811 75.8817 26.4763 76.1157 26.4178L85.8578 22.0295C85.9748 21.9709 86.0919 21.9417 86.2089 21.9417C86.3844 21.9417 86.5599 22.0295 86.7355 22.205C86.9695 22.322 87.0865 22.4683 87.0865 22.6438V43.6201C87.0865 47.0722 87.7009 49.6467 88.9296 51.3436C90.1584 52.9819 92.0015 53.801 94.459 53.801C96.6824 53.801 98.9058 53.1281 101.129 51.7824C103.411 50.4366 105.401 48.6228 107.097 46.3408L107.536 47.3063C104.845 50.7584 102.182 53.3037 99.5494 54.942C96.975 56.5218 94.2834 57.3117 91.4749 57.3117ZM110.345 22.6438V47.2185C110.345 49.2079 110.579 50.6414 111.047 51.5191C111.515 52.3968 112.305 52.8356 113.417 52.8356C114.002 52.8356 114.645 52.7478 115.347 52.5723C116.108 52.3382 117.015 52.0164 118.068 51.6069C118.361 51.4898 118.566 51.6069 118.683 51.9579C118.8 52.2505 118.741 52.4553 118.507 52.5723L108.238 57.3995C108.121 57.458 108.004 57.4872 107.887 57.4872C107.419 57.4872 106.893 56.8729 106.307 55.6441C105.722 54.3569 105.43 52.543 105.43 50.2026V33.0881C105.43 30.8061 105.225 29.1678 104.815 28.1731C104.464 27.1199 103.791 26.5933 102.797 26.5933C101.978 26.5933 100.983 26.8859 99.8127 27.471C99.5787 27.5295 99.4031 27.3832 99.2861 27.0322C99.1691 26.6811 99.2276 26.4763 99.4617 26.4178L109.204 22.0295C109.321 21.9709 109.409 21.9417 109.467 21.9417C109.643 21.9417 109.818 22.0295 109.994 22.205C110.228 22.322 110.345 22.4683 110.345 22.6438Z" fill="#171717"/>
<path d="M17.29 32.6858L18.1677 30.9305H41.4259L42.0403 32.6858H17.29ZM61.6123 55.7685C61.8463 55.7685 65.6198 54.5397 65.6198 54.8908C65.6198 55.2419 61.8463 56.8217 61.6123 56.8217C59.9154 56.8217 58.1894 56.7631 56.434 56.6461C54.6787 56.5291 52.9819 56.4706 51.3436 56.4706C49.5297 56.4706 47.9499 56.5291 46.6041 56.6461C45.2584 56.7631 43.7664 56.8217 42.128 56.8217C41.894 56.8217 41.777 56.6461 41.777 56.2951C41.777 55.944 41.894 55.7685 42.128 55.7685C45.2291 55.7685 47.16 55.3296 47.9206 54.452C48.6813 53.5158 48.4765 51.7897 47.3063 49.2737L27.8221 8.11111L30.0162 5.39034L12.9895 45.6753C11.5267 49.2445 11.4389 51.819 12.7262 53.3988C14.0134 54.9786 16.5587 55.7685 20.3619 55.7685C20.6544 55.7685 20.8007 55.944 20.8007 56.2951C20.8007 56.6461 20.6544 56.8217 20.3619 56.8217C18.6066 56.8217 16.9975 56.7631 15.5347 56.6461C14.0719 56.5291 12.2288 56.4706 10.0054 56.4706C7.89901 56.4706 6.20218 56.5291 4.91493 56.6461C3.6862 56.7631 2.1649 56.8217 0.351056 56.8217C0.117011 56.8217 0 56.6461 0 56.2951C0 55.944 0.117011 55.7685 0.351056 55.7685C1.93086 55.7685 3.30588 55.4759 4.4761 54.8908C5.64632 54.2472 6.72878 53.1647 7.72347 51.6434C8.77667 50.0636 9.91765 47.8109 11.1464 44.8854L29.6652 1.17754C29.7822 1.00201 29.987 0.914238 30.2795 0.914238C30.5721 0.914238 30.7476 1.00201 30.8061 1.17754L46.6041 35.7942C47.9499 38.6613 54.0643 49.9173 55.1175 51.5557C56.1707 53.1355 57.1947 54.2472 58.1894 54.8908C59.2426 55.4759 60.3835 55.7685 61.6123 55.7685Z" fill="#171717"/>
</g>
<path d="M335 115C335.552 115 336 115.448 336 116C336 116.552 335.552 117 335 117H145C144.448 117 144 116.552 144 116C144 115.448 144.448 115 145 115H335Z" fill="#C98E82" fill-opacity="0.6"/>
<path opacity="0.86" d="M315.72 179.3H324.36V180.68H315.72V179.3ZM325.78 185.02H333.82V186.46H325.78V185.02ZM330.12 185.94H331.6V196.6H330.12V185.94ZM325.2 180.18L327.08 180.66C327.053 180.807 326.92 180.9 326.68 180.94V185.52C326.68 186.333 326.64 187.213 326.56 188.16C326.48 189.093 326.32 190.053 326.08 191.04C325.853 192.027 325.513 192.993 325.06 193.94C324.607 194.887 324 195.76 323.24 196.56C323.173 196.44 323.073 196.313 322.94 196.18C322.82 196.047 322.68 195.92 322.52 195.8C322.373 195.68 322.24 195.593 322.12 195.54C322.827 194.793 323.38 194 323.78 193.16C324.193 192.32 324.5 191.46 324.7 190.58C324.9 189.687 325.033 188.813 325.1 187.96C325.167 187.093 325.2 186.273 325.2 185.5V180.18ZM316.46 182.78H317.9V188.18C317.9 188.82 317.873 189.507 317.82 190.24C317.78 190.973 317.693 191.72 317.56 192.48C317.44 193.227 317.267 193.96 317.04 194.68C316.813 195.387 316.5 196.033 316.1 196.62C316.033 196.527 315.927 196.42 315.78 196.3C315.633 196.193 315.48 196.08 315.32 195.96C315.173 195.853 315.047 195.773 314.94 195.72C315.407 194.987 315.747 194.18 315.96 193.3C316.173 192.42 316.307 191.54 316.36 190.66C316.427 189.767 316.46 188.933 316.46 188.16V182.78ZM332.08 178.44L333.4 179.56C332.747 179.88 332.007 180.187 331.18 180.48C330.353 180.76 329.5 181.027 328.62 181.28C327.74 181.52 326.88 181.733 326.04 181.92C326 181.76 325.927 181.56 325.82 181.32C325.713 181.08 325.607 180.88 325.5 180.72C326.3 180.52 327.107 180.3 327.92 180.06C328.747 179.82 329.52 179.56 330.24 179.28C330.973 179 331.587 178.72 332.08 178.44ZM317.3 182.78H323.84V189.02H317.3V187.66H322.38V184.16H317.3V182.78Z" fill="#171717"/>
<path opacity="0.86" d="M288.64 179.2H295.46V180.5H288.64V179.2ZM296.38 189.42H305.04V190.72H296.38V189.42ZM288.42 185.24H295.94V186.58H288.42V185.24ZM291.94 185.78H293.38V194.86C293.38 195.233 293.333 195.527 293.24 195.74C293.147 195.967 292.967 196.147 292.7 196.28C292.447 196.387 292.113 196.453 291.7 196.48C291.3 196.507 290.793 196.52 290.18 196.52C290.153 196.333 290.093 196.1 290 195.82C289.92 195.553 289.827 195.32 289.72 195.12C290.16 195.133 290.553 195.14 290.9 195.14C291.26 195.153 291.5 195.153 291.62 195.14C291.74 195.127 291.82 195.1 291.86 195.06C291.913 195.02 291.94 194.947 291.94 194.84V185.78ZM304.54 189.42H306.06C306.06 189.42 306.053 189.5 306.04 189.66C306.04 189.82 306.033 189.96 306.02 190.08C305.9 191.32 305.767 192.34 305.62 193.14C305.487 193.927 305.347 194.54 305.2 194.98C305.053 195.42 304.88 195.74 304.68 195.94C304.507 196.127 304.32 196.253 304.12 196.32C303.933 196.4 303.7 196.453 303.42 196.48C303.193 196.493 302.88 196.5 302.48 196.5C302.08 196.5 301.647 196.487 301.18 196.46C301.167 196.247 301.127 196.007 301.06 195.74C300.993 195.487 300.9 195.26 300.78 195.06C301.22 195.1 301.62 195.127 301.98 195.14C302.34 195.153 302.6 195.16 302.76 195.16C302.933 195.16 303.067 195.147 303.16 195.12C303.267 195.093 303.367 195.04 303.46 194.96C303.593 194.813 303.727 194.547 303.86 194.16C303.993 193.773 304.113 193.213 304.22 192.48C304.34 191.747 304.447 190.8 304.54 189.64V189.42ZM300.1 187.44H301.6C301.507 188.44 301.353 189.4 301.14 190.32C300.94 191.24 300.627 192.093 300.2 192.88C299.787 193.667 299.22 194.373 298.5 195C297.78 195.627 296.853 196.16 295.72 196.6C295.64 196.427 295.513 196.22 295.34 195.98C295.167 195.753 295 195.573 294.84 195.44C295.88 195.053 296.727 194.587 297.38 194.04C298.033 193.48 298.54 192.86 298.9 192.18C299.273 191.487 299.547 190.74 299.72 189.94C299.893 189.14 300.02 188.307 300.1 187.44ZM289.34 182.54L290.28 181.56C290.853 181.787 291.44 182.067 292.04 182.4C292.653 182.72 293.227 183.053 293.76 183.4C294.307 183.733 294.747 184.053 295.08 184.36L294.08 185.46C293.76 185.153 293.333 184.82 292.8 184.46C292.28 184.1 291.713 183.753 291.1 183.42C290.5 183.073 289.913 182.78 289.34 182.54ZM295.54 185.24H295.76L295.98 185.16L296.92 185.48C296.707 186.32 296.453 187.187 296.16 188.08C295.88 188.96 295.58 189.707 295.26 190.32L294.22 189.8C294.473 189.267 294.72 188.6 294.96 187.8C295.2 186.987 295.393 186.22 295.54 185.5V185.24ZM303.56 180.9L305.12 181.16C304.667 182.373 304.04 183.413 303.24 184.28C302.453 185.147 301.527 185.88 300.46 186.48C299.407 187.08 298.247 187.58 296.98 187.98C296.927 187.873 296.847 187.74 296.74 187.58C296.633 187.407 296.513 187.247 296.38 187.1C296.26 186.94 296.147 186.813 296.04 186.72C297.267 186.413 298.38 186.007 299.38 185.5C300.393 184.98 301.253 184.347 301.96 183.6C302.68 182.84 303.213 181.94 303.56 180.9ZM299.3 178.18L300.72 178.58C300.413 179.287 300.04 179.973 299.6 180.64C299.16 181.293 298.693 181.907 298.2 182.48C297.707 183.053 297.207 183.553 296.7 183.98C296.607 183.9 296.487 183.807 296.34 183.7C296.193 183.58 296.04 183.467 295.88 183.36C295.72 183.253 295.58 183.167 295.46 183.1C296.247 182.513 296.98 181.793 297.66 180.94C298.34 180.073 298.887 179.153 299.3 178.18ZM298.94 181.34C299.42 182.207 300.053 183.007 300.84 183.74C301.627 184.473 302.533 185.1 303.56 185.62C304.6 186.127 305.72 186.507 306.92 186.76C306.813 186.867 306.693 186.993 306.56 187.14C306.44 187.287 306.327 187.44 306.22 187.6C306.113 187.76 306.02 187.907 305.94 188.04C304.727 187.707 303.593 187.247 302.54 186.66C301.487 186.06 300.547 185.347 299.72 184.52C298.893 183.693 298.213 182.773 297.68 181.76L298.94 181.34ZM291.74 185.66L292.76 186.04C292.52 186.92 292.2 187.827 291.8 188.76C291.413 189.693 290.98 190.56 290.5 191.36C290.033 192.16 289.533 192.82 289 193.34C288.92 193.14 288.8 192.907 288.64 192.64C288.493 192.36 288.353 192.127 288.22 191.94C288.713 191.487 289.187 190.92 289.64 190.24C290.093 189.547 290.5 188.807 290.86 188.02C291.233 187.22 291.527 186.433 291.74 185.66ZM298.86 180.3H306.48V181.58H298.22L298.86 180.3ZM295.1 179.2H295.44L295.68 179.14L296.66 179.76C296.353 180.213 295.987 180.68 295.56 181.16C295.133 181.627 294.68 182.073 294.2 182.5C293.72 182.913 293.253 183.273 292.8 183.58C292.667 183.46 292.5 183.333 292.3 183.2C292.1 183.053 291.927 182.94 291.78 182.86C292.207 182.567 292.627 182.227 293.04 181.84C293.467 181.453 293.86 181.053 294.22 180.64C294.593 180.213 294.887 179.827 295.1 179.48V179.2Z" fill="#171717"/>
<path opacity="0.86" d="M269.68 178.2H271.2V194.92C271.2 195.373 271.127 195.707 270.98 195.92C270.847 196.147 270.62 196.313 270.3 196.42C269.993 196.527 269.567 196.593 269.02 196.62C268.487 196.647 267.8 196.66 266.96 196.66C266.92 196.473 266.847 196.253 266.74 196C266.633 195.76 266.527 195.56 266.42 195.4C266.82 195.413 267.207 195.42 267.58 195.42C267.967 195.42 268.3 195.413 268.58 195.4C268.873 195.4 269.073 195.4 269.18 195.4C269.367 195.387 269.493 195.347 269.56 195.28C269.64 195.213 269.68 195.093 269.68 194.92V178.2ZM261.84 179.8H279.2V181.04H261.84V179.8ZM265.38 183.28V184.7H275.68V183.28H265.38ZM263.94 182.22H277.2V185.76H263.94V182.22ZM263.36 187.18H277.52V194.44H276V188.28H263.36V187.18ZM261.46 189.68H279.6V190.88H261.46V189.68ZM263.18 192.38H276.78V193.56H263.18V192.38Z" fill="#171717"/>
<path opacity="0.86" d="M242.2 185.04H252.92V186.52H242.2V185.04ZM246.9 178.26H248.4V196.6H246.9V178.26ZM235.22 184.26H241.46V185.44H235.22V184.26ZM235.32 178.9H241.48V180.1H235.32V178.9ZM235.22 186.92H241.46V188.12H235.22V186.92ZM234.26 181.52H242.22V182.78H234.26V181.52ZM235.92 189.62H241.4V195.46H235.92V194.22H240.06V190.88H235.92V189.62ZM235.18 189.62H236.52V196.38H235.18V189.62Z" fill="#171717"/>
<path opacity="0.86" d="M216.44 178.84H217.86V181.28C217.86 181.84 217.793 182.44 217.66 183.08C217.527 183.72 217.28 184.34 216.92 184.94C216.56 185.54 216.02 186.08 215.3 186.56C215.233 186.453 215.127 186.34 214.98 186.22C214.847 186.087 214.707 185.96 214.56 185.84C214.427 185.707 214.307 185.613 214.2 185.56C214.84 185.133 215.32 184.68 215.64 184.2C215.96 183.707 216.173 183.207 216.28 182.7C216.387 182.193 216.44 181.707 216.44 181.24V178.84ZM221.3 178.84H222.74V183.74C222.74 183.967 222.76 184.113 222.8 184.18C222.853 184.233 222.96 184.26 223.12 184.26C223.173 184.26 223.267 184.26 223.4 184.26C223.533 184.26 223.673 184.26 223.82 184.26C223.967 184.26 224.073 184.26 224.14 184.26C224.247 184.26 224.327 184.213 224.38 184.12C224.447 184.027 224.493 183.827 224.52 183.52C224.56 183.2 224.58 182.72 224.58 182.08C224.727 182.2 224.927 182.307 225.18 182.4C225.433 182.493 225.66 182.567 225.86 182.62C225.82 183.407 225.74 184.013 225.62 184.44C225.513 184.867 225.353 185.167 225.14 185.34C224.94 185.5 224.66 185.58 224.3 185.58C224.207 185.58 224.067 185.58 223.88 185.58C223.693 185.58 223.5 185.58 223.3 185.58C223.113 185.58 222.98 185.58 222.9 185.58C222.487 185.58 222.16 185.527 221.92 185.42C221.693 185.313 221.533 185.133 221.44 184.88C221.347 184.613 221.3 184.24 221.3 183.76V178.84ZM217.52 188.26C218.2 189.993 219.26 191.473 220.7 192.7C222.153 193.927 223.887 194.793 225.9 195.3C225.793 195.393 225.673 195.52 225.54 195.68C225.42 195.84 225.3 196 225.18 196.16C225.073 196.32 224.98 196.46 224.9 196.58C222.833 195.98 221.06 195.007 219.58 193.66C218.113 192.3 216.98 190.647 216.18 188.7L217.52 188.26ZM223.12 186.86H223.4L223.66 186.8L224.64 187.18C224.293 188.5 223.8 189.673 223.16 190.7C222.533 191.713 221.8 192.607 220.96 193.38C220.12 194.153 219.2 194.8 218.2 195.32C217.213 195.853 216.167 196.28 215.06 196.6C215.02 196.467 214.953 196.313 214.86 196.14C214.767 195.98 214.667 195.82 214.56 195.66C214.453 195.5 214.347 195.373 214.24 195.28C215.253 195.013 216.227 194.647 217.16 194.18C218.093 193.713 218.953 193.147 219.74 192.48C220.54 191.8 221.227 191.013 221.8 190.12C222.373 189.227 222.813 188.227 223.12 187.12V186.86ZM215.14 186.86H223.7V188.24H215.14V186.86ZM217.04 178.84H222.04V180.18H217.04V178.84ZM208.22 184.26H214.18V185.44H208.22V184.26ZM208.3 178.9H214.14V180.1H208.3V178.9ZM208.22 186.92H214.18V188.12H208.22V186.92ZM207.26 181.52H214.88V182.78H207.26V181.52ZM208.92 189.62H214.16V195.46H208.92V194.22H212.84V190.88H208.92V189.62ZM208.18 189.62H209.5V196.38H208.18V189.62Z" fill="#171717"/>
<path opacity="0.86" d="M186.46 190.46H192.52V191.62H186.46V190.46ZM186.38 187.44H193.2V194.74H186.38V193.56H191.8V188.62H186.38V187.44ZM185.74 187.44H187.1V195.76H185.74V187.44ZM182.04 181.9H187.6V183H182.04V181.9ZM191.26 181.9H196.94V183H191.26V181.9ZM196.3 179.06H197.82V194.62C197.82 195.087 197.753 195.453 197.62 195.72C197.5 195.987 197.273 196.187 196.94 196.32C196.62 196.453 196.18 196.533 195.62 196.56C195.073 196.587 194.387 196.6 193.56 196.6C193.533 196.453 193.493 196.287 193.44 196.1C193.387 195.913 193.32 195.727 193.24 195.54C193.173 195.353 193.107 195.193 193.04 195.06C193.44 195.073 193.827 195.08 194.2 195.08C194.587 195.08 194.927 195.08 195.22 195.08C195.513 195.08 195.72 195.08 195.84 195.08C196.013 195.067 196.133 195.027 196.2 194.96C196.267 194.893 196.3 194.773 196.3 194.6V179.06ZM182.16 179.06H188.56V185.92H182.16V184.78H187.16V180.22H182.16V179.06ZM197.06 179.06V180.22H191.8V184.8H197.06V185.96H190.38V179.06H197.06ZM181.3 179.06H182.8V196.62H181.3V179.06Z" fill="#171717"/>
<path opacity="0.86" d="M161.68 178.2H163.22V181.2H161.68V178.2ZM161.68 189.84H163.22V195.38H161.68V189.84ZM159.46 181.44H161.02C160.913 182.36 160.747 183.193 160.52 183.94C160.293 184.673 159.947 185.32 159.48 185.88C159.027 186.44 158.407 186.927 157.62 187.34C156.847 187.74 155.853 188.08 154.64 188.36C154.6 188.227 154.533 188.087 154.44 187.94C154.36 187.78 154.267 187.627 154.16 187.48C154.053 187.32 153.94 187.187 153.82 187.08C154.927 186.867 155.827 186.6 156.52 186.28C157.227 185.947 157.78 185.553 158.18 185.1C158.58 184.633 158.873 184.1 159.06 183.5C159.247 182.887 159.38 182.2 159.46 181.44ZM163.92 181.4H165.4V185.64C165.4 185.88 165.453 186.033 165.56 186.1C165.667 186.167 165.9 186.2 166.26 186.2C166.353 186.2 166.513 186.2 166.74 186.2C166.967 186.2 167.22 186.2 167.5 186.2C167.793 186.2 168.06 186.2 168.3 186.2C168.553 186.2 168.733 186.2 168.84 186.2C169.04 186.2 169.187 186.167 169.28 186.1C169.387 186.02 169.46 185.867 169.5 185.64C169.553 185.4 169.587 185.047 169.6 184.58C169.707 184.66 169.833 184.733 169.98 184.8C170.14 184.867 170.3 184.927 170.46 184.98C170.633 185.033 170.787 185.08 170.92 185.12C170.867 185.747 170.773 186.233 170.64 186.58C170.507 186.927 170.313 187.173 170.06 187.32C169.807 187.453 169.453 187.52 169 187.52C168.893 187.52 168.7 187.52 168.42 187.52C168.153 187.52 167.86 187.52 167.54 187.52C167.22 187.52 166.92 187.52 166.64 187.52C166.373 187.52 166.2 187.52 166.12 187.52C165.533 187.52 165.08 187.467 164.76 187.36C164.44 187.253 164.22 187.06 164.1 186.78C163.98 186.5 163.92 186.12 163.92 185.64V181.4ZM154.06 180.28H171V183.88H169.46V181.66H155.54V184.32H154.06V180.28ZM155.8 189.2H169.58V190.58H155.8V189.2ZM153.7 194.62H171.32V196H153.7V194.62Z" fill="#171717"/>
</svg>
