<svg width="239" height="70" viewBox="0 0 239 70" fill="none" xmlns="http://www.w3.org/2000/svg">
<g opacity="0.9">
<path opacity="0.85" d="M235.938 7.86979C235.863 7.94446 235.826 8.01912 235.826 8.09379C235.826 8.18979 235.895 8.26979 236.034 8.33379C236.812 8.68579 237.388 9.05912 237.762 9.45379C238.135 9.83779 238.322 10.1845 238.322 10.4938C238.322 10.6325 238.279 10.7445 238.194 10.8298C238.119 10.9045 238.018 10.9418 237.89 10.9418H237.794C237.666 10.9205 237.548 10.8405 237.442 10.7018C237.132 10.3178 236.7 9.89112 236.146 9.42179C235.602 8.95246 235.042 8.53112 234.466 8.15779C234.412 8.11512 234.348 8.09379 234.274 8.09379C234.156 8.09379 234.066 8.15779 234.002 8.28579C233.703 8.85112 233.266 9.36312 232.69 9.82179C232.124 10.2698 231.362 10.6698 230.402 11.0218C230.327 11.0538 230.252 11.0698 230.178 11.0698C230.103 11.0698 230.05 11.0431 230.018 10.9898C230.007 10.9791 230.002 10.9631 230.002 10.9418C230.002 10.8778 230.092 10.7978 230.274 10.7018C231.223 10.2431 231.943 9.72579 232.434 9.14979C232.924 8.57379 233.266 7.91246 233.458 7.16579C233.575 6.70713 233.634 6.13646 233.634 5.45379C233.634 5.02712 233.607 4.60046 233.554 4.17379V4.14179C233.554 3.90712 233.676 3.80579 233.922 3.83779C234.69 3.92312 235.074 4.02446 235.074 4.14179C235.074 4.17379 235.036 4.21646 234.962 4.26979L234.946 4.28579C234.807 4.39246 234.732 4.52579 234.722 4.68579C234.69 5.30446 234.652 5.81646 234.61 6.22179C234.567 6.61646 234.492 7.00046 234.386 7.37379C234.375 7.40579 234.37 7.45379 234.37 7.51779C234.37 7.65646 234.45 7.74712 234.61 7.78979L235.122 7.94979C235.324 8.01379 235.442 8.01379 235.474 7.94979L235.538 7.83779C235.762 7.45379 235.98 7.02179 236.194 6.54179C236.407 6.06179 236.578 5.60846 236.706 5.18179C236.759 5.02179 236.844 4.94179 236.962 4.94179C237.015 4.94179 237.079 4.96312 237.154 5.00579C237.847 5.38979 238.194 5.64046 238.194 5.75779C238.194 5.80046 238.146 5.83246 238.05 5.85379H238.018C237.858 5.88579 237.74 5.94446 237.666 6.02979C237.282 6.48846 236.706 7.10179 235.938 7.86979ZM227.474 4.74979C227.644 4.74979 227.778 4.68046 227.874 4.54179L228.018 4.33379C228.05 4.29112 228.092 4.23246 228.146 4.15779C228.21 4.07246 228.263 4.00846 228.306 3.96579C228.348 3.92312 228.391 3.90179 228.434 3.90179C228.519 3.90179 228.684 4.00846 228.93 4.22179C229.186 4.42446 229.372 4.61112 229.49 4.78179C229.543 4.85646 229.57 4.92046 229.57 4.97379C229.57 5.03779 229.538 5.09646 229.474 5.14979C229.399 5.20312 229.303 5.22979 229.186 5.22979H227.826C227.175 5.24046 226.471 5.29912 225.714 5.40579H225.618C225.468 5.40579 225.362 5.33646 225.298 5.19779L225.234 5.05379C225.202 4.98979 225.186 4.93112 225.186 4.87779C225.186 4.80312 225.212 4.74979 225.266 4.71779C225.319 4.67512 225.394 4.65912 225.49 4.66979C225.799 4.70179 226.252 4.72846 226.85 4.74979H227.474ZM231.842 5.35779C231.874 5.14446 231.932 5.03779 232.018 5.03779C232.114 5.03779 232.178 5.13912 232.21 5.34179C232.231 5.57646 232.242 5.74713 232.242 5.85379C232.242 6.29113 232.178 6.68046 232.05 7.02179C231.922 7.36312 231.767 7.62446 231.586 7.80579C231.415 7.97646 231.223 8.06179 231.01 8.06179C230.839 8.06179 230.716 7.99779 230.642 7.86979C230.61 7.80579 230.594 7.73113 230.594 7.64579C230.594 7.43246 230.706 7.24579 230.93 7.08579C231.122 6.92579 231.303 6.68579 231.474 6.36579C231.655 6.03512 231.778 5.69912 231.842 5.35779ZM226.354 7.22979C225.884 7.25112 225.447 7.30446 225.042 7.38979H224.946C224.796 7.38979 224.69 7.32046 224.626 7.18179L224.562 7.06979C224.53 7.00579 224.514 6.94712 224.514 6.89379C224.514 6.73379 224.62 6.66446 224.834 6.68579C225.196 6.71779 225.746 6.74446 226.482 6.76579H228.178C228.348 6.76579 228.482 6.69646 228.578 6.55779L228.738 6.33379C228.77 6.29112 228.812 6.22712 228.866 6.14179C228.93 6.05646 228.983 5.99246 229.026 5.94979C229.068 5.90712 229.111 5.88579 229.154 5.88579C229.228 5.88579 229.394 5.99779 229.65 6.22179C229.916 6.43513 230.108 6.62713 230.226 6.79779C230.279 6.87246 230.306 6.93646 230.306 6.98979C230.306 7.03246 230.279 7.08046 230.226 7.13379C230.162 7.19779 230.06 7.22979 229.922 7.22979H226.354ZM227.698 8.79779C227.868 8.79779 228.002 8.72846 228.098 8.58979L228.226 8.41379C228.258 8.37112 228.3 8.31246 228.354 8.23779C228.407 8.16312 228.45 8.10979 228.482 8.07779C228.524 8.03512 228.567 8.01379 228.61 8.01379C228.684 8.01379 228.834 8.10979 229.058 8.30179C229.292 8.49379 229.468 8.66979 229.586 8.82979C229.628 8.87246 229.65 8.93113 229.65 9.00579C229.65 9.06979 229.623 9.12846 229.57 9.18179C229.495 9.23512 229.399 9.26179 229.282 9.26179H227.858C227.207 9.27246 226.503 9.33113 225.746 9.43779H225.65C225.5 9.43779 225.394 9.36846 225.33 9.22979L225.266 9.10179C225.234 9.03779 225.218 8.97912 225.218 8.92579C225.218 8.86179 225.244 8.80846 225.298 8.76579C225.362 8.72312 225.442 8.70712 225.538 8.71779C225.868 8.74979 226.359 8.77646 227.01 8.79779H227.698ZM235.25 14.0938C235.303 14.2218 235.362 14.3071 235.426 14.3498C235.5 14.3818 235.559 14.3658 235.602 14.3018C235.826 13.9178 236.044 13.4858 236.258 13.0058C236.471 12.5258 236.642 12.0725 236.77 11.6458C236.823 11.4965 236.908 11.4218 237.026 11.4218C237.1 11.4218 237.164 11.4431 237.218 11.4858C237.943 11.8911 238.306 12.1525 238.306 12.2698C238.306 12.3125 238.258 12.3445 238.162 12.3658L238.114 12.3818C237.932 12.4138 237.804 12.4831 237.73 12.5898C237.164 13.2618 236.53 13.9285 235.826 14.5898C235.74 14.6751 235.698 14.7605 235.698 14.8458C235.698 14.9311 235.719 15.0005 235.762 15.0538C236.348 15.9711 237.244 16.6805 238.45 17.1818C238.631 17.2671 238.722 17.3311 238.722 17.3738C238.722 17.4058 238.7 17.4325 238.658 17.4538C238.626 17.4858 238.588 17.5071 238.546 17.5178C238.503 17.5391 238.466 17.5551 238.434 17.5658C238.188 17.6511 238.018 17.8005 237.922 18.0138C237.858 18.1631 237.772 18.2378 237.666 18.2378C237.612 18.2378 237.554 18.2218 237.49 18.1898C236.636 17.7098 235.98 17.0751 235.522 16.2858C235.074 15.4965 234.754 14.5205 234.562 13.3578C234.53 13.2085 234.498 13.1338 234.466 13.1338C234.434 13.1338 234.407 13.2085 234.386 13.3578C234.204 14.4671 233.788 15.4165 233.138 16.2058C232.487 16.9845 231.42 17.6458 229.938 18.1898C229.863 18.2218 229.788 18.2378 229.714 18.2378C229.65 18.2378 229.602 18.2165 229.57 18.1738C229.559 18.1631 229.554 18.1471 229.554 18.1258C229.554 18.0511 229.644 17.9658 229.826 17.8698C230.967 17.3471 231.804 16.7338 232.338 16.0298C232.882 15.3258 233.234 14.4938 233.394 13.5338C233.468 13.0965 233.506 12.5578 233.506 11.9178C233.506 11.3738 233.479 10.8511 233.426 10.3498V10.3178C233.426 10.0831 233.548 9.98179 233.794 10.0138C234.551 10.1098 234.93 10.2165 234.93 10.3338C234.93 10.3658 234.892 10.4085 234.818 10.4618L234.802 10.4778C234.716 10.5311 234.658 10.5951 234.626 10.6698C234.604 10.7445 234.599 10.8405 234.61 10.9578C234.706 12.2165 234.919 13.2618 235.25 14.0938ZM227.698 10.8458C227.868 10.8458 228.002 10.7765 228.098 10.6378L228.226 10.4458C228.258 10.4031 228.3 10.3445 228.354 10.2698C228.407 10.1951 228.45 10.1418 228.482 10.1098C228.524 10.0671 228.567 10.0458 228.61 10.0458C228.684 10.0458 228.834 10.1418 229.058 10.3338C229.292 10.5258 229.468 10.7018 229.586 10.8618C229.628 10.9151 229.65 10.9791 229.65 11.0538C229.65 11.1178 229.623 11.1765 229.57 11.2298C229.495 11.2831 229.399 11.3098 229.282 11.3098H227.858C227.207 11.3205 226.503 11.3791 225.746 11.4858H225.65C225.5 11.4858 225.394 11.4165 225.33 11.2778L225.266 11.1498C225.234 11.0858 225.218 11.0271 225.218 10.9738C225.218 10.9098 225.244 10.8565 225.298 10.8138C225.362 10.7711 225.442 10.7551 225.538 10.7658C225.868 10.7978 226.359 10.8245 227.01 10.8458H227.698ZM231.81 11.8538C231.842 11.6298 231.9 11.5178 231.986 11.5178C232.082 11.5391 232.146 11.6405 232.178 11.8218C232.21 12.0458 232.226 12.2645 232.226 12.4778C232.226 12.9578 232.146 13.3738 231.986 13.7258C231.836 14.0778 231.644 14.3445 231.41 14.5258C231.228 14.6751 231.031 14.7498 230.818 14.7498C230.626 14.7498 230.492 14.6751 230.418 14.5258C230.375 14.4191 230.354 14.3445 230.354 14.3018C230.354 14.0991 230.482 13.9018 230.738 13.7098C230.983 13.5498 231.207 13.2991 231.41 12.9578C231.612 12.6165 231.746 12.2485 231.81 11.8538ZM226.482 16.8938C226.375 16.8938 226.29 16.9258 226.226 16.9898C226.172 17.0431 226.146 17.1231 226.146 17.2298V17.2458C226.178 17.5551 226.188 17.6885 226.178 17.6458C226.178 17.7525 226.167 17.8325 226.146 17.8858C226.135 17.9391 226.103 17.9925 226.05 18.0458C225.847 18.2058 225.618 18.2858 225.362 18.2858C225.287 18.2858 225.228 18.2538 225.186 18.1898C225.143 18.1258 225.122 18.0511 225.122 17.9658C225.164 17.5285 225.196 16.9791 225.218 16.3178V15.3258C225.218 14.4405 225.175 13.5871 225.09 12.7658V12.7018C225.09 12.5418 225.159 12.4618 225.298 12.4618C225.362 12.4618 225.415 12.4725 225.458 12.4938L226.034 12.7498C226.183 12.8138 226.322 12.8458 226.45 12.8458H227.938C228.108 12.8458 228.242 12.7765 228.338 12.6378L228.418 12.5418C228.45 12.5098 228.498 12.4511 228.562 12.3658C228.626 12.2805 228.69 12.2378 228.754 12.2378C228.828 12.2378 228.983 12.3231 229.218 12.4938C229.452 12.6645 229.639 12.8245 229.778 12.9738C229.82 13.0271 229.842 13.0858 229.842 13.1498C229.842 13.2245 229.794 13.2938 229.698 13.3578L229.57 13.4218C229.474 13.4645 229.399 13.5125 229.346 13.5658C229.303 13.6191 229.282 13.6938 229.282 13.7898V14.7818C229.314 15.7845 229.34 16.5311 229.362 17.0218V17.1018C229.362 17.2511 229.308 17.3578 229.202 17.4218C229.106 17.4965 228.983 17.5551 228.834 17.5978C228.695 17.6511 228.572 17.6778 228.466 17.6778C228.38 17.6778 228.338 17.5658 228.338 17.3418V17.2298C228.338 17.1231 228.306 17.0431 228.242 16.9898C228.188 16.9258 228.108 16.8938 228.002 16.8938H226.482ZM226.482 13.3258C226.375 13.3258 226.29 13.3578 226.226 13.4218C226.172 13.4751 226.146 13.5551 226.146 13.6618V16.0778C226.146 16.1845 226.172 16.2698 226.226 16.3338C226.29 16.3871 226.375 16.4138 226.482 16.4138H228.002C228.108 16.4138 228.188 16.3871 228.242 16.3338C228.306 16.2698 228.338 16.1845 228.338 16.0778V13.6618C228.338 13.5551 228.306 13.4751 228.242 13.4218C228.188 13.3578 228.108 13.3258 228.002 13.3258H226.482Z" fill="black"/>
<path opacity="0.85" d="M209.266 10.544C209.266 10.352 209.212 10.256 209.106 10.256C209.031 10.256 208.956 10.3254 208.882 10.464C208.348 11.616 207.676 12.6774 206.866 13.648C206.727 13.8187 206.62 13.872 206.546 13.808C206.524 13.7867 206.514 13.7547 206.514 13.712C206.514 13.6374 206.54 13.552 206.594 13.456C207.586 11.8667 208.364 9.84003 208.93 7.37603L208.946 7.28003C208.946 7.1947 208.914 7.1307 208.85 7.08803C208.796 7.0347 208.722 7.00803 208.626 7.00803H208.258C207.916 7.02936 207.586 7.07737 207.266 7.15203C207.234 7.1627 207.191 7.16803 207.138 7.16803C207.01 7.16803 206.908 7.0987 206.834 6.96003L206.77 6.84803C206.738 6.78403 206.722 6.72537 206.722 6.67203C206.722 6.60803 206.748 6.5547 206.802 6.51203C206.866 6.46937 206.946 6.45337 207.042 6.46403C207.34 6.49603 207.788 6.5227 208.386 6.54403H208.93C209.036 6.54403 209.116 6.51737 209.17 6.46403C209.234 6.40003 209.266 6.3147 209.266 6.20803V6.01603C209.266 4.94936 209.218 4.00003 209.122 3.16803V3.10403C209.122 2.9227 209.202 2.83203 209.362 2.83203C209.394 2.83203 209.442 2.8427 209.506 2.86403C210.274 3.12003 210.658 3.31203 210.658 3.44003C210.658 3.49336 210.615 3.5467 210.53 3.60003L210.482 3.63203C210.343 3.72803 210.274 3.86136 210.274 4.03203V6.20803C210.274 6.3147 210.3 6.40003 210.354 6.46403C210.407 6.51737 210.482 6.54403 210.578 6.54403H210.626C210.796 6.54403 210.93 6.46936 211.026 6.32003L211.186 6.08003C211.218 6.03736 211.26 5.97337 211.314 5.88803C211.378 5.79203 211.431 5.7227 211.474 5.68003C211.516 5.63737 211.559 5.61603 211.602 5.61603C211.676 5.61603 211.847 5.73336 212.114 5.96803C212.38 6.19203 212.578 6.3947 212.706 6.57603C212.748 6.6187 212.77 6.67736 212.77 6.75203C212.77 6.81603 212.743 6.8747 212.69 6.92803C212.604 6.98136 212.503 7.00803 212.386 7.00803H210.61C210.503 7.00803 210.418 7.04003 210.354 7.10403C210.3 7.15736 210.274 7.23736 210.274 7.34403V8.20803C210.274 8.38936 210.364 8.51736 210.546 8.59203C211.292 8.93336 211.836 9.31203 212.178 9.72803C212.53 10.144 212.706 10.5227 212.706 10.864C212.706 11.0347 212.663 11.1734 212.578 11.28C212.492 11.3867 212.38 11.44 212.242 11.44C212.188 11.44 212.119 11.4294 212.034 11.408C211.906 11.3654 211.815 11.2534 211.762 11.072C211.591 10.592 211.234 10 210.69 9.29603C210.615 9.2107 210.54 9.16803 210.466 9.16803C210.338 9.16803 210.274 9.26403 210.274 9.45603V13.216C210.295 14.3787 210.332 15.552 210.386 16.736V16.816C210.386 16.9547 210.338 17.0667 210.242 17.152C210.146 17.2374 210.028 17.3067 209.89 17.36C209.751 17.4134 209.618 17.44 209.49 17.44C209.383 17.44 209.287 17.408 209.202 17.344C209.127 17.28 209.09 17.2054 209.09 17.12C209.132 16.4907 209.17 15.8827 209.202 15.296C209.234 14.6987 209.255 13.92 209.266 12.96V10.544ZM214.562 15.904C214.455 15.904 214.37 15.936 214.306 16C214.252 16.0534 214.226 16.1334 214.226 16.24V16.256C214.247 16.512 214.258 16.6347 214.258 16.624V16.72C214.258 16.8587 214.226 16.9654 214.162 17.04C214.087 17.1254 213.98 17.1947 213.842 17.248C213.703 17.312 213.559 17.344 213.41 17.344C213.314 17.344 213.228 17.312 213.154 17.248C213.079 17.184 213.042 17.1094 213.042 17.024C213.084 16.3947 213.122 15.7867 213.154 15.2C213.186 14.6027 213.207 13.824 213.218 12.864V6.72003C213.218 5.68536 213.17 4.75203 213.074 3.92003V3.85603C213.074 3.68536 213.138 3.60003 213.266 3.60003C213.319 3.60003 213.378 3.61603 213.442 3.64803L214.098 3.95203C214.247 4.01603 214.386 4.04803 214.514 4.04803H218.466C218.636 4.04803 218.775 3.9787 218.882 3.84003L218.978 3.71203C219.01 3.66936 219.047 3.61603 219.09 3.55203C219.143 3.48803 219.186 3.44003 219.218 3.40803C219.26 3.37603 219.303 3.36003 219.346 3.36003C219.42 3.36003 219.586 3.45603 219.842 3.64803C220.098 3.84003 220.29 4.01603 220.418 4.17603C220.46 4.22936 220.482 4.28803 220.482 4.35203C220.482 4.4267 220.434 4.49603 220.338 4.56003C220.306 4.58136 220.274 4.59736 220.242 4.60803C220.21 4.6187 220.183 4.62936 220.162 4.64003C219.97 4.70403 219.874 4.8267 219.874 5.00803V13.056C219.895 14.2187 219.932 15.392 219.986 16.576V16.656C219.986 16.8054 219.932 16.912 219.826 16.976C219.708 17.0614 219.575 17.136 219.426 17.2C219.276 17.264 219.143 17.296 219.026 17.296C218.951 17.296 218.887 17.2534 218.834 17.168C218.812 17.136 218.802 17.088 218.802 17.024C218.802 16.992 218.812 16.912 218.834 16.784C218.834 16.7627 218.844 16.624 218.866 16.368V16.24C218.866 16.1334 218.834 16.0534 218.77 16C218.716 15.936 218.636 15.904 218.53 15.904H214.562ZM218.53 7.74403C218.636 7.74403 218.716 7.71736 218.77 7.66403C218.834 7.60003 218.866 7.5147 218.866 7.40803V4.83203C218.866 4.72537 218.834 4.64536 218.77 4.59203C218.716 4.52803 218.636 4.49603 218.53 4.49603H214.562C214.455 4.49603 214.37 4.52803 214.306 4.59203C214.252 4.64536 214.226 4.72537 214.226 4.83203V7.40803C214.226 7.5147 214.252 7.60003 214.306 7.66403C214.37 7.71736 214.455 7.74403 214.562 7.74403H218.53ZM218.53 11.552C218.636 11.552 218.716 11.5254 218.77 11.472C218.834 11.408 218.866 11.3227 218.866 11.216V8.56003C218.866 8.45336 218.834 8.37336 218.77 8.32003C218.716 8.25603 218.636 8.22403 218.53 8.22403H214.562C214.455 8.22403 214.37 8.25603 214.306 8.32003C214.252 8.37336 214.226 8.45336 214.226 8.56003V11.216C214.226 11.3227 214.252 11.408 214.306 11.472C214.37 11.5254 214.455 11.552 214.562 11.552H218.53ZM214.562 12.032C214.455 12.032 214.37 12.064 214.306 12.128C214.252 12.1814 214.226 12.2614 214.226 12.368V15.12C214.226 15.2267 214.252 15.312 214.306 15.376C214.37 15.4294 214.455 15.456 214.562 15.456H218.53C218.636 15.456 218.716 15.4294 218.77 15.376C218.834 15.312 218.866 15.2267 218.866 15.12V12.368C218.866 12.2614 218.834 12.1814 218.77 12.128C218.716 12.064 218.636 12.032 218.53 12.032H214.562Z" fill="black"/>
<path opacity="0.85" d="M191.002 16.424C190.895 16.424 190.81 16.4507 190.746 16.504C190.692 16.5574 190.666 16.632 190.666 16.728C190.676 16.8134 190.682 16.9147 190.682 17.032L190.698 17.192C190.698 17.2987 190.666 17.384 190.602 17.448C190.527 17.5334 190.42 17.6027 190.282 17.656C190.154 17.72 190.015 17.752 189.866 17.752C189.78 17.752 189.7 17.72 189.626 17.656C189.551 17.592 189.514 17.5174 189.514 17.432C189.556 16.8027 189.594 16.1947 189.626 15.608C189.658 15.0107 189.679 14.232 189.69 13.272V7.16003C189.69 6.12536 189.642 5.19203 189.546 4.36003V4.29603C189.546 4.12536 189.61 4.04003 189.738 4.04003C189.791 4.04003 189.85 4.05603 189.914 4.08803L190.586 4.40803C190.735 4.47203 190.874 4.50403 191.002 4.50403H200.234C200.404 4.50403 200.538 4.4347 200.634 4.29603L200.73 4.16803C200.762 4.12536 200.815 4.06136 200.89 3.97603C200.964 3.88003 201.034 3.83203 201.098 3.83203C201.172 3.83203 201.332 3.92803 201.578 4.12003C201.834 4.30136 202.031 4.47203 202.17 4.63203C202.223 4.7067 202.25 4.76537 202.25 4.80803C202.25 4.87203 202.202 4.94136 202.106 5.01603L201.93 5.11203C201.834 5.1547 201.759 5.2027 201.706 5.25603C201.663 5.30936 201.642 5.38403 201.642 5.48003V13.384C201.663 14.5467 201.7 15.72 201.754 16.904V16.968C201.754 17.1174 201.7 17.2294 201.594 17.304C201.295 17.5174 201.023 17.624 200.778 17.624C200.714 17.624 200.655 17.5814 200.602 17.496C200.58 17.464 200.57 17.416 200.57 17.352C200.57 17.32 200.58 17.24 200.602 17.112C200.602 17.0907 200.612 16.9947 200.634 16.824V16.76C200.634 16.6534 200.602 16.568 200.538 16.504C200.484 16.4507 200.404 16.424 200.298 16.424H191.002ZM191.002 4.98403C190.895 4.98403 190.81 5.01603 190.746 5.08003C190.692 5.13337 190.666 5.21336 190.666 5.32003V15.608C190.666 15.7147 190.692 15.8 190.746 15.864C190.81 15.9174 190.895 15.944 191.002 15.944H200.298C200.404 15.944 200.484 15.9174 200.538 15.864C200.602 15.8 200.634 15.7147 200.634 15.608V5.32003C200.634 5.21336 200.602 5.13337 200.538 5.08003C200.484 5.01603 200.404 4.98403 200.298 4.98403H191.002ZM194.202 12.744C194.095 12.744 194.01 12.776 193.946 12.84C193.892 12.8934 193.866 12.9734 193.866 13.08V13.432C193.866 13.4854 193.78 13.5547 193.61 13.64C193.439 13.7147 193.263 13.752 193.082 13.752C193.007 13.752 192.943 13.72 192.89 13.656C192.847 13.592 192.826 13.5174 192.826 13.432C192.868 12.9414 192.9 12.3334 192.922 11.608V10.536C192.922 9.50137 192.874 8.56803 192.778 7.73603V7.67203C192.778 7.51203 192.847 7.43203 192.986 7.43203C193.05 7.43203 193.103 7.4427 193.146 7.46403L193.754 7.73603C193.903 7.80003 194.042 7.83203 194.17 7.83203H196.954C197.135 7.83203 197.274 7.7627 197.37 7.62403L197.45 7.51203C197.471 7.48003 197.503 7.43737 197.546 7.38403C197.599 7.32003 197.642 7.27203 197.674 7.24003C197.716 7.20803 197.759 7.19203 197.802 7.19203C197.876 7.19203 198.031 7.27737 198.266 7.44803C198.511 7.6187 198.698 7.7787 198.826 7.92803C198.879 8.0027 198.906 8.06136 198.906 8.10403C198.906 8.16803 198.858 8.23736 198.762 8.31203L198.602 8.39203C198.41 8.45603 198.314 8.5787 198.314 8.76003V10.088C198.346 11.4 198.378 12.3707 198.41 13V13.08C198.41 13.2294 198.356 13.336 198.25 13.4C198.143 13.4747 198.02 13.5387 197.882 13.592C197.743 13.6454 197.62 13.672 197.514 13.672C197.45 13.672 197.396 13.6347 197.354 13.56C197.322 13.496 197.306 13.4427 197.306 13.4C197.306 13.3574 197.316 13.2934 197.338 13.208C197.338 13.2187 197.348 13.1707 197.37 13.064C197.37 12.8507 197.258 12.744 197.034 12.744H194.202ZM194.202 8.28003C194.095 8.28003 194.01 8.31203 193.946 8.37603C193.892 8.42937 193.866 8.50937 193.866 8.61603V11.944C193.866 12.0507 193.892 12.136 193.946 12.2C194.01 12.2534 194.095 12.28 194.202 12.28H197.034C197.14 12.28 197.22 12.2534 197.274 12.2C197.338 12.136 197.37 12.0507 197.37 11.944V8.61603C197.37 8.50937 197.338 8.42937 197.274 8.37603C197.22 8.31203 197.14 8.28003 197.034 8.28003H194.202Z" fill="black"/>
<path opacity="0.85" d="M175.01 5.74403C175.17 5.74403 175.303 5.68536 175.41 5.56803L175.57 5.39203C175.612 5.34936 175.676 5.28003 175.762 5.18403C175.858 5.07736 175.938 5.02403 176.002 5.02403C176.076 5.02403 176.215 5.12537 176.418 5.32803C176.62 5.52003 176.78 5.7067 176.898 5.88803C176.94 5.97336 176.962 6.0267 176.962 6.04803C176.962 6.1547 176.898 6.22403 176.77 6.25603L176.626 6.28803C176.444 6.2987 176.316 6.38403 176.242 6.54403C175.676 7.60003 175.031 8.58137 174.306 9.48803C174.21 9.61603 174.162 9.7387 174.162 9.85603C174.162 9.9947 174.252 10.0907 174.434 10.144L174.658 10.224C174.722 10.256 174.78 10.272 174.834 10.272C174.93 10.272 175.02 10.2134 175.106 10.096C175.447 9.64803 175.756 9.13603 176.034 8.56003C176.098 8.43203 176.188 8.36803 176.306 8.36803C176.359 8.36803 176.428 8.3947 176.514 8.44803C176.994 8.7787 177.234 8.99736 177.234 9.10403C177.234 9.15737 177.175 9.1947 177.058 9.21603H177.01C176.86 9.2267 176.727 9.2907 176.61 9.40803C176.386 9.63203 176.06 9.9147 175.634 10.256C175.538 10.3307 175.49 10.4054 175.49 10.48C175.49 10.576 175.554 10.656 175.682 10.72C176.087 10.9654 176.386 11.232 176.578 11.52C176.77 11.7974 176.866 12.0534 176.866 12.288C176.866 12.4374 176.823 12.5654 176.738 12.672C176.663 12.768 176.562 12.816 176.434 12.816C176.38 12.816 176.338 12.8107 176.306 12.8C176.188 12.768 176.092 12.6667 176.018 12.496C175.879 12.208 175.682 11.9094 175.426 11.6C175.17 11.2907 174.887 11.0027 174.578 10.736C174.503 10.672 174.428 10.64 174.354 10.64C174.226 10.64 174.162 10.736 174.162 10.928V13.232C174.183 14.3947 174.22 15.568 174.274 16.752V16.832C174.274 16.9814 174.22 17.088 174.114 17.152C173.89 17.312 173.634 17.392 173.346 17.392C173.271 17.392 173.202 17.3547 173.138 17.28C173.074 17.216 173.042 17.1467 173.042 17.072C173.084 16.4534 173.116 15.8454 173.138 15.248C173.17 14.6507 173.191 13.888 173.202 12.96V11.312C173.202 11.2267 173.18 11.1574 173.138 11.104C173.106 11.0507 173.063 11.024 173.01 11.024C172.935 11.024 172.86 11.0614 172.786 11.136C172.124 11.7654 171.495 12.2774 170.898 12.672C170.727 12.8 170.61 12.8214 170.546 12.736C170.524 12.7147 170.514 12.6934 170.514 12.672C170.514 12.6294 170.578 12.544 170.706 12.416C171.559 11.6374 172.375 10.7254 173.154 9.68003C173.932 8.6347 174.567 7.6107 175.058 6.60803C175.09 6.54403 175.106 6.48537 175.106 6.43203C175.106 6.2827 175.004 6.20803 174.802 6.20803H173.506C172.834 6.2187 172.13 6.27737 171.394 6.38403H171.314C171.164 6.38403 171.052 6.3147 170.978 6.17603L170.914 6.04803C170.882 5.98403 170.866 5.92003 170.866 5.85603C170.866 5.71737 170.967 5.6587 171.17 5.68003C171.458 5.70136 171.868 5.7227 172.402 5.74403H172.866C173.09 5.74403 173.202 5.63203 173.202 5.40803C173.18 4.6187 173.138 3.8667 173.074 3.15203V3.08803C173.074 3.01336 173.095 2.9547 173.138 2.91203C173.18 2.8587 173.239 2.83203 173.314 2.83203C173.346 2.83203 173.394 2.8427 173.458 2.86403C174.204 3.0987 174.578 3.28003 174.578 3.40803C174.578 3.46136 174.535 3.5147 174.45 3.56803L174.402 3.60003C174.252 3.69603 174.178 3.82937 174.178 4.00003V5.40803C174.178 5.5147 174.204 5.60003 174.258 5.66403C174.322 5.71736 174.407 5.74403 174.514 5.74403H175.01ZM179.378 5.63203C179.378 5.53603 179.346 5.46136 179.282 5.40803C179.228 5.3547 179.154 5.32803 179.058 5.32803H178.498C178.028 5.3387 177.58 5.39203 177.154 5.48803C177.122 5.4987 177.084 5.50403 177.042 5.50403C176.903 5.50403 176.796 5.4347 176.722 5.29603L176.658 5.16803C176.626 5.10403 176.61 5.04003 176.61 4.97603C176.61 4.91203 176.636 4.86403 176.69 4.83203C176.743 4.78936 176.818 4.77336 176.914 4.78403C177.276 4.81603 177.826 4.8427 178.562 4.86403H182.866C183.036 4.86403 183.17 4.7947 183.266 4.65603L183.378 4.51203C183.41 4.46936 183.447 4.41603 183.49 4.35203C183.543 4.28803 183.586 4.24003 183.618 4.20803C183.66 4.17603 183.703 4.16003 183.746 4.16003C183.82 4.16003 183.975 4.25603 184.21 4.44803C184.455 4.64003 184.642 4.81603 184.77 4.97603C184.812 5.02936 184.834 5.08803 184.834 5.15203C184.834 5.23736 184.786 5.3067 184.69 5.36003L184.546 5.40803C184.343 5.47203 184.242 5.60003 184.242 5.79203C184.178 8.88536 184.05 11.312 183.858 13.072C183.666 14.832 183.394 15.9467 183.042 16.416C182.668 16.8854 182.178 17.152 181.57 17.216H181.522C181.426 17.216 181.351 17.1894 181.298 17.136C181.255 17.0827 181.223 17.0027 181.202 16.896C181.17 16.6827 181.09 16.528 180.962 16.432C180.77 16.2827 180.359 16.1387 179.73 16C179.527 15.9574 179.426 15.888 179.426 15.792C179.426 15.7494 179.458 15.7174 179.522 15.696C179.586 15.6747 179.671 15.6694 179.778 15.68C180.791 15.7974 181.404 15.856 181.618 15.856C181.778 15.856 181.895 15.84 181.97 15.808C182.055 15.7654 182.14 15.696 182.226 15.6C182.524 15.312 182.754 14.3254 182.914 12.64C183.084 10.944 183.202 8.62403 183.266 5.68003C183.266 5.57337 183.234 5.48803 183.17 5.42403C183.116 5.36003 183.036 5.32803 182.93 5.32803H180.77C180.556 5.32803 180.439 5.44003 180.418 5.66403C180.343 7.61603 180.188 9.24803 179.954 10.56C179.719 11.8614 179.244 13.0934 178.53 14.256C177.826 15.4187 176.775 16.4267 175.378 17.28C175.207 17.3867 175.084 17.4027 175.01 17.328C174.999 17.3174 174.994 17.3014 174.994 17.28C174.994 17.216 175.063 17.1147 175.202 16.976C176.343 15.9947 177.212 14.9227 177.81 13.76C178.407 12.5867 178.807 11.3707 179.01 10.112C179.212 8.85337 179.335 7.3707 179.378 5.66403V5.63203Z" fill="black"/>
<path opacity="0.8" d="M161.934 10.032C161.934 10.1654 161.864 10.232 161.724 10.232H151.724C151.584 10.232 151.514 10.1654 151.514 10.032C151.514 9.8987 151.584 9.83203 151.724 9.83203H161.724C161.864 9.83203 161.934 9.8987 161.934 10.032Z" fill="black"/>
<path opacity="0.95" d="M134.158 17.832C134.062 17.832 134.014 17.712 134.014 17.472C134.014 17.264 134.062 17.16 134.158 17.16H134.518C135.238 17.16 135.766 17.048 136.102 16.824C136.438 16.584 136.606 16.192 136.606 15.648V2.59202C136.606 1.98402 136.446 1.58402 136.126 1.39202C135.822 1.18402 135.366 1.08002 134.758 1.08002C134.518 1.08002 134.318 1.08802 134.158 1.10402C133.502 1.13602 132.75 1.40802 131.902 1.92002C131.07 2.41602 130.398 3.00802 129.886 3.69602C129.79 3.80802 129.702 3.86402 129.622 3.86402C129.574 3.86402 129.518 3.84802 129.454 3.81602C129.294 3.75202 129.214 3.68002 129.214 3.60002L129.238 3.48002L130.246 0.792019C130.342 0.536019 130.534 0.40802 130.822 0.40802H144.286C144.574 0.40802 144.766 0.536019 144.862 0.792019L145.87 3.48002L145.894 3.60002C145.894 3.68002 145.814 3.75202 145.654 3.81602C145.59 3.84802 145.534 3.86402 145.486 3.86402C145.406 3.86402 145.318 3.80802 145.222 3.69602C144.71 3.00802 144.03 2.41602 143.182 1.92002C142.35 1.40802 141.606 1.13602 140.95 1.10402C140.806 1.08802 140.606 1.08002 140.35 1.08002C139.726 1.08002 139.262 1.18402 138.958 1.39202C138.654 1.60002 138.502 2.00002 138.502 2.59202V15.648C138.502 16.208 138.67 16.6 139.006 16.824C139.358 17.048 139.886 17.16 140.59 17.16H140.95C141.062 17.16 141.118 17.264 141.118 17.472C141.118 17.712 141.062 17.832 140.95 17.832H134.158Z" fill="black"/>
<path opacity="0.95" d="M117.459 18.168C116.291 18.168 115.075 17.856 113.811 17.232C112.547 16.592 111.483 15.624 110.619 14.328C109.755 13.032 109.323 11.448 109.323 9.57602C109.323 7.75202 109.707 6.12802 110.475 4.70402C111.243 3.28002 112.227 2.17602 113.427 1.39202C114.627 0.592016 115.851 0.192017 117.099 0.192017C117.627 0.192017 118.099 0.248016 118.515 0.360016C118.931 0.472016 119.411 0.624017 119.955 0.816016C120.163 0.896016 120.363 0.968016 120.555 1.03202C120.763 1.09602 120.931 1.12802 121.059 1.12802C121.379 1.12802 121.707 1.03202 122.043 0.840016C122.171 0.760015 122.275 0.720016 122.355 0.720016C122.483 0.720016 122.571 0.816015 122.619 1.00802L123.435 4.36802L123.483 4.63202V4.68002C123.467 4.79202 123.419 4.86402 123.339 4.89602C123.259 4.92802 123.219 4.94402 123.219 4.94402H123.147C123.051 4.94402 122.955 4.88802 122.859 4.77602C122.779 4.66402 122.523 4.26402 122.091 3.57602C121.659 2.88802 121.019 2.30402 120.171 1.82402C119.339 1.34402 118.371 1.10402 117.267 1.10402C115.667 1.10402 114.435 1.62402 113.571 2.66402C112.723 3.68802 112.163 4.80002 111.891 6.00002C111.635 7.20002 111.507 8.21602 111.507 9.04802C111.507 10.856 111.827 12.36 112.467 13.56C113.123 14.76 113.931 15.64 114.891 16.2C115.867 16.744 116.843 17.016 117.819 17.016C119.019 17.016 120.043 16.696 120.891 16.056C121.739 15.4 122.547 14.504 123.315 13.368C123.395 13.272 123.467 13.224 123.531 13.224C123.595 13.224 123.675 13.264 123.771 13.344C123.883 13.44 123.939 13.528 123.939 13.608C123.939 13.64 123.923 13.688 123.891 13.752C122.275 16.696 120.131 18.168 117.459 18.168Z" fill="black"/>
<path opacity="0.95" d="M104.098 17.16C104.162 17.16 104.202 17.2 104.218 17.28C104.234 17.344 104.242 17.416 104.242 17.496C104.242 17.72 104.194 17.832 104.098 17.832H97.2816C97.2176 17.832 97.1696 17.808 97.1376 17.76C97.1216 17.696 97.1135 17.608 97.1135 17.496C97.1135 17.384 97.1216 17.304 97.1376 17.256C97.1696 17.192 97.2176 17.16 97.2816 17.16C97.8896 17.16 98.4176 17.072 98.8656 16.896C99.3136 16.704 99.5376 16.368 99.5376 15.888C99.5376 15.696 99.5056 15.512 99.4416 15.336L98.2656 11.952C98.1696 11.68 97.9776 11.544 97.6896 11.544H91.9296C91.6416 11.544 91.4496 11.68 91.3536 11.952L90.9456 13.08L90.4176 14.616C90.2736 15.016 90.2016 15.368 90.2016 15.672C90.2016 16.664 90.9616 17.16 92.4816 17.16C92.5456 17.16 92.5855 17.2 92.6015 17.28C92.6175 17.344 92.6256 17.416 92.6256 17.496C92.6256 17.72 92.5776 17.832 92.4816 17.832H86.5776C86.5136 17.832 86.4655 17.808 86.4335 17.76C86.4175 17.696 86.4096 17.608 86.4096 17.496C86.4096 17.384 86.4175 17.304 86.4335 17.256C86.4655 17.192 86.5136 17.16 86.5776 17.16C87.0416 17.16 87.5136 16.992 87.9936 16.656C88.4736 16.32 88.8655 15.768 89.1695 15L94.5696 0.672C94.6656 0.432 94.8336 0.272 95.0736 0.192L95.4816 0.0720005C95.6096 0.0240002 95.7216 0 95.8176 0C95.9136 0 95.9776 0.0159998 96.0096 0.0479994C96.0896 0.0959997 96.1376 0.151999 96.1536 0.216L96.9696 2.592C97.5136 4.144 98.3296 6.496 99.4176 9.648C100.522 12.8 101.17 14.616 101.362 15.096C101.874 16.472 102.786 17.16 104.098 17.16ZM92.0496 10.056C92.0176 10.152 92.0016 10.224 92.0016 10.272C92.0016 10.384 92.0416 10.472 92.1216 10.536C92.2016 10.6 92.3136 10.632 92.4576 10.632H97.2096C97.5136 10.632 97.6656 10.504 97.6656 10.248L97.6176 10.056L95.2176 3.144C95.1536 2.92 95.0736 2.752 94.9776 2.64C94.8816 2.528 94.8176 2.512 94.7856 2.592C93.8896 4.944 92.9776 7.432 92.0496 10.056Z" fill="black"/>
<path opacity="0.95" d="M70.7816 17.832C70.6856 17.832 70.6376 17.712 70.6376 17.472C70.6376 17.264 70.6856 17.16 70.7816 17.16H71.1416C71.8616 17.16 72.3896 17.048 72.7256 16.824C73.0616 16.584 73.2296 16.192 73.2296 15.648V2.59202C73.2296 1.98402 73.0696 1.58402 72.7496 1.39202C72.4456 1.18402 71.9896 1.08002 71.3816 1.08002C71.1416 1.08002 70.9416 1.08802 70.7816 1.10402C70.1256 1.13602 69.3736 1.40802 68.5256 1.92002C67.6936 2.41602 67.0216 3.00802 66.5096 3.69602C66.4136 3.80802 66.3256 3.86402 66.2456 3.86402C66.1976 3.86402 66.1416 3.84802 66.0776 3.81602C65.9176 3.75202 65.8376 3.68002 65.8376 3.60002L65.8616 3.48002L66.8696 0.792019C66.9656 0.536019 67.1576 0.40802 67.4456 0.40802H80.9096C81.1976 0.40802 81.3896 0.536019 81.4856 0.792019L82.4936 3.48002L82.5176 3.60002C82.5176 3.68002 82.4376 3.75202 82.2776 3.81602C82.2136 3.84802 82.1576 3.86402 82.1096 3.86402C82.0296 3.86402 81.9416 3.80802 81.8456 3.69602C81.3336 3.00802 80.6536 2.41602 79.8056 1.92002C78.9736 1.40802 78.2296 1.13602 77.5736 1.10402C77.4296 1.08802 77.2296 1.08002 76.9736 1.08002C76.3496 1.08002 75.8856 1.18402 75.5816 1.39202C75.2776 1.60002 75.1256 2.00002 75.1256 2.59202V15.648C75.1256 16.208 75.2936 16.6 75.6296 16.824C75.9816 17.048 76.5096 17.16 77.2136 17.16H77.5736C77.6856 17.16 77.7416 17.264 77.7416 17.472C77.7416 17.712 77.6856 17.832 77.5736 17.832H70.7816Z" fill="black"/>
<path opacity="0.95" d="M43.2489 17.832C43.1529 17.832 43.1049 17.712 43.1049 17.472C43.1049 17.264 43.1529 17.16 43.2489 17.16H43.6329C44.1449 17.16 44.6089 16.976 45.0249 16.608C45.4569 16.24 45.6729 15.784 45.6729 15.24V2.56802C45.6729 2.02402 45.5129 1.64002 45.1929 1.41602C44.8729 1.19202 44.3529 1.08002 43.6329 1.08002H43.2489C43.1369 1.08002 43.0809 0.968019 43.0809 0.74402C43.0809 0.52002 43.1369 0.40802 43.2489 0.40802H47.1129C47.3689 0.40802 47.5689 0.512019 47.7129 0.720018L56.4969 13.128C56.6089 13.288 56.7209 13.368 56.8329 13.368C57.0249 13.368 57.1209 13.224 57.1209 12.936V3.00002C57.1209 2.64802 57.0089 2.32802 56.7849 2.04002C56.5769 1.73602 56.3049 1.50402 55.9689 1.34402C55.6489 1.16802 55.3369 1.08002 55.0329 1.08002H54.6729C54.5929 1.08002 54.5369 1.05602 54.5049 1.00802C54.4889 0.944018 54.4809 0.856019 54.4809 0.74402C54.4809 0.52002 54.5449 0.40802 54.6729 0.40802H60.4809C60.5609 0.40802 60.6089 0.44002 60.6249 0.504019C60.6569 0.552019 60.6729 0.632019 60.6729 0.74402C60.6729 0.968019 60.6089 1.08002 60.4809 1.08002H60.0969C59.5849 1.08002 59.1129 1.27202 58.6809 1.65602C58.2649 2.02402 58.0569 2.47202 58.0569 3.00002V17.328C58.0569 17.488 58.0249 17.616 57.9609 17.712C57.9129 17.792 57.8489 17.832 57.7689 17.832C57.5769 17.832 57.4089 17.728 57.2649 17.52L52.2609 10.38L47.2569 3.24002C47.1449 3.08002 47.0329 3.00002 46.9209 3.00002C46.7289 3.00002 46.6329 3.14402 46.6329 3.43202V15.24C46.6329 15.784 46.8569 16.24 47.3049 16.608C47.7529 16.976 48.2249 17.16 48.7209 17.16H49.1049C49.2169 17.16 49.2729 17.264 49.2729 17.472C49.2729 17.712 49.2169 17.832 49.1049 17.832H43.2489Z" fill="black"/>
<path opacity="0.95" d="M29.2933 18.168C28.0453 18.168 26.8133 17.824 25.5973 17.136C24.3973 16.432 23.4053 15.4 22.6213 14.04C21.8373 12.68 21.4453 11.056 21.4453 9.16802C21.4453 7.29602 21.8373 5.68002 22.6213 4.32002C23.4053 2.96002 24.3973 1.93602 25.5973 1.24802C26.8133 0.544016 28.0453 0.192017 29.2933 0.192017C30.5413 0.192017 31.7653 0.544016 32.9653 1.24802C34.1653 1.93602 35.1573 2.96002 35.9413 4.32002C36.7253 5.68002 37.1173 7.29602 37.1173 9.16802C37.1173 11.056 36.7253 12.68 35.9413 14.04C35.1573 15.4 34.1653 16.432 32.9653 17.136C31.7653 17.824 30.5413 18.168 29.2933 18.168ZM29.2933 17.376C30.2533 17.376 31.1573 17.072 32.0053 16.464C32.8693 15.84 33.5653 14.912 34.0933 13.68C34.6373 12.432 34.9093 10.928 34.9093 9.16802C34.9093 7.42402 34.6373 5.93602 34.0933 4.70402C33.5653 3.47202 32.8693 2.55202 32.0053 1.94402C31.1573 1.32002 30.2533 1.00802 29.2933 1.00802C28.3333 1.00802 27.4213 1.32002 26.5573 1.94402C25.6933 2.55202 24.9973 3.47202 24.4693 4.70402C23.9413 5.93602 23.6773 7.42402 23.6773 9.16802C23.6773 10.928 23.9413 12.432 24.4693 13.68C24.9973 14.912 25.6933 15.84 26.5573 16.464C27.4213 17.072 28.3333 17.376 29.2933 17.376Z" fill="black"/>
<path opacity="0.95" d="M9.04161 18.168C7.87361 18.168 6.65761 17.856 5.39361 17.232C4.12961 16.592 3.06561 15.624 2.20161 14.328C1.33761 13.032 0.905612 11.448 0.905612 9.57602C0.905612 7.75202 1.28961 6.12802 2.05761 4.70402C2.82561 3.28002 3.80961 2.17602 5.00961 1.39202C6.20961 0.592016 7.43361 0.192017 8.68161 0.192017C9.20961 0.192017 9.68161 0.248016 10.0976 0.360016C10.5136 0.472016 10.9936 0.624017 11.5376 0.816016C11.7456 0.896016 11.9456 0.968016 12.1376 1.03202C12.3456 1.09602 12.5136 1.12802 12.6416 1.12802C12.9616 1.12802 13.2896 1.03202 13.6256 0.840016C13.7536 0.760015 13.8576 0.720016 13.9376 0.720016C14.0656 0.720016 14.1536 0.816015 14.2016 1.00802L15.0176 4.36802L15.0656 4.63202V4.68002C15.0496 4.79202 15.0016 4.86402 14.9216 4.89602C14.8416 4.92802 14.8016 4.94402 14.8016 4.94402H14.7296C14.6336 4.94402 14.5376 4.88802 14.4416 4.77602C14.3616 4.66402 14.1056 4.26402 13.6736 3.57602C13.2416 2.88802 12.6016 2.30402 11.7536 1.82402C10.9216 1.34402 9.95361 1.10402 8.84961 1.10402C7.24961 1.10402 6.01761 1.62402 5.15361 2.66402C4.30561 3.68802 3.74561 4.80002 3.47361 6.00002C3.21761 7.20002 3.08961 8.21602 3.08961 9.04802C3.08961 10.856 3.40961 12.36 4.04961 13.56C4.70561 14.76 5.51361 15.64 6.47361 16.2C7.44961 16.744 8.42561 17.016 9.40161 17.016C10.6016 17.016 11.6256 16.696 12.4736 16.056C13.3216 15.4 14.1296 14.504 14.8976 13.368C14.9776 13.272 15.0496 13.224 15.1136 13.224C15.1776 13.224 15.2576 13.264 15.3536 13.344C15.4656 13.44 15.5216 13.528 15.5216 13.608C15.5216 13.64 15.5056 13.688 15.4736 13.752C13.8576 16.696 11.7136 18.168 9.04161 18.168Z" fill="black"/>
</g>
<path d="M2.58471 51.2383C2.7543 51.1169 2.92712 50.9975 3.10904 50.8761C5.00632 49.6415 7.39448 48.7339 9.26307 48.0379C9.63791 47.9009 9.69081 47.9037 9.75827 47.8975C9.80655 47.8933 9.86083 47.8852 10.05 47.8191C10.9276 47.5131 11.7402 47.2044 12.6241 46.9488C12.9182 46.8646 12.5816 47.0588 12.8876 46.9698C14.5673 46.4838 16.1566 46.0453 17.8782 45.6671C19.3728 45.3399 20.8737 45.0514 22.3707 44.7887C29.352 43.591 36.3269 42.7729 43.5051 42.291C43.7873 42.2728 44.0775 42.2554 44.3702 42.239C47.0703 42.0856 50.1825 42.0723 52.8642 42.0413C53.2102 42.0371 53.0037 41.9636 53.0698 41.9575C54.1071 41.866 53.7639 42.0144 54.4377 42.0382C57.1222 42.1348 60.1014 42.2257 62.6851 42.3174C63.7851 42.3576 62.6887 42.1573 63.79 42.2949C63.8687 42.3046 63.5784 42.3678 63.8865 42.3923C63.9491 42.3973 64.0154 42.4022 64.0836 42.4071C64.4405 42.4326 64.9 42.4573 65.3314 42.4907C65.5563 42.5099 65.7466 42.5215 65.9877 42.5691C66.0511 42.5887 66.0889 42.5729 66.2659 42.6779C66.3088 42.7093 66.4193 42.7852 66.4633 42.964C66.5098 43.1761 66.4017 43.3217 66.3691 43.362C66.2651 43.4775 66.2468 43.4707 66.2011 43.5022C66.0719 43.5732 66.0153 43.5886 65.9456 43.6159C65.0568 43.9198 64.8673 43.9703 64.2455 44.2722C64.1701 44.3104 64.0819 44.3545 63.991 44.3992C62.7911 44.9871 61.3315 45.5701 60.0218 46.1188C59.7421 46.2358 60.1456 46.1603 59.7005 46.3534C59.2588 46.5469 58.0593 47.0019 57.6491 47.1326C57.2384 47.2654 57.3879 47.1423 57.3117 47.1552C56.695 47.2589 55.3954 47.8883 55.177 47.9717C55.1729 47.9733 55.1692 47.9747 55.1659 47.9759C51.904 49.1663 49.0242 49.9118 45.8972 50.7909C45.3418 50.9463 44.7707 51.1057 44.2031 51.2632C43.7357 51.393 43.2682 51.5213 42.8066 51.6499C42.7476 51.6664 42.6896 51.6827 42.6355 51.6983C42.6053 51.7069 42.5792 51.7145 42.5562 51.7217C42.5523 51.7229 42.5453 51.7251 42.5443 51.7255C42.5441 51.7256 42.5454 51.7252 42.5511 51.7232C42.553 51.7224 42.5527 51.7226 42.5579 51.7205C42.5647 51.7177 42.5734 51.7146 42.5959 51.7029C42.6204 51.6738 42.6517 51.7283 42.7887 51.4932C42.8186 51.4274 42.8411 51.3063 42.8019 51.1916C42.7643 51.0761 42.6863 51.004 42.6338 50.9692C42.5245 50.9017 42.4812 50.9069 42.4494 50.8999C42.3837 50.8938 42.4119 50.8973 42.3961 50.8964C42.3817 50.8964 42.373 50.897 42.3662 50.8975C42.305 50.9044 42.3517 50.8987 42.3567 50.8968C42.4593 50.8747 42.5879 50.8443 42.6975 50.8185C42.9333 50.7629 43.1633 50.7079 43.3951 50.6527C44.3278 50.4301 45.2412 50.2132 46.1109 50.013C46.2049 49.9914 46.3002 49.9695 46.397 49.9473C48.9881 49.3538 51.2475 48.8783 53.7977 48.3044C54.0785 48.2414 53.7283 48.2224 54.0722 48.1452C57.6949 47.332 61.313 46.5743 64.9579 45.9257C65.3238 45.8608 64.8697 46.0338 65.2361 45.974C66.912 45.6976 69.3295 45.3556 70.9715 44.9738C71.5291 44.8437 71.9934 44.7084 72.3153 44.5636C73.8356 44.3277 75.6897 44.0657 77.064 43.9534C77.9502 43.8816 77.1081 44.0841 78.1834 43.9043C78.4267 43.8643 78.0991 43.8267 78.4641 43.773C80.0017 43.5473 81.691 43.3832 83.2182 43.1953C83.5281 43.1569 83.4362 43.0947 83.5229 43.0737C84.256 42.8992 85.5062 42.9658 85.7782 42.9577C87.8351 42.8895 89.3353 42.7648 91.2486 42.6833C91.6939 42.6652 91.1635 42.592 91.5919 42.5715C91.8485 42.5595 92.1112 42.5482 92.3692 42.5381C94.3452 42.4599 96.3652 42.4373 98.2896 42.4943C98.7737 42.5092 98.3279 42.5852 98.5585 42.5967C99.5771 42.6491 99.8072 42.5016 100.784 42.5661C100.99 42.5801 100.871 42.6453 100.909 42.6543C101.493 42.7946 102.009 42.6499 102.162 42.6536C103.721 42.6903 104.813 42.8817 106.154 43.0325C106.464 43.0677 106.784 43.1011 107.129 43.1317C107.349 43.1513 106.861 43.0123 107.481 43.0734C110.263 43.3527 113.14 43.7808 115.936 44.3553C117.292 44.635 118.626 44.9853 119.897 45.436C120.502 45.6547 120.046 45.568 120.082 45.5887C120.659 45.9234 121.111 45.9254 121.31 45.9995C122.111 46.3024 122.844 46.6922 123.501 47.0568C124.134 47.4064 124.662 47.8014 125.127 48.1489C125.594 48.6472 125.973 49.2358 126.215 49.8815C126.602 51.1961 125.748 52.1191 125.222 52.9406C123.037 55.1935 120.286 56.074 117.698 57.3066C115.451 58.278 113.079 58.7865 110.726 59.2142C110.64 59.2299 110.777 59.1161 110.605 59.1476C110.593 59.1499 110.58 59.1522 110.568 59.1544C108.539 59.5097 108.946 59.5576 107.596 59.9301C107.255 60.0249 106.161 59.9632 106.067 59.9542C105.722 59.9364 106.061 59.7775 105.947 59.7787C104.977 59.767 105.234 60.2418 103.814 60.1721C103.767 60.1652 103.979 60.1172 103.854 60.0932C103.792 60.0783 103.758 60.0802 103.643 60.0287C103.584 59.996 103.456 59.9274 103.43 59.7411C103.421 59.5665 103.492 59.5008 103.526 59.4506C103.605 59.3547 103.671 59.308 103.739 59.2572C103.871 59.1632 104.001 59.0899 104.134 59.0289C104.841 58.7214 105.167 58.8039 106.15 58.2066C106.246 58.1481 106.091 58.0664 106.486 57.8102C106.606 57.7326 106.778 57.6391 107.025 57.5341C107.448 57.3229 109.385 56.6582 109.939 56.5276C110.49 56.3821 110.137 56.564 110.175 56.5559C111.67 56.2357 111.128 56.435 111.902 56.3801C112.679 56.3303 112.382 56.0463 112.678 55.9306C112.971 55.815 114.078 55.6308 114.351 55.5968C114.626 55.5612 114.305 55.6861 114.544 55.6465C114.703 55.62 114.84 55.5949 114.956 55.5715C115.967 55.3698 115.248 55.2983 115.703 55.1432C116.905 54.7368 117.918 54.7865 119.05 54.5805C119.355 54.5253 119.095 54.5179 119.366 54.4572C120.44 54.2191 121.102 54.1724 122.319 53.8702C122.513 53.8213 123.485 53.485 124.147 53.4864C124.242 53.4867 123.992 53.5958 124.458 53.5296C125.149 53.431 126.395 53.2385 127.134 53.1005C127.68 52.9984 127.034 52.9915 127.732 52.9163C128.039 52.8838 127.482 53.0328 128.06 52.9667C128.638 52.8995 130.106 52.6829 130.663 52.6052C131.222 52.526 130.905 52.488 130.95 52.4763C131.217 52.4073 132.286 52.2272 132.381 52.2159C134.671 51.9173 136.885 51.7068 139.085 51.5404C141.48 51.36 143.855 51.2326 146.298 51.0914C146.665 51.0704 146.416 50.9968 146.472 50.9927C147.731 50.8993 146.748 51.1708 147.63 51.2085C147.496 51.041 148.016 51.049 148.904 50.9972C149.331 50.9724 149.095 50.9138 149.134 50.9055C149.765 50.781 150.211 50.899 150.326 50.9223C150.751 51.0081 151.201 50.8784 151.491 50.9369C151.778 50.9951 151.124 51.1094 151.974 51.0863C152.211 51.0184 151.575 50.872 152.221 50.8298C154.659 50.6631 159.22 50.7588 161.176 50.7866C163.137 50.809 163.766 50.8068 164.908 50.8433C165.288 50.856 165.588 50.8624 165.801 50.8633C166.756 50.8688 166.451 50.7756 167.494 50.7505C168.782 50.7221 168.146 51.0053 168.329 51.0726C168.515 51.1405 168.703 51.0795 168.934 51.1203C169.157 51.161 168.674 51.1917 169.196 51.2185C169.728 51.2436 171.168 51.1824 171.36 51.1275C171.759 51.0078 171.116 50.8179 172.516 50.9552C172.597 50.9639 172.331 51.0232 172.637 51.0526C173.24 51.1107 173.845 51.1846 174.448 51.2954C175.838 51.5624 177.272 51.8611 178.499 52.6279C178.645 52.7179 178.767 52.9172 178.728 53.1026C178.697 53.2836 178.597 53.4224 178.495 53.5461C178.401 53.6576 178.299 53.7609 178.193 53.8577C177.936 54.0811 178.104 53.8143 177.954 53.9382C176.279 55.06 176.918 54.7294 175.993 55.3954C176.127 55.0887 175.526 55.2581 174.094 55.815C173.858 55.9065 173.7 55.9735 173.583 56.0302C173.276 56.1761 173.264 56.2479 172.863 56.4286C172.697 56.505 172.049 56.6268 171.945 56.6995C171.604 56.939 172.248 56.9504 170.68 57.2769C170.611 57.2905 170.809 57.1607 170.573 57.2133C169.045 57.5432 168.894 57.7252 167.248 58.0999C167.224 58.1052 167.201 58.1105 167.176 58.1159C165.871 58.4086 163.605 58.7822 162.151 59.0492C162.136 58.8056 160.753 59.1299 160.217 59.4015C159.614 59.5143 158.862 59.649 158.367 59.7664C158.382 59.7446 158.363 59.8103 158.447 59.6661C158.499 59.5425 158.367 59.421 158.34 59.4228C158.302 59.4087 158.306 59.4126 158.296 59.4102C158.269 59.4071 158.276 59.409 158.275 59.4086C158.276 59.4086 158.284 59.408 158.293 59.4072C158.31 59.4053 158.328 59.4028 158.349 59.3998C158.388 59.3938 158.43 59.3866 158.47 59.3792C158.552 59.3641 158.635 59.3474 158.717 59.33C158.88 59.2952 159.042 59.2575 159.198 59.2177C159.269 59.1997 159.314 59.1916 159.341 59.1905C159.417 59.1871 159.365 59.2363 159.36 59.2529C159.359 59.2554 159.36 59.2572 159.362 59.2579C159.363 59.2583 159.364 59.2584 159.366 59.2582C159.996 59.185 160.358 58.9056 160.558 58.839C162.727 58.1267 164.551 57.7345 166.614 57.0174C166.689 56.9915 166.765 56.7944 167.356 56.7536C167.395 56.7512 166.717 57.0247 167.716 56.7456C168.704 56.4693 170.58 56.0298 171.931 55.566C172.055 55.5234 172.249 55.4434 172.485 55.3542C172.855 55.2128 173.342 55.0553 173.78 55.0156C173.874 55.0075 173.787 55.0786 173.923 55.0728C174.362 55.0546 174.565 54.8323 175.092 54.865C175.62 54.8981 176.682 54.7857 178.077 54.4546C178.119 54.4447 178.441 54.2544 178.883 54.1886C179.595 54.0817 180.612 53.9695 181.363 53.8752C181.718 53.8304 181.48 53.7756 181.542 53.7664C183.943 53.4271 185.671 53.3414 188.264 53.1594C188.736 53.1263 190.093 52.9056 191.019 52.9282C192.036 52.9527 191.028 53.4378 193.341 53.173C194.274 53.0665 195.421 52.4628 197.122 52.608C200.378 52.2972 203.405 52.1892 206.655 51.7028C206.802 51.6808 207.242 51.4799 207.588 51.4369C208.1 51.3736 208.388 51.4027 208.751 51.3564C210.28 51.1609 211.662 50.8741 213.117 50.594C213.671 50.4852 213.493 50.5948 214.148 50.4587C214.813 50.3163 215.217 50.1303 216.116 49.9463C216.302 49.9079 216.49 49.8801 216.683 49.8548C217.203 49.7845 217.74 49.7381 218.388 49.5516C218.366 49.3608 218.968 49.1856 220 48.7639C220.196 48.683 219.96 48.6989 220.052 48.6575C220.428 48.4858 220.807 48.4003 221.152 48.2253C221.236 48.1829 221.218 48.1215 221.287 48.0827C221.869 47.7544 222.918 47.4534 223.097 47.3976C223.792 47.1877 224.052 46.9701 224.567 46.7591C225.076 46.5474 224.361 46.9564 224.946 46.6894C226.16 46.1344 227.643 45.282 228.79 44.5574C229.251 44.2665 228.891 44.3936 228.956 44.3503C229.887 43.7334 230.857 43.1673 231.266 42.6635C232.148 42.5651 231.793 42.2423 233.109 41.346C233.211 41.2759 233.466 41.3413 233.102 41.6604C232.734 41.9821 232.116 42.3663 231.595 42.8011C231.479 42.9011 230.84 43.5896 230.745 43.6674C229.987 44.299 229.698 44.1084 229.645 44.1246C229.062 44.2926 228.232 45.0542 227.979 45.2193C226.86 45.9672 225.837 46.4701 224.853 47.0139C224.199 47.3707 224.232 47.5777 223.697 47.8195C221.92 48.596 221.204 48.5721 219.575 49.4078C219.22 49.5806 219.662 49.6809 218.274 49.937C218.19 49.9537 217.376 50.0681 216.795 50.2682C216.725 50.293 216.658 50.3193 216.597 50.3472C216.528 50.3788 216.547 50.4407 216.452 50.4712C215.817 50.6735 215.373 50.729 214.673 50.9131C213.971 51.0969 213.121 51.3085 212.311 51.4354C211.817 51.5138 211.17 51.5018 210.932 51.511C210.254 51.5376 209.57 51.7813 209.142 51.7388C208.713 51.6952 209.497 51.4266 208.408 51.5114C208.391 51.6835 208.322 51.867 208.28 52.0433C205.894 52.3592 203.536 52.5421 201.142 52.7566C200.845 52.7832 201.156 52.8473 200.838 52.878C199.494 53.0063 198.316 53.0326 196.924 53.1615C195.847 53.2614 194.672 53.441 193.547 53.5458C192.846 53.403 191.178 53.5881 189.966 53.6636C189.541 53.6901 189.564 53.6369 189.261 53.6438C188.118 53.6721 188.665 53.7995 188.356 53.8512C187.025 54.0762 186.878 53.7004 185.303 53.8573C185.218 53.8651 184.22 54.17 184.083 54.198C183.197 54.3748 183.927 54.1421 183.367 54.1869C182.35 54.2708 181.637 54.3042 180.453 54.5238C180.114 54.5872 179.294 54.8322 178.616 54.8406C178.525 54.8419 178.563 54.7671 178.491 54.7746C177.197 54.9196 177.198 55.1424 176.489 55.3491C175.775 55.5565 174.637 55.6603 174.398 55.6759C173.783 55.7097 174.84 55.5229 174.874 55.5071C175.229 55.297 174.404 55.4997 173.794 55.6436C173.65 55.4616 172.786 55.7042 173.148 55.8003C173.188 55.8099 173.665 55.6651 173.794 55.6436C173.532 55.8201 173.15 55.9792 172.7 56.1104C172.26 56.2383 171.799 56.3254 171.259 56.384C170.734 56.4397 171.194 56.1999 169.697 56.6652C169.025 56.8745 169.315 56.9414 168.741 57.1459C167.391 57.6233 165.581 58.0013 164.18 58.4282C163.678 58.5815 164.193 58.5143 163.847 58.6227C162.919 58.9138 162.102 59.0899 161.176 59.3965C161.094 59.4241 161.318 59.4434 161.037 59.5281C160.532 59.6807 160.069 59.8225 159.577 59.9734C159.372 60.034 159.172 60.0846 158.97 60.1303C158.868 60.1531 158.767 60.1744 158.663 60.1943C158.61 60.2042 158.557 60.2138 158.498 60.223C158.469 60.2275 158.439 60.2321 158.4 60.2367C158.38 60.2389 158.361 60.2413 158.32 60.2435C158.3 60.2438 158.283 60.2476 158.205 60.2412C158.179 60.2384 158.148 60.2349 158.097 60.2216C158.087 60.2181 158.007 60.2006 157.911 60.1377C157.816 60.0758 157.651 59.9295 157.624 59.6581C157.607 59.3969 157.72 59.2547 157.773 59.1881C157.828 59.1264 157.832 59.1276 157.856 59.1065C157.895 59.0747 157.921 59.0587 157.943 59.0459C159.607 58.5999 160.586 58.5309 162.031 58.2279C163.162 58.0092 165.164 57.5559 166.332 57.316C166.546 57.2724 166.754 57.2307 166.977 57.1866C168.868 56.8126 171.043 56.4361 172.515 55.9526C173.133 55.7486 173.293 55.6465 173.408 55.5667C173.496 55.5052 173.554 55.453 173.738 55.3567C174.585 54.9296 176.149 54.4346 176.345 54.3443C176.356 54.3472 175.503 54.7823 175.982 54.5979C176.289 54.5459 176.336 54.3489 176.345 54.3443C176.469 54.3162 177.733 53.6047 178.016 53.1577C178.06 53.1023 178.081 53.0643 178.089 53.0443C178.11 52.9819 178.021 52.9815 178.017 52.9939C178.008 53.0146 178.006 53.1026 178.038 53.1658C178.069 53.2295 178.096 53.245 178.087 53.2422C177.074 52.6622 175.647 52.3603 174.31 52.1377C173.294 51.969 172.239 51.9075 171.161 51.8432C171.115 51.8396 171.189 51.7553 171.08 51.748C169.536 51.6466 168.54 51.7347 167.259 51.7723C166.716 51.7885 166.24 51.7924 165.787 51.7792C165.177 51.7611 164.64 51.7104 164.206 51.6182C163.237 51.6253 161.853 51.5488 161.054 51.5062C160.257 51.4634 160.146 51.6341 160.076 51.6372C157.886 51.7449 156.621 51.6556 154.351 51.6761C153.271 51.6848 151.131 51.7604 149.964 51.8192C149.041 51.8647 148.486 51.8458 147.636 51.9068C147.521 51.9151 147.641 51.9858 147.606 51.9902C146.663 52.1218 147.109 51.9174 146.912 51.893C146.197 51.8059 145.755 51.7616 144.543 51.8857C144.264 51.9142 143.465 52.2285 142.957 52.2776C142.296 52.341 142.54 52.2286 141.848 52.3001C141.789 52.3063 141.805 52.3638 141.378 52.3926C140.662 52.4413 139.922 52.4933 139.174 52.5517C137.847 52.6551 136.489 52.779 135.176 52.9307C134.896 52.963 135.266 53.0151 134.861 53.0635C132.96 53.2916 130.882 53.5633 129.029 53.7949C128.574 53.8515 128.849 53.7445 128.747 53.7399C128.123 53.7141 127.291 54.0179 127.151 54.0437C123.795 54.6664 121.189 54.9885 117.8 55.781C117.612 55.824 116.234 56.3122 115.563 56.3068C115.54 56.3067 115.363 56.3041 115.132 56.3291C114.888 56.3569 114.593 56.4126 114.325 56.5333C114.292 56.5485 114.701 56.5353 114.019 56.6901C113.338 56.8452 112.263 57.1695 111.319 57.3347C111.023 57.3869 110.282 57.4219 109.47 57.8137C109.411 57.8359 108.216 58.5433 107.717 58.5509C107.641 58.5538 107.621 58.3498 106.932 58.7328C106.864 58.7711 106.791 58.8138 106.71 58.8628C106.53 58.9721 106.894 58.8508 106.407 59.1148C106.051 59.3081 105.627 59.5036 105.201 59.7145C104.989 59.8202 104.774 59.931 104.59 60.0439C104.501 60.0985 104.412 60.1606 104.379 60.1942C104.367 60.2015 104.358 60.2415 104.456 60.113C104.488 60.0573 104.647 59.8381 104.539 59.4563C104.401 59.085 104.219 59.0353 104.159 58.9905C103.965 58.9047 104.021 58.938 104.018 58.9274C104.052 58.931 104.782 58.7908 105.371 58.8468C105.467 58.8561 105.292 58.9416 105.608 58.9228C107.099 58.8266 108.669 58.516 110.193 58.2572C110.268 58.2444 110.329 58.2364 110.378 58.2319C110.683 58.2043 110.563 58.3198 111.054 58.2432C111.624 58.1559 112.758 57.9293 113.323 57.7289C113.887 57.5288 113.215 57.5206 114.067 57.2751C115.144 56.9566 116.199 56.605 117.193 56.1693C119.652 55.0442 122.473 53.9674 124.167 52.3784C124.218 52.3202 124.243 52.2824 124.257 52.2573C124.361 52.0796 124.24 52.1966 124.589 51.6596C124.921 51.1618 125.16 50.5068 125.037 50.3291C124.701 49.4346 123.923 48.6146 122.938 48.0842C121.225 47.1258 119.44 46.5002 118.204 46.0936C116.147 45.4461 118.8 46.0355 117.207 45.5898C116.685 45.4498 116.107 45.422 115.729 45.4123C115.546 45.4074 115.407 45.4051 115.345 45.3954C113.462 45.1077 112.17 44.8085 110.466 44.5989C110.115 44.5567 110.447 44.6884 110.147 44.6519C109.127 44.5289 108.056 44.3634 107.078 44.2698C106.639 44.2284 106.714 44.3016 106.311 44.2577C106.221 44.2481 106.132 44.2386 106.044 44.2291C105.187 44.1371 104.406 44.0477 103.553 43.9364C103.468 43.9253 104.054 43.8818 103.337 43.8326C102.176 43.7543 100.734 43.6318 99.3928 43.6675C98.9952 43.6789 98.9766 43.8257 98.1244 43.714C97.9466 43.6917 98.174 43.5111 97.1787 43.664C97.009 43.6873 95.3424 43.9067 94.5176 43.7929C94.3012 43.7619 93.7436 43.6284 93.2652 43.666C93.2003 43.6717 93.4631 43.7438 93.0662 43.7639C92.8488 43.7747 92.635 43.7851 92.4141 43.7956C91.2187 43.8526 89.98 43.9078 88.771 44.0012C88.3876 44.0312 88.963 44.0793 88.3936 44.1217C86.827 44.2383 84.8702 44.3734 83.3381 44.4971C82.7716 44.5426 83.1558 44.4361 83.1141 44.4326C82.4425 44.3764 82.0685 44.5816 81.8506 44.6143C80.4943 44.8174 79.4531 44.8645 78.2013 45.0471C77.8573 45.0975 78.1119 45.1432 78.0442 45.1591C77.3416 45.3208 77.8537 45.111 77.399 45.1563C76.132 45.2827 74.7208 45.4965 73.4498 45.7085C72.9834 45.7865 73.523 45.7924 73.1035 45.8618C72.4659 45.9682 71.8271 46.0766 71.1793 46.188C69.3113 46.5093 67.4193 46.8462 65.6158 47.1587C65.1587 47.2379 65.4317 47.1136 65.3338 47.1164C64.6584 47.134 63.7298 47.4747 63.5128 47.5333C62.5239 47.7999 62.1239 47.8188 61.2415 48.0127C56.9334 48.9593 51.6163 50.1075 47.5462 51.0265C47.2593 51.0911 46.966 51.1571 46.6921 51.2187C45.6515 51.4528 44.6682 51.6738 43.6995 51.8909C43.4588 51.9447 43.2217 51.9978 42.9778 52.0516C42.8601 52.0772 42.7472 52.103 42.5971 52.1329C42.5854 52.1352 42.574 52.1373 42.5608 52.1396C42.5562 52.1404 42.5349 52.1443 42.5074 52.1478C42.492 52.1497 42.4743 52.1521 42.4359 52.1541C42.4089 52.1544 42.4154 52.1577 42.3264 52.1521C42.2763 52.1452 42.2138 52.149 42.0535 52.0815C41.9746 52.0443 41.8559 51.9837 41.7342 51.8276C41.61 51.6771 41.5374 51.4039 41.5728 51.2082C41.655 50.811 41.8084 50.75 41.864 50.6864C41.9305 50.6323 41.9655 50.6141 41.9932 50.5981C42.0938 50.5455 42.0991 50.55 42.1019 50.5475C42.1071 50.5455 42.1117 50.5438 42.1159 50.5423C42.1242 50.5393 42.131 50.5369 42.1371 50.5348C42.1492 50.5307 42.1588 50.5277 42.1679 50.5249C42.1873 50.5188 42.1901 50.5181 42.2011 50.5149C42.2453 50.502 42.2671 50.4963 42.3043 50.486C42.3625 50.4703 42.4229 50.4543 42.4847 50.4379C42.9546 50.3144 43.4152 50.195 43.8785 50.0726C46.3944 49.4078 48.8361 48.7285 51.5211 47.8794C51.8334 47.7803 51.4904 47.7906 51.7591 47.7039C52.7618 47.3807 53.757 47.0537 54.7437 46.7142C57.1678 45.8774 59.5686 44.971 61.9142 43.9124C62.186 43.7888 61.7591 43.8836 62.1902 43.683C62.6256 43.4786 63.1259 43.2435 63.6027 43.0052C64.1858 42.7122 64.7839 42.5163 65.256 42.3682C65.6683 42.2344 65.1772 42.4953 65.5424 42.3708C65.5587 42.3672 65.5907 42.3442 65.507 42.3989C65.4821 42.4186 65.4572 42.429 65.3758 42.5179C65.3375 42.5629 65.2962 42.6132 65.2477 42.7162C65.1881 42.8401 65.1464 43.0455 65.1895 43.2388C65.2752 43.601 65.4913 43.7213 65.5384 43.7582C65.6013 43.7992 65.6418 43.8154 65.6687 43.8262C65.7868 43.862 65.6677 43.8253 65.6109 43.8199C65.4689 43.7979 65.2839 43.7797 65.1128 43.7647C64.7521 43.7338 64.3888 43.7112 64.0146 43.6904C63.5652 43.6657 63.1198 43.646 62.678 43.6308C62.1723 43.6139 62.9253 43.7384 62.2791 43.7102C57.8603 43.5269 53.5202 43.4652 49.0611 43.4543C48.7552 43.4541 48.482 43.2772 47.8328 43.3339C47.7856 43.3864 47.7903 43.4461 47.7708 43.5011C46.664 43.5441 45.5604 43.5981 44.4613 43.6684C39.1712 44.012 33.9056 44.538 28.6202 45.2918C28.3508 45.3306 28.8296 45.3588 28.3093 45.4346C26.4069 45.7135 24.5379 46.0258 22.6584 46.354C21.5573 46.5467 20.4566 46.7443 19.3315 46.951C19.0303 47.0075 19.1454 46.8042 18.266 47.0297C18.1091 47.0676 16.7877 47.4066 16.4557 47.5332C16.4108 47.5506 16.6714 47.5658 16.2457 47.6776C14.2892 48.1915 12.2915 48.8019 10.369 49.5054C9.86254 49.6898 9.36207 49.8753 8.8687 50.0628C8.4839 50.2095 8.85827 49.9665 8.5845 50.0705C7.02446 50.6715 5.37047 51.4212 4.02023 52.2627C3.68598 52.475 3.36507 52.6871 3.05516 52.8998C2.00367 53.6522 2.2905 53.2462 1.67658 53.6004C1.58086 53.6482 1.03493 54.2271 0.955202 54.2164C0.715622 54.1759 0.801632 53.7048 0.518493 53.694C0.487046 53.6944 0.286491 53.932 0.149525 54.1559C0.0807652 54.2642 0.0258674 54.3847 0.00753337 54.4017C-0.011679 54.4233 0.00255633 54.2995 0.0889415 54.096C0.106773 53.9968 0.654584 53.2708 0.785957 53.106C0.873219 52.9803 0.618882 53.1113 0.814691 52.8694C1.01245 52.63 1.30741 52.4583 1.66587 52.1148C2.02738 51.7786 1.79073 51.8204 2.58471 51.2383ZM157.461 51.3318C156.721 51.2555 156.615 51.5556 157.413 51.478C157.451 51.4739 157.499 51.3355 157.461 51.3318ZM203.529 52.303C202.55 52.2663 201.91 52.5174 202.6 52.5566C203.288 52.5948 203.828 52.3134 203.529 52.303ZM213.47 50.7905C212.334 50.9112 212.238 51.3603 213.421 51.0398C213.49 51.0209 213.537 50.7831 213.47 50.7905ZM4.25533 51.6278C4.24665 51.628 3.91678 51.8242 3.7894 51.9114C3.75772 51.9325 3.73761 51.9464 3.73572 51.9485C3.66783 52.0304 3.72462 52.0183 3.82538 51.9662C4.02811 51.8593 4.43489 51.5992 4.25533 51.6278ZM222.951 47.7019C222.604 47.7963 221.692 48.2473 222.124 48.1446C222.47 48.066 223.385 47.5878 222.951 47.7019ZM119.109 54.7173C119.099 54.7148 118.675 54.7979 118.689 54.8209C118.735 54.894 119.314 54.752 119.109 54.7173ZM237.076 38.4479C235.07 39.9179 233.69 40.6473 235.845 38.9624C236.236 38.6619 235.08 39.7112 235.591 39.3456C236.542 38.7086 236.935 37.9327 238.183 37.6238C238.296 37.6138 237.982 37.7193 237.703 37.9365C237.415 38.1468 237.135 38.4091 237.073 38.4509C237.074 38.4499 237.075 38.4489 237.076 38.4479ZM157.032 50.9757C157.018 50.9717 156.422 50.9733 156.408 50.9775C156.087 51.0754 157.286 51.0721 157.032 50.9757ZM112.266 58.7982C112.3 58.8033 113.646 58.4874 113.687 58.4637C114.347 58.1441 111.636 58.7849 112.266 58.7982ZM162.126 59.0473C161.511 59.265 160.745 59.4231 160.22 59.401C160.85 59.2874 161.492 59.1652 162.126 59.0473Z" fill="#3C3C3C" fill-opacity="0.9"/>
</svg>
