<svg width="241" height="82" viewBox="0 0 241 82" fill="none" xmlns="http://www.w3.org/2000/svg">
<g opacity="0.9">
<path opacity="0.85" d="M237.938 7.86979C237.863 7.94446 237.826 8.01912 237.826 8.09379C237.826 8.18979 237.895 8.26979 238.034 8.33379C238.812 8.68579 239.388 9.05912 239.762 9.45379C240.135 9.83779 240.322 10.1845 240.322 10.4938C240.322 10.6325 240.279 10.7445 240.194 10.8298C240.119 10.9045 240.018 10.9418 239.89 10.9418H239.794C239.666 10.9205 239.548 10.8405 239.442 10.7018C239.132 10.3178 238.7 9.89112 238.146 9.42179C237.602 8.95246 237.042 8.53112 236.466 8.15779C236.412 8.11512 236.348 8.09379 236.274 8.09379C236.156 8.09379 236.066 8.15779 236.002 8.28579C235.703 8.85112 235.266 9.36312 234.69 9.82179C234.124 10.2698 233.362 10.6698 232.402 11.0218C232.327 11.0538 232.252 11.0698 232.178 11.0698C232.103 11.0698 232.05 11.0431 232.018 10.9898C232.007 10.9791 232.002 10.9631 232.002 10.9418C232.002 10.8778 232.092 10.7978 232.274 10.7018C233.223 10.2431 233.943 9.72579 234.434 9.14979C234.924 8.57379 235.266 7.91246 235.458 7.16579C235.575 6.70713 235.634 6.13646 235.634 5.45379C235.634 5.02712 235.607 4.60046 235.554 4.17379V4.14179C235.554 3.90712 235.676 3.80579 235.922 3.83779C236.69 3.92312 237.074 4.02446 237.074 4.14179C237.074 4.17379 237.036 4.21646 236.962 4.26979L236.946 4.28579C236.807 4.39246 236.732 4.52579 236.722 4.68579C236.69 5.30446 236.652 5.81646 236.61 6.22179C236.567 6.61646 236.492 7.00046 236.386 7.37379C236.375 7.40579 236.37 7.45379 236.37 7.51779C236.37 7.65646 236.45 7.74712 236.61 7.78979L237.122 7.94979C237.324 8.01379 237.442 8.01379 237.474 7.94979L237.538 7.83779C237.762 7.45379 237.98 7.02179 238.194 6.54179C238.407 6.06179 238.578 5.60846 238.706 5.18179C238.759 5.02179 238.844 4.94179 238.962 4.94179C239.015 4.94179 239.079 4.96312 239.154 5.00579C239.847 5.38979 240.194 5.64046 240.194 5.75779C240.194 5.80046 240.146 5.83246 240.05 5.85379H240.018C239.858 5.88579 239.74 5.94446 239.666 6.02979C239.282 6.48846 238.706 7.10179 237.938 7.86979ZM229.474 4.74979C229.644 4.74979 229.778 4.68046 229.874 4.54179L230.018 4.33379C230.05 4.29112 230.092 4.23246 230.146 4.15779C230.21 4.07246 230.263 4.00846 230.306 3.96579C230.348 3.92312 230.391 3.90179 230.434 3.90179C230.519 3.90179 230.684 4.00846 230.93 4.22179C231.186 4.42446 231.372 4.61112 231.49 4.78179C231.543 4.85646 231.57 4.92046 231.57 4.97379C231.57 5.03779 231.538 5.09646 231.474 5.14979C231.399 5.20312 231.303 5.22979 231.186 5.22979H229.826C229.175 5.24046 228.471 5.29912 227.714 5.40579H227.618C227.468 5.40579 227.362 5.33646 227.298 5.19779L227.234 5.05379C227.202 4.98979 227.186 4.93112 227.186 4.87779C227.186 4.80312 227.212 4.74979 227.266 4.71779C227.319 4.67512 227.394 4.65912 227.49 4.66979C227.799 4.70179 228.252 4.72846 228.85 4.74979H229.474ZM233.842 5.35779C233.874 5.14446 233.932 5.03779 234.018 5.03779C234.114 5.03779 234.178 5.13912 234.21 5.34179C234.231 5.57646 234.242 5.74713 234.242 5.85379C234.242 6.29113 234.178 6.68046 234.05 7.02179C233.922 7.36312 233.767 7.62446 233.586 7.80579C233.415 7.97646 233.223 8.06179 233.01 8.06179C232.839 8.06179 232.716 7.99779 232.642 7.86979C232.61 7.80579 232.594 7.73113 232.594 7.64579C232.594 7.43246 232.706 7.24579 232.93 7.08579C233.122 6.92579 233.303 6.68579 233.474 6.36579C233.655 6.03512 233.778 5.69912 233.842 5.35779ZM228.354 7.22979C227.884 7.25112 227.447 7.30446 227.042 7.38979H226.946C226.796 7.38979 226.69 7.32046 226.626 7.18179L226.562 7.06979C226.53 7.00579 226.514 6.94712 226.514 6.89379C226.514 6.73379 226.62 6.66446 226.834 6.68579C227.196 6.71779 227.746 6.74446 228.482 6.76579H230.178C230.348 6.76579 230.482 6.69646 230.578 6.55779L230.738 6.33379C230.77 6.29112 230.812 6.22712 230.866 6.14179C230.93 6.05646 230.983 5.99246 231.026 5.94979C231.068 5.90712 231.111 5.88579 231.154 5.88579C231.228 5.88579 231.394 5.99779 231.65 6.22179C231.916 6.43513 232.108 6.62713 232.226 6.79779C232.279 6.87246 232.306 6.93646 232.306 6.98979C232.306 7.03246 232.279 7.08046 232.226 7.13379C232.162 7.19779 232.06 7.22979 231.922 7.22979H228.354ZM229.698 8.79779C229.868 8.79779 230.002 8.72846 230.098 8.58979L230.226 8.41379C230.258 8.37112 230.3 8.31246 230.354 8.23779C230.407 8.16312 230.45 8.10979 230.482 8.07779C230.524 8.03512 230.567 8.01379 230.61 8.01379C230.684 8.01379 230.834 8.10979 231.058 8.30179C231.292 8.49379 231.468 8.66979 231.586 8.82979C231.628 8.87246 231.65 8.93113 231.65 9.00579C231.65 9.06979 231.623 9.12846 231.57 9.18179C231.495 9.23512 231.399 9.26179 231.282 9.26179H229.858C229.207 9.27246 228.503 9.33113 227.746 9.43779H227.65C227.5 9.43779 227.394 9.36846 227.33 9.22979L227.266 9.10179C227.234 9.03779 227.218 8.97912 227.218 8.92579C227.218 8.86179 227.244 8.80846 227.298 8.76579C227.362 8.72312 227.442 8.70712 227.538 8.71779C227.868 8.74979 228.359 8.77646 229.01 8.79779H229.698ZM237.25 14.0938C237.303 14.2218 237.362 14.3071 237.426 14.3498C237.5 14.3818 237.559 14.3658 237.602 14.3018C237.826 13.9178 238.044 13.4858 238.258 13.0058C238.471 12.5258 238.642 12.0725 238.77 11.6458C238.823 11.4965 238.908 11.4218 239.026 11.4218C239.1 11.4218 239.164 11.4431 239.218 11.4858C239.943 11.8911 240.306 12.1525 240.306 12.2698C240.306 12.3125 240.258 12.3445 240.162 12.3658L240.114 12.3818C239.932 12.4138 239.804 12.4831 239.73 12.5898C239.164 13.2618 238.53 13.9285 237.826 14.5898C237.74 14.6751 237.698 14.7605 237.698 14.8458C237.698 14.9311 237.719 15.0005 237.762 15.0538C238.348 15.9711 239.244 16.6805 240.45 17.1818C240.631 17.2671 240.722 17.3311 240.722 17.3738C240.722 17.4058 240.7 17.4325 240.658 17.4538C240.626 17.4858 240.588 17.5071 240.546 17.5178C240.503 17.5391 240.466 17.5551 240.434 17.5658C240.188 17.6511 240.018 17.8005 239.922 18.0138C239.858 18.1631 239.772 18.2378 239.666 18.2378C239.612 18.2378 239.554 18.2218 239.49 18.1898C238.636 17.7098 237.98 17.0751 237.522 16.2858C237.074 15.4965 236.754 14.5205 236.562 13.3578C236.53 13.2085 236.498 13.1338 236.466 13.1338C236.434 13.1338 236.407 13.2085 236.386 13.3578C236.204 14.4671 235.788 15.4165 235.138 16.2058C234.487 16.9845 233.42 17.6458 231.938 18.1898C231.863 18.2218 231.788 18.2378 231.714 18.2378C231.65 18.2378 231.602 18.2165 231.57 18.1738C231.559 18.1631 231.554 18.1471 231.554 18.1258C231.554 18.0511 231.644 17.9658 231.826 17.8698C232.967 17.3471 233.804 16.7338 234.338 16.0298C234.882 15.3258 235.234 14.4938 235.394 13.5338C235.468 13.0965 235.506 12.5578 235.506 11.9178C235.506 11.3738 235.479 10.8511 235.426 10.3498V10.3178C235.426 10.0831 235.548 9.98179 235.794 10.0138C236.551 10.1098 236.93 10.2165 236.93 10.3338C236.93 10.3658 236.892 10.4085 236.818 10.4618L236.802 10.4778C236.716 10.5311 236.658 10.5951 236.626 10.6698C236.604 10.7445 236.599 10.8405 236.61 10.9578C236.706 12.2165 236.919 13.2618 237.25 14.0938ZM229.698 10.8458C229.868 10.8458 230.002 10.7765 230.098 10.6378L230.226 10.4458C230.258 10.4031 230.3 10.3445 230.354 10.2698C230.407 10.1951 230.45 10.1418 230.482 10.1098C230.524 10.0671 230.567 10.0458 230.61 10.0458C230.684 10.0458 230.834 10.1418 231.058 10.3338C231.292 10.5258 231.468 10.7018 231.586 10.8618C231.628 10.9151 231.65 10.9791 231.65 11.0538C231.65 11.1178 231.623 11.1765 231.57 11.2298C231.495 11.2831 231.399 11.3098 231.282 11.3098H229.858C229.207 11.3205 228.503 11.3791 227.746 11.4858H227.65C227.5 11.4858 227.394 11.4165 227.33 11.2778L227.266 11.1498C227.234 11.0858 227.218 11.0271 227.218 10.9738C227.218 10.9098 227.244 10.8565 227.298 10.8138C227.362 10.7711 227.442 10.7551 227.538 10.7658C227.868 10.7978 228.359 10.8245 229.01 10.8458H229.698ZM233.81 11.8538C233.842 11.6298 233.9 11.5178 233.986 11.5178C234.082 11.5391 234.146 11.6405 234.178 11.8218C234.21 12.0458 234.226 12.2645 234.226 12.4778C234.226 12.9578 234.146 13.3738 233.986 13.7258C233.836 14.0778 233.644 14.3445 233.41 14.5258C233.228 14.6751 233.031 14.7498 232.818 14.7498C232.626 14.7498 232.492 14.6751 232.418 14.5258C232.375 14.4191 232.354 14.3445 232.354 14.3018C232.354 14.0991 232.482 13.9018 232.738 13.7098C232.983 13.5498 233.207 13.2991 233.41 12.9578C233.612 12.6165 233.746 12.2485 233.81 11.8538ZM228.482 16.8938C228.375 16.8938 228.29 16.9258 228.226 16.9898C228.172 17.0431 228.146 17.1231 228.146 17.2298V17.2458C228.178 17.5551 228.188 17.6885 228.178 17.6458C228.178 17.7525 228.167 17.8325 228.146 17.8858C228.135 17.9391 228.103 17.9925 228.05 18.0458C227.847 18.2058 227.618 18.2858 227.362 18.2858C227.287 18.2858 227.228 18.2538 227.186 18.1898C227.143 18.1258 227.122 18.0511 227.122 17.9658C227.164 17.5285 227.196 16.9791 227.218 16.3178V15.3258C227.218 14.4405 227.175 13.5871 227.09 12.7658V12.7018C227.09 12.5418 227.159 12.4618 227.298 12.4618C227.362 12.4618 227.415 12.4725 227.458 12.4938L228.034 12.7498C228.183 12.8138 228.322 12.8458 228.45 12.8458H229.938C230.108 12.8458 230.242 12.7765 230.338 12.6378L230.418 12.5418C230.45 12.5098 230.498 12.4511 230.562 12.3658C230.626 12.2805 230.69 12.2378 230.754 12.2378C230.828 12.2378 230.983 12.3231 231.218 12.4938C231.452 12.6645 231.639 12.8245 231.778 12.9738C231.82 13.0271 231.842 13.0858 231.842 13.1498C231.842 13.2245 231.794 13.2938 231.698 13.3578L231.57 13.4218C231.474 13.4645 231.399 13.5125 231.346 13.5658C231.303 13.6191 231.282 13.6938 231.282 13.7898V14.7818C231.314 15.7845 231.34 16.5311 231.362 17.0218V17.1018C231.362 17.2511 231.308 17.3578 231.202 17.4218C231.106 17.4965 230.983 17.5551 230.834 17.5978C230.695 17.6511 230.572 17.6778 230.466 17.6778C230.38 17.6778 230.338 17.5658 230.338 17.3418V17.2298C230.338 17.1231 230.306 17.0431 230.242 16.9898C230.188 16.9258 230.108 16.8938 230.002 16.8938H228.482ZM228.482 13.3258C228.375 13.3258 228.29 13.3578 228.226 13.4218C228.172 13.4751 228.146 13.5551 228.146 13.6618V16.0778C228.146 16.1845 228.172 16.2698 228.226 16.3338C228.29 16.3871 228.375 16.4138 228.482 16.4138H230.002C230.108 16.4138 230.188 16.3871 230.242 16.3338C230.306 16.2698 230.338 16.1845 230.338 16.0778V13.6618C230.338 13.5551 230.306 13.4751 230.242 13.4218C230.188 13.3578 230.108 13.3258 230.002 13.3258H228.482Z" fill="black"/>
<path opacity="0.85" d="M211.266 10.544C211.266 10.352 211.212 10.256 211.106 10.256C211.031 10.256 210.956 10.3254 210.882 10.464C210.348 11.616 209.676 12.6774 208.866 13.648C208.727 13.8187 208.62 13.872 208.546 13.808C208.524 13.7867 208.514 13.7547 208.514 13.712C208.514 13.6374 208.54 13.552 208.594 13.456C209.586 11.8667 210.364 9.84003 210.93 7.37603L210.946 7.28003C210.946 7.1947 210.914 7.1307 210.85 7.08803C210.796 7.0347 210.722 7.00803 210.626 7.00803H210.258C209.916 7.02936 209.586 7.07737 209.266 7.15203C209.234 7.1627 209.191 7.16803 209.138 7.16803C209.01 7.16803 208.908 7.0987 208.834 6.96003L208.77 6.84803C208.738 6.78403 208.722 6.72537 208.722 6.67203C208.722 6.60803 208.748 6.5547 208.802 6.51203C208.866 6.46937 208.946 6.45337 209.042 6.46403C209.34 6.49603 209.788 6.5227 210.386 6.54403H210.93C211.036 6.54403 211.116 6.51737 211.17 6.46403C211.234 6.40003 211.266 6.3147 211.266 6.20803V6.01603C211.266 4.94936 211.218 4.00003 211.122 3.16803V3.10403C211.122 2.9227 211.202 2.83203 211.362 2.83203C211.394 2.83203 211.442 2.8427 211.506 2.86403C212.274 3.12003 212.658 3.31203 212.658 3.44003C212.658 3.49336 212.615 3.5467 212.53 3.60003L212.482 3.63203C212.343 3.72803 212.274 3.86136 212.274 4.03203V6.20803C212.274 6.3147 212.3 6.40003 212.354 6.46403C212.407 6.51737 212.482 6.54403 212.578 6.54403H212.626C212.796 6.54403 212.93 6.46936 213.026 6.32003L213.186 6.08003C213.218 6.03736 213.26 5.97337 213.314 5.88803C213.378 5.79203 213.431 5.7227 213.474 5.68003C213.516 5.63737 213.559 5.61603 213.602 5.61603C213.676 5.61603 213.847 5.73336 214.114 5.96803C214.38 6.19203 214.578 6.3947 214.706 6.57603C214.748 6.6187 214.77 6.67736 214.77 6.75203C214.77 6.81603 214.743 6.8747 214.69 6.92803C214.604 6.98136 214.503 7.00803 214.386 7.00803H212.61C212.503 7.00803 212.418 7.04003 212.354 7.10403C212.3 7.15736 212.274 7.23736 212.274 7.34403V8.20803C212.274 8.38936 212.364 8.51736 212.546 8.59203C213.292 8.93336 213.836 9.31203 214.178 9.72803C214.53 10.144 214.706 10.5227 214.706 10.864C214.706 11.0347 214.663 11.1734 214.578 11.28C214.492 11.3867 214.38 11.44 214.242 11.44C214.188 11.44 214.119 11.4294 214.034 11.408C213.906 11.3654 213.815 11.2534 213.762 11.072C213.591 10.592 213.234 10 212.69 9.29603C212.615 9.2107 212.54 9.16803 212.466 9.16803C212.338 9.16803 212.274 9.26403 212.274 9.45603V13.216C212.295 14.3787 212.332 15.552 212.386 16.736V16.816C212.386 16.9547 212.338 17.0667 212.242 17.152C212.146 17.2374 212.028 17.3067 211.89 17.36C211.751 17.4134 211.618 17.44 211.49 17.44C211.383 17.44 211.287 17.408 211.202 17.344C211.127 17.28 211.09 17.2054 211.09 17.12C211.132 16.4907 211.17 15.8827 211.202 15.296C211.234 14.6987 211.255 13.92 211.266 12.96V10.544ZM216.562 15.904C216.455 15.904 216.37 15.936 216.306 16C216.252 16.0534 216.226 16.1334 216.226 16.24V16.256C216.247 16.512 216.258 16.6347 216.258 16.624V16.72C216.258 16.8587 216.226 16.9654 216.162 17.04C216.087 17.1254 215.98 17.1947 215.842 17.248C215.703 17.312 215.559 17.344 215.41 17.344C215.314 17.344 215.228 17.312 215.154 17.248C215.079 17.184 215.042 17.1094 215.042 17.024C215.084 16.3947 215.122 15.7867 215.154 15.2C215.186 14.6027 215.207 13.824 215.218 12.864V6.72003C215.218 5.68536 215.17 4.75203 215.074 3.92003V3.85603C215.074 3.68536 215.138 3.60003 215.266 3.60003C215.319 3.60003 215.378 3.61603 215.442 3.64803L216.098 3.95203C216.247 4.01603 216.386 4.04803 216.514 4.04803H220.466C220.636 4.04803 220.775 3.9787 220.882 3.84003L220.978 3.71203C221.01 3.66936 221.047 3.61603 221.09 3.55203C221.143 3.48803 221.186 3.44003 221.218 3.40803C221.26 3.37603 221.303 3.36003 221.346 3.36003C221.42 3.36003 221.586 3.45603 221.842 3.64803C222.098 3.84003 222.29 4.01603 222.418 4.17603C222.46 4.22936 222.482 4.28803 222.482 4.35203C222.482 4.4267 222.434 4.49603 222.338 4.56003C222.306 4.58136 222.274 4.59736 222.242 4.60803C222.21 4.6187 222.183 4.62936 222.162 4.64003C221.97 4.70403 221.874 4.8267 221.874 5.00803V13.056C221.895 14.2187 221.932 15.392 221.986 16.576V16.656C221.986 16.8054 221.932 16.912 221.826 16.976C221.708 17.0614 221.575 17.136 221.426 17.2C221.276 17.264 221.143 17.296 221.026 17.296C220.951 17.296 220.887 17.2534 220.834 17.168C220.812 17.136 220.802 17.088 220.802 17.024C220.802 16.992 220.812 16.912 220.834 16.784C220.834 16.7627 220.844 16.624 220.866 16.368V16.24C220.866 16.1334 220.834 16.0534 220.77 16C220.716 15.936 220.636 15.904 220.53 15.904H216.562ZM220.53 7.74403C220.636 7.74403 220.716 7.71736 220.77 7.66403C220.834 7.60003 220.866 7.5147 220.866 7.40803V4.83203C220.866 4.72537 220.834 4.64536 220.77 4.59203C220.716 4.52803 220.636 4.49603 220.53 4.49603H216.562C216.455 4.49603 216.37 4.52803 216.306 4.59203C216.252 4.64536 216.226 4.72537 216.226 4.83203V7.40803C216.226 7.5147 216.252 7.60003 216.306 7.66403C216.37 7.71736 216.455 7.74403 216.562 7.74403H220.53ZM220.53 11.552C220.636 11.552 220.716 11.5254 220.77 11.472C220.834 11.408 220.866 11.3227 220.866 11.216V8.56003C220.866 8.45336 220.834 8.37336 220.77 8.32003C220.716 8.25603 220.636 8.22403 220.53 8.22403H216.562C216.455 8.22403 216.37 8.25603 216.306 8.32003C216.252 8.37336 216.226 8.45336 216.226 8.56003V11.216C216.226 11.3227 216.252 11.408 216.306 11.472C216.37 11.5254 216.455 11.552 216.562 11.552H220.53ZM216.562 12.032C216.455 12.032 216.37 12.064 216.306 12.128C216.252 12.1814 216.226 12.2614 216.226 12.368V15.12C216.226 15.2267 216.252 15.312 216.306 15.376C216.37 15.4294 216.455 15.456 216.562 15.456H220.53C220.636 15.456 220.716 15.4294 220.77 15.376C220.834 15.312 220.866 15.2267 220.866 15.12V12.368C220.866 12.2614 220.834 12.1814 220.77 12.128C220.716 12.064 220.636 12.032 220.53 12.032H216.562Z" fill="black"/>
<path opacity="0.85" d="M193.002 16.424C192.895 16.424 192.81 16.4507 192.746 16.504C192.692 16.5574 192.666 16.632 192.666 16.728C192.676 16.8134 192.682 16.9147 192.682 17.032L192.698 17.192C192.698 17.2987 192.666 17.384 192.602 17.448C192.527 17.5334 192.42 17.6027 192.282 17.656C192.154 17.72 192.015 17.752 191.866 17.752C191.78 17.752 191.7 17.72 191.626 17.656C191.551 17.592 191.514 17.5174 191.514 17.432C191.556 16.8027 191.594 16.1947 191.626 15.608C191.658 15.0107 191.679 14.232 191.69 13.272V7.16003C191.69 6.12536 191.642 5.19203 191.546 4.36003V4.29603C191.546 4.12536 191.61 4.04003 191.738 4.04003C191.791 4.04003 191.85 4.05603 191.914 4.08803L192.586 4.40803C192.735 4.47203 192.874 4.50403 193.002 4.50403H202.234C202.404 4.50403 202.538 4.4347 202.634 4.29603L202.73 4.16803C202.762 4.12536 202.815 4.06136 202.89 3.97603C202.964 3.88003 203.034 3.83203 203.098 3.83203C203.172 3.83203 203.332 3.92803 203.578 4.12003C203.834 4.30136 204.031 4.47203 204.17 4.63203C204.223 4.7067 204.25 4.76537 204.25 4.80803C204.25 4.87203 204.202 4.94136 204.106 5.01603L203.93 5.11203C203.834 5.1547 203.759 5.2027 203.706 5.25603C203.663 5.30936 203.642 5.38403 203.642 5.48003V13.384C203.663 14.5467 203.7 15.72 203.754 16.904V16.968C203.754 17.1174 203.7 17.2294 203.594 17.304C203.295 17.5174 203.023 17.624 202.778 17.624C202.714 17.624 202.655 17.5814 202.602 17.496C202.58 17.464 202.57 17.416 202.57 17.352C202.57 17.32 202.58 17.24 202.602 17.112C202.602 17.0907 202.612 16.9947 202.634 16.824V16.76C202.634 16.6534 202.602 16.568 202.538 16.504C202.484 16.4507 202.404 16.424 202.298 16.424H193.002ZM193.002 4.98403C192.895 4.98403 192.81 5.01603 192.746 5.08003C192.692 5.13337 192.666 5.21336 192.666 5.32003V15.608C192.666 15.7147 192.692 15.8 192.746 15.864C192.81 15.9174 192.895 15.944 193.002 15.944H202.298C202.404 15.944 202.484 15.9174 202.538 15.864C202.602 15.8 202.634 15.7147 202.634 15.608V5.32003C202.634 5.21336 202.602 5.13337 202.538 5.08003C202.484 5.01603 202.404 4.98403 202.298 4.98403H193.002ZM196.202 12.744C196.095 12.744 196.01 12.776 195.946 12.84C195.892 12.8934 195.866 12.9734 195.866 13.08V13.432C195.866 13.4854 195.78 13.5547 195.61 13.64C195.439 13.7147 195.263 13.752 195.082 13.752C195.007 13.752 194.943 13.72 194.89 13.656C194.847 13.592 194.826 13.5174 194.826 13.432C194.868 12.9414 194.9 12.3334 194.922 11.608V10.536C194.922 9.50137 194.874 8.56803 194.778 7.73603V7.67203C194.778 7.51203 194.847 7.43203 194.986 7.43203C195.05 7.43203 195.103 7.4427 195.146 7.46403L195.754 7.73603C195.903 7.80003 196.042 7.83203 196.17 7.83203H198.954C199.135 7.83203 199.274 7.7627 199.37 7.62403L199.45 7.51203C199.471 7.48003 199.503 7.43737 199.546 7.38403C199.599 7.32003 199.642 7.27203 199.674 7.24003C199.716 7.20803 199.759 7.19203 199.802 7.19203C199.876 7.19203 200.031 7.27737 200.266 7.44803C200.511 7.6187 200.698 7.7787 200.826 7.92803C200.879 8.0027 200.906 8.06136 200.906 8.10403C200.906 8.16803 200.858 8.23736 200.762 8.31203L200.602 8.39203C200.41 8.45603 200.314 8.5787 200.314 8.76003V10.088C200.346 11.4 200.378 12.3707 200.41 13V13.08C200.41 13.2294 200.356 13.336 200.25 13.4C200.143 13.4747 200.02 13.5387 199.882 13.592C199.743 13.6454 199.62 13.672 199.514 13.672C199.45 13.672 199.396 13.6347 199.354 13.56C199.322 13.496 199.306 13.4427 199.306 13.4C199.306 13.3574 199.316 13.2934 199.338 13.208C199.338 13.2187 199.348 13.1707 199.37 13.064C199.37 12.8507 199.258 12.744 199.034 12.744H196.202ZM196.202 8.28003C196.095 8.28003 196.01 8.31203 195.946 8.37603C195.892 8.42937 195.866 8.50937 195.866 8.61603V11.944C195.866 12.0507 195.892 12.136 195.946 12.2C196.01 12.2534 196.095 12.28 196.202 12.28H199.034C199.14 12.28 199.22 12.2534 199.274 12.2C199.338 12.136 199.37 12.0507 199.37 11.944V8.61603C199.37 8.50937 199.338 8.42937 199.274 8.37603C199.22 8.31203 199.14 8.28003 199.034 8.28003H196.202Z" fill="black"/>
<path opacity="0.85" d="M177.01 5.74403C177.17 5.74403 177.303 5.68536 177.41 5.56803L177.57 5.39203C177.612 5.34936 177.676 5.28003 177.762 5.18403C177.858 5.07736 177.938 5.02403 178.002 5.02403C178.076 5.02403 178.215 5.12537 178.418 5.32803C178.62 5.52003 178.78 5.7067 178.898 5.88803C178.94 5.97336 178.962 6.0267 178.962 6.04803C178.962 6.1547 178.898 6.22403 178.77 6.25603L178.626 6.28803C178.444 6.2987 178.316 6.38403 178.242 6.54403C177.676 7.60003 177.031 8.58137 176.306 9.48803C176.21 9.61603 176.162 9.7387 176.162 9.85603C176.162 9.9947 176.252 10.0907 176.434 10.144L176.658 10.224C176.722 10.256 176.78 10.272 176.834 10.272C176.93 10.272 177.02 10.2134 177.106 10.096C177.447 9.64803 177.756 9.13603 178.034 8.56003C178.098 8.43203 178.188 8.36803 178.306 8.36803C178.359 8.36803 178.428 8.3947 178.514 8.44803C178.994 8.7787 179.234 8.99736 179.234 9.10403C179.234 9.15737 179.175 9.1947 179.058 9.21603H179.01C178.86 9.2267 178.727 9.2907 178.61 9.40803C178.386 9.63203 178.06 9.9147 177.634 10.256C177.538 10.3307 177.49 10.4054 177.49 10.48C177.49 10.576 177.554 10.656 177.682 10.72C178.087 10.9654 178.386 11.232 178.578 11.52C178.77 11.7974 178.866 12.0534 178.866 12.288C178.866 12.4374 178.823 12.5654 178.738 12.672C178.663 12.768 178.562 12.816 178.434 12.816C178.38 12.816 178.338 12.8107 178.306 12.8C178.188 12.768 178.092 12.6667 178.018 12.496C177.879 12.208 177.682 11.9094 177.426 11.6C177.17 11.2907 176.887 11.0027 176.578 10.736C176.503 10.672 176.428 10.64 176.354 10.64C176.226 10.64 176.162 10.736 176.162 10.928V13.232C176.183 14.3947 176.22 15.568 176.274 16.752V16.832C176.274 16.9814 176.22 17.088 176.114 17.152C175.89 17.312 175.634 17.392 175.346 17.392C175.271 17.392 175.202 17.3547 175.138 17.28C175.074 17.216 175.042 17.1467 175.042 17.072C175.084 16.4534 175.116 15.8454 175.138 15.248C175.17 14.6507 175.191 13.888 175.202 12.96V11.312C175.202 11.2267 175.18 11.1574 175.138 11.104C175.106 11.0507 175.063 11.024 175.01 11.024C174.935 11.024 174.86 11.0614 174.786 11.136C174.124 11.7654 173.495 12.2774 172.898 12.672C172.727 12.8 172.61 12.8214 172.546 12.736C172.524 12.7147 172.514 12.6934 172.514 12.672C172.514 12.6294 172.578 12.544 172.706 12.416C173.559 11.6374 174.375 10.7254 175.154 9.68003C175.932 8.6347 176.567 7.6107 177.058 6.60803C177.09 6.54403 177.106 6.48537 177.106 6.43203C177.106 6.2827 177.004 6.20803 176.802 6.20803H175.506C174.834 6.2187 174.13 6.27737 173.394 6.38403H173.314C173.164 6.38403 173.052 6.3147 172.978 6.17603L172.914 6.04803C172.882 5.98403 172.866 5.92003 172.866 5.85603C172.866 5.71737 172.967 5.6587 173.17 5.68003C173.458 5.70136 173.868 5.7227 174.402 5.74403H174.866C175.09 5.74403 175.202 5.63203 175.202 5.40803C175.18 4.6187 175.138 3.8667 175.074 3.15203V3.08803C175.074 3.01336 175.095 2.9547 175.138 2.91203C175.18 2.8587 175.239 2.83203 175.314 2.83203C175.346 2.83203 175.394 2.8427 175.458 2.86403C176.204 3.0987 176.578 3.28003 176.578 3.40803C176.578 3.46136 176.535 3.5147 176.45 3.56803L176.402 3.60003C176.252 3.69603 176.178 3.82937 176.178 4.00003V5.40803C176.178 5.5147 176.204 5.60003 176.258 5.66403C176.322 5.71736 176.407 5.74403 176.514 5.74403H177.01ZM181.378 5.63203C181.378 5.53603 181.346 5.46136 181.282 5.40803C181.228 5.3547 181.154 5.32803 181.058 5.32803H180.498C180.028 5.3387 179.58 5.39203 179.154 5.48803C179.122 5.4987 179.084 5.50403 179.042 5.50403C178.903 5.50403 178.796 5.4347 178.722 5.29603L178.658 5.16803C178.626 5.10403 178.61 5.04003 178.61 4.97603C178.61 4.91203 178.636 4.86403 178.69 4.83203C178.743 4.78936 178.818 4.77336 178.914 4.78403C179.276 4.81603 179.826 4.8427 180.562 4.86403H184.866C185.036 4.86403 185.17 4.7947 185.266 4.65603L185.378 4.51203C185.41 4.46936 185.447 4.41603 185.49 4.35203C185.543 4.28803 185.586 4.24003 185.618 4.20803C185.66 4.17603 185.703 4.16003 185.746 4.16003C185.82 4.16003 185.975 4.25603 186.21 4.44803C186.455 4.64003 186.642 4.81603 186.77 4.97603C186.812 5.02936 186.834 5.08803 186.834 5.15203C186.834 5.23736 186.786 5.3067 186.69 5.36003L186.546 5.40803C186.343 5.47203 186.242 5.60003 186.242 5.79203C186.178 8.88536 186.05 11.312 185.858 13.072C185.666 14.832 185.394 15.9467 185.042 16.416C184.668 16.8854 184.178 17.152 183.57 17.216H183.522C183.426 17.216 183.351 17.1894 183.298 17.136C183.255 17.0827 183.223 17.0027 183.202 16.896C183.17 16.6827 183.09 16.528 182.962 16.432C182.77 16.2827 182.359 16.1387 181.73 16C181.527 15.9574 181.426 15.888 181.426 15.792C181.426 15.7494 181.458 15.7174 181.522 15.696C181.586 15.6747 181.671 15.6694 181.778 15.68C182.791 15.7974 183.404 15.856 183.618 15.856C183.778 15.856 183.895 15.84 183.97 15.808C184.055 15.7654 184.14 15.696 184.226 15.6C184.524 15.312 184.754 14.3254 184.914 12.64C185.084 10.944 185.202 8.62403 185.266 5.68003C185.266 5.57337 185.234 5.48803 185.17 5.42403C185.116 5.36003 185.036 5.32803 184.93 5.32803H182.77C182.556 5.32803 182.439 5.44003 182.418 5.66403C182.343 7.61603 182.188 9.24803 181.954 10.56C181.719 11.8614 181.244 13.0934 180.53 14.256C179.826 15.4187 178.775 16.4267 177.378 17.28C177.207 17.3867 177.084 17.4027 177.01 17.328C176.999 17.3174 176.994 17.3014 176.994 17.28C176.994 17.216 177.063 17.1147 177.202 16.976C178.343 15.9947 179.212 14.9227 179.81 13.76C180.407 12.5867 180.807 11.3707 181.01 10.112C181.212 8.85337 181.335 7.3707 181.378 5.66403V5.63203Z" fill="black"/>
<path opacity="0.8" d="M163.934 10.032C163.934 10.1654 163.864 10.232 163.724 10.232H153.724C153.584 10.232 153.514 10.1654 153.514 10.032C153.514 9.8987 153.584 9.83203 153.724 9.83203H163.724C163.864 9.83203 163.934 9.8987 163.934 10.032Z" fill="black"/>
<path opacity="0.95" d="M136.158 17.832C136.062 17.832 136.014 17.712 136.014 17.472C136.014 17.264 136.062 17.16 136.158 17.16H136.518C137.238 17.16 137.766 17.048 138.102 16.824C138.438 16.584 138.606 16.192 138.606 15.648V2.59202C138.606 1.98402 138.446 1.58402 138.126 1.39202C137.822 1.18402 137.366 1.08002 136.758 1.08002C136.518 1.08002 136.318 1.08802 136.158 1.10402C135.502 1.13602 134.75 1.40802 133.902 1.92002C133.07 2.41602 132.398 3.00802 131.886 3.69602C131.79 3.80802 131.702 3.86402 131.622 3.86402C131.574 3.86402 131.518 3.84802 131.454 3.81602C131.294 3.75202 131.214 3.68002 131.214 3.60002L131.238 3.48002L132.246 0.792019C132.342 0.536019 132.534 0.40802 132.822 0.40802H146.286C146.574 0.40802 146.766 0.536019 146.862 0.792019L147.87 3.48002L147.894 3.60002C147.894 3.68002 147.814 3.75202 147.654 3.81602C147.59 3.84802 147.534 3.86402 147.486 3.86402C147.406 3.86402 147.318 3.80802 147.222 3.69602C146.71 3.00802 146.03 2.41602 145.182 1.92002C144.35 1.40802 143.606 1.13602 142.95 1.10402C142.806 1.08802 142.606 1.08002 142.35 1.08002C141.726 1.08002 141.262 1.18402 140.958 1.39202C140.654 1.60002 140.502 2.00002 140.502 2.59202V15.648C140.502 16.208 140.67 16.6 141.006 16.824C141.358 17.048 141.886 17.16 142.59 17.16H142.95C143.062 17.16 143.118 17.264 143.118 17.472C143.118 17.712 143.062 17.832 142.95 17.832H136.158Z" fill="black"/>
<path opacity="0.95" d="M119.459 18.168C118.291 18.168 117.075 17.856 115.811 17.232C114.547 16.592 113.483 15.624 112.619 14.328C111.755 13.032 111.323 11.448 111.323 9.57602C111.323 7.75202 111.707 6.12802 112.475 4.70402C113.243 3.28002 114.227 2.17602 115.427 1.39202C116.627 0.592016 117.851 0.192017 119.099 0.192017C119.627 0.192017 120.099 0.248016 120.515 0.360016C120.931 0.472016 121.411 0.624017 121.955 0.816016C122.163 0.896016 122.363 0.968016 122.555 1.03202C122.763 1.09602 122.931 1.12802 123.059 1.12802C123.379 1.12802 123.707 1.03202 124.043 0.840016C124.171 0.760015 124.275 0.720016 124.355 0.720016C124.483 0.720016 124.571 0.816015 124.619 1.00802L125.435 4.36802L125.483 4.63202V4.68002C125.467 4.79202 125.419 4.86402 125.339 4.89602C125.259 4.92802 125.219 4.94402 125.219 4.94402H125.147C125.051 4.94402 124.955 4.88802 124.859 4.77602C124.779 4.66402 124.523 4.26402 124.091 3.57602C123.659 2.88802 123.019 2.30402 122.171 1.82402C121.339 1.34402 120.371 1.10402 119.267 1.10402C117.667 1.10402 116.435 1.62402 115.571 2.66402C114.723 3.68802 114.163 4.80002 113.891 6.00002C113.635 7.20002 113.507 8.21602 113.507 9.04802C113.507 10.856 113.827 12.36 114.467 13.56C115.123 14.76 115.931 15.64 116.891 16.2C117.867 16.744 118.843 17.016 119.819 17.016C121.019 17.016 122.043 16.696 122.891 16.056C123.739 15.4 124.547 14.504 125.315 13.368C125.395 13.272 125.467 13.224 125.531 13.224C125.595 13.224 125.675 13.264 125.771 13.344C125.883 13.44 125.939 13.528 125.939 13.608C125.939 13.64 125.923 13.688 125.891 13.752C124.275 16.696 122.131 18.168 119.459 18.168Z" fill="black"/>
<path opacity="0.95" d="M106.098 17.16C106.162 17.16 106.202 17.2 106.218 17.28C106.234 17.344 106.242 17.416 106.242 17.496C106.242 17.72 106.194 17.832 106.098 17.832H99.2816C99.2176 17.832 99.1696 17.808 99.1376 17.76C99.1216 17.696 99.1135 17.608 99.1135 17.496C99.1135 17.384 99.1216 17.304 99.1376 17.256C99.1696 17.192 99.2176 17.16 99.2816 17.16C99.8896 17.16 100.418 17.072 100.866 16.896C101.314 16.704 101.538 16.368 101.538 15.888C101.538 15.696 101.506 15.512 101.442 15.336L100.266 11.952C100.17 11.68 99.9776 11.544 99.6896 11.544H93.9296C93.6416 11.544 93.4496 11.68 93.3536 11.952L92.9456 13.08L92.4176 14.616C92.2736 15.016 92.2016 15.368 92.2016 15.672C92.2016 16.664 92.9616 17.16 94.4816 17.16C94.5456 17.16 94.5855 17.2 94.6015 17.28C94.6175 17.344 94.6256 17.416 94.6256 17.496C94.6256 17.72 94.5776 17.832 94.4816 17.832H88.5776C88.5136 17.832 88.4655 17.808 88.4335 17.76C88.4175 17.696 88.4096 17.608 88.4096 17.496C88.4096 17.384 88.4175 17.304 88.4335 17.256C88.4655 17.192 88.5136 17.16 88.5776 17.16C89.0416 17.16 89.5136 16.992 89.9936 16.656C90.4736 16.32 90.8655 15.768 91.1695 15L96.5696 0.672C96.6656 0.432 96.8336 0.272 97.0736 0.192L97.4816 0.0720005C97.6096 0.0240002 97.7216 0 97.8176 0C97.9136 0 97.9776 0.0159998 98.0096 0.0479994C98.0896 0.0959997 98.1376 0.151999 98.1536 0.216L98.9696 2.592C99.5136 4.144 100.33 6.496 101.418 9.648C102.522 12.8 103.17 14.616 103.362 15.096C103.874 16.472 104.786 17.16 106.098 17.16ZM94.0496 10.056C94.0176 10.152 94.0016 10.224 94.0016 10.272C94.0016 10.384 94.0416 10.472 94.1216 10.536C94.2016 10.6 94.3136 10.632 94.4576 10.632H99.2096C99.5136 10.632 99.6656 10.504 99.6656 10.248L99.6176 10.056L97.2176 3.144C97.1536 2.92 97.0736 2.752 96.9776 2.64C96.8816 2.528 96.8176 2.512 96.7856 2.592C95.8896 4.944 94.9776 7.432 94.0496 10.056Z" fill="black"/>
<path opacity="0.95" d="M72.7816 17.832C72.6856 17.832 72.6376 17.712 72.6376 17.472C72.6376 17.264 72.6856 17.16 72.7816 17.16H73.1416C73.8616 17.16 74.3896 17.048 74.7256 16.824C75.0616 16.584 75.2296 16.192 75.2296 15.648V2.59202C75.2296 1.98402 75.0696 1.58402 74.7496 1.39202C74.4456 1.18402 73.9896 1.08002 73.3816 1.08002C73.1416 1.08002 72.9416 1.08802 72.7816 1.10402C72.1256 1.13602 71.3736 1.40802 70.5256 1.92002C69.6936 2.41602 69.0216 3.00802 68.5096 3.69602C68.4136 3.80802 68.3256 3.86402 68.2456 3.86402C68.1976 3.86402 68.1416 3.84802 68.0776 3.81602C67.9176 3.75202 67.8376 3.68002 67.8376 3.60002L67.8616 3.48002L68.8696 0.792019C68.9656 0.536019 69.1576 0.40802 69.4456 0.40802H82.9096C83.1976 0.40802 83.3896 0.536019 83.4856 0.792019L84.4936 3.48002L84.5176 3.60002C84.5176 3.68002 84.4376 3.75202 84.2776 3.81602C84.2136 3.84802 84.1576 3.86402 84.1096 3.86402C84.0296 3.86402 83.9416 3.80802 83.8456 3.69602C83.3336 3.00802 82.6536 2.41602 81.8056 1.92002C80.9736 1.40802 80.2296 1.13602 79.5736 1.10402C79.4296 1.08802 79.2296 1.08002 78.9736 1.08002C78.3496 1.08002 77.8856 1.18402 77.5816 1.39202C77.2776 1.60002 77.1256 2.00002 77.1256 2.59202V15.648C77.1256 16.208 77.2936 16.6 77.6296 16.824C77.9816 17.048 78.5096 17.16 79.2136 17.16H79.5736C79.6856 17.16 79.7416 17.264 79.7416 17.472C79.7416 17.712 79.6856 17.832 79.5736 17.832H72.7816Z" fill="black"/>
<path opacity="0.95" d="M45.2489 17.832C45.1529 17.832 45.1049 17.712 45.1049 17.472C45.1049 17.264 45.1529 17.16 45.2489 17.16H45.6329C46.1449 17.16 46.6089 16.976 47.0249 16.608C47.4569 16.24 47.6729 15.784 47.6729 15.24V2.56802C47.6729 2.02402 47.5129 1.64002 47.1929 1.41602C46.8729 1.19202 46.3529 1.08002 45.6329 1.08002H45.2489C45.1369 1.08002 45.0809 0.968019 45.0809 0.74402C45.0809 0.52002 45.1369 0.40802 45.2489 0.40802H49.1129C49.3689 0.40802 49.5689 0.512019 49.7129 0.720018L58.4969 13.128C58.6089 13.288 58.7209 13.368 58.8329 13.368C59.0249 13.368 59.1209 13.224 59.1209 12.936V3.00002C59.1209 2.64802 59.0089 2.32802 58.7849 2.04002C58.5769 1.73602 58.3049 1.50402 57.9689 1.34402C57.6489 1.16802 57.3369 1.08002 57.0329 1.08002H56.6729C56.5929 1.08002 56.5369 1.05602 56.5049 1.00802C56.4889 0.944018 56.4809 0.856019 56.4809 0.74402C56.4809 0.52002 56.5449 0.40802 56.6729 0.40802H62.4809C62.5609 0.40802 62.6089 0.44002 62.6249 0.504019C62.6569 0.552019 62.6729 0.632019 62.6729 0.74402C62.6729 0.968019 62.6089 1.08002 62.4809 1.08002H62.0969C61.5849 1.08002 61.1129 1.27202 60.6809 1.65602C60.2649 2.02402 60.0569 2.47202 60.0569 3.00002V17.328C60.0569 17.488 60.0249 17.616 59.9609 17.712C59.9129 17.792 59.8489 17.832 59.7689 17.832C59.5769 17.832 59.4089 17.728 59.2649 17.52L54.2609 10.38L49.2569 3.24002C49.1449 3.08002 49.0329 3.00002 48.9209 3.00002C48.7289 3.00002 48.6329 3.14402 48.6329 3.43202V15.24C48.6329 15.784 48.8569 16.24 49.3049 16.608C49.7529 16.976 50.2249 17.16 50.7209 17.16H51.1049C51.2169 17.16 51.2729 17.264 51.2729 17.472C51.2729 17.712 51.2169 17.832 51.1049 17.832H45.2489Z" fill="black"/>
<path opacity="0.95" d="M31.2933 18.168C30.0453 18.168 28.8133 17.824 27.5973 17.136C26.3973 16.432 25.4053 15.4 24.6213 14.04C23.8373 12.68 23.4453 11.056 23.4453 9.16802C23.4453 7.29602 23.8373 5.68002 24.6213 4.32002C25.4053 2.96002 26.3973 1.93602 27.5973 1.24802C28.8133 0.544016 30.0453 0.192017 31.2933 0.192017C32.5413 0.192017 33.7653 0.544016 34.9653 1.24802C36.1653 1.93602 37.1573 2.96002 37.9413 4.32002C38.7253 5.68002 39.1173 7.29602 39.1173 9.16802C39.1173 11.056 38.7253 12.68 37.9413 14.04C37.1573 15.4 36.1653 16.432 34.9653 17.136C33.7653 17.824 32.5413 18.168 31.2933 18.168ZM31.2933 17.376C32.2533 17.376 33.1573 17.072 34.0053 16.464C34.8693 15.84 35.5653 14.912 36.0933 13.68C36.6373 12.432 36.9093 10.928 36.9093 9.16802C36.9093 7.42402 36.6373 5.93602 36.0933 4.70402C35.5653 3.47202 34.8693 2.55202 34.0053 1.94402C33.1573 1.32002 32.2533 1.00802 31.2933 1.00802C30.3333 1.00802 29.4213 1.32002 28.5573 1.94402C27.6933 2.55202 26.9973 3.47202 26.4693 4.70402C25.9413 5.93602 25.6773 7.42402 25.6773 9.16802C25.6773 10.928 25.9413 12.432 26.4693 13.68C26.9973 14.912 27.6933 15.84 28.5573 16.464C29.4213 17.072 30.3333 17.376 31.2933 17.376Z" fill="black"/>
<path opacity="0.95" d="M11.0416 18.168C9.87361 18.168 8.65761 17.856 7.39361 17.232C6.12961 16.592 5.06561 15.624 4.20161 14.328C3.33761 13.032 2.90561 11.448 2.90561 9.57602C2.90561 7.75202 3.28961 6.12802 4.05761 4.70402C4.82561 3.28002 5.80961 2.17602 7.00961 1.39202C8.20961 0.592016 9.43361 0.192017 10.6816 0.192017C11.2096 0.192017 11.6816 0.248016 12.0976 0.360016C12.5136 0.472016 12.9936 0.624017 13.5376 0.816016C13.7456 0.896016 13.9456 0.968016 14.1376 1.03202C14.3456 1.09602 14.5136 1.12802 14.6416 1.12802C14.9616 1.12802 15.2896 1.03202 15.6256 0.840016C15.7536 0.760015 15.8576 0.720016 15.9376 0.720016C16.0656 0.720016 16.1536 0.816015 16.2016 1.00802L17.0176 4.36802L17.0656 4.63202V4.68002C17.0496 4.79202 17.0016 4.86402 16.9216 4.89602C16.8416 4.92802 16.8016 4.94402 16.8016 4.94402H16.7296C16.6336 4.94402 16.5376 4.88802 16.4416 4.77602C16.3616 4.66402 16.1056 4.26402 15.6736 3.57602C15.2416 2.88802 14.6016 2.30402 13.7536 1.82402C12.9216 1.34402 11.9536 1.10402 10.8496 1.10402C9.24961 1.10402 8.01761 1.62402 7.15361 2.66402C6.30561 3.68802 5.74561 4.80002 5.47361 6.00002C5.21761 7.20002 5.08961 8.21602 5.08961 9.04802C5.08961 10.856 5.40961 12.36 6.04961 13.56C6.70561 14.76 7.51361 15.64 8.47361 16.2C9.44961 16.744 10.4256 17.016 11.4016 17.016C12.6016 17.016 13.6256 16.696 14.4736 16.056C15.3216 15.4 16.1296 14.504 16.8976 13.368C16.9776 13.272 17.0496 13.224 17.1136 13.224C17.1776 13.224 17.2576 13.264 17.3536 13.344C17.4656 13.44 17.5216 13.528 17.5216 13.608C17.5216 13.64 17.5056 13.688 17.4736 13.752C15.8576 16.696 13.7136 18.168 11.0416 18.168Z" fill="black"/>
</g>
<path d="M2.58471 63.2383C2.7543 63.1169 2.92712 62.9975 3.10904 62.8761C5.00632 61.6415 7.39448 60.7339 9.26307 60.0379C9.63791 59.9009 9.69081 59.9037 9.75827 59.8975C9.80655 59.8933 9.86083 59.8852 10.05 59.8191C10.9276 59.5131 11.7402 59.2044 12.6241 58.9488C12.9182 58.8646 12.5816 59.0588 12.8876 58.9698C14.5673 58.4838 16.1566 58.0453 17.8782 57.6671C19.3728 57.3399 20.8737 57.0514 22.3707 56.7887C29.352 55.591 36.3269 54.7729 43.5051 54.291C43.7873 54.2728 44.0775 54.2554 44.3702 54.239C47.0703 54.0856 50.1825 54.0723 52.8642 54.0413C53.2102 54.0371 53.0037 53.9636 53.0698 53.9575C54.1071 53.866 53.7639 54.0144 54.4377 54.0382C57.1222 54.1348 60.1014 54.2257 62.6851 54.3174C63.7851 54.3576 62.6887 54.1573 63.79 54.2949C63.8687 54.3046 63.5784 54.3678 63.8865 54.3923C63.9491 54.3973 64.0154 54.4022 64.0836 54.4071C64.4405 54.4326 64.9 54.4573 65.3314 54.4907C65.5563 54.5099 65.7466 54.5215 65.9877 54.5691C66.0511 54.5887 66.0889 54.5729 66.2659 54.6779C66.3088 54.7093 66.4193 54.7852 66.4633 54.964C66.5098 55.1761 66.4017 55.3217 66.3691 55.362C66.2651 55.4775 66.2468 55.4707 66.2011 55.5022C66.0719 55.5732 66.0153 55.5886 65.9456 55.6159C65.0568 55.9198 64.8673 55.9703 64.2455 56.2722C64.1701 56.3104 64.0819 56.3545 63.991 56.3992C62.7911 56.9871 61.3315 57.5701 60.0218 58.1188C59.7421 58.2358 60.1456 58.1603 59.7005 58.3534C59.2588 58.5469 58.0593 59.0019 57.6491 59.1326C57.2384 59.2654 57.3879 59.1423 57.3117 59.1552C56.695 59.2589 55.3954 59.8883 55.177 59.9717C55.1729 59.9733 55.1692 59.9747 55.1659 59.9759C51.904 61.1663 49.0242 61.9118 45.8972 62.7909C45.3418 62.9463 44.7707 63.1057 44.2031 63.2632C43.7357 63.393 43.2682 63.5213 42.8066 63.6499C42.7476 63.6664 42.6896 63.6827 42.6355 63.6983C42.6053 63.7069 42.5792 63.7145 42.5562 63.7217C42.5523 63.7229 42.5453 63.7251 42.5443 63.7255C42.5441 63.7256 42.5454 63.7252 42.5511 63.7232C42.553 63.7224 42.5527 63.7226 42.5579 63.7205C42.5647 63.7177 42.5734 63.7146 42.5959 63.7029C42.6204 63.6738 42.6517 63.7283 42.7887 63.4932C42.8186 63.4274 42.8411 63.3063 42.8019 63.1916C42.7643 63.0761 42.6863 63.004 42.6338 62.9692C42.5245 62.9017 42.4812 62.9069 42.4494 62.8999C42.3837 62.8938 42.4119 62.8973 42.3961 62.8964C42.3817 62.8964 42.373 62.897 42.3662 62.8975C42.305 62.9044 42.3517 62.8987 42.3567 62.8968C42.4593 62.8747 42.5879 62.8443 42.6975 62.8185C42.9333 62.7629 43.1633 62.7079 43.3951 62.6527C44.3278 62.4301 45.2412 62.2132 46.1109 62.013C46.2049 61.9914 46.3002 61.9695 46.397 61.9473C48.9881 61.3538 51.2475 60.8783 53.7977 60.3044C54.0785 60.2414 53.7283 60.2224 54.0722 60.1452C57.6949 59.332 61.313 58.5743 64.9579 57.9257C65.3238 57.8608 64.8697 58.0338 65.2361 57.974C66.912 57.6976 69.3295 57.3556 70.9715 56.9738C71.5291 56.8437 71.9934 56.7084 72.3153 56.5636C73.8356 56.3277 75.6897 56.0657 77.064 55.9534C77.9502 55.8816 77.1081 56.0841 78.1834 55.9043C78.4267 55.8643 78.0991 55.8267 78.4641 55.773C80.0017 55.5473 81.691 55.3832 83.2182 55.1953C83.5281 55.1569 83.4362 55.0947 83.5229 55.0737C84.256 54.8992 85.5062 54.9658 85.7782 54.9577C87.8351 54.8895 89.3353 54.7648 91.2486 54.6833C91.6939 54.6652 91.1635 54.592 91.5919 54.5715C91.8485 54.5595 92.1112 54.5482 92.3692 54.5381C94.3452 54.4599 96.3652 54.4373 98.2896 54.4943C98.7737 54.5092 98.3279 54.5852 98.5585 54.5967C99.5771 54.6491 99.8072 54.5016 100.784 54.5661C100.99 54.5801 100.871 54.6453 100.909 54.6543C101.493 54.7946 102.009 54.6499 102.162 54.6536C103.721 54.6903 104.813 54.8817 106.154 55.0325C106.464 55.0677 106.784 55.1011 107.129 55.1317C107.349 55.1513 106.861 55.0123 107.481 55.0734C110.263 55.3527 113.14 55.7808 115.936 56.3553C117.292 56.635 118.626 56.9853 119.897 57.436C120.502 57.6547 120.046 57.568 120.082 57.5887C120.659 57.9234 121.111 57.9254 121.31 57.9995C122.111 58.3024 122.844 58.6922 123.501 59.0568C124.134 59.4064 124.662 59.8014 125.127 60.1489C125.594 60.6472 125.973 61.2358 126.215 61.8815C126.602 63.1961 125.748 64.1191 125.222 64.9406C123.037 67.1935 120.286 68.074 117.698 69.3066C115.451 70.278 113.079 70.7865 110.726 71.2142C110.64 71.2299 110.777 71.1161 110.605 71.1476C110.593 71.1499 110.58 71.1522 110.568 71.1544C108.539 71.5097 108.946 71.5576 107.596 71.9301C107.255 72.0249 106.161 71.9632 106.067 71.9542C105.722 71.9364 106.061 71.7775 105.947 71.7787C104.977 71.767 105.234 72.2418 103.814 72.1721C103.767 72.1652 103.979 72.1172 103.854 72.0932C103.792 72.0783 103.758 72.0802 103.643 72.0287C103.584 71.996 103.456 71.9274 103.43 71.7411C103.421 71.5665 103.492 71.5008 103.526 71.4506C103.605 71.3547 103.671 71.308 103.739 71.2572C103.871 71.1632 104.001 71.0899 104.134 71.0289C104.841 70.7214 105.167 70.8039 106.15 70.2066C106.246 70.1481 106.091 70.0664 106.486 69.8102C106.606 69.7326 106.778 69.6391 107.025 69.5341C107.448 69.3229 109.385 68.6582 109.939 68.5276C110.49 68.3821 110.137 68.564 110.175 68.5559C111.67 68.2357 111.128 68.435 111.902 68.3801C112.679 68.3303 112.382 68.0463 112.678 67.9306C112.971 67.815 114.078 67.6308 114.351 67.5968C114.626 67.5612 114.305 67.6861 114.544 67.6465C114.703 67.62 114.84 67.5949 114.956 67.5715C115.967 67.3698 115.248 67.2983 115.703 67.1432C116.905 66.7368 117.918 66.7865 119.05 66.5805C119.355 66.5253 119.095 66.5179 119.366 66.4572C120.44 66.2191 121.102 66.1724 122.319 65.8702C122.513 65.8213 123.485 65.485 124.147 65.4864C124.242 65.4867 123.992 65.5958 124.458 65.5296C125.149 65.431 126.395 65.2385 127.134 65.1005C127.68 64.9984 127.034 64.9915 127.732 64.9163C128.039 64.8838 127.482 65.0328 128.06 64.9667C128.638 64.8995 130.106 64.6829 130.663 64.6052C131.222 64.526 130.905 64.488 130.95 64.4763C131.217 64.4073 132.286 64.2272 132.381 64.2159C134.671 63.9173 136.885 63.7068 139.085 63.5404C141.48 63.36 143.855 63.2326 146.298 63.0914C146.665 63.0704 146.416 62.9968 146.472 62.9927C147.731 62.8993 146.748 63.1708 147.63 63.2085C147.496 63.041 148.016 63.049 148.904 62.9972C149.331 62.9724 149.095 62.9138 149.134 62.9055C149.765 62.781 150.211 62.899 150.326 62.9223C150.751 63.0081 151.201 62.8784 151.491 62.9369C151.778 62.9951 151.124 63.1094 151.974 63.0863C152.211 63.0184 151.575 62.872 152.221 62.8298C154.659 62.6631 159.22 62.7588 161.176 62.7866C163.137 62.809 163.766 62.8068 164.908 62.8433C165.288 62.856 165.588 62.8624 165.801 62.8633C166.756 62.8688 166.451 62.7756 167.494 62.7505C168.782 62.7221 168.146 63.0053 168.329 63.0726C168.515 63.1405 168.703 63.0795 168.934 63.1203C169.157 63.161 168.674 63.1917 169.196 63.2185C169.728 63.2436 171.168 63.1824 171.36 63.1275C171.759 63.0078 171.116 62.8179 172.516 62.9552C172.597 62.9639 172.331 63.0232 172.637 63.0526C173.24 63.1107 173.845 63.1846 174.448 63.2954C175.838 63.5624 177.272 63.8611 178.499 64.6279C178.645 64.7179 178.767 64.9172 178.728 65.1026C178.697 65.2836 178.597 65.4224 178.495 65.5461C178.401 65.6576 178.299 65.7609 178.193 65.8577C177.936 66.0811 178.104 65.8143 177.954 65.9382C176.279 67.06 176.918 66.7294 175.993 67.3954C176.127 67.0887 175.526 67.2581 174.094 67.815C173.858 67.9065 173.7 67.9735 173.583 68.0302C173.276 68.1761 173.264 68.2479 172.863 68.4286C172.697 68.505 172.049 68.6268 171.945 68.6995C171.604 68.939 172.248 68.9504 170.68 69.2769C170.611 69.2905 170.809 69.1607 170.573 69.2133C169.045 69.5432 168.894 69.7252 167.248 70.0999C167.224 70.1052 167.201 70.1105 167.176 70.1159C165.871 70.4086 163.605 70.7822 162.151 71.0492C162.136 70.8056 160.753 71.1299 160.217 71.4015C159.614 71.5143 158.862 71.649 158.367 71.7664C158.382 71.7446 158.363 71.8103 158.447 71.6661C158.499 71.5425 158.367 71.421 158.34 71.4228C158.302 71.4087 158.306 71.4126 158.296 71.4102C158.269 71.4071 158.276 71.409 158.275 71.4086C158.276 71.4086 158.284 71.408 158.293 71.4072C158.31 71.4053 158.328 71.4028 158.349 71.3998C158.388 71.3938 158.43 71.3866 158.47 71.3792C158.552 71.3641 158.635 71.3474 158.717 71.33C158.88 71.2952 159.042 71.2575 159.198 71.2177C159.269 71.1997 159.314 71.1916 159.341 71.1905C159.417 71.1871 159.365 71.2363 159.36 71.2529C159.359 71.2554 159.36 71.2572 159.362 71.2579C159.363 71.2583 159.364 71.2584 159.366 71.2582C159.996 71.185 160.358 70.9056 160.558 70.839C162.727 70.1267 164.551 69.7345 166.614 69.0174C166.689 68.9915 166.765 68.7944 167.356 68.7536C167.395 68.7512 166.717 69.0247 167.716 68.7456C168.704 68.4693 170.58 68.0298 171.931 67.566C172.055 67.5234 172.249 67.4434 172.485 67.3542C172.855 67.2128 173.342 67.0553 173.78 67.0156C173.874 67.0075 173.787 67.0786 173.923 67.0728C174.362 67.0546 174.565 66.8323 175.092 66.865C175.62 66.8981 176.682 66.7857 178.077 66.4546C178.119 66.4447 178.441 66.2544 178.883 66.1886C179.595 66.0817 180.612 65.9695 181.363 65.8752C181.718 65.8304 181.48 65.7756 181.542 65.7664C183.943 65.4271 185.671 65.3414 188.264 65.1594C188.736 65.1263 190.093 64.9056 191.019 64.9282C192.036 64.9527 191.028 65.4378 193.341 65.173C194.274 65.0665 195.421 64.4628 197.122 64.608C200.378 64.2972 203.405 64.1892 206.655 63.7028C206.802 63.6808 207.242 63.4799 207.588 63.4369C208.1 63.3736 208.388 63.4027 208.751 63.3564C210.28 63.1609 211.662 62.8741 213.117 62.594C213.671 62.4852 213.493 62.5948 214.148 62.4587C214.813 62.3163 215.217 62.1303 216.116 61.9463C216.302 61.9079 216.49 61.8801 216.683 61.8548C217.203 61.7845 217.74 61.7381 218.388 61.5516C218.366 61.3608 218.968 61.1856 220 60.7639C220.196 60.683 219.96 60.6989 220.052 60.6575C220.428 60.4858 220.807 60.4003 221.152 60.2253C221.236 60.1829 221.218 60.1215 221.287 60.0827C221.869 59.7544 222.918 59.4534 223.097 59.3976C223.792 59.1877 224.052 58.9701 224.567 58.7591C225.076 58.5474 224.361 58.9564 224.946 58.6894C226.16 58.1344 227.643 57.282 228.79 56.5574C229.251 56.2665 228.891 56.3936 228.956 56.3503C229.887 55.7334 230.857 55.1673 231.266 54.6635C232.148 54.5651 231.793 54.2423 233.109 53.346C233.211 53.2759 233.466 53.3413 233.102 53.6604C232.734 53.9821 232.116 54.3663 231.595 54.8011C231.479 54.9011 230.84 55.5896 230.745 55.6674C229.987 56.299 229.698 56.1084 229.645 56.1246C229.062 56.2926 228.232 57.0542 227.979 57.2193C226.86 57.9672 225.837 58.4701 224.853 59.0139C224.199 59.3707 224.232 59.5777 223.697 59.8195C221.92 60.596 221.204 60.5721 219.575 61.4078C219.22 61.5806 219.662 61.6809 218.274 61.937C218.19 61.9537 217.376 62.0681 216.795 62.2682C216.725 62.293 216.658 62.3193 216.597 62.3472C216.528 62.3788 216.547 62.4407 216.452 62.4712C215.817 62.6735 215.373 62.729 214.673 62.9131C213.971 63.0969 213.121 63.3085 212.311 63.4354C211.817 63.5138 211.17 63.5018 210.932 63.511C210.254 63.5376 209.57 63.7813 209.142 63.7388C208.713 63.6952 209.497 63.4266 208.408 63.5114C208.391 63.6835 208.322 63.867 208.28 64.0433C205.894 64.3592 203.536 64.5421 201.142 64.7566C200.845 64.7832 201.156 64.8473 200.838 64.878C199.494 65.0063 198.316 65.0326 196.924 65.1615C195.847 65.2614 194.672 65.441 193.547 65.5458C192.846 65.403 191.178 65.5881 189.966 65.6636C189.541 65.6901 189.564 65.6369 189.261 65.6438C188.118 65.6721 188.665 65.7995 188.356 65.8512C187.025 66.0762 186.878 65.7004 185.303 65.8573C185.218 65.8651 184.22 66.17 184.083 66.198C183.197 66.3748 183.927 66.1421 183.367 66.1869C182.35 66.2708 181.637 66.3042 180.453 66.5238C180.114 66.5872 179.294 66.8322 178.616 66.8406C178.525 66.8419 178.563 66.7671 178.491 66.7746C177.197 66.9196 177.198 67.1424 176.489 67.3491C175.775 67.5565 174.637 67.6603 174.398 67.6759C173.783 67.7097 174.84 67.5229 174.874 67.5071C175.229 67.297 174.404 67.4997 173.794 67.6436C173.65 67.4616 172.786 67.7042 173.148 67.8003C173.188 67.8099 173.665 67.6651 173.794 67.6436C173.532 67.8201 173.15 67.9792 172.7 68.1104C172.26 68.2383 171.799 68.3254 171.259 68.384C170.734 68.4397 171.194 68.1999 169.697 68.6652C169.025 68.8745 169.315 68.9414 168.741 69.1459C167.391 69.6233 165.581 70.0013 164.18 70.4282C163.678 70.5815 164.193 70.5143 163.847 70.6227C162.919 70.9138 162.102 71.0899 161.176 71.3965C161.094 71.4241 161.318 71.4434 161.037 71.5281C160.532 71.6807 160.069 71.8225 159.577 71.9734C159.372 72.034 159.172 72.0846 158.97 72.1303C158.868 72.1531 158.767 72.1744 158.663 72.1943C158.61 72.2042 158.557 72.2138 158.498 72.223C158.469 72.2275 158.439 72.2321 158.4 72.2367C158.38 72.2389 158.361 72.2413 158.32 72.2435C158.3 72.2438 158.283 72.2476 158.205 72.2412C158.179 72.2384 158.148 72.2349 158.097 72.2216C158.087 72.2181 158.007 72.2006 157.911 72.1377C157.816 72.0758 157.651 71.9295 157.624 71.6581C157.607 71.3969 157.72 71.2547 157.773 71.1881C157.828 71.1264 157.832 71.1276 157.856 71.1065C157.895 71.0747 157.921 71.0587 157.943 71.0459C159.607 70.5999 160.586 70.5309 162.031 70.2279C163.162 70.0092 165.164 69.5559 166.332 69.316C166.546 69.2724 166.754 69.2307 166.977 69.1866C168.868 68.8126 171.043 68.4361 172.515 67.9526C173.133 67.7486 173.293 67.6465 173.408 67.5667C173.496 67.5052 173.554 67.453 173.738 67.3567C174.585 66.9296 176.149 66.4346 176.345 66.3443C176.356 66.3472 175.503 66.7823 175.982 66.5979C176.289 66.5459 176.336 66.3489 176.345 66.3443C176.469 66.3162 177.733 65.6047 178.016 65.1577C178.06 65.1023 178.081 65.0643 178.089 65.0443C178.11 64.9819 178.021 64.9815 178.017 64.9939C178.008 65.0146 178.006 65.1026 178.038 65.1658C178.069 65.2295 178.096 65.245 178.087 65.2422C177.074 64.6622 175.647 64.3603 174.31 64.1377C173.294 63.969 172.239 63.9075 171.161 63.8432C171.115 63.8396 171.189 63.7553 171.08 63.748C169.536 63.6466 168.54 63.7347 167.259 63.7723C166.716 63.7885 166.24 63.7924 165.787 63.7792C165.177 63.7611 164.64 63.7104 164.206 63.6182C163.237 63.6253 161.853 63.5488 161.054 63.5062C160.257 63.4634 160.146 63.6341 160.076 63.6372C157.886 63.7449 156.621 63.6556 154.351 63.6761C153.271 63.6848 151.131 63.7604 149.964 63.8192C149.041 63.8647 148.486 63.8458 147.636 63.9068C147.521 63.9151 147.641 63.9858 147.606 63.9902C146.663 64.1218 147.109 63.9174 146.912 63.893C146.197 63.8059 145.755 63.7616 144.543 63.8857C144.264 63.9142 143.465 64.2285 142.957 64.2776C142.296 64.341 142.54 64.2286 141.848 64.3001C141.789 64.3063 141.805 64.3638 141.378 64.3926C140.662 64.4413 139.922 64.4933 139.174 64.5517C137.847 64.6551 136.489 64.779 135.176 64.9307C134.896 64.963 135.266 65.0151 134.861 65.0635C132.96 65.2916 130.882 65.5633 129.029 65.7949C128.574 65.8515 128.849 65.7445 128.747 65.7399C128.123 65.7141 127.291 66.0179 127.151 66.0437C123.795 66.6664 121.189 66.9885 117.8 67.781C117.612 67.824 116.234 68.3122 115.563 68.3068C115.54 68.3067 115.363 68.3041 115.132 68.3291C114.888 68.3569 114.593 68.4126 114.325 68.5333C114.292 68.5485 114.701 68.5353 114.019 68.6901C113.338 68.8452 112.263 69.1695 111.319 69.3347C111.023 69.3869 110.282 69.4219 109.47 69.8137C109.411 69.8359 108.216 70.5433 107.717 70.5509C107.641 70.5538 107.621 70.3498 106.932 70.7328C106.864 70.7711 106.791 70.8138 106.71 70.8628C106.53 70.9721 106.894 70.8508 106.407 71.1148C106.051 71.3081 105.627 71.5036 105.201 71.7145C104.989 71.8202 104.774 71.931 104.59 72.0439C104.501 72.0985 104.412 72.1606 104.379 72.1942C104.367 72.2015 104.358 72.2415 104.456 72.113C104.488 72.0573 104.647 71.8381 104.539 71.4563C104.401 71.085 104.219 71.0353 104.159 70.9905C103.965 70.9047 104.021 70.938 104.018 70.9274C104.052 70.931 104.782 70.7908 105.371 70.8468C105.467 70.8561 105.292 70.9416 105.608 70.9228C107.099 70.8266 108.669 70.516 110.193 70.2572C110.268 70.2444 110.329 70.2364 110.378 70.2319C110.683 70.2043 110.563 70.3198 111.054 70.2432C111.624 70.1559 112.758 69.9293 113.323 69.7289C113.887 69.5288 113.215 69.5206 114.067 69.2751C115.144 68.9566 116.199 68.605 117.193 68.1693C119.652 67.0442 122.473 65.9674 124.167 64.3784C124.218 64.3202 124.243 64.2824 124.257 64.2573C124.361 64.0796 124.24 64.1966 124.589 63.6596C124.921 63.1618 125.16 62.5068 125.037 62.3291C124.701 61.4346 123.923 60.6146 122.938 60.0842C121.225 59.1258 119.44 58.5002 118.204 58.0936C116.147 57.4461 118.8 58.0355 117.207 57.5898C116.685 57.4498 116.107 57.422 115.729 57.4123C115.546 57.4074 115.407 57.4051 115.345 57.3954C113.462 57.1077 112.17 56.8085 110.466 56.5989C110.115 56.5567 110.447 56.6884 110.147 56.6519C109.127 56.5289 108.056 56.3634 107.078 56.2698C106.639 56.2284 106.714 56.3016 106.311 56.2577C106.221 56.2481 106.132 56.2386 106.044 56.2291C105.187 56.1371 104.406 56.0477 103.553 55.9364C103.468 55.9253 104.054 55.8818 103.337 55.8326C102.176 55.7543 100.734 55.6318 99.3928 55.6675C98.9952 55.6789 98.9766 55.8257 98.1244 55.714C97.9466 55.6917 98.174 55.5111 97.1787 55.664C97.009 55.6873 95.3424 55.9067 94.5176 55.7929C94.3012 55.7619 93.7436 55.6284 93.2652 55.666C93.2003 55.6717 93.4631 55.7438 93.0662 55.7639C92.8488 55.7747 92.635 55.7851 92.4141 55.7956C91.2187 55.8526 89.98 55.9078 88.771 56.0012C88.3876 56.0312 88.963 56.0793 88.3936 56.1217C86.827 56.2383 84.8702 56.3734 83.3381 56.4971C82.7716 56.5426 83.1558 56.4361 83.1141 56.4326C82.4425 56.3764 82.0685 56.5816 81.8506 56.6143C80.4943 56.8174 79.4531 56.8645 78.2013 57.0471C77.8573 57.0975 78.1119 57.1432 78.0442 57.1591C77.3416 57.3208 77.8537 57.111 77.399 57.1563C76.132 57.2827 74.7208 57.4965 73.4498 57.7085C72.9834 57.7865 73.523 57.7924 73.1035 57.8618C72.4659 57.9682 71.8271 58.0766 71.1793 58.188C69.3113 58.5093 67.4193 58.8462 65.6158 59.1587C65.1587 59.2379 65.4317 59.1136 65.3338 59.1164C64.6584 59.134 63.7298 59.4747 63.5128 59.5333C62.5239 59.7999 62.1239 59.8188 61.2415 60.0127C56.9334 60.9593 51.6163 62.1075 47.5462 63.0265C47.2593 63.0911 46.966 63.1571 46.6921 63.2187C45.6515 63.4528 44.6682 63.6738 43.6995 63.8909C43.4588 63.9447 43.2217 63.9978 42.9778 64.0516C42.8601 64.0772 42.7472 64.103 42.5971 64.1329C42.5854 64.1352 42.574 64.1373 42.5608 64.1396C42.5562 64.1404 42.5349 64.1443 42.5074 64.1478C42.492 64.1497 42.4743 64.1521 42.4359 64.1541C42.4089 64.1544 42.4154 64.1577 42.3264 64.1521C42.2763 64.1452 42.2138 64.149 42.0535 64.0815C41.9746 64.0443 41.8559 63.9837 41.7342 63.8276C41.61 63.6771 41.5374 63.4039 41.5728 63.2082C41.655 62.811 41.8084 62.75 41.864 62.6864C41.9305 62.6323 41.9655 62.6141 41.9932 62.5981C42.0938 62.5455 42.0991 62.55 42.1019 62.5475C42.1071 62.5455 42.1117 62.5438 42.1159 62.5423C42.1242 62.5393 42.131 62.5369 42.1371 62.5348C42.1492 62.5307 42.1588 62.5277 42.1679 62.5249C42.1873 62.5188 42.1901 62.5181 42.2011 62.5149C42.2453 62.502 42.2671 62.4963 42.3043 62.486C42.3625 62.4703 42.4229 62.4543 42.4847 62.4379C42.9546 62.3144 43.4152 62.195 43.8785 62.0726C46.3944 61.4078 48.8361 60.7285 51.5211 59.8794C51.8334 59.7803 51.4904 59.7906 51.7591 59.7039C52.7618 59.3807 53.757 59.0537 54.7437 58.7142C57.1678 57.8774 59.5686 56.971 61.9142 55.9124C62.186 55.7888 61.7591 55.8836 62.1902 55.683C62.6256 55.4786 63.1259 55.2435 63.6027 55.0052C64.1858 54.7122 64.7839 54.5163 65.256 54.3682C65.6683 54.2344 65.1772 54.4953 65.5424 54.3708C65.5587 54.3672 65.5907 54.3442 65.507 54.3989C65.4821 54.4186 65.4572 54.429 65.3758 54.5179C65.3375 54.5629 65.2962 54.6132 65.2477 54.7162C65.1881 54.8401 65.1464 55.0455 65.1895 55.2388C65.2752 55.601 65.4913 55.7213 65.5384 55.7582C65.6013 55.7992 65.6418 55.8154 65.6687 55.8262C65.7868 55.862 65.6677 55.8253 65.6109 55.8199C65.4689 55.7979 65.2839 55.7797 65.1128 55.7647C64.7521 55.7338 64.3888 55.7112 64.0146 55.6904C63.5652 55.6657 63.1198 55.646 62.678 55.6308C62.1723 55.6139 62.9253 55.7384 62.2791 55.7102C57.8603 55.5269 53.5202 55.4652 49.0611 55.4543C48.7552 55.4541 48.482 55.2772 47.8328 55.3339C47.7856 55.3864 47.7903 55.4461 47.7708 55.5011C46.664 55.5441 45.5604 55.5981 44.4613 55.6684C39.1712 56.012 33.9056 56.538 28.6202 57.2918C28.3508 57.3306 28.8296 57.3588 28.3093 57.4346C26.4069 57.7135 24.5379 58.0258 22.6584 58.354C21.5573 58.5467 20.4566 58.7443 19.3315 58.951C19.0303 59.0075 19.1454 58.8042 18.266 59.0297C18.1091 59.0676 16.7877 59.4066 16.4557 59.5332C16.4108 59.5506 16.6714 59.5658 16.2457 59.6776C14.2892 60.1915 12.2915 60.8019 10.369 61.5054C9.86254 61.6898 9.36207 61.8753 8.8687 62.0628C8.4839 62.2095 8.85827 61.9665 8.5845 62.0705C7.02446 62.6715 5.37047 63.4212 4.02023 64.2627C3.68598 64.475 3.36507 64.6871 3.05516 64.8998C2.00367 65.6522 2.2905 65.2462 1.67658 65.6004C1.58086 65.6482 1.03493 66.2271 0.955202 66.2164C0.715622 66.1759 0.801632 65.7048 0.518493 65.694C0.487046 65.6944 0.286491 65.932 0.149525 66.1559C0.0807652 66.2642 0.0258674 66.3847 0.00753337 66.4017C-0.011679 66.4233 0.00255633 66.2995 0.0889415 66.096C0.106773 65.9968 0.654584 65.2708 0.785957 65.106C0.873219 64.9803 0.618882 65.1113 0.814691 64.8694C1.01245 64.63 1.30741 64.4583 1.66587 64.1148C2.02738 63.7786 1.79073 63.8204 2.58471 63.2383ZM157.461 63.3318C156.721 63.2555 156.615 63.5556 157.413 63.478C157.451 63.4739 157.499 63.3355 157.461 63.3318ZM203.529 64.303C202.55 64.2663 201.91 64.5174 202.6 64.5566C203.288 64.5948 203.828 64.3134 203.529 64.303ZM213.47 62.7905C212.334 62.9112 212.238 63.3603 213.421 63.0398C213.49 63.0209 213.537 62.7831 213.47 62.7905ZM4.25533 63.6278C4.24665 63.628 3.91678 63.8242 3.7894 63.9114C3.75772 63.9325 3.73761 63.9464 3.73572 63.9485C3.66783 64.0304 3.72462 64.0183 3.82538 63.9662C4.02811 63.8593 4.43489 63.5992 4.25533 63.6278ZM222.951 59.7019C222.604 59.7963 221.692 60.2473 222.124 60.1446C222.47 60.066 223.385 59.5878 222.951 59.7019ZM119.109 66.7173C119.099 66.7148 118.675 66.7979 118.689 66.8209C118.735 66.894 119.314 66.752 119.109 66.7173ZM237.076 50.4479C235.07 51.9179 233.69 52.6473 235.845 50.9624C236.236 50.6619 235.08 51.7112 235.591 51.3456C236.542 50.7086 236.935 49.9327 238.183 49.6238C238.296 49.6138 237.982 49.7193 237.703 49.9365C237.415 50.1468 237.135 50.4091 237.073 50.4509C237.074 50.4499 237.075 50.4489 237.076 50.4479ZM157.032 62.9757C157.018 62.9717 156.422 62.9733 156.408 62.9775C156.087 63.0754 157.286 63.0721 157.032 62.9757ZM112.266 70.7982C112.3 70.8033 113.646 70.4874 113.687 70.4637C114.347 70.1441 111.636 70.7849 112.266 70.7982ZM162.126 71.0473C161.511 71.265 160.745 71.4231 160.22 71.401C160.85 71.2874 161.492 71.1652 162.126 71.0473Z" fill="#3C3C3C" fill-opacity="0.8"/>
</svg>
