<svg width="216" height="82" viewBox="0 0 216 82" fill="none" xmlns="http://www.w3.org/2000/svg">
<path opacity="0.7" d="M206.999 4.41094C206.926 4.4315 206.89 4.47261 206.89 4.53429C206.89 4.58568 206.931 4.66791 207.014 4.78098C207.66 5.59302 208.502 6.35367 209.543 7.06292C210.594 7.77217 211.733 8.38377 212.961 8.89772C213.138 8.96968 213.226 9.04163 213.226 9.11358C213.216 9.1547 213.19 9.19068 213.148 9.22151C213.117 9.24207 213.081 9.26263 213.039 9.28319C213.008 9.29347 212.982 9.30375 212.961 9.31402C212.732 9.41681 212.55 9.571 212.415 9.77658C212.342 9.89993 212.259 9.9616 212.165 9.9616C212.123 9.9616 212.071 9.94618 212.009 9.91534C210.875 9.30888 209.834 8.57907 208.887 7.72592C207.94 6.86248 207.202 5.95279 206.671 4.99684C206.609 4.88377 206.536 4.82724 206.453 4.82724C206.369 4.82724 206.296 4.87349 206.234 4.96601C205.495 5.98363 204.517 6.99611 203.3 8.00345C202.082 9.01079 200.839 9.83311 199.57 10.4704C199.476 10.5115 199.398 10.5372 199.335 10.5475C199.283 10.5475 199.247 10.5321 199.226 10.5012V10.4704C199.226 10.4087 199.299 10.3316 199.445 10.2391C200.236 9.74574 201.047 9.129 201.879 8.38891C202.722 7.63855 203.466 6.87276 204.111 6.09156C204.725 5.32063 205.141 4.58054 205.36 3.87129C205.402 3.71711 205.49 3.64001 205.625 3.64001C205.688 3.64001 205.735 3.64515 205.766 3.65543L206.968 4.02548C207.092 4.06659 207.181 4.12313 207.233 4.19508C207.285 4.25675 207.275 4.30815 207.202 4.34927C207.139 4.39038 207.072 4.41094 206.999 4.41094ZM209.949 11.9043C210.115 11.9043 210.245 11.8375 210.339 11.7039L210.526 11.4418C210.557 11.4007 210.604 11.339 210.667 11.2568C210.729 11.1642 210.781 11.0974 210.823 11.0563C210.875 11.0049 210.922 10.9792 210.963 10.9792C211.036 10.9792 211.218 11.0923 211.509 11.3184C211.801 11.5446 212.019 11.745 212.165 11.9198C212.207 11.9711 212.227 12.0277 212.227 12.0894C212.227 12.1613 212.196 12.223 212.134 12.2744C212.082 12.3155 211.993 12.3361 211.868 12.3361H206.968C206.864 12.3361 206.78 12.3669 206.718 12.4286C206.666 12.48 206.64 12.557 206.64 12.6598V16.6995C206.64 16.8023 206.666 16.8794 206.718 16.9308C206.78 16.9924 206.864 17.0233 206.968 17.0233H210.479C210.646 17.0233 210.776 16.9565 210.869 16.8228L211.072 16.5299C211.104 16.4888 211.156 16.422 211.228 16.3294C211.301 16.2267 211.359 16.1547 211.4 16.1136C211.452 16.0622 211.499 16.0365 211.541 16.0365C211.624 16.0365 211.822 16.165 212.134 16.422C212.446 16.6686 212.67 16.8794 212.805 17.0541C212.846 17.1055 212.867 17.162 212.867 17.2237C212.867 17.3059 212.836 17.3676 212.774 17.4087C212.722 17.4499 212.623 17.4704 212.477 17.4704H202.192C201.557 17.4807 200.87 17.5372 200.131 17.64H200.038C199.892 17.64 199.788 17.5732 199.726 17.4396L199.663 17.3162C199.632 17.2546 199.616 17.1929 199.616 17.1312C199.616 17.0695 199.642 17.0181 199.694 16.977C199.746 16.9462 199.819 16.9359 199.913 16.9462C200.267 16.977 200.803 17.0027 201.521 17.0233H205.298C205.402 17.0233 205.48 16.9924 205.532 16.9308C205.594 16.8794 205.625 16.8023 205.625 16.6995V12.6598C205.625 12.557 205.594 12.48 205.532 12.4286C205.48 12.3669 205.402 12.3361 205.298 12.3361H202.91C202.275 12.3463 201.588 12.4029 200.849 12.5057H200.756C200.61 12.5057 200.506 12.4388 200.444 12.3052L200.381 12.1973C200.35 12.1356 200.334 12.0739 200.334 12.0123C200.334 11.9506 200.36 11.9043 200.412 11.8735C200.464 11.8324 200.537 11.817 200.631 11.8272C200.985 11.8581 201.521 11.8838 202.238 11.9043H205.298C205.402 11.9043 205.48 11.8786 205.532 11.8272C205.594 11.7656 205.625 11.6833 205.625 11.5805V9.76116C205.625 9.65837 205.594 9.58128 205.532 9.52988C205.48 9.46821 205.402 9.43737 205.298 9.43737H204.58C204.091 9.44765 203.56 9.50418 202.988 9.60697H202.894C202.748 9.60697 202.644 9.54016 202.582 9.40653L202.519 9.28319C202.488 9.22151 202.473 9.15984 202.473 9.09816C202.473 9.03649 202.499 8.99024 202.551 8.9594C202.603 8.91828 202.675 8.90286 202.769 8.91314C203.123 8.94398 203.659 8.96968 204.377 8.99024H207.607C207.774 8.99024 207.904 8.92342 207.998 8.78979L208.154 8.58935C208.195 8.53796 208.237 8.48143 208.279 8.41975C208.331 8.35808 208.383 8.30154 208.435 8.25015C208.487 8.19875 208.534 8.17305 208.575 8.17305C208.658 8.17305 208.83 8.27584 209.09 8.48142C209.361 8.687 209.558 8.86689 209.683 9.02107C209.735 9.09303 209.761 9.14956 209.761 9.19068C209.761 9.25235 209.735 9.30888 209.683 9.36028C209.6 9.41167 209.501 9.43737 209.387 9.43737H206.968C206.864 9.43737 206.78 9.46821 206.718 9.52988C206.666 9.58128 206.64 9.65837 206.64 9.76116V11.5805C206.64 11.6833 206.666 11.7656 206.718 11.8272C206.78 11.8786 206.864 11.9043 206.968 11.9043H209.949ZM209.059 13.107C209.09 12.9528 209.173 12.8757 209.309 12.8757C209.361 12.8757 209.418 12.8911 209.48 12.922L209.855 13.107C210.001 13.1789 210.126 13.2303 210.23 13.2612C210.511 13.3639 210.651 13.4513 210.651 13.5233C210.651 13.5849 210.594 13.6312 210.479 13.662L210.417 13.6775C210.271 13.7186 210.157 13.8059 210.073 13.9396C209.418 14.9161 208.783 15.7127 208.169 16.3294C208.034 16.4836 207.925 16.5299 207.842 16.4682C207.81 16.4374 207.795 16.4014 207.795 16.3603C207.795 16.3089 207.821 16.2318 207.873 16.129L208.029 15.8361C208.237 15.4454 208.435 14.9983 208.622 14.4946C208.809 13.9807 208.955 13.5181 209.059 13.107ZM202.114 13.3537C201.999 13.1584 201.973 13.0453 202.036 13.0145C202.046 13.0042 202.067 12.999 202.098 12.999C202.16 12.999 202.244 13.035 202.348 13.107C202.972 13.5181 203.425 13.9499 203.706 14.4021C203.997 14.8441 204.143 15.2501 204.143 15.6202C204.143 15.8463 204.091 16.0314 203.987 16.1753C203.882 16.3192 203.752 16.3911 203.596 16.3911C203.503 16.3911 203.414 16.3654 203.331 16.314C203.217 16.2524 203.149 16.1341 203.128 15.9594C203.086 15.5585 202.972 15.1319 202.785 14.6797C202.597 14.2171 202.374 13.7751 202.114 13.3537Z" fill="black"/>
<path opacity="0.7" d="M183.94 9.39659C184.105 9.39659 184.235 9.32496 184.328 9.18168L184.468 8.98212C184.5 8.93095 184.541 8.86955 184.593 8.79791C184.655 8.71604 184.702 8.65463 184.733 8.6137C184.774 8.57276 184.816 8.55229 184.857 8.55229C184.94 8.55229 185.111 8.65975 185.371 8.87466C185.63 9.07934 185.817 9.26355 185.931 9.42729C185.983 9.49893 186.008 9.55522 186.008 9.59615C186.008 9.65756 185.983 9.71385 185.931 9.76501C185.848 9.81618 185.749 9.84177 185.635 9.84177H183.395C183.291 9.84177 183.208 9.87247 183.146 9.93388C183.094 9.98504 183.068 10.0618 183.068 10.1641V10.594C183.068 10.7782 183.162 10.901 183.348 10.9624C184.147 11.2182 184.733 11.5406 185.106 11.9295C185.48 12.3081 185.666 12.6714 185.666 13.0194C185.666 13.1831 185.625 13.3162 185.542 13.4185C185.459 13.5209 185.35 13.572 185.215 13.572C185.143 13.572 185.085 13.5618 185.044 13.5413C184.971 13.5209 184.914 13.4902 184.873 13.4492C184.831 13.3981 184.795 13.3264 184.764 13.2343C184.66 12.958 184.489 12.6663 184.251 12.3593C184.023 12.0421 183.763 11.7504 183.473 11.4843C183.4 11.4127 183.333 11.3769 183.271 11.3769C183.136 11.3769 183.068 11.4741 183.068 11.6685V13.572C183.089 14.6773 183.125 15.8081 183.177 16.9646V17.0567C183.177 17.1693 183.136 17.2665 183.053 17.3483C182.97 17.4302 182.861 17.4967 182.726 17.5479C182.591 17.6093 182.457 17.64 182.322 17.64C182.239 17.64 182.161 17.6093 182.088 17.5479C182.026 17.4865 181.995 17.4149 181.995 17.333C182.037 16.7701 182.068 16.2175 182.088 15.6751C182.12 15.1225 182.14 14.4266 182.151 13.5874V12.344C182.151 12.1598 182.099 12.0676 181.995 12.0676C181.923 12.0676 181.85 12.1342 181.777 12.2672C181.197 13.3111 180.471 14.2372 179.6 15.0457C179.527 15.1174 179.46 15.1634 179.397 15.1839C179.335 15.2043 179.294 15.1992 179.273 15.1685C179.252 15.1481 179.242 15.1225 179.242 15.0918C179.242 15.0304 179.283 14.9434 179.366 14.8308C180.32 13.5618 181.062 12.0216 181.591 10.2102C181.601 10.1795 181.606 10.1386 181.606 10.0874C181.606 9.92364 181.508 9.84177 181.311 9.84177H180.875C180.502 9.852 180.128 9.89805 179.755 9.97993C179.724 9.99016 179.683 9.99528 179.631 9.99528C179.506 9.99528 179.408 9.92876 179.335 9.79572L179.273 9.68826C179.242 9.62686 179.226 9.57057 179.226 9.5194C179.226 9.36589 179.33 9.29937 179.537 9.31984C179.89 9.35054 180.424 9.37613 181.14 9.39659H181.824C181.928 9.39659 182.005 9.37101 182.057 9.31984C182.12 9.25844 182.151 9.17656 182.151 9.07422V6.69484C182.151 5.67145 182.104 4.76063 182.011 3.96238V3.90098C182.011 3.73724 182.083 3.65537 182.228 3.65537C182.249 3.65537 182.301 3.6656 182.384 3.68607C182.788 3.80887 183.068 3.91121 183.224 3.99308C183.39 4.07496 183.473 4.14659 183.473 4.208C183.473 4.2694 183.426 4.32569 183.333 4.37686L183.286 4.40756C183.141 4.49966 183.068 4.62759 183.068 4.79133V9.07422C183.068 9.17656 183.094 9.25844 183.146 9.31984C183.208 9.37101 183.291 9.39659 183.395 9.39659H183.94ZM191.157 12.5742C191.303 12.5742 191.411 12.4821 191.484 12.2979L191.608 11.9755C191.629 11.9244 191.66 11.8476 191.702 11.7453C191.754 11.6327 191.795 11.5508 191.826 11.4997C191.868 11.4383 191.909 11.4076 191.951 11.4076C192.013 11.4076 192.148 11.469 192.355 11.5918C192.573 11.7146 192.77 11.8476 192.946 11.9909C193.133 12.1342 193.226 12.2416 193.226 12.3133C193.226 12.3951 193.195 12.4668 193.133 12.5282C193.081 12.5896 193.008 12.6305 192.915 12.651L191.266 13.0194C191.08 13.0603 190.986 13.178 190.986 13.3725V14.4777C191.017 15.583 191.048 16.4068 191.08 16.9492V17.0413C191.08 17.1539 191.038 17.2511 190.955 17.333C190.872 17.4149 190.758 17.4865 190.613 17.5479C190.478 17.6093 190.348 17.64 190.224 17.64C190.131 17.64 190.053 17.6093 189.991 17.5479C189.928 17.4865 189.897 17.4149 189.897 17.333C189.96 16.4733 190.001 15.6137 190.022 14.754V13.6641C190.022 13.5516 189.985 13.4697 189.913 13.4185C189.851 13.3674 189.768 13.352 189.664 13.3725L185.993 14.1861C185.962 14.1963 185.92 14.2014 185.868 14.2014C185.744 14.2014 185.656 14.1502 185.604 14.0479L185.588 13.9865C185.588 13.9353 185.614 13.8893 185.666 13.8483C185.718 13.8074 185.785 13.7818 185.868 13.7716L189.742 12.8966C189.928 12.8454 190.022 12.7277 190.022 12.5435V6.69484C190.022 5.67145 189.975 4.76063 189.882 3.96238V3.90098C189.882 3.727 189.96 3.64001 190.115 3.64001C190.146 3.64001 190.193 3.65025 190.255 3.67072C191.002 3.91633 191.375 4.10054 191.375 4.22335C191.375 4.27452 191.334 4.32569 191.251 4.37686L191.204 4.40756C191.059 4.49966 190.986 4.62759 190.986 4.79133V12.2519C190.986 12.4668 191.043 12.5742 191.157 12.5742ZM184.313 5.083C184.334 4.89879 184.411 4.80668 184.546 4.80668C184.608 4.80668 184.66 4.81691 184.702 4.83738L185.06 4.99089C185.163 5.04206 185.293 5.083 185.448 5.1137C185.728 5.2058 185.868 5.28768 185.868 5.35931C185.868 5.41048 185.817 5.46165 185.713 5.51282L185.666 5.52817C185.531 5.58958 185.428 5.6868 185.355 5.81984C184.868 6.77159 184.427 7.53914 184.033 8.12247C183.919 8.29645 183.82 8.35785 183.737 8.30668C183.665 8.26575 183.644 8.18387 183.675 8.06107L183.737 7.86151C183.862 7.44192 183.976 6.97627 184.08 6.46458C184.194 5.95288 184.271 5.49235 184.313 5.083ZM179.568 5.26721C179.527 5.1751 179.501 5.09835 179.491 5.03695C179.48 4.97554 179.485 4.93972 179.506 4.92949L179.553 4.91414C179.605 4.91414 179.688 4.96019 179.802 5.0523C180.3 5.45142 180.663 5.85566 180.891 6.26501C181.119 6.67437 181.233 7.04791 181.233 7.38563C181.233 7.62101 181.181 7.81034 181.077 7.95361C180.984 8.08665 180.865 8.15317 180.72 8.15317C180.647 8.15317 180.574 8.1327 180.502 8.09177C180.388 8.03036 180.32 7.90756 180.3 7.72335C180.248 6.99674 180.004 6.17803 179.568 5.26721ZM186.755 5.40537C186.579 5.26209 186.517 5.16487 186.568 5.1137C186.589 5.09323 186.625 5.083 186.677 5.083C186.729 5.083 186.802 5.09835 186.895 5.12905C187.663 5.3542 188.228 5.64586 188.591 6.00405C188.964 6.36224 189.151 6.71019 189.151 7.04791C189.151 7.21165 189.109 7.34469 189.026 7.44703C188.943 7.53914 188.834 7.58519 188.7 7.58519C188.627 7.58519 188.57 7.57496 188.528 7.55449C188.404 7.51355 188.316 7.42145 188.264 7.27817C188.14 6.98139 187.937 6.66414 187.657 6.32642C187.377 5.9887 187.077 5.68168 186.755 5.40537ZM186.397 8.98212C186.221 8.83885 186.154 8.74674 186.195 8.7058C186.226 8.6751 186.268 8.65975 186.32 8.65975L186.522 8.69045C187.341 8.8849 187.943 9.16121 188.326 9.5194C188.71 9.86735 188.902 10.2102 188.902 10.5479C188.902 10.7117 188.86 10.8447 188.777 10.947C188.694 11.0391 188.585 11.0852 188.451 11.0852C188.388 11.0852 188.337 11.0801 188.295 11.0698C188.181 11.0391 188.088 10.9521 188.015 10.8089C187.87 10.5019 187.647 10.1846 187.346 9.85712C187.056 9.52963 186.74 9.23797 186.397 8.98212Z" fill="black"/>
<path opacity="0.8" d="M161.226 9.14001C161.226 9.47335 161.139 9.64001 160.964 9.64001H148.488C148.314 9.64001 148.226 9.47335 148.226 9.14001C148.226 8.80668 148.314 8.64001 148.488 8.64001H160.964C161.139 8.64001 161.226 8.80668 161.226 9.14001Z" fill="black"/>
<path opacity="0.8" d="M122.43 17.952C121.662 17.952 120.646 17.76 119.382 17.376C118.134 16.976 116.95 16.144 115.83 14.88C114.71 13.6 114.15 11.76 114.15 9.36C114.15 8 114.454 6.592 115.062 5.136C115.686 3.68 116.582 2.464 117.75 1.488C118.934 0.496 120.318 0 121.902 0C122.51 0 123.046 0.0639992 123.51 0.191998C123.99 0.319999 124.542 0.527999 125.166 0.815999C125.454 0.943999 125.702 1.008 125.91 1.008C126.166 1.008 126.438 0.912 126.726 0.719999C126.854 0.639999 126.958 0.599999 127.038 0.599999C127.214 0.599999 127.326 0.712 127.374 0.936L128.19 4.272L128.238 4.536C128.238 4.584 128.222 4.624 128.19 4.656C128.158 4.672 128.118 4.696 128.07 4.728C128.022 4.76 127.966 4.776 127.902 4.776C127.774 4.776 127.678 4.72 127.614 4.608C127.07 3.824 126.574 3.184 126.126 2.688C125.678 2.192 125.102 1.768 124.398 1.416C123.694 1.048 122.862 0.863999 121.902 0.863999C120.382 0.863999 119.206 1.432 118.374 2.568C117.542 3.704 116.982 4.928 116.694 6.24C116.422 7.536 116.286 8.576 116.286 9.36C116.286 11.536 116.71 13.2 117.558 14.352C118.406 15.488 119.302 16.232 120.246 16.584C121.19 16.92 121.958 17.088 122.55 17.088C123.606 17.088 124.414 16.848 124.974 16.368C125.55 15.888 125.926 15.32 126.102 14.664C126.278 14.008 126.366 13.456 126.366 13.008C126.366 12.88 126.35 12.672 126.318 12.384C126.286 12.128 126.214 11.904 126.102 11.712C126.006 11.52 125.782 11.352 125.43 11.208C125.094 11.064 124.598 10.992 123.942 10.992C123.862 10.992 123.806 10.968 123.774 10.92C123.758 10.856 123.75 10.768 123.75 10.656C123.75 10.432 123.814 10.32 123.942 10.32H130.23C130.358 10.32 130.422 10.432 130.422 10.656C130.422 10.88 130.358 10.992 130.23 10.992C129.67 10.992 129.198 11.12 128.814 11.376C128.43 11.632 128.206 11.992 128.142 12.456C128.11 12.68 128.094 13.056 128.094 13.584C128.094 14.528 128.11 15.448 128.142 16.344V16.464C128.142 16.72 128.086 16.848 127.974 16.848H127.758C127.374 16.848 127.006 16.896 126.654 16.992C126.302 17.072 125.83 17.2 125.238 17.376C124.646 17.568 124.142 17.712 123.726 17.808C123.326 17.904 122.894 17.952 122.43 17.952Z" fill="black"/>
<path opacity="0.8" d="M90.4337 17.64C90.3377 17.64 90.2897 17.52 90.2897 17.28C90.2897 17.072 90.3377 16.968 90.4337 16.968H90.8177C91.3297 16.968 91.7937 16.784 92.2097 16.416C92.6417 16.048 92.8577 15.592 92.8577 15.048V2.376C92.8577 1.832 92.6977 1.448 92.3777 1.224C92.0577 1 91.5377 0.888002 90.8177 0.888002H90.4337C90.3217 0.888002 90.2657 0.776003 90.2657 0.552003C90.2657 0.328003 90.3217 0.216003 90.4337 0.216003H94.2977C94.5537 0.216003 94.7537 0.320003 94.8977 0.528002L103.682 12.936C103.794 13.096 103.906 13.176 104.018 13.176C104.21 13.176 104.306 13.032 104.306 12.744V2.808C104.306 2.456 104.194 2.136 103.97 1.848C103.762 1.544 103.49 1.312 103.154 1.152C102.834 0.976003 102.522 0.888002 102.218 0.888002H101.858C101.778 0.888002 101.722 0.864002 101.69 0.816002C101.674 0.752002 101.666 0.664002 101.666 0.552003C101.666 0.328003 101.73 0.216003 101.858 0.216003H107.666C107.746 0.216003 107.794 0.248003 107.81 0.312002C107.842 0.360003 107.858 0.440002 107.858 0.552003C107.858 0.776003 107.794 0.888002 107.666 0.888002H107.282C106.77 0.888002 106.298 1.08 105.866 1.464C105.45 1.832 105.242 2.28 105.242 2.808V17.136C105.242 17.296 105.21 17.424 105.146 17.52C105.098 17.6 105.034 17.64 104.954 17.64C104.762 17.64 104.594 17.536 104.45 17.328L94.4417 3.048C94.3297 2.888 94.2177 2.808 94.1057 2.808C93.9137 2.808 93.8177 2.952 93.8177 3.24V15.048C93.8177 15.592 94.0417 16.048 94.4897 16.416C94.9377 16.784 95.4097 16.968 95.9057 16.968H96.2897C96.4017 16.968 96.4577 17.072 96.4577 17.28C96.4577 17.52 96.4017 17.64 96.2897 17.64H90.4337Z" fill="black"/>
<path opacity="0.8" d="M76.9648 17.64C76.8528 17.64 76.7968 17.528 76.7968 17.304C76.7968 17.08 76.8528 16.968 76.9648 16.968H77.3488C78.0688 16.968 78.5888 16.856 78.9088 16.632C79.2448 16.392 79.4128 16.008 79.4128 15.48V2.4C79.4128 1.84 79.2448 1.448 78.9088 1.224C78.5728 1 78.0528 0.888002 77.3488 0.888002H76.9648C76.8528 0.888002 76.7968 0.776003 76.7968 0.552003C76.7968 0.328003 76.8528 0.216003 76.9648 0.216003H83.7568C83.8368 0.216003 83.8848 0.248003 83.9008 0.312002C83.9328 0.360003 83.9488 0.440002 83.9488 0.552003C83.9488 0.776003 83.8848 0.888002 83.7568 0.888002H83.3968C82.6448 0.888002 82.1088 1 81.7888 1.224C81.4848 1.448 81.3328 1.84 81.3328 2.4V15.48C81.3328 16.04 81.4928 16.432 81.8128 16.656C82.1328 16.864 82.6608 16.968 83.3968 16.968H83.7568C83.8368 16.968 83.8848 17 83.9008 17.064C83.9328 17.112 83.9488 17.192 83.9488 17.304C83.9488 17.528 83.8848 17.64 83.7568 17.64H76.9648Z" fill="black"/>
<path opacity="0.8" d="M63.9852 17.976C62.8172 17.976 61.6012 17.664 60.3372 17.04C59.0732 16.4 58.0092 15.432 57.1452 14.136C56.2812 12.84 55.8492 11.256 55.8492 9.384C55.8492 7.56 56.2332 5.936 57.0012 4.512C57.7692 3.088 58.7532 1.984 59.9532 1.2C61.1532 0.4 62.3772 0 63.6252 0C64.1532 0 64.6252 0.0559998 65.0412 0.167999C65.4572 0.28 65.9372 0.432 66.4812 0.624C66.6892 0.704 66.8892 0.775999 67.0812 0.839999C67.2892 0.903999 67.4572 0.936 67.5852 0.936C67.9052 0.936 68.2332 0.839999 68.5692 0.648C68.6972 0.567999 68.8012 0.527999 68.8812 0.527999C69.0092 0.527999 69.0972 0.623999 69.1452 0.815999L69.9612 4.176L70.0092 4.44V4.488C69.9932 4.6 69.9452 4.672 69.8652 4.704C69.7852 4.736 69.7452 4.752 69.7452 4.752H69.6732C69.5772 4.752 69.4812 4.696 69.3852 4.584C69.3052 4.472 69.0492 4.072 68.6172 3.384C68.1852 2.696 67.5452 2.112 66.6972 1.632C65.8652 1.152 64.8972 0.912 63.7932 0.912C62.1932 0.912 60.9612 1.432 60.0972 2.472C59.2492 3.496 58.6892 4.608 58.4172 5.808C58.1612 7.008 58.0332 8.024 58.0332 8.856C58.0332 10.664 58.3532 12.168 58.9932 13.368C59.6492 14.568 60.4572 15.448 61.4172 16.008C62.3932 16.552 63.3692 16.824 64.3452 16.824C65.5452 16.824 66.5692 16.504 67.4172 15.864C68.2652 15.208 69.0732 14.312 69.8412 13.176C69.9212 13.08 69.9932 13.032 70.0572 13.032C70.1212 13.032 70.2012 13.072 70.2972 13.152C70.4092 13.248 70.4652 13.336 70.4652 13.416C70.4652 13.448 70.4492 13.496 70.4172 13.56C68.8012 16.504 66.6572 17.976 63.9852 17.976Z" fill="black"/>
<path opacity="0.8" d="M42.3083 17.64C42.1963 17.64 42.1403 17.528 42.1403 17.304C42.1403 17.08 42.1963 16.968 42.3083 16.968H42.6923C43.4123 16.968 43.9323 16.856 44.2523 16.632C44.5883 16.392 44.7563 16.008 44.7563 15.48V2.4C44.7563 1.84 44.5883 1.448 44.2523 1.224C43.9163 1 43.3963 0.888002 42.6923 0.888002H42.3083C42.1963 0.888002 42.1403 0.776003 42.1403 0.552003C42.1403 0.328003 42.1963 0.216003 42.3083 0.216003H49.1003C49.1803 0.216003 49.2283 0.248003 49.2443 0.312002C49.2763 0.360003 49.2923 0.440002 49.2923 0.552003C49.2923 0.776003 49.2283 0.888002 49.1003 0.888002H48.7403C47.9883 0.888002 47.4523 1 47.1323 1.224C46.8283 1.448 46.6763 1.84 46.6763 2.4V15.48C46.6763 16.04 46.8363 16.432 47.1563 16.656C47.4763 16.864 48.0043 16.968 48.7403 16.968H49.1003C49.1803 16.968 49.2283 17 49.2443 17.064C49.2763 17.112 49.2923 17.192 49.2923 17.304C49.2923 17.528 49.2283 17.64 49.1003 17.64H42.3083Z" fill="black"/>
<path opacity="0.8" d="M36.3848 16.968C36.4968 16.968 36.5528 17.072 36.5528 17.28C36.5528 17.52 36.4968 17.64 36.3848 17.64H32.6408C32.3688 17.64 32.1688 17.528 32.0408 17.304C31.4488 16.248 30.6888 14.936 29.7608 13.368C28.8328 11.784 28.0568 10.52 27.4328 9.57602C27.3208 9.36802 27.1368 9.26402 26.8808 9.26402L26.2088 9.28802H25.1528C24.9928 9.28802 24.8648 9.33602 24.7688 9.43202C24.6888 9.51202 24.6488 9.63202 24.6488 9.79202V15.456C24.6488 16.016 24.8168 16.408 25.1528 16.632C25.5048 16.856 26.0248 16.968 26.7128 16.968H27.0968C27.2088 16.968 27.2648 17.072 27.2648 17.28C27.2648 17.52 27.2088 17.64 27.0968 17.64H20.2808C20.1688 17.64 20.1128 17.528 20.1128 17.304C20.1128 17.08 20.1688 16.968 20.2808 16.968H20.6648C21.3848 16.968 21.9048 16.856 22.2248 16.632C22.5608 16.408 22.7288 16.016 22.7288 15.456V2.40002C22.7288 1.84002 22.5528 1.44802 22.2008 1.22402C21.8488 1.00002 21.3288 0.888018 20.6408 0.888018H20.2568C20.1448 0.888018 20.0888 0.776018 20.0888 0.552018V0.432018C20.1048 0.336018 20.1448 0.280017 20.2088 0.264017C20.2888 0.232018 20.4008 0.216019 20.5448 0.216019L25.7768 0.192017H27.9608C28.9848 0.208017 29.9288 0.400019 30.7928 0.768019C31.6728 1.12002 32.3768 1.64002 32.9048 2.32802C33.4328 3.00002 33.6968 3.78402 33.6968 4.68002C33.6968 5.65602 33.3368 6.48802 32.6168 7.17602C31.9128 7.84802 30.9848 8.36802 29.8328 8.73602C29.6088 8.81602 29.4968 8.93602 29.4968 9.09602C29.4968 9.17602 29.5368 9.27202 29.6168 9.38402C30.2248 10.28 30.9928 11.488 31.9208 13.008L33.6248 15.696C33.8968 16.08 34.2408 16.392 34.6568 16.632C35.0888 16.856 35.6648 16.968 36.3848 16.968ZM24.6488 8.11202C24.6488 8.27202 24.6888 8.40002 24.7688 8.49602C24.8648 8.57602 24.9928 8.61602 25.1528 8.61602H25.3688C27.6568 8.61602 29.2488 8.23202 30.1448 7.46402C31.0408 6.69602 31.4888 5.72802 31.4888 4.56002C31.4888 3.24802 31.0168 2.31202 30.0728 1.75202C29.1448 1.19202 28.0088 0.912018 26.6648 0.912018C26.0568 0.912018 25.5688 1.00802 25.2008 1.20002C24.8328 1.37602 24.6488 1.77602 24.6488 2.40002V8.11202Z" fill="black"/>
<path opacity="0.8" d="M8.34623 0.216003C9.35423 0.232003 10.2902 0.432002 11.1542 0.816002C12.0342 1.184 12.7382 1.712 13.2662 2.4C13.8102 3.088 14.0822 3.896 14.0822 4.824C14.0822 6.552 13.4902 7.752 12.3062 8.424C11.1382 9.08 9.64223 9.472 7.81823 9.6C7.61023 9.616 7.15423 9.624 6.45023 9.624H5.58623C5.42623 9.624 5.29823 9.672 5.20223 9.768C5.12223 9.848 5.08223 9.968 5.08223 10.128V15.456C5.08223 16.016 5.24223 16.408 5.56223 16.632C5.88223 16.856 6.41023 16.968 7.14623 16.968H7.53023C7.64223 16.968 7.69823 17.072 7.69823 17.28C7.69823 17.52 7.64223 17.64 7.53023 17.64H0.714226C0.602226 17.64 0.546227 17.528 0.546227 17.304C0.546227 17.08 0.602226 16.968 0.714226 16.968H1.09823C1.78623 16.968 2.29823 16.856 2.63423 16.632C2.98623 16.408 3.16223 16.016 3.16223 15.456V2.4C3.16223 1.856 2.99423 1.472 2.65823 1.248C2.32223 1.008 1.80223 0.888002 1.09823 0.888002H0.714226C0.602226 0.888002 0.546227 0.776003 0.546227 0.552003C0.546227 0.328003 0.602226 0.216003 0.714226 0.216003H8.34623ZM6.95423 8.928C8.74623 8.912 10.0102 8.528 10.7462 7.776C11.4822 7.024 11.8502 6.008 11.8502 4.728C11.8502 3.096 11.3142 2.048 10.2422 1.584C9.18623 1.12 8.12223 0.888002 7.05023 0.888002C5.73823 0.888002 5.08223 1.392 5.08223 2.4V8.424C5.08223 8.584 5.12223 8.712 5.20223 8.808C5.29823 8.888 5.42623 8.928 5.58623 8.928H6.95423Z" fill="black"/>
<path d="M1.90494 64.8427C3.13525 64.2932 4.76589 63.6757 6.02991 63.2382C6.42236 63.1022 6.2436 63.2265 6.51663 63.1349C7.05325 62.9553 7.53437 62.75 8.06462 62.5833C8.24174 62.5279 8.05333 62.6856 8.23863 62.6258C9.24562 62.3005 10.1815 61.9492 11.2011 61.6207C15.6324 60.1963 20.0361 58.9275 24.5869 57.8293C25.2072 57.6798 25.7918 57.5397 26.415 57.3909C28.1213 56.9833 30.2109 56.5544 31.9629 56.1052C32.1692 56.0522 32.0287 56.0098 32.0668 55.9945C32.6638 55.7578 32.4922 55.9512 32.8964 55.8764C34.5042 55.5782 36.2821 55.1772 37.8122 54.8072C38.4631 54.6498 37.7762 54.6524 38.4516 54.5868C38.4987 54.5821 38.3491 54.6954 38.5308 54.6637C38.9429 54.5916 39.7105 54.4094 40.028 54.3471C40.6382 54.2276 40.7392 54.2051 41.3149 54.083C42.1016 53.9169 43.0466 53.758 43.8876 53.5661C44.0671 53.5249 43.812 53.4957 44.0971 53.4229C44.3843 53.3496 45.1445 53.201 45.4075 53.167C45.6696 53.1331 45.5723 53.2172 45.6206 53.2222C46.0147 53.2665 46.8694 52.9225 46.9789 52.8965C49.0343 52.4133 50.8326 52.1627 52.7746 51.7904C54.2505 51.5074 55.8291 51.1765 57.2349 50.9164C58.7984 50.6276 60.1442 50.4148 61.6528 50.1319C61.7568 50.1124 61.8616 50.0927 61.9674 50.0726C62.1393 50.0402 61.9205 49.9846 62.1305 49.9448C64.3642 49.5227 66.5934 49.1626 68.8388 48.8847C69.0638 48.857 68.7875 48.9828 69.013 48.96C70.3955 48.8167 72.5868 48.6739 73.3561 48.2081C74.2888 48.0961 75.4216 47.9643 76.2655 47.9324C76.8081 47.9121 76.2972 48.0662 76.9524 47.9467C77.1009 47.9198 76.8969 47.8652 77.1202 47.8309C78.058 47.6872 79.0897 47.5919 80.0156 47.4462C80.2049 47.4163 80.1449 47.3518 80.1974 47.3331C80.639 47.1793 81.4047 47.267 81.5727 47.2614C82.8299 47.2184 83.7321 47.0885 84.9015 46.9743C85.1707 46.9482 84.8433 46.885 85.1018 46.8566C86.4522 46.7094 87.8391 46.5882 89.1691 46.5129C89.4611 46.4967 89.2005 46.6011 89.3403 46.5975C89.9646 46.5804 90.092 46.4158 90.6817 46.3987C90.8082 46.3948 90.7432 46.4699 90.7669 46.4755C91.1386 46.564 91.4338 46.3695 91.525 46.3582C92.6826 46.2111 93.4435 46.3281 94.5612 46.2173C94.6965 46.2038 94.3846 46.1396 94.7646 46.1071C97.276 45.8914 99.941 45.7359 102.444 45.6474C102.828 45.6337 102.559 45.717 102.584 45.7235C102.661 45.7431 102.731 45.7521 102.795 45.7538C103.079 45.7595 103.259 45.6366 103.361 45.6253C104.359 45.519 105.29 45.6167 105.968 45.3862C110.138 45.3396 114.384 45.009 118.454 46.2665C118.507 46.2856 118.559 46.3057 118.612 46.3277C118.664 46.3498 118.541 46.3921 118.643 46.4358C119.251 46.7183 119.447 46.9094 119.644 47.0081C119.833 47.1184 120.006 47.1733 120.352 47.4783C120.536 47.6338 120.741 48.3074 120.753 48.3633C120.817 48.5726 120.597 48.4472 120.625 48.5133C120.784 48.8941 120.981 48.8675 121.22 49.0629C121.321 49.1483 121.427 49.272 121.53 49.4889C121.54 49.5121 121.426 49.4484 121.449 49.5131C121.517 49.7131 121.628 49.8914 121.68 50.0918C121.793 50.5553 121.664 50.7622 121.954 51.4129C121.987 51.4978 122.198 51.3018 122.327 52.0144C122.393 52.2965 122.524 53.5599 122.502 53.9139C122.495 54.2672 122.414 54.0261 122.412 54.0515C122.317 54.9943 122.27 54.6358 122.11 55.0972C121.942 55.5534 122.297 55.4439 122.324 55.6373C122.353 55.8323 122.214 56.5095 122.168 56.6727C122.124 56.8375 122.096 56.6242 122.066 56.7713C121.862 57.7431 122.195 57.2206 122.217 57.5503C122.269 58.3266 121.947 58.89 121.885 59.5875C121.868 59.7764 121.935 59.6252 121.933 59.7927C121.932 59.929 121.929 60.0562 121.926 60.1747C121.915 60.6305 121.89 61.0113 122.043 61.5863C122.071 61.7097 122.344 62.2503 122.365 62.6459C122.368 62.7033 122.253 62.5759 122.334 62.8447C122.449 63.2484 122.776 63.9384 123.041 64.3078C123.234 64.5813 123.115 64.2035 123.318 64.5699C123.41 64.7319 123.163 64.4827 123.344 64.7838C123.521 65.0898 124.091 65.7853 124.327 66.0336C124.56 66.2861 124.493 66.0915 124.515 66.1088C124.649 66.2125 125.131 66.6509 125.175 66.6912C125.246 66.762 125.319 66.8331 125.393 66.9046C126.862 68.307 128.988 68.5452 130.959 68.8721C131.627 68.9511 132.301 68.9853 132.989 68.9597C133.212 68.9515 133.062 68.8693 133.095 68.8672C133.855 68.8049 133.261 69.0558 133.803 69.105C133.716 68.9356 134.033 68.9531 134.569 68.8878C134.822 68.856 134.678 68.8014 134.7 68.7925C135.08 68.6554 135.349 68.757 135.427 68.7754C135.683 68.8467 135.957 68.6952 136.132 68.7395C136.314 68.7821 135.923 68.9315 136.446 68.8616C136.579 68.7813 136.185 68.6707 136.562 68.5933C138.014 68.306 140.769 67.9317 141.941 67.7059C143.118 67.4837 143.488 67.3924 144.172 67.2707C145.405 67.0477 144.939 67.0244 145.684 66.8051C146.432 66.5833 146.128 66.9533 146.251 66.9912C146.373 67.0292 146.483 66.9376 146.622 66.9422C146.761 66.9469 146.487 67.0528 146.798 66.9963C146.988 66.9618 147.373 66.8351 147.674 66.7184C147.852 66.647 148 66.5792 148.037 66.5441C148.243 66.3529 147.809 66.2998 148.673 66.1565C148.724 66.1482 148.579 66.2609 148.772 66.2251C150.23 65.9553 151.734 65.6199 153.219 65.3395C153.415 65.3029 153.26 65.4266 153.374 65.4062C154.584 65.1904 154.127 65.1437 154.767 64.8334C154.671 65.0762 155.046 65.127 155.971 64.9199C156.528 64.7954 156.425 64.7219 156.757 64.5791C156.858 64.5359 157.259 64.5118 157.32 64.4526C157.524 64.2583 157.113 64.1847 158.086 64.0314C158.129 64.0249 158.012 64.1326 158.159 64.1043C159.094 63.9259 159.158 63.7561 160.176 63.5076C160.942 63.3201 162.387 63.0882 163.272 62.9034C163.305 63.1447 164.148 62.8969 164.455 62.656C165.03 62.5327 165.655 62.3811 166.229 62.2746C166.427 62.2378 166.314 62.3355 166.34 62.3373C166.744 62.3676 166.953 62.1533 167.078 62.1184C168.426 61.7484 169.553 61.6181 170.835 61.2016C170.881 61.1866 170.918 61.0054 171.29 61.0466C171.314 61.0498 170.905 61.2219 171.513 61.089C172.119 60.9566 173.305 60.7776 174.126 60.5089C174.326 60.4437 174.814 60.1911 175.257 60.1989C175.316 60.2002 175.266 60.2613 175.353 60.269C175.634 60.2923 175.734 60.0944 176.07 60.1656C176.405 60.2367 177.06 60.197 177.897 59.901C177.924 59.8918 178.096 59.7136 178.364 59.6538C178.792 59.5584 179.407 59.4448 179.856 59.3397C180.071 59.2893 179.914 59.2396 179.951 59.2294C181.381 58.8493 182.429 58.6818 183.976 58.3531C184.26 58.293 185.05 57.9904 185.617 57.9499C186.24 57.9049 185.716 58.4511 187.077 58.0299C187.626 57.86 188.211 57.1855 189.275 57.2111C191.202 56.6851 193.033 56.3901 194.954 55.8282C195.04 55.8031 195.284 55.5945 195.49 55.5466C195.797 55.4758 195.981 55.5014 196.2 55.4529C197.117 55.2517 197.94 54.9916 198.824 54.7849C199.158 54.7064 199.058 54.8034 199.457 54.7098C199.854 54.6164 200.099 54.4609 200.651 54.3711C201.068 54.3036 201.521 54.387 202.065 54.2751C202.04 54.0887 202.412 54.0009 203.063 53.788C203.188 53.747 203.036 53.7178 203.094 53.6952C203.331 53.6017 203.57 53.5977 203.793 53.5045C203.847 53.482 203.834 53.4194 203.878 53.3975C204.245 53.2088 204.924 53.1868 205.043 53.1825C205.494 53.1673 205.672 53.0367 206.007 52.9908C206.341 52.9451 205.867 53.113 206.252 53.0393C207.041 52.8886 208.068 52.6167 208.86 52.4169C209.177 52.3365 208.94 52.3093 208.985 52.2959C209.636 52.1068 210.336 52.0197 210.655 51.7616C211.224 52.0675 211.028 51.6215 212.005 51.4573C212.081 51.4447 212.229 51.6206 211.95 51.7251C211.667 51.8303 211.223 51.8789 210.842 52.0267C210.752 52.0616 210.264 52.3886 210.193 52.419C209.64 52.6567 209.479 52.3776 209.445 52.369C209.053 52.2798 208.456 52.6487 208.286 52.7071C207.511 52.9732 206.823 53.1025 206.178 53.3142C205.753 53.4529 205.76 53.6606 205.417 53.7404C204.273 54.0064 203.825 53.8262 202.811 54.3313C202.596 54.4388 202.871 54.5995 202.015 54.6316C201.961 54.6336 201.317 54.6284 200.989 54.8132C200.948 54.8365 200.964 54.899 200.907 54.9186C200.526 55.0488 200.248 55.064 199.832 55.1915C199.415 55.3193 198.913 55.48 198.421 55.5773C198.125 55.636 197.719 55.6108 197.573 55.6161C197.159 55.6293 196.768 55.8675 196.499 55.8269C196.227 55.7861 196.673 55.5164 196.01 55.6083C196.025 55.7776 196.011 55.9586 196.012 56.1323C194.588 56.4706 193.178 56.7535 191.755 57.1009C191.578 57.1442 191.78 57.1889 191.591 57.2376C190.795 57.4423 190.081 57.5459 189.258 57.7676C188.62 57.9395 187.939 58.1989 187.272 58.381C186.817 58.2908 185.837 58.5885 185.108 58.7414C184.853 58.7951 184.858 58.7411 184.674 58.7671C183.978 58.8664 184.336 58.9571 184.156 59.0269C183.381 59.3255 183.229 58.9658 182.284 59.1961C182.233 59.2082 181.668 59.5506 181.587 59.5825C181.072 59.788 181.482 59.5336 181.145 59.5966C180.531 59.711 180.09 59.763 179.386 59.9879C179.181 60.0537 178.709 60.2944 178.282 60.2915C178.226 60.2912 178.24 60.2183 178.197 60.2243C177.401 60.3404 177.427 60.5528 176.998 60.7259C176.569 60.899 175.853 60.913 175.703 60.9039C175.311 60.8818 175.974 60.7936 175.989 60.7789C176.192 60.6009 175.701 60.7367 175.311 60.8153C175.208 60.6246 174.673 60.7604 174.909 60.8969C174.936 60.9116 175.231 60.8238 175.311 60.8153C175.018 61.0928 174.434 61.2542 173.744 61.2159C173.42 61.1981 173.69 61.0289 172.766 61.2799C172.349 61.3932 172.544 61.4962 172.182 61.6192C171.362 61.8986 170.221 62.0216 169.359 62.2398C169.046 62.3189 169.37 62.3259 169.157 62.3826C168.594 62.5327 168.059 62.5937 167.493 62.7535C167.442 62.7681 167.587 62.8196 167.409 62.8612C166.053 63.179 164.869 63.3935 163.431 63.7173C162.755 63.8696 161.52 64.1955 160.818 64.3445C159.578 64.6087 158.032 64.8343 156.993 65.0983C156.324 65.268 156.475 65.3184 156.194 65.4394C155.641 65.6755 154.615 65.7067 154.46 65.7107C154.454 65.7109 155.055 65.5558 154.723 65.5872C154.516 65.5434 154.467 65.7088 154.46 65.7107C154.353 65.7148 153.209 65.9533 152.953 66.0272C152.825 66.0649 152.915 66.1247 152.848 66.1428C151.306 66.5622 149.704 66.9439 148.102 67.2718C148.074 67.2765 148.096 67.182 148.031 67.1941C147.948 67.2094 147.869 67.225 147.793 67.241C146.986 67.4124 146.457 67.6265 145.778 67.8352C145.016 68.0675 144.406 68.1758 143.92 68.1248C143.346 68.2654 142.492 68.3721 142.01 68.4262C141.522 68.4818 141.484 68.6617 141.443 68.6732C140.14 69.0329 139.368 69.0761 137.971 69.2843C137.312 69.3837 136.008 69.5904 135.281 69.6815C134.708 69.7556 134.362 69.7452 133.828 69.8027C133.754 69.8102 133.833 69.8816 133.811 69.8858C133.217 70.0065 133.492 69.8062 133.369 69.7788C132.914 69.6717 132.645 69.6221 131.872 69.6447C131.698 69.6507 131.17 69.8665 130.851 69.8562L130.823 69.8528C130.817 69.8524 130.81 69.8519 130.804 69.8513C130.394 69.8137 130.562 69.7415 130.131 69.7016C130.095 69.698 130.092 69.7578 129.829 69.7146C128.607 69.5032 127.215 69.2489 125.919 68.5669C125.744 68.4709 125.923 68.6795 125.669 68.5362C125.293 68.3197 124.924 68.047 124.596 67.7286C123.974 67.1266 123.369 66.4619 122.881 65.779C122.708 65.5336 122.875 65.644 122.851 65.5803C122.704 65.1954 122.253 64.8107 122.202 64.7273C121.244 63.2865 120.934 61.7384 120.966 60.1637C120.974 59.6597 121.004 59.149 121.033 58.6136C121.037 58.4939 120.947 57.5712 121.145 57.1957C121.158 57.1702 121.359 56.7951 121.28 56.4431C121.275 56.4213 121.172 56.6539 121.218 56.2354C121.263 55.8166 121.255 55.15 121.353 54.5902C121.384 54.4152 121.55 53.9852 121.388 53.4661C121.382 53.4252 121.021 52.6673 121.163 52.3638C121.185 52.3147 121.415 52.32 121.175 51.7365C121.127 51.6271 121.133 51.8442 121.03 51.5523C120.871 51.1101 120.721 50.5006 120.387 50.0226C120.351 49.9705 120.225 49.8372 120.109 49.6625C120.029 49.5405 119.958 49.4029 119.927 49.2607C119.914 49.2042 120.028 49.2608 119.942 49.0947C119.531 48.3006 118.989 47.6743 118.383 47.3625C118.209 47.2734 118.27 47.2209 118.178 47.142C118.151 47.1209 118.109 47.0978 118.044 47.0719C117.74 46.9448 117.082 46.7665 116.719 46.7581C116.359 46.7491 116.711 46.9903 116.186 46.9214C113.889 46.6489 111.524 46.4999 109.142 46.5038C108.789 46.5058 109.079 46.5664 108.56 46.5759C107.03 46.6016 104.641 46.7446 102.862 46.8088C102.415 46.8234 101.981 46.8311 101.638 46.8247C100.287 46.8014 101.959 46.6087 100.942 46.6296C100.434 46.6412 99.927 46.8864 99.8012 46.9015C98.6411 47.0468 97.8139 47.0105 96.7677 47.1145C96.5477 47.1364 96.7689 47.2061 96.5834 47.2237C95.9636 47.2835 95.2906 47.2953 94.6887 47.3482C94.4162 47.3724 94.4683 47.4339 94.2232 47.4478C93.6327 47.4821 93.0971 47.4969 92.5154 47.4826C92.4619 47.4814 92.8133 47.3714 92.3709 47.4042C91.6562 47.4576 90.7657 47.4715 89.954 47.6047C89.7127 47.6446 89.7092 47.7945 89.1839 47.7376C89.0725 47.7259 89.198 47.5345 88.6015 47.7436C88.496 47.7787 87.5035 48.079 86.9825 47.9932C86.8453 47.9705 86.4987 47.856 86.208 47.9072C86.1687 47.9147 86.3352 47.9792 86.0937 48.0103C85.2395 48.119 84.3438 48.1998 83.4757 48.315C83.2425 48.346 83.5996 48.3924 83.2515 48.4362C82.2937 48.5568 81.0993 48.6652 80.1589 48.7457C79.8113 48.7753 80.0431 48.6799 80.017 48.6753C79.5991 48.6003 79.3813 48.7909 79.2482 48.8159C78.4189 48.9699 77.7812 48.9685 77.0126 49.0834C76.8017 49.1149 76.9613 49.1741 76.92 49.1862C76.4931 49.3077 76.8002 49.128 76.5224 49.1469C75.7419 49.1998 74.8808 49.3169 74.0976 49.4311C73.8101 49.4732 74.1452 49.5202 73.8881 49.5568C72.3646 49.7761 70.7797 49.9926 69.2865 50.1682C69.0056 50.2011 69.1709 50.1053 69.1102 50.0984C68.6917 50.0488 68.126 50.291 67.9929 50.3267C67.388 50.489 67.1395 50.4663 66.5984 50.566C65.1409 50.8355 63.4921 51.1222 61.8919 51.4122C60.5668 51.6521 59.3129 51.872 58.1746 52.0743C54.9108 52.6548 52.3736 53.0676 49.2753 53.6923C49.08 53.7317 49.2949 53.7842 49.127 53.8193C46.9343 54.2731 44.7755 54.672 42.5923 55.1596C42.413 55.1995 42.6902 55.2311 42.4031 55.2981C41.815 55.4359 41.0654 55.5914 40.4628 55.6931C40.1689 55.743 40.5433 55.5844 40.2477 55.6361C39.5584 55.7567 38.8248 55.9116 38.1295 56.0811C37.8325 56.1537 38.3024 56.1412 37.9146 56.2289C35.2788 56.8272 32.7014 57.4473 30.0103 57.9767C29.827 58.0127 29.6279 57.8722 29.2479 58.0006C29.2306 58.0571 29.2463 58.1148 29.2463 58.1708C27.8095 58.5307 26.376 58.8813 24.9352 59.2315C22.567 59.8071 20.2103 60.4243 17.8551 61.1188C17.6957 61.1659 17.9985 61.1769 17.6904 61.2686C15.9113 61.7994 14.2002 62.3696 12.3633 62.8842C12.1808 62.9358 12.2225 62.7408 11.6999 62.9455C11.6078 62.9812 10.8226 63.275 10.6306 63.3817C10.6048 63.3966 10.7744 63.4219 10.5218 63.5125C9.04445 64.0408 7.49241 64.5891 6.01966 65.1046C5.77822 65.1892 6.00151 65.012 5.82954 65.0715C4.62039 65.4903 3.35907 66.069 2.2087 66.4765C1.44399 66.7482 1.65495 66.4983 1.20426 66.5376C1.13424 66.5456 0.679393 66.7447 0.615914 66.6816C0.46617 66.5171 0.601039 66.2028 0.414347 66.0397C0.368661 66.0062 -0.222489 66.3327 0.0915015 66.0609C0.111969 66.0425 0.553377 65.8013 0.648009 65.7165C0.715628 65.6565 0.538659 65.6412 0.685885 65.5377C0.83712 65.4326 1.03014 65.4261 1.28669 65.2702C1.53031 65.12 1.37921 65.0779 1.90494 64.8427ZM139.809 68.6607C139.357 68.6586 139.341 68.9649 139.805 68.8096C139.828 68.8017 139.832 68.6606 139.809 68.6607ZM193.134 56.5313C192.527 56.5411 192.181 56.8233 192.609 56.8256C193.038 56.8276 193.319 56.5281 193.134 56.5313ZM199.068 54.9956C198.372 55.0585 198.367 55.4963 199.065 55.2374C199.106 55.2225 199.108 54.9919 199.068 54.9956ZM3.04134 65.7099C3.03256 65.7091 2.70104 65.8428 2.69104 65.8514C2.54946 66.0132 3.22155 65.7418 3.04134 65.7099ZM204.942 53.4329C204.714 53.431 204.136 53.644 204.411 53.6488C204.63 53.6531 205.222 53.4363 204.942 53.4329ZM121.738 59.5991C121.742 59.5915 121.761 59.3311 121.736 59.3343C121.653 59.347 121.657 59.7144 121.738 59.5991ZM214.951 50.8445C213.465 51.2239 212.48 51.12 214.102 50.7323C214.398 50.6613 213.497 51.0081 213.88 50.9395C214.579 50.8137 214.971 50.4814 215.683 50.4124C215.812 50.4 215.037 50.8235 214.948 50.8457C214.949 50.8453 214.95 50.8449 214.951 50.8445ZM139.493 68.3521C139.484 68.3499 139.12 68.41 139.113 68.4149C138.933 68.5428 139.665 68.4223 139.493 68.3521ZM117.634 46.1359C117.615 46.1165 116.788 45.9426 116.756 45.9501C116.298 46.017 117.963 46.3652 117.634 46.1359ZM163.288 62.9065C163.651 62.7263 164.12 62.6085 164.453 62.6562C164.069 62.7368 163.673 62.8253 163.288 62.9065Z" fill="#333333" fill-opacity="0.85"/>
</svg>
