<svg width="213" height="18" viewBox="0 0 213 18" fill="none" xmlns="http://www.w3.org/2000/svg">
<path opacity="0.7" d="M206.453 4.41094C206.38 4.4315 206.343 4.47261 206.343 4.53429C206.343 4.58568 206.385 4.66791 206.468 4.78098C207.113 5.59302 207.956 6.35367 208.997 7.06292C210.048 7.77217 211.187 8.38377 212.415 8.89772C212.592 8.96968 212.68 9.04163 212.68 9.11358C212.67 9.1547 212.644 9.19068 212.602 9.22151C212.571 9.24207 212.534 9.26263 212.493 9.28319C212.461 9.29347 212.435 9.30375 212.415 9.31402C212.186 9.41681 212.004 9.571 211.868 9.77658C211.796 9.89993 211.712 9.9616 211.619 9.9616C211.577 9.9616 211.525 9.94618 211.463 9.91534C210.328 9.30888 209.288 8.57907 208.341 7.72592C207.394 6.86248 206.655 5.95279 206.125 4.99684C206.062 4.88377 205.99 4.82724 205.906 4.82724C205.823 4.82724 205.75 4.87349 205.688 4.96601C204.949 5.98363 203.971 6.99611 202.754 8.00345C201.536 9.01079 200.293 9.83311 199.023 10.4704C198.93 10.5115 198.852 10.5372 198.789 10.5475C198.737 10.5475 198.701 10.5321 198.68 10.5012V10.4704C198.68 10.4087 198.753 10.3316 198.898 10.2391C199.689 9.74574 200.501 9.129 201.333 8.38891C202.176 7.63855 202.92 6.87276 203.565 6.09156C204.179 5.32063 204.595 4.58054 204.814 3.87129C204.855 3.71711 204.944 3.64001 205.079 3.64001C205.142 3.64001 205.188 3.64515 205.22 3.65543L206.421 4.02548C206.546 4.06659 206.635 4.12313 206.687 4.19508C206.739 4.25675 206.728 4.30815 206.655 4.34927C206.593 4.39038 206.525 4.41094 206.453 4.41094ZM209.402 11.9043C209.569 11.9043 209.699 11.8375 209.793 11.7039L209.98 11.4418C210.011 11.4007 210.058 11.339 210.12 11.2568C210.183 11.1642 210.235 11.0974 210.276 11.0563C210.328 11.0049 210.375 10.9792 210.417 10.9792C210.49 10.9792 210.672 11.0923 210.963 11.3184C211.255 11.5446 211.473 11.745 211.619 11.9198C211.66 11.9711 211.681 12.0277 211.681 12.0894C211.681 12.1613 211.65 12.223 211.587 12.2744C211.535 12.3155 211.447 12.3361 211.322 12.3361H206.421C206.317 12.3361 206.234 12.3669 206.172 12.4286C206.12 12.48 206.094 12.557 206.094 12.6598V16.6995C206.094 16.8023 206.12 16.8794 206.172 16.9308C206.234 16.9924 206.317 17.0233 206.421 17.0233H209.933C210.1 17.0233 210.23 16.9565 210.323 16.8228L210.526 16.5299C210.557 16.4888 210.609 16.422 210.682 16.3294C210.755 16.2267 210.812 16.1547 210.854 16.1136C210.906 16.0622 210.953 16.0365 210.994 16.0365C211.078 16.0365 211.275 16.165 211.587 16.422C211.9 16.6686 212.123 16.8794 212.259 17.0541C212.3 17.1055 212.321 17.162 212.321 17.2237C212.321 17.3059 212.29 17.3676 212.227 17.4087C212.175 17.4499 212.077 17.4704 211.931 17.4704H201.645C201.011 17.4807 200.324 17.5372 199.585 17.64H199.492C199.346 17.64 199.242 17.5732 199.179 17.4396L199.117 17.3162C199.086 17.2546 199.07 17.1929 199.07 17.1312C199.07 17.0695 199.096 17.0181 199.148 16.977C199.2 16.9462 199.273 16.9359 199.367 16.9462C199.72 16.977 200.256 17.0027 200.974 17.0233H204.751C204.855 17.0233 204.933 16.9924 204.985 16.9308C205.048 16.8794 205.079 16.8023 205.079 16.6995V12.6598C205.079 12.557 205.048 12.48 204.985 12.4286C204.933 12.3669 204.855 12.3361 204.751 12.3361H202.363C201.729 12.3463 201.042 12.4029 200.303 12.5057H200.21C200.064 12.5057 199.96 12.4388 199.897 12.3052L199.835 12.1973C199.804 12.1356 199.788 12.0739 199.788 12.0123C199.788 11.9506 199.814 11.9043 199.866 11.8735C199.918 11.8324 199.991 11.817 200.085 11.8272C200.438 11.8581 200.974 11.8838 201.692 11.9043H204.751C204.855 11.9043 204.933 11.8786 204.985 11.8272C205.048 11.7656 205.079 11.6833 205.079 11.5805V9.76116C205.079 9.65837 205.048 9.58128 204.985 9.52988C204.933 9.46821 204.855 9.43737 204.751 9.43737H204.033C203.544 9.44765 203.014 9.50418 202.441 9.60697H202.348C202.202 9.60697 202.098 9.54016 202.036 9.40653L201.973 9.28319C201.942 9.22151 201.926 9.15984 201.926 9.09816C201.926 9.03649 201.952 8.99024 202.004 8.9594C202.056 8.91828 202.129 8.90286 202.223 8.91314C202.577 8.94398 203.113 8.96968 203.83 8.99024H207.061C207.228 8.99024 207.358 8.92342 207.451 8.78979L207.608 8.58935C207.649 8.53796 207.691 8.48143 207.732 8.41975C207.784 8.35808 207.836 8.30154 207.888 8.25015C207.94 8.19875 207.987 8.17305 208.029 8.17305C208.112 8.17305 208.284 8.27584 208.544 8.48142C208.815 8.687 209.012 8.86689 209.137 9.02107C209.189 9.09303 209.215 9.14956 209.215 9.19068C209.215 9.25235 209.189 9.30888 209.137 9.36028C209.054 9.41167 208.955 9.43737 208.841 9.43737H206.421C206.317 9.43737 206.234 9.46821 206.172 9.52988C206.12 9.58128 206.094 9.65837 206.094 9.76116V11.5805C206.094 11.6833 206.12 11.7656 206.172 11.8272C206.234 11.8786 206.317 11.9043 206.421 11.9043H209.402ZM208.513 13.107C208.544 12.9528 208.627 12.8757 208.762 12.8757C208.815 12.8757 208.872 12.8911 208.934 12.922L209.309 13.107C209.454 13.1789 209.579 13.2303 209.683 13.2612C209.964 13.3639 210.105 13.4513 210.105 13.5233C210.105 13.5849 210.048 13.6312 209.933 13.662L209.871 13.6775C209.725 13.7186 209.611 13.8059 209.527 13.9396C208.872 14.9161 208.237 15.7127 207.623 16.3294C207.488 16.4836 207.379 16.5299 207.295 16.4682C207.264 16.4374 207.249 16.4014 207.249 16.3603C207.249 16.3089 207.275 16.2318 207.327 16.129L207.483 15.8361C207.691 15.4454 207.888 14.9983 208.076 14.4946C208.263 13.9807 208.409 13.5181 208.513 13.107ZM201.567 13.3537C201.453 13.1584 201.427 13.0453 201.489 13.0145C201.5 13.0042 201.521 12.999 201.552 12.999C201.614 12.999 201.697 13.035 201.802 13.107C202.426 13.5181 202.878 13.9499 203.159 14.4021C203.451 14.8441 203.596 15.2501 203.596 15.6202C203.596 15.8463 203.544 16.0314 203.44 16.1753C203.336 16.3192 203.206 16.3911 203.05 16.3911C202.956 16.3911 202.868 16.3654 202.785 16.314C202.67 16.2524 202.603 16.1341 202.582 15.9594C202.54 15.5585 202.426 15.1319 202.239 14.6797C202.051 14.2171 201.828 13.7751 201.567 13.3537Z" fill="black"/>
<path opacity="0.7" d="M183.393 9.39659C183.559 9.39659 183.689 9.32496 183.782 9.18168L183.922 8.98212C183.953 8.93095 183.995 8.86955 184.047 8.79791C184.109 8.71604 184.156 8.65463 184.187 8.6137C184.228 8.57276 184.27 8.55229 184.311 8.55229C184.394 8.55229 184.565 8.65975 184.824 8.87466C185.084 9.07934 185.27 9.26355 185.384 9.42729C185.436 9.49893 185.462 9.55522 185.462 9.59615C185.462 9.65756 185.436 9.71385 185.384 9.76501C185.301 9.81618 185.203 9.84177 185.089 9.84177H182.849C182.745 9.84177 182.662 9.87247 182.6 9.93388C182.548 9.98504 182.522 10.0618 182.522 10.1641V10.594C182.522 10.7782 182.616 10.901 182.802 10.9624C183.601 11.2182 184.187 11.5406 184.56 11.9295C184.933 12.3081 185.12 12.6714 185.12 13.0194C185.12 13.1831 185.079 13.3162 184.996 13.4185C184.913 13.5209 184.804 13.572 184.669 13.572C184.596 13.572 184.539 13.5618 184.498 13.5413C184.425 13.5209 184.368 13.4902 184.327 13.4492C184.285 13.3981 184.249 13.3264 184.218 13.2343C184.114 12.958 183.943 12.6663 183.704 12.3593C183.476 12.0421 183.217 11.7504 182.927 11.4843C182.854 11.4127 182.787 11.3769 182.724 11.3769C182.59 11.3769 182.522 11.4741 182.522 11.6685V13.572C182.543 14.6773 182.579 15.8081 182.631 16.9646V17.0567C182.631 17.1693 182.59 17.2665 182.507 17.3483C182.424 17.4302 182.315 17.4967 182.18 17.5479C182.045 17.6093 181.91 17.64 181.776 17.64C181.693 17.64 181.615 17.6093 181.542 17.5479C181.48 17.4865 181.449 17.4149 181.449 17.333C181.49 16.7701 181.521 16.2175 181.542 15.6751C181.573 15.1225 181.594 14.4266 181.604 13.5874V12.344C181.604 12.1598 181.553 12.0676 181.449 12.0676C181.376 12.0676 181.304 12.1342 181.231 12.2672C180.65 13.3111 179.924 14.2372 179.053 15.0457C178.981 15.1174 178.913 15.1634 178.851 15.1839C178.789 15.2043 178.747 15.1992 178.727 15.1685C178.706 15.1481 178.696 15.1225 178.696 15.0918C178.696 15.0304 178.737 14.9434 178.82 14.8308C179.774 13.5618 180.516 12.0216 181.044 10.2102C181.055 10.1795 181.06 10.1386 181.06 10.0874C181.06 9.92364 180.961 9.84177 180.764 9.84177H180.329C179.956 9.852 179.582 9.89805 179.209 9.97993C179.178 9.99016 179.136 9.99528 179.084 9.99528C178.96 9.99528 178.861 9.92876 178.789 9.79572L178.727 9.68826C178.696 9.62686 178.68 9.57057 178.68 9.5194C178.68 9.36589 178.784 9.29937 178.991 9.31984C179.344 9.35054 179.878 9.37613 180.593 9.39659H181.278C181.381 9.39659 181.459 9.37101 181.511 9.31984C181.573 9.25844 181.604 9.17656 181.604 9.07422V6.69484C181.604 5.67145 181.558 4.76063 181.464 3.96238V3.90098C181.464 3.73724 181.537 3.65537 181.682 3.65537C181.703 3.65537 181.755 3.6656 181.838 3.68607C182.242 3.80887 182.522 3.91121 182.678 3.99308C182.844 4.07496 182.927 4.14659 182.927 4.208C182.927 4.2694 182.88 4.32569 182.787 4.37686L182.74 4.40756C182.595 4.49966 182.522 4.62759 182.522 4.79133V9.07422C182.522 9.17656 182.548 9.25844 182.6 9.31984C182.662 9.37101 182.745 9.39659 182.849 9.39659H183.393ZM190.611 12.5742C190.756 12.5742 190.865 12.4821 190.938 12.2979L191.062 11.9755C191.083 11.9244 191.114 11.8476 191.156 11.7453C191.207 11.6327 191.249 11.5508 191.28 11.4997C191.321 11.4383 191.363 11.4076 191.404 11.4076C191.467 11.4076 191.601 11.469 191.809 11.5918C192.027 11.7146 192.224 11.8476 192.4 11.9909C192.587 12.1342 192.68 12.2416 192.68 12.3133C192.68 12.3951 192.649 12.4668 192.587 12.5282C192.535 12.5896 192.462 12.6305 192.369 12.651L190.72 13.0194C190.533 13.0603 190.44 13.178 190.44 13.3725V14.4777C190.471 15.583 190.502 16.4068 190.533 16.9492V17.0413C190.533 17.1539 190.492 17.2511 190.409 17.333C190.326 17.4149 190.212 17.4865 190.067 17.5479C189.932 17.6093 189.802 17.64 189.678 17.64C189.584 17.64 189.507 17.6093 189.444 17.5479C189.382 17.4865 189.351 17.4149 189.351 17.333C189.413 16.4733 189.455 15.6137 189.476 14.754V13.6641C189.476 13.5516 189.439 13.4697 189.367 13.4185C189.304 13.3674 189.221 13.352 189.118 13.3725L185.447 14.1861C185.416 14.1963 185.374 14.2014 185.322 14.2014C185.198 14.2014 185.11 14.1502 185.058 14.0479L185.042 13.9865C185.042 13.9353 185.068 13.8893 185.12 13.8483C185.172 13.8074 185.239 13.7818 185.322 13.7716L189.196 12.8966C189.382 12.8454 189.476 12.7277 189.476 12.5435V6.69484C189.476 5.67145 189.429 4.76063 189.336 3.96238V3.90098C189.336 3.727 189.413 3.64001 189.569 3.64001C189.6 3.64001 189.647 3.65025 189.709 3.67072C190.456 3.91633 190.829 4.10054 190.829 4.22335C190.829 4.27452 190.787 4.32569 190.704 4.37686L190.658 4.40756C190.513 4.49966 190.44 4.62759 190.44 4.79133V12.2519C190.44 12.4668 190.497 12.5742 190.611 12.5742ZM183.767 5.083C183.787 4.89879 183.865 4.80668 184 4.80668C184.062 4.80668 184.114 4.81691 184.156 4.83738L184.513 4.99089C184.617 5.04206 184.747 5.083 184.902 5.1137C185.182 5.2058 185.322 5.28768 185.322 5.35931C185.322 5.41048 185.27 5.46165 185.167 5.51282L185.12 5.52817C184.985 5.58958 184.881 5.6868 184.809 5.81984C184.321 6.77159 183.881 7.53914 183.487 8.12247C183.373 8.29645 183.274 8.35785 183.191 8.30668C183.119 8.26575 183.098 8.18387 183.129 8.06107L183.191 7.86151C183.316 7.44192 183.43 6.97627 183.533 6.46458C183.647 5.95288 183.725 5.49235 183.767 5.083ZM179.022 5.26721C178.981 5.1751 178.955 5.09835 178.944 5.03695C178.934 4.97554 178.939 4.93972 178.96 4.92949L179.007 4.91414C179.059 4.91414 179.141 4.96019 179.256 5.0523C179.753 5.45142 180.116 5.85566 180.344 6.26501C180.573 6.67437 180.687 7.04791 180.687 7.38563C180.687 7.62101 180.635 7.81034 180.531 7.95361C180.438 8.08665 180.319 8.15317 180.173 8.15317C180.101 8.15317 180.028 8.1327 179.956 8.09177C179.841 8.03036 179.774 7.90756 179.753 7.72335C179.701 6.99674 179.458 6.17803 179.022 5.26721ZM186.209 5.40537C186.033 5.26209 185.97 5.16487 186.022 5.1137C186.043 5.09323 186.079 5.083 186.131 5.083C186.183 5.083 186.256 5.09835 186.349 5.12905C187.116 5.3542 187.681 5.64586 188.044 6.00405C188.418 6.36224 188.604 6.71019 188.604 7.04791C188.604 7.21165 188.563 7.34469 188.48 7.44703C188.397 7.53914 188.288 7.58519 188.153 7.58519C188.081 7.58519 188.024 7.57496 187.982 7.55449C187.858 7.51355 187.77 7.42145 187.718 7.27817C187.593 6.98139 187.391 6.66414 187.111 6.32642C186.831 5.9887 186.53 5.68168 186.209 5.40537ZM185.851 8.98212C185.675 8.83885 185.607 8.74674 185.649 8.7058C185.68 8.6751 185.721 8.65975 185.773 8.65975L185.976 8.69045C186.795 8.8849 187.396 9.16121 187.78 9.5194C188.164 9.86735 188.356 10.2102 188.356 10.5479C188.356 10.7117 188.314 10.8447 188.231 10.947C188.148 11.0391 188.039 11.0852 187.904 11.0852C187.842 11.0852 187.79 11.0801 187.749 11.0698C187.635 11.0391 187.541 10.9521 187.469 10.8089C187.324 10.5019 187.101 10.1846 186.8 9.85712C186.51 9.52963 186.193 9.23797 185.851 8.98212Z" fill="black"/>
<path opacity="0.8" d="M160.68 9.14001C160.68 9.47335 160.593 9.64001 160.418 9.64001H147.942C147.767 9.64001 147.68 9.47335 147.68 9.14001C147.68 8.80668 147.767 8.64001 147.942 8.64001H160.418C160.593 8.64001 160.68 8.80668 160.68 9.14001Z" fill="black"/>
<path opacity="0.8" d="M121.884 17.952C121.116 17.952 120.1 17.76 118.836 17.376C117.588 16.976 116.404 16.144 115.284 14.88C114.164 13.6 113.604 11.76 113.604 9.36C113.604 8 113.908 6.592 114.516 5.136C115.14 3.68 116.036 2.464 117.204 1.488C118.388 0.496 119.772 0 121.356 0C121.964 0 122.5 0.0639992 122.964 0.191998C123.444 0.319999 123.996 0.527999 124.62 0.815999C124.908 0.943999 125.156 1.008 125.364 1.008C125.62 1.008 125.892 0.912 126.18 0.719999C126.308 0.639999 126.412 0.599999 126.492 0.599999C126.668 0.599999 126.78 0.712 126.828 0.936L127.644 4.272L127.692 4.536C127.692 4.584 127.676 4.624 127.644 4.656C127.612 4.672 127.572 4.696 127.524 4.728C127.476 4.76 127.42 4.776 127.356 4.776C127.228 4.776 127.132 4.72 127.068 4.608C126.524 3.824 126.028 3.184 125.58 2.688C125.132 2.192 124.556 1.768 123.852 1.416C123.148 1.048 122.316 0.863999 121.356 0.863999C119.836 0.863999 118.66 1.432 117.828 2.568C116.996 3.704 116.436 4.928 116.148 6.24C115.876 7.536 115.74 8.576 115.74 9.36C115.74 11.536 116.164 13.2 117.012 14.352C117.86 15.488 118.756 16.232 119.7 16.584C120.644 16.92 121.412 17.088 122.004 17.088C123.06 17.088 123.868 16.848 124.428 16.368C125.004 15.888 125.38 15.32 125.556 14.664C125.732 14.008 125.82 13.456 125.82 13.008C125.82 12.88 125.804 12.672 125.772 12.384C125.74 12.128 125.668 11.904 125.556 11.712C125.46 11.52 125.236 11.352 124.884 11.208C124.548 11.064 124.052 10.992 123.396 10.992C123.316 10.992 123.26 10.968 123.228 10.92C123.212 10.856 123.204 10.768 123.204 10.656C123.204 10.432 123.268 10.32 123.396 10.32H129.684C129.812 10.32 129.876 10.432 129.876 10.656C129.876 10.88 129.812 10.992 129.684 10.992C129.124 10.992 128.652 11.12 128.268 11.376C127.884 11.632 127.66 11.992 127.596 12.456C127.564 12.68 127.548 13.056 127.548 13.584C127.548 14.528 127.564 15.448 127.596 16.344V16.464C127.596 16.72 127.54 16.848 127.428 16.848H127.212C126.828 16.848 126.46 16.896 126.108 16.992C125.756 17.072 125.284 17.2 124.692 17.376C124.1 17.568 123.596 17.712 123.18 17.808C122.78 17.904 122.348 17.952 121.884 17.952Z" fill="black"/>
<path opacity="0.8" d="M89.8875 17.64C89.7915 17.64 89.7435 17.52 89.7435 17.28C89.7435 17.072 89.7915 16.968 89.8875 16.968H90.2715C90.7835 16.968 91.2475 16.784 91.6635 16.416C92.0955 16.048 92.3115 15.592 92.3115 15.048V2.376C92.3115 1.832 92.1515 1.448 91.8315 1.224C91.5115 1 90.9915 0.888002 90.2715 0.888002H89.8875C89.7755 0.888002 89.7195 0.776003 89.7195 0.552003C89.7195 0.328003 89.7755 0.216003 89.8875 0.216003H93.7515C94.0075 0.216003 94.2075 0.320003 94.3515 0.528002L103.135 12.936C103.247 13.096 103.359 13.176 103.471 13.176C103.663 13.176 103.759 13.032 103.759 12.744V2.808C103.759 2.456 103.647 2.136 103.423 1.848C103.215 1.544 102.943 1.312 102.607 1.152C102.287 0.976003 101.975 0.888002 101.671 0.888002H101.311C101.231 0.888002 101.175 0.864002 101.143 0.816002C101.127 0.752002 101.119 0.664002 101.119 0.552003C101.119 0.328003 101.183 0.216003 101.311 0.216003H107.119C107.199 0.216003 107.247 0.248003 107.263 0.312002C107.295 0.360003 107.311 0.440002 107.311 0.552003C107.311 0.776003 107.247 0.888002 107.119 0.888002H106.735C106.223 0.888002 105.751 1.08 105.319 1.464C104.903 1.832 104.695 2.28 104.695 2.808V17.136C104.695 17.296 104.663 17.424 104.599 17.52C104.551 17.6 104.487 17.64 104.407 17.64C104.215 17.64 104.047 17.536 103.903 17.328L93.8955 3.048C93.7835 2.888 93.6715 2.808 93.5595 2.808C93.3675 2.808 93.2715 2.952 93.2715 3.24V15.048C93.2715 15.592 93.4955 16.048 93.9435 16.416C94.3915 16.784 94.8635 16.968 95.3595 16.968H95.7435C95.8555 16.968 95.9115 17.072 95.9115 17.28C95.9115 17.52 95.8555 17.64 95.7435 17.64H89.8875Z" fill="black"/>
<path opacity="0.8" d="M76.4186 17.64C76.3066 17.64 76.2506 17.528 76.2506 17.304C76.2506 17.08 76.3066 16.968 76.4186 16.968H76.8026C77.5226 16.968 78.0426 16.856 78.3626 16.632C78.6986 16.392 78.8666 16.008 78.8666 15.48V2.4C78.8666 1.84 78.6986 1.448 78.3626 1.224C78.0266 1 77.5066 0.888002 76.8026 0.888002H76.4186C76.3066 0.888002 76.2506 0.776003 76.2506 0.552003C76.2506 0.328003 76.3066 0.216003 76.4186 0.216003H83.2106C83.2906 0.216003 83.3386 0.248003 83.3546 0.312002C83.3866 0.360003 83.4026 0.440002 83.4026 0.552003C83.4026 0.776003 83.3386 0.888002 83.2106 0.888002H82.8506C82.0986 0.888002 81.5626 1 81.2426 1.224C80.9386 1.448 80.7866 1.84 80.7866 2.4V15.48C80.7866 16.04 80.9466 16.432 81.2666 16.656C81.5866 16.864 82.1146 16.968 82.8506 16.968H83.2106C83.2906 16.968 83.3386 17 83.3546 17.064C83.3866 17.112 83.4026 17.192 83.4026 17.304C83.4026 17.528 83.3386 17.64 83.2106 17.64H76.4186Z" fill="black"/>
<path opacity="0.8" d="M63.439 17.976C62.271 17.976 61.055 17.664 59.791 17.04C58.527 16.4 57.4629 15.432 56.5989 14.136C55.7349 12.84 55.3029 11.256 55.3029 9.384C55.3029 7.56 55.6869 5.936 56.4549 4.512C57.2229 3.088 58.207 1.984 59.407 1.2C60.607 0.4 61.831 0 63.079 0C63.607 0 64.079 0.0559998 64.495 0.167999C64.911 0.28 65.3909 0.432 65.9349 0.624C66.1429 0.704 66.3429 0.775999 66.5349 0.839999C66.7429 0.903999 66.911 0.936 67.039 0.936C67.359 0.936 67.687 0.839999 68.023 0.648C68.151 0.567999 68.2549 0.527999 68.3349 0.527999C68.4629 0.527999 68.5509 0.623999 68.5989 0.815999L69.415 4.176L69.4629 4.44V4.488C69.4469 4.6 69.399 4.672 69.319 4.704C69.239 4.736 69.1989 4.752 69.1989 4.752H69.1269C69.0309 4.752 68.9349 4.696 68.8389 4.584C68.7589 4.472 68.5029 4.072 68.0709 3.384C67.6389 2.696 66.999 2.112 66.151 1.632C65.319 1.152 64.351 0.912 63.247 0.912C61.647 0.912 60.4149 1.432 59.5509 2.472C58.7029 3.496 58.1429 4.608 57.8709 5.808C57.6149 7.008 57.4869 8.024 57.4869 8.856C57.4869 10.664 57.8069 12.168 58.4469 13.368C59.1029 14.568 59.9109 15.448 60.8709 16.008C61.8469 16.552 62.823 16.824 63.799 16.824C64.999 16.824 66.023 16.504 66.871 15.864C67.719 15.208 68.5269 14.312 69.2949 13.176C69.3749 13.08 69.447 13.032 69.511 13.032C69.575 13.032 69.655 13.072 69.7509 13.152C69.863 13.248 69.9189 13.336 69.9189 13.416C69.9189 13.448 69.903 13.496 69.871 13.56C68.255 16.504 66.111 17.976 63.439 17.976Z" fill="black"/>
<path opacity="0.8" d="M41.7621 17.64C41.6501 17.64 41.5941 17.528 41.5941 17.304C41.5941 17.08 41.6501 16.968 41.7621 16.968H42.1461C42.8661 16.968 43.3861 16.856 43.7061 16.632C44.0421 16.392 44.2101 16.008 44.2101 15.48V2.4C44.2101 1.84 44.0421 1.448 43.7061 1.224C43.3701 1 42.8501 0.888002 42.1461 0.888002H41.7621C41.6501 0.888002 41.5941 0.776003 41.5941 0.552003C41.5941 0.328003 41.6501 0.216003 41.7621 0.216003H48.5541C48.6341 0.216003 48.6821 0.248003 48.6981 0.312002C48.7301 0.360003 48.7461 0.440002 48.7461 0.552003C48.7461 0.776003 48.6821 0.888002 48.5541 0.888002H48.1941C47.4421 0.888002 46.9061 1 46.5861 1.224C46.2821 1.448 46.1301 1.84 46.1301 2.4V15.48C46.1301 16.04 46.2901 16.432 46.6101 16.656C46.9301 16.864 47.4581 16.968 48.1941 16.968H48.5541C48.6341 16.968 48.6821 17 48.6981 17.064C48.7301 17.112 48.7461 17.192 48.7461 17.304C48.7461 17.528 48.6821 17.64 48.5541 17.64H41.7621Z" fill="black"/>
<path opacity="0.8" d="M35.8386 16.968C35.9506 16.968 36.0066 17.072 36.0066 17.28C36.0066 17.52 35.9506 17.64 35.8386 17.64H32.0946C31.8226 17.64 31.6226 17.528 31.4946 17.304C30.9026 16.248 30.1426 14.936 29.2146 13.368C28.2866 11.784 27.5106 10.52 26.8866 9.57602C26.7746 9.36802 26.5906 9.26402 26.3346 9.26402L25.6626 9.28802H24.6066C24.4466 9.28802 24.3186 9.33602 24.2226 9.43202C24.1426 9.51202 24.1026 9.63202 24.1026 9.79202V15.456C24.1026 16.016 24.2706 16.408 24.6066 16.632C24.9586 16.856 25.4786 16.968 26.1666 16.968H26.5506C26.6626 16.968 26.7186 17.072 26.7186 17.28C26.7186 17.52 26.6626 17.64 26.5506 17.64H19.7346C19.6226 17.64 19.5666 17.528 19.5666 17.304C19.5666 17.08 19.6226 16.968 19.7346 16.968H20.1186C20.8386 16.968 21.3586 16.856 21.6786 16.632C22.0146 16.408 22.1826 16.016 22.1826 15.456V2.40002C22.1826 1.84002 22.0066 1.44802 21.6546 1.22402C21.3026 1.00002 20.7826 0.888018 20.0946 0.888018H19.7106C19.5986 0.888018 19.5426 0.776018 19.5426 0.552018V0.432018C19.5586 0.336018 19.5986 0.280017 19.6626 0.264017C19.7426 0.232018 19.8546 0.216019 19.9986 0.216019L25.2306 0.192017H27.4146C28.4386 0.208017 29.3826 0.400019 30.2466 0.768019C31.1266 1.12002 31.8306 1.64002 32.3586 2.32802C32.8866 3.00002 33.1506 3.78402 33.1506 4.68002C33.1506 5.65602 32.7906 6.48802 32.0706 7.17602C31.3666 7.84802 30.4386 8.36802 29.2866 8.73602C29.0626 8.81602 28.9506 8.93602 28.9506 9.09602C28.9506 9.17602 28.9906 9.27202 29.0706 9.38402C29.6786 10.28 30.4466 11.488 31.3746 13.008L33.0786 15.696C33.3506 16.08 33.6946 16.392 34.1106 16.632C34.5426 16.856 35.1186 16.968 35.8386 16.968ZM24.1026 8.11202C24.1026 8.27202 24.1426 8.40002 24.2226 8.49602C24.3186 8.57602 24.4466 8.61602 24.6066 8.61602H24.8226C27.1106 8.61602 28.7026 8.23202 29.5986 7.46402C30.4946 6.69602 30.9426 5.72802 30.9426 4.56002C30.9426 3.24802 30.4706 2.31202 29.5266 1.75202C28.5986 1.19202 27.4626 0.912018 26.1186 0.912018C25.5106 0.912018 25.0226 1.00802 24.6546 1.20002C24.2866 1.37602 24.1026 1.77602 24.1026 2.40002V8.11202Z" fill="black"/>
<path opacity="0.8" d="M7.8 0.216003C8.808 0.232003 9.744 0.432002 10.608 0.816002C11.488 1.184 12.192 1.712 12.72 2.4C13.264 3.088 13.536 3.896 13.536 4.824C13.536 6.552 12.944 7.752 11.76 8.424C10.592 9.08 9.096 9.472 7.272 9.6C7.064 9.616 6.608 9.624 5.904 9.624H5.04C4.88 9.624 4.752 9.672 4.656 9.768C4.576 9.848 4.536 9.968 4.536 10.128V15.456C4.536 16.016 4.696 16.408 5.016 16.632C5.336 16.856 5.864 16.968 6.6 16.968H6.984C7.096 16.968 7.152 17.072 7.152 17.28C7.152 17.52 7.096 17.64 6.984 17.64H0.168C0.056 17.64 0 17.528 0 17.304C0 17.08 0.056 16.968 0.168 16.968H0.552C1.24 16.968 1.752 16.856 2.088 16.632C2.44 16.408 2.616 16.016 2.616 15.456V2.4C2.616 1.856 2.448 1.472 2.112 1.248C1.776 1.008 1.256 0.888002 0.552 0.888002H0.168C0.056 0.888002 0 0.776003 0 0.552003C0 0.328003 0.056 0.216003 0.168 0.216003H7.8ZM6.408 8.928C8.2 8.912 9.464 8.528 10.2 7.776C10.936 7.024 11.304 6.008 11.304 4.728C11.304 3.096 10.768 2.048 9.696 1.584C8.64 1.12 7.576 0.888002 6.504 0.888002C5.192 0.888002 4.536 1.392 4.536 2.4V8.424C4.536 8.584 4.576 8.712 4.656 8.808C4.752 8.888 4.88 8.928 5.04 8.928H6.408Z" fill="black"/>
</svg>
