<svg width="141" height="23" viewBox="0 0 141 23" fill="none" xmlns="http://www.w3.org/2000/svg">
<path d="M129.866 6.81676C130.074 6.81676 130.236 6.72812 130.353 6.55084L130.45 6.41788C130.476 6.37989 130.515 6.3229 130.567 6.24693C130.632 6.15829 130.684 6.09497 130.723 6.05698C130.775 6.01899 130.826 6 130.878 6C130.969 6 131.151 6.10763 131.423 6.3229C131.709 6.53817 131.929 6.74078 132.085 6.93073C132.137 6.98138 132.163 7.04469 132.163 7.12067C132.163 7.20931 132.098 7.29795 131.968 7.38659L131.852 7.44358C131.735 7.50689 131.65 7.5702 131.599 7.63352C131.547 7.69683 131.521 7.78547 131.521 7.89944V9.30503C131.56 10.7106 131.599 11.7426 131.637 12.4011V12.4771C131.637 12.667 131.566 12.8063 131.423 12.895C131.294 12.9709 131.138 13.0406 130.956 13.1039C130.788 13.1546 130.645 13.1799 130.528 13.1799C130.45 13.1799 130.385 13.1356 130.333 13.0469C130.307 13.0089 130.294 12.952 130.294 12.876C130.294 12.8127 130.307 12.743 130.333 12.667C130.333 12.6164 130.34 12.5721 130.353 12.5341C130.353 12.4328 130.314 12.3505 130.236 12.2872C130.171 12.2238 130.074 12.1922 129.944 12.1922H126.81C126.68 12.1922 126.577 12.2302 126.499 12.3061C126.434 12.3695 126.401 12.4644 126.401 12.5911V17.9475C126.427 19.3151 126.473 20.7143 126.538 22.1453V22.2592C126.538 22.3985 126.486 22.5188 126.382 22.6201C126.278 22.7341 126.142 22.8227 125.973 22.886C125.805 22.962 125.629 23 125.448 23C125.331 23 125.227 22.962 125.136 22.886C125.045 22.8101 125 22.7214 125 22.6201C125.052 21.873 125.097 21.1512 125.136 20.4547C125.175 19.7456 125.201 18.8212 125.214 17.6816V9.98883C125.214 8.76052 125.156 7.65251 125.039 6.6648V6.58883C125.039 6.50019 125.058 6.43054 125.097 6.37989C125.149 6.31657 125.208 6.28492 125.273 6.28492C125.337 6.28492 125.409 6.30391 125.487 6.3419L126.246 6.70279C126.388 6.77877 126.557 6.81676 126.752 6.81676H129.866ZM135.355 12.1922C135.225 12.1922 135.122 12.2302 135.044 12.3061C134.979 12.3695 134.946 12.4644 134.946 12.5911V12.686C134.946 12.762 134.836 12.8507 134.616 12.952C134.395 13.0406 134.168 13.0849 133.934 13.0849C133.856 13.0849 133.792 13.0469 133.74 12.9709C133.688 12.895 133.662 12.8063 133.662 12.705C133.714 12.2112 133.753 11.578 133.779 10.8056V9.66592C133.779 8.66555 133.727 7.67784 133.623 6.70279V6.62682C133.623 6.43687 133.707 6.3419 133.876 6.3419C133.954 6.3419 134.019 6.35456 134.071 6.37989L134.81 6.70279C134.979 6.77877 135.148 6.81676 135.316 6.81676H138.567C138.775 6.81676 138.937 6.72812 139.054 6.55084L139.151 6.41788C139.19 6.37989 139.248 6.30391 139.326 6.18994C139.417 6.07598 139.501 6.01899 139.579 6.01899C139.67 6.01899 139.871 6.13296 140.182 6.36089C140.507 6.57616 140.753 6.77877 140.922 6.96871C140.974 7.03203 141 7.10168 141 7.17765C141 7.26629 140.942 7.3486 140.825 7.42458C140.786 7.44991 140.747 7.4689 140.708 7.48156C140.669 7.49423 140.637 7.50689 140.611 7.51955C140.377 7.59553 140.26 7.74115 140.26 7.95642V21.1955C140.26 21.702 140.163 22.0819 139.968 22.3352C139.774 22.5885 139.358 22.7657 138.723 22.867L138.606 22.886C138.437 22.886 138.307 22.7721 138.217 22.5441C138.152 22.3415 138.054 22.1959 137.925 22.1073C137.665 21.9426 137.263 21.8097 136.718 21.7084C136.458 21.6704 136.328 21.6007 136.328 21.4994C136.328 21.4361 136.426 21.4045 136.62 21.4045C136.841 21.4045 137.062 21.4108 137.282 21.4235C137.503 21.4361 137.697 21.4488 137.866 21.4615L138.586 21.4994C138.781 21.4994 138.904 21.4678 138.956 21.4045C139.021 21.3412 139.054 21.2272 139.054 21.0626V12.5911C139.054 12.4644 139.015 12.3695 138.937 12.3061C138.872 12.2302 138.775 12.1922 138.645 12.1922H135.355ZM129.944 9.21006C130.074 9.21006 130.171 9.1784 130.236 9.11508C130.314 9.03911 130.353 8.9378 130.353 8.81117V7.76648C130.353 7.63985 130.314 7.54488 130.236 7.48156C130.171 7.40559 130.074 7.3676 129.944 7.3676H126.81C126.68 7.3676 126.577 7.40559 126.499 7.48156C126.434 7.54488 126.401 7.63985 126.401 7.76648V8.81117C126.401 8.9378 126.434 9.03911 126.499 9.11508C126.577 9.1784 126.68 9.21006 126.81 9.21006H129.944ZM138.645 9.21006C138.775 9.21006 138.872 9.1784 138.937 9.11508C139.015 9.03911 139.054 8.9378 139.054 8.81117V7.76648C139.054 7.63985 139.015 7.54488 138.937 7.48156C138.872 7.40559 138.775 7.3676 138.645 7.3676H135.355C135.225 7.3676 135.122 7.40559 135.044 7.48156C134.979 7.54488 134.946 7.63985 134.946 7.76648V8.81117C134.946 8.9378 134.979 9.03911 135.044 9.11508C135.122 9.1784 135.225 9.21006 135.355 9.21006H138.645ZM126.81 9.7419C126.68 9.7419 126.577 9.77989 126.499 9.85587C126.434 9.91918 126.401 10.0142 126.401 10.1408V11.2425C126.401 11.3691 126.434 11.4704 126.499 11.5464C126.577 11.6097 126.68 11.6413 126.81 11.6413H129.944C130.074 11.6413 130.171 11.6097 130.236 11.5464C130.314 11.4704 130.353 11.3691 130.353 11.2425V10.1408C130.353 10.0142 130.314 9.91918 130.236 9.85587C130.171 9.77989 130.074 9.7419 129.944 9.7419H126.81ZM135.355 9.7419C135.225 9.7419 135.122 9.77989 135.044 9.85587C134.979 9.91918 134.946 10.0142 134.946 10.1408V11.2425C134.946 11.3691 134.979 11.4704 135.044 11.5464C135.122 11.6097 135.225 11.6413 135.355 11.6413H138.645C138.775 11.6413 138.872 11.6097 138.937 11.5464C139.015 11.4704 139.054 11.3691 139.054 11.2425V10.1408C139.054 10.0142 139.015 9.91918 138.937 9.85587C138.872 9.77989 138.775 9.7419 138.645 9.7419H135.355ZM130.8 19.448C130.528 19.448 130.392 19.562 130.392 19.7899C130.405 19.8786 130.411 19.9799 130.411 20.0939V20.2458C130.411 20.3978 130.359 20.5117 130.255 20.5877C130.152 20.6637 130.022 20.727 129.866 20.7777C129.71 20.8283 129.548 20.8536 129.38 20.8536C129.302 20.8536 129.23 20.8156 129.165 20.7397C129.114 20.6637 129.088 20.575 129.088 20.4737C129.14 19.9926 129.178 19.3847 129.204 18.6503V17.5296C129.204 16.4406 129.159 15.4972 129.068 14.6994V14.6235C129.068 14.4335 129.152 14.3385 129.321 14.3385C129.399 14.3385 129.464 14.3512 129.516 14.3765L130.217 14.6804C130.398 14.7564 130.567 14.7944 130.723 14.7944H134.401C134.596 14.7944 134.765 14.7121 134.908 14.5475L134.985 14.4525C135.024 14.4145 135.083 14.3449 135.161 14.2436C135.238 14.1423 135.316 14.0916 135.394 14.0916C135.485 14.0916 135.667 14.1929 135.939 14.3955C136.225 14.5855 136.439 14.7628 136.582 14.9274C136.646 15.016 136.679 15.0857 136.679 15.1363C136.679 15.2376 136.62 15.3199 136.504 15.3832L136.387 15.4402C136.166 15.5162 136.056 15.6618 136.056 15.8771V17.0927C136.095 18.2831 136.127 19.1821 136.153 19.7899V19.8849C136.153 20.0622 136.088 20.1888 135.959 20.2648C135.829 20.3534 135.68 20.4294 135.511 20.4927C135.342 20.5561 135.193 20.5877 135.063 20.5877C134.972 20.5877 134.901 20.5434 134.849 20.4547C134.81 20.3788 134.791 20.3091 134.791 20.2458C134.791 20.1952 134.804 20.1192 134.83 20.0179L134.869 19.8279C134.869 19.5747 134.732 19.448 134.46 19.448H130.8ZM130.8 15.3453C130.671 15.3453 130.567 15.3832 130.489 15.4592C130.424 15.5225 130.392 15.6175 130.392 15.7441V18.5173C130.392 18.6439 130.424 18.7453 130.489 18.8212C130.567 18.8845 130.671 18.9162 130.8 18.9162H134.46C134.59 18.9162 134.687 18.8845 134.752 18.8212C134.83 18.7453 134.869 18.6439 134.869 18.5173V15.7441C134.869 15.6175 134.83 15.5225 134.752 15.4592C134.687 15.3832 134.59 15.3453 134.46 15.3453H130.8Z" fill="black" fill-opacity="0.8"/>
<path d="M107.998 8.96855C108.196 8.96855 108.352 8.88865 108.463 8.72885L108.612 8.50759C108.662 8.44613 108.73 8.35394 108.817 8.23102C108.917 8.1081 109.003 8.04664 109.078 8.04664C109.177 8.04664 109.37 8.16341 109.655 8.39696C109.941 8.61822 110.146 8.82104 110.27 9.00542C110.332 9.09147 110.363 9.16522 110.363 9.22668C110.363 9.30043 110.326 9.36804 110.251 9.4295C110.165 9.49096 110.053 9.52169 109.916 9.52169H108.203C108.078 9.52169 107.979 9.55857 107.905 9.63232C107.842 9.69378 107.811 9.78597 107.811 9.90889V10.333L107.867 11.5683V11.679C107.867 11.8265 107.811 11.9371 107.7 12.0108C107.489 12.1706 107.209 12.2505 106.861 12.2505C106.775 12.2505 106.706 12.2137 106.657 12.1399C106.607 12.0662 106.582 11.9801 106.582 11.8818C106.619 11.5376 106.644 11.2119 106.657 10.9046L106.675 10.4436V9.90889C106.675 9.78597 106.638 9.69378 106.563 9.63232C106.501 9.55857 106.408 9.52169 106.284 9.52169H104.999C104.763 9.52169 104.626 9.63847 104.589 9.87202C104.49 10.4866 104.279 11.0521 103.956 11.5683C103.633 12.0846 103.13 12.5394 102.447 12.9328C102.224 13.068 102.081 13.0864 102.019 12.9881C102.006 12.9758 102 12.9512 102 12.9143C102 12.8406 102.068 12.7361 102.205 12.6009C102.751 12.0723 103.111 11.5069 103.285 10.9046C103.459 10.3022 103.546 9.62617 103.546 8.87635V7.86226C103.546 7.60412 103.54 7.40745 103.527 7.27223V7.23536C103.527 7.02639 103.614 6.92191 103.788 6.92191C103.863 6.92191 103.925 6.9342 103.974 6.95878L104.719 7.2538C104.893 7.32755 104.999 7.35828 105.036 7.34599C105.061 7.34599 105.08 7.33984 105.092 7.32755C105.638 7.18004 106.203 6.99566 106.787 6.7744C107.371 6.55315 107.873 6.31959 108.296 6.07375C108.42 6.02458 108.501 6 108.538 6C108.662 6 108.768 6.06146 108.854 6.18438C109.388 6.81128 109.655 7.19234 109.655 7.32755C109.655 7.41359 109.568 7.44432 109.395 7.41974L109.208 7.38286C109.159 7.37057 109.09 7.36443 109.003 7.36443C108.892 7.36443 108.799 7.37057 108.724 7.38286C107.594 7.59183 106.359 7.75163 105.017 7.86226C104.769 7.88684 104.645 8.01591 104.645 8.24946V8.58134C104.645 8.70427 104.676 8.8026 104.738 8.87635C104.813 8.93782 104.912 8.96855 105.036 8.96855H107.998ZM113.511 12.8406C113.71 12.8406 113.871 12.7668 113.995 12.6193C114.095 12.521 114.163 12.4288 114.2 12.3427C114.25 12.2567 114.256 12.2137 114.219 12.2137C114.182 12.226 114.126 12.2321 114.051 12.2321C113.989 12.2321 113.939 12.2014 113.902 12.1399C113.877 12.0662 113.865 11.9678 113.865 11.8449V9.90889C113.865 9.78597 113.828 9.69378 113.753 9.63232C113.691 9.55857 113.598 9.52169 113.474 9.52169H112.17C111.934 9.52169 111.791 9.63847 111.742 9.87202C111.493 10.9414 110.773 11.765 109.581 12.3427C109.482 12.3919 109.395 12.4165 109.32 12.4165C109.246 12.4165 109.19 12.3919 109.153 12.3427C109.14 12.3304 109.134 12.312 109.134 12.2874C109.134 12.2014 109.215 12.0969 109.376 11.974C109.935 11.5069 110.301 11.009 110.475 10.4805C110.661 9.95192 110.754 9.34346 110.754 8.6551V7.73319C110.754 7.51193 110.748 7.34599 110.736 7.23536V7.19848C110.736 7.08785 110.761 7.00795 110.81 6.95878C110.86 6.89732 110.922 6.86659 110.997 6.86659C111.071 6.86659 111.133 6.87889 111.183 6.90347L111.872 7.18004C111.971 7.22921 112.083 7.2538 112.207 7.2538C112.282 7.2538 112.338 7.24765 112.375 7.23536C112.921 7.10014 113.486 6.92805 114.07 6.71909C114.653 6.51012 115.163 6.28886 115.597 6.05531C115.672 6.01844 115.746 6 115.821 6C115.932 6 116.044 6.06146 116.156 6.18438C116.678 6.83586 116.938 7.22921 116.938 7.36443C116.938 7.4013 116.913 7.42589 116.864 7.43818C116.814 7.45047 116.752 7.45047 116.678 7.43818L116.51 7.4013C116.46 7.38901 116.392 7.38286 116.305 7.38286C116.193 7.38286 116.1 7.38901 116.026 7.4013C114.647 7.59797 113.393 7.72704 112.263 7.7885C112.002 7.8008 111.872 7.93601 111.872 8.19414V8.58134C111.872 8.70427 111.903 8.8026 111.965 8.87635C112.04 8.93782 112.139 8.96855 112.263 8.96855H115.467C115.666 8.96855 115.821 8.88865 115.932 8.72885L116.119 8.47072C116.168 8.40926 116.218 8.34165 116.268 8.2679C116.33 8.19414 116.392 8.12654 116.454 8.06508C116.516 8.00361 116.572 7.97289 116.622 7.97289C116.721 7.97289 116.926 8.10195 117.236 8.36009C117.547 8.60593 117.77 8.82719 117.907 9.02386C117.969 9.10991 118 9.17751 118 9.22668C118 9.30043 117.969 9.36804 117.907 9.4295C117.808 9.49096 117.69 9.52169 117.553 9.52169H115.411C115.287 9.52169 115.187 9.55857 115.113 9.63232C115.051 9.69378 115.02 9.78597 115.02 9.90889V11.6236C115.02 11.8449 114.951 11.9924 114.815 12.0662L114.796 12.1952C114.796 12.3427 114.852 12.4595 114.964 12.5456C115.423 12.902 115.653 13.1417 115.653 13.2646C115.653 13.3384 115.591 13.3937 115.467 13.4306C115.256 13.5043 115.15 13.6518 115.15 13.8731V15.6985C115.175 17.0383 115.218 18.3413 115.281 19.6074V19.6811C115.281 19.8655 115.212 20.0007 115.076 20.0868C114.939 20.1728 114.784 20.2466 114.61 20.308C114.436 20.3695 114.281 20.4002 114.144 20.4002C114.082 20.4002 114.033 20.3695 113.995 20.308C113.971 20.2343 113.958 20.1359 113.958 20.013C113.958 19.8901 113.921 19.7979 113.846 19.7364C113.784 19.6627 113.691 19.6258 113.567 19.6258H106.619C106.495 19.6258 106.396 19.6627 106.321 19.7364C106.259 19.7979 106.228 19.8901 106.228 20.013V20.2343C106.228 20.2957 106.123 20.3818 105.912 20.4924C105.7 20.5907 105.483 20.6399 105.26 20.6399C105.16 20.6399 105.08 20.603 105.017 20.5293C104.955 20.4555 104.924 20.3695 104.924 20.2711C104.986 19.5828 105.03 18.6609 105.055 17.5054V15.9382C105.055 14.7458 104.999 13.6641 104.887 12.6931V12.6193C104.887 12.4349 104.968 12.3427 105.129 12.3427C105.204 12.3427 105.266 12.355 105.315 12.3796L106.098 12.7299C106.272 12.8037 106.433 12.8406 106.582 12.8406H113.511ZM113.567 14.8872C113.691 14.8872 113.784 14.8565 113.846 14.795C113.921 14.7213 113.958 14.6229 113.958 14.5V13.7625C113.958 13.6396 113.921 13.5474 113.846 13.4859C113.784 13.4121 113.691 13.3753 113.567 13.3753H106.619C106.495 13.3753 106.396 13.4121 106.321 13.4859C106.259 13.5474 106.228 13.6396 106.228 13.7625V14.5C106.228 14.6229 106.259 14.7213 106.321 14.795C106.396 14.8565 106.495 14.8872 106.619 14.8872H113.567ZM113.567 16.9892C113.691 16.9892 113.784 16.9584 113.846 16.897C113.921 16.8232 113.958 16.7249 113.958 16.602V15.8275C113.958 15.7046 113.921 15.6124 113.846 15.551C113.784 15.4772 113.691 15.4403 113.567 15.4403H106.619C106.495 15.4403 106.396 15.4772 106.321 15.551C106.259 15.6124 106.228 15.7046 106.228 15.8275V16.602C106.228 16.7249 106.259 16.8232 106.321 16.897C106.396 16.9584 106.495 16.9892 106.619 16.9892H113.567ZM106.619 17.5423C106.495 17.5423 106.396 17.5792 106.321 17.6529C106.259 17.7144 106.228 17.8066 106.228 17.9295V18.7039C106.228 18.8268 106.259 18.9252 106.321 18.9989C106.396 19.0604 106.495 19.0911 106.619 19.0911H113.567C113.691 19.0911 113.784 19.0604 113.846 18.9989C113.921 18.9252 113.958 18.8268 113.958 18.7039V17.9295C113.958 17.8066 113.921 17.7144 113.846 17.6529C113.784 17.5792 113.691 17.5423 113.567 17.5423H106.619ZM107.7 20.1421C107.811 20.056 107.898 20.013 107.96 20.013C108.047 20.013 108.14 20.0622 108.24 20.1605L108.612 20.5477C108.687 20.6461 108.811 20.7444 108.985 20.8427C109.258 21.0394 109.395 21.1746 109.395 21.2484C109.395 21.3098 109.295 21.3406 109.097 21.3406H108.929C108.718 21.3406 108.556 21.3651 108.445 21.4143C107.662 21.7462 106.756 22.0474 105.725 22.3178C104.707 22.6005 103.695 22.8095 102.689 22.9447C102.64 22.957 102.577 22.9631 102.503 22.9631C102.391 22.9631 102.323 22.9262 102.298 22.8525V22.8156C102.298 22.7419 102.41 22.6681 102.633 22.5944C103.329 22.41 104.105 22.1334 104.962 21.7646C106.079 21.3098 106.992 20.769 107.7 20.1421ZM111.518 20.8796C111.282 20.8304 111.164 20.7567 111.164 20.6584C111.164 20.6092 111.201 20.5723 111.276 20.5477C111.35 20.5231 111.45 20.517 111.574 20.5293C112.965 20.6399 114.088 20.8059 114.945 21.0271C115.802 21.2484 116.411 21.4881 116.771 21.7462C117.131 22.0043 117.311 22.2502 117.311 22.4837C117.311 22.6312 117.243 22.7542 117.106 22.8525C116.969 22.9508 116.808 23 116.622 23C116.386 23 116.175 22.9324 115.988 22.7972C115.504 22.453 114.877 22.1088 114.107 21.7646C113.35 21.4328 112.487 21.1377 111.518 20.8796Z" fill="black" fill-opacity="0.8"/>
<path d="M91 12.5C91 12.8333 90.9127 13 90.738 13H78.262C78.0873 13 78 12.8333 78 12.5C78 12.1667 78.0873 12 78.262 12H90.738C90.9127 12 91 12.1667 91 12.5Z" fill="black" fill-opacity="0.8"/>
<path d="M66.8385 22.1332C66.9103 22.1332 66.9551 22.1848 66.9731 22.288C66.991 22.3706 67 22.4634 67 22.5666C67 22.8555 66.9462 23 66.8385 23H59.1938C59.122 23 59.0682 22.969 59.0323 22.9071C59.0144 22.8246 59.0054 22.7111 59.0054 22.5666C59.0054 22.4222 59.0144 22.319 59.0323 22.2571C59.0682 22.1745 59.122 22.1332 59.1938 22.1332C59.8757 22.1332 60.4679 22.0197 60.9704 21.7927C61.4729 21.5451 61.7241 21.1117 61.7241 20.4926C61.7241 20.245 61.6882 20.0076 61.6164 19.7806L60.2974 15.4159C60.1898 15.065 59.9744 14.8896 59.6514 14.8896H53.1911C52.8681 14.8896 52.6528 15.065 52.5451 15.4159L52.0875 16.8708L51.4953 18.852C51.3338 19.3679 51.253 19.8219 51.253 20.214C51.253 21.4935 52.1054 22.1332 53.8102 22.1332C53.882 22.1332 53.9269 22.1848 53.9448 22.288C53.9628 22.3706 53.9717 22.4634 53.9717 22.5666C53.9717 22.8555 53.9179 23 53.8102 23H47.1884C47.1166 23 47.0628 22.969 47.0269 22.9071C47.009 22.8246 47 22.7111 47 22.5666C47 22.4222 47.009 22.319 47.0269 22.2571C47.0628 22.1745 47.1166 22.1332 47.1884 22.1332C47.7088 22.1332 48.2382 21.9166 48.7766 21.4832C49.3149 21.0498 49.7546 20.3378 50.0956 19.3472L56.1521 0.866756C56.2598 0.557201 56.4482 0.35083 56.7174 0.247645L57.175 0.0928674C57.3185 0.0309558 57.4441 0 57.5518 0C57.6595 0 57.7313 0.0206368 57.7672 0.0619104C57.8569 0.123822 57.9107 0.196051 57.9287 0.2786L58.8439 3.3432C59.454 5.345 60.3692 8.37865 61.5895 12.4441C62.8277 16.5096 63.5545 18.852 63.7698 19.4711C64.3441 21.2459 65.367 22.1332 66.8385 22.1332ZM53.3257 12.9704C53.2898 13.0942 53.2719 13.1871 53.2719 13.249C53.2719 13.3934 53.3167 13.507 53.4065 13.5895C53.4962 13.672 53.6218 13.7133 53.7833 13.7133H59.1131C59.454 13.7133 59.6245 13.5482 59.6245 13.218L59.5707 12.9704L56.8789 4.05518C56.8071 3.76626 56.7174 3.54957 56.6097 3.40511C56.502 3.26065 56.4302 3.24002 56.3943 3.3432C55.3894 6.37685 54.3665 9.58591 53.3257 12.9704Z" fill="black" fill-opacity="0.95"/>
<path d="M39.7358 18.9144C39.8062 18.9144 39.865 18.9492 39.9119 19.0187C39.9706 19.0766 40 19.1288 40 19.1751C40 19.2215 39.9765 19.2736 39.9295 19.3315C39.0723 20.4323 38.1093 20.9826 37.0407 20.9826C36.2891 20.9826 35.5316 20.7335 34.7683 20.2353C34.6978 20.1774 34.6098 20.1484 34.5041 20.1484C34.4219 20.1484 34.3397 20.1716 34.2575 20.2179C33.3415 20.7393 32.2435 21 30.9634 21C29.6481 21 28.6558 20.7045 27.9864 20.1136C27.3288 19.5227 27 18.7812 27 17.889C27 17.0548 27.2701 16.348 27.8103 15.7687C28.3622 15.1778 29.1256 14.6159 30.1003 14.0829C30.2529 14.0134 30.3293 13.9091 30.3293 13.7701C30.3293 13.7353 30.3175 13.6832 30.294 13.6136C29.9417 12.7447 29.7656 11.9452 29.7656 11.2152C29.7656 10.6243 29.8889 10.0856 30.1355 9.59893C30.3821 9.10071 30.7344 8.71257 31.1924 8.43449C31.6504 8.14483 32.173 8 32.7602 8C33.3121 8 33.8112 8.09849 34.2575 8.29546C34.7037 8.49242 35.056 8.76471 35.3144 9.1123C35.5727 9.44831 35.7019 9.82487 35.7019 10.242C35.7019 10.8676 35.3907 11.4586 34.7683 12.0147C34.1576 12.5709 33.3297 13.1212 32.2846 13.6658C32.1436 13.7469 32.0732 13.8512 32.0732 13.9786C32.0732 14.0597 32.0849 14.1234 32.1084 14.1698L32.6369 15.2473C33.3415 16.6493 34.0696 17.75 34.8211 18.5495C34.8916 18.6306 34.9738 18.6711 35.0678 18.6711C35.1734 18.6711 35.2674 18.619 35.3496 18.5147C35.7841 17.9933 36.0953 17.4256 36.2832 16.8115C36.4828 16.1858 36.5827 15.6586 36.5827 15.2299C36.5827 14.3957 36.0366 13.9786 34.9444 13.9786C34.8505 13.9786 34.8035 13.8917 34.8035 13.7179C34.8035 13.5557 34.8505 13.4746 34.9444 13.4746H39.3835C39.4774 13.4746 39.5244 13.5557 39.5244 13.7179C39.5244 13.8917 39.4774 13.9786 39.3835 13.9786C38.3148 13.9786 37.6689 14.471 37.4458 15.4559C37.117 16.8694 36.5768 18.0339 35.8252 18.9492C35.7547 19.0303 35.7195 19.1172 35.7195 19.2099C35.7195 19.3026 35.7724 19.3837 35.878 19.4532C36.4417 19.8471 36.9643 20.0441 37.4458 20.0441C37.8568 20.0441 38.2091 19.963 38.5027 19.8008C38.808 19.627 39.1192 19.3837 39.4363 19.0709C39.542 18.9666 39.6418 18.9144 39.7358 18.9144ZM32.813 8.57353C32.2846 8.57353 31.8618 8.78209 31.5447 9.1992C31.2276 9.61631 31.0691 10.1087 31.0691 10.6765C31.0691 11.2558 31.2394 11.9857 31.5799 12.8663C31.6387 13.0285 31.7326 13.1096 31.8618 13.1096C31.944 13.1096 32.0145 13.0865 32.0732 13.0401C33.6468 12.1248 34.4336 11.1979 34.4336 10.2594C34.4336 9.74956 34.2986 9.34403 34.0285 9.04278C33.7584 8.72995 33.3532 8.57353 32.813 8.57353ZM31.6152 20.1484C32.3433 20.1484 32.9892 20.0325 33.5528 19.8008C33.6938 19.7429 33.7642 19.656 33.7642 19.5401C33.7642 19.4474 33.7231 19.3605 33.6409 19.2794C33.136 18.7696 32.6838 18.2077 32.2846 17.5936C31.897 16.9795 31.5917 16.4349 31.3686 15.9599C31.075 15.3458 30.893 14.975 30.8225 14.8476C30.752 14.7086 30.6581 14.639 30.5407 14.639C30.4584 14.639 30.388 14.6622 30.3293 14.7086C29.6716 15.1025 29.2078 15.5196 28.9377 15.9599C28.6793 16.3886 28.5501 16.9042 28.5501 17.5067C28.5501 17.9817 28.6734 18.422 28.9201 18.8275C29.1784 19.2215 29.5425 19.5401 30.0122 19.7834C30.4819 20.0267 31.0163 20.1484 31.6152 20.1484Z" fill="black" fill-opacity="0.95"/>
<path d="M19.854 20.8171C19.9513 20.9059 20 20.9857 20 21.0567C20 21.1277 19.9513 21.2076 19.854 21.2963C18.6083 22.4321 17.4015 23 16.2336 23C15.2798 23 14.5012 22.7515 13.8978 22.2546C13.3139 21.7577 12.7981 21.0301 12.3504 20.0718C12.2336 19.8233 12.0681 19.6991 11.854 19.6991C11.7372 19.6991 11.6496 19.7079 11.5912 19.7257C10.8905 19.8854 10.2092 19.9653 9.54745 19.9653C8.0292 19.9653 6.53041 19.5837 5.05109 18.8206C3.59124 18.0397 2.38443 16.8951 1.43066 15.3866C0.476886 13.8781 0 12.0768 0 9.98264C0 7.8885 0.476886 6.08719 1.43066 4.5787C2.38443 3.07022 3.59124 1.93441 5.05109 1.1713C6.53041 0.390432 8.0292 0 9.54745 0C11.0657 0 12.5547 0.390432 14.0146 1.1713C15.4745 1.93441 16.6813 3.07022 17.635 4.5787C18.5888 6.08719 19.0657 7.8885 19.0657 9.98264C19.0657 11.9171 18.6569 13.603 17.8394 15.0405C17.0414 16.478 15.9708 17.6227 14.6277 18.4745C14.4136 18.581 14.3066 18.723 14.3066 18.9005C14.3066 18.9892 14.3552 19.1046 14.4526 19.2465C15.5037 20.5775 16.6423 21.2431 17.8686 21.2431C18.1606 21.2431 18.4039 21.2076 18.5985 21.1366C18.8127 21.0656 19.0462 20.9502 19.2993 20.7905C19.4161 20.7195 19.5134 20.684 19.5912 20.684C19.6691 20.684 19.7567 20.7284 19.854 20.8171ZM4.14599 15.706C4.26277 15.9012 4.38929 15.9988 4.52555 15.9988C4.72019 15.9988 4.87591 15.8746 4.9927 15.6262C5.28467 15.1292 5.6837 14.7388 6.18978 14.4549C6.71533 14.1532 7.32847 14.0023 8.0292 14.0023C9.91727 14.0023 11.5912 15.0405 13.0511 17.1169C13.1679 17.3121 13.3236 17.4097 13.5182 17.4097C13.674 17.4097 13.8102 17.3476 13.927 17.2234C14.6861 16.4425 15.2798 15.4487 15.708 14.2419C16.1363 13.0174 16.3504 11.5976 16.3504 9.98264C16.3504 8.04823 16.0195 6.39776 15.3577 5.03125C14.7153 3.66474 13.8686 2.64429 12.8175 1.96991C11.7859 1.27778 10.6959 0.931713 9.54745 0.931713C8.37956 0.931713 7.27007 1.27778 6.21898 1.96991C5.18735 2.64429 4.34063 3.66474 3.67883 5.03125C3.0365 6.39776 2.71533 8.04823 2.71533 9.98264C2.71533 12.2365 3.19221 14.1443 4.14599 15.706ZM5.63504 16.8773C5.63504 17.179 5.81022 17.5073 6.16058 17.8623C6.53041 18.1995 7.01703 18.4923 7.62044 18.7407C8.22384 18.9715 8.86618 19.0868 9.54745 19.0868C10.1119 19.0868 10.6667 19.0069 11.2117 18.8472C11.4842 18.7585 11.6204 18.6076 11.6204 18.3947C11.6204 18.3414 11.601 18.2438 11.562 18.1019C11.017 16.8596 10.4526 16.0166 9.86861 15.5729C9.28467 15.1292 8.64234 14.9074 7.94161 14.9074C7.22141 14.9074 6.65693 15.1204 6.24818 15.5463C5.83942 15.9545 5.63504 16.3981 5.63504 16.8773Z" fill="black" fill-opacity="0.95"/>
</svg>
